M48
; DRILL file {KiCad 8.0.3} date 2024-06-22T11:56:47+0900
; FORMAT={-:-/ absolute / metric / decimal}
; #@! TF.CreationDate,2024-06-22T11:56:47+09:00
; #@! TF.GenerationSoftware,Kicad,Pcbnew,8.0.3
; #@! TF.FileFunction,Plated,1,2,PTH
FMAT,2
METRIC
; #@! TA.AperFunction,Plated,PTH,ViaDrill
T1C0.300
; #@! TA.AperFunction,Plated,PTH,ComponentDrill
T2C0.600
%
G90
G05
T1
X83.344Y-100.012
X85.0Y-117.0
X85.0Y-136.0
X85.0Y-153.25
X94.0Y-169.0
X95.0Y-102.5
X101.0Y-165.25
X101.675Y-105.6
X105.99Y-170.99
X110.0Y-169.5
X113.98Y-150.55
X114.0Y-117.0
X114.0Y-136.0
X115.8Y-139.18
X115.84Y-110.39
X115.84Y-119.61
X115.85Y-129.43
X118.0Y-112.0
X118.0Y-149.5
X123.5Y-162.0
X128.0Y-159.0
X133.0Y-117.0
X133.0Y-136.0
X134.65Y-155.88
X134.67Y-149.6
X134.86Y-110.29
X134.88Y-119.72
X134.99Y-139.08
X135.0Y-129.4
X138.0Y-112.0
X148.0Y-154.0
X152.0Y-117.0
X152.0Y-136.0
X153.66Y-129.42
X153.66Y-138.79
X153.72Y-119.67
X153.73Y-110.3
X153.81Y-147.61
X153.82Y-155.09
X157.0Y-112.0
X157.0Y-163.0
X161.95Y-157.14
X171.0Y-117.0
X171.0Y-136.0
X172.14Y-146.1
X172.97Y-129.43
X172.98Y-138.77
X173.14Y-110.4
X173.14Y-119.49
X176.0Y-131.0
X177.0Y-112.0
X179.6Y-140.8
X189.0Y-163.0
X190.0Y-117.0
X191.74Y-129.51
X191.75Y-138.88
X191.79Y-119.86
X191.8Y-110.3
X192.24Y-150.54
X195.0Y-112.0
X196.0Y-131.0
X199.05Y-140.65
X199.9Y-156.56
X206.0Y-160.5
X209.0Y-117.0
X209.0Y-140.0
X210.49Y-149.8
X210.77Y-129.43
X210.77Y-138.63
X211.0Y-110.26
X211.0Y-119.81
X214.0Y-112.0
X214.0Y-131.0
X215.35Y-149.85
X216.0Y-166.5
X218.075Y-140.725
X222.195Y-165.125
X223.194Y-166.066
X228.0Y-117.0
X228.0Y-140.0
X228.5Y-154.0
X229.68Y-110.32
X229.68Y-119.32
X229.87Y-129.4
X229.88Y-138.66
X230.46Y-150.24
X231.34Y-158.89
X231.78Y-162.59
X232.5Y-166.0
X233.0Y-112.0
X233.0Y-131.0
X233.91Y-155.09
X235.0Y-149.9
X236.35Y-140.125
X244.0Y-159.5
X244.47Y-171.78
X247.0Y-117.0
X247.0Y-140.0
X249.15Y-129.4
X249.165Y-138.855
X249.28Y-148.24
X249.57Y-110.33
X249.62Y-119.38
X252.0Y-131.0
X252.0Y-167.5
X253.0Y-112.0
X255.65Y-140.3
X256.78Y-158.68
X261.95Y-167.42
X264.5Y-158.53
X266.0Y-140.0
X268.17Y-138.69
X268.18Y-129.29
X268.58Y-110.38
X268.59Y-119.43
X269.02Y-148.81
X271.0Y-131.0
X272.0Y-112.0
X274.675Y-140.2
X275.5Y-169.75
X283.07Y-156.99
X286.0Y-140.0
X287.35Y-119.65
X287.37Y-110.34
X287.53Y-138.61
X287.54Y-129.26
X291.0Y-112.0
X301.41Y-150.82
X305.13Y-113.71
X305.13Y-119.7
X305.65Y-138.76
X305.66Y-129.29
X305.72Y-147.65
X307.22Y-135.91
X307.44Y-137.51
X307.79Y-160.61
X313.0Y-98.0
X314.0Y-114.0
X315.0Y-133.0
X316.0Y-167.0
X317.04Y-156.8
X317.14Y-111.32
X318.21Y-151.33
X321.33Y-150.035
X323.34Y-170.53
X324.18Y-153.14
X324.45Y-116.32
X324.885Y-104.93
X325.35Y-138.56
X325.61Y-112.85
X326.57Y-168.49
X326.57Y-171.26
X326.9Y-106.43
X327.0Y-120.0
X327.58Y-113.96
X327.73Y-154.14
X327.97Y-107.75
X328.24Y-159.8
X328.29Y-138.59
X328.63Y-117.735
X328.82Y-109.46
X328.827Y-122.37
X328.904Y-124.19
X329.0Y-126.44
X329.0Y-131.0
X329.34Y-166.56
X329.36Y-160.92
X329.78Y-114.82
X329.83Y-104.94
X330.32Y-140.67
X330.53Y-167.46
X331.0Y-166.0
X331.5Y-162.0
X331.7Y-127.13
X331.73Y-139.03
X331.907Y-163.387
X332.76Y-160.79
X333.02Y-157.77
X333.31Y-137.91
X333.42Y-148.39
X334.05Y-136.83
X334.81Y-171.36
X334.83Y-167.23
X335.0Y-128.95
X335.5Y-119.52
X335.56Y-116.1
X336.57Y-162.6
X337.95Y-158.21
X338.045Y-120.155
X338.69Y-172.39
X338.89Y-168.69
X340.0Y-98.0
X340.0Y-141.0
X340.0Y-159.49
X340.519Y-165.259
X341.319Y-164.22
X342.1Y-171.42
X342.14Y-116.27
X343.25Y-157.75
X343.35Y-160.269
X343.38Y-111.23
X343.63Y-162.89
X344.41Y-113.61
X344.66Y-161.8
X346.42Y-168.11
X346.5Y-153.0
X347.32Y-135.39
X347.52Y-164.19
X347.98Y-158.59
X348.56Y-133.52
X349.68Y-158.52
X350.88Y-122.47
X351.06Y-155.31
X351.07Y-152.161
X352.85Y-130.84
X354.0Y-98.0
X354.43Y-127.12
X355.0Y-117.0
X356.0Y-149.0
X356.0Y-158.0
T2
G00X323.04Y-97.875
M15
G01X323.04Y-97.275
M16
G05
G00X323.04Y-102.305
M15
G01X323.04Y-101.205
M16
G05
G00X331.68Y-97.875
M15
G01X331.68Y-97.275
M16
G05
G00X331.68Y-102.305
M15
G01X331.68Y-101.205
M16
G05
M30
