M48
; DRILL file {KiCad 8.0.3} date 2024-06-22T11:56:47+0900
; FORMAT={-:-/ absolute / metric / decimal}
; #@! TF.CreationDate,2024-06-22T11:56:47+09:00
; #@! TF.GenerationSoftware,Kicad,Pcbnew,8.0.3
; #@! TF.FileFunction,NonPlated,1,2,NPTH
FMAT,2
METRIC
; #@! TA.AperFunction,NonPlated,NPTH,ComponentDrill
T1C0.650
; #@! TA.AperFunction,NonPlated,NPTH,ComponentDrill
T2C1.800
; #@! TA.AperFunction,NonPlated,NPTH,ComponentDrill
T3C2.000
; #@! TA.AperFunction,NonPlated,NPTH,ComponentDrill
T4C3.000
; #@! TA.AperFunction,NonPlated,NPTH,ComponentDrill
T5C3.050
; #@! TA.AperFunction,NonPlated,NPTH,ComponentDrill
T6C4.000
%
G90
G05
T1
X324.47Y-101.225
X330.25Y-101.225
T2
X201.93Y-164.624
X212.09Y-164.624
T3
X92.392Y-126.524
X92.392Y-145.574
X92.42Y-107.46
X102.552Y-126.524
X102.552Y-145.574
X102.58Y-107.46
X109.061Y-164.624
X118.586Y-107.474
X118.586Y-126.524
X118.586Y-145.574
X119.221Y-164.624
X128.746Y-107.474
X128.746Y-126.524
X128.746Y-145.574
X137.636Y-107.474
X137.636Y-126.524
X137.636Y-145.574
X137.636Y-164.624
X147.796Y-107.474
X147.796Y-126.524
X147.796Y-145.574
X147.796Y-164.624
X156.686Y-107.474
X156.686Y-126.524
X156.686Y-145.574
X163.83Y-164.624
X166.846Y-107.474
X166.846Y-126.524
X166.846Y-145.574
X173.99Y-164.624
X175.736Y-107.474
X175.736Y-126.524
X175.736Y-145.574
X185.896Y-107.474
X185.896Y-126.524
X185.896Y-145.574
X194.786Y-107.474
X194.786Y-126.524
X194.786Y-145.574
X204.946Y-107.474
X204.946Y-126.524
X204.946Y-145.574
X213.836Y-107.474
X213.836Y-126.524
X213.836Y-145.574
X223.996Y-107.474
X223.996Y-126.524
X223.996Y-145.574
X232.886Y-107.474
X232.886Y-126.524
X232.886Y-145.574
X240.03Y-164.624
X243.046Y-107.474
X243.046Y-126.524
X243.046Y-145.574
X250.19Y-164.624
X251.936Y-107.474
X251.936Y-126.524
X251.936Y-145.574
X262.096Y-107.474
X262.096Y-126.524
X262.096Y-145.574
X266.224Y-164.624
X270.986Y-107.474
X270.986Y-126.524
X270.986Y-145.574
X276.384Y-164.624
X281.146Y-107.474
X281.146Y-126.524
X281.146Y-145.574
X290.036Y-107.474
X290.036Y-126.524
X290.036Y-145.574
X290.036Y-164.624
X300.196Y-107.474
X300.196Y-126.524
X300.196Y-145.574
X300.196Y-164.624
X309.086Y-107.474
X309.086Y-126.524
X309.086Y-145.574
X313.849Y-164.624
X319.246Y-107.474
X319.246Y-126.524
X319.246Y-145.574
X324.009Y-164.624
X335.28Y-107.474
X335.28Y-126.524
X335.28Y-145.574
X345.44Y-107.474
X345.44Y-126.524
X345.44Y-145.574
T4
X93.662Y-123.984
X93.662Y-143.034
X93.69Y-104.92
X100.012Y-121.444
X100.012Y-140.494
X100.04Y-102.38
X110.331Y-162.084
X116.681Y-159.544
X119.856Y-104.934
X119.856Y-123.984
X119.856Y-143.034
X126.206Y-102.394
X126.206Y-121.444
X126.206Y-140.494
X138.906Y-104.934
X138.906Y-123.984
X138.906Y-143.034
X138.906Y-162.084
X145.256Y-102.394
X145.256Y-121.444
X145.256Y-140.494
X145.256Y-159.544
X157.956Y-104.934
X157.956Y-123.984
X157.956Y-143.034
X164.306Y-102.394
X164.306Y-121.444
X164.306Y-140.494
X165.1Y-162.084
X171.45Y-159.544
X177.006Y-104.934
X177.006Y-123.984
X177.006Y-143.034
X183.356Y-102.394
X183.356Y-121.444
X183.356Y-140.494
X196.056Y-104.934
X196.056Y-123.984
X196.056Y-143.034
X202.406Y-102.394
X202.406Y-121.444
X202.406Y-140.494
X203.2Y-162.084
X209.55Y-159.544
X215.106Y-104.934
X215.106Y-123.984
X215.106Y-143.034
X221.456Y-102.394
X221.456Y-121.444
X221.456Y-140.494
X234.156Y-104.934
X234.156Y-123.984
X234.156Y-143.034
X240.506Y-102.394
X240.506Y-121.444
X240.506Y-140.494
X241.3Y-162.084
X247.65Y-159.544
X253.206Y-104.934
X253.206Y-123.984
X253.206Y-143.034
X259.556Y-102.394
X259.556Y-121.444
X259.556Y-140.494
X267.494Y-162.084
X272.256Y-104.934
X272.256Y-123.984
X272.256Y-143.034
X273.844Y-159.544
X278.606Y-102.394
X278.606Y-121.444
X278.606Y-140.494
X291.306Y-104.934
X291.306Y-123.984
X291.306Y-143.034
X291.306Y-162.084
X297.656Y-102.394
X297.656Y-121.444
X297.656Y-140.494
X297.656Y-159.544
X310.356Y-104.934
X310.356Y-123.984
X310.356Y-143.034
X315.119Y-162.084
X316.706Y-102.394
X316.706Y-121.444
X316.706Y-140.494
X321.469Y-159.544
X336.55Y-104.934
X336.55Y-123.984
X336.55Y-143.034
X342.9Y-102.394
X342.9Y-121.444
X342.9Y-140.494
T5
X195.11Y-157.624
X218.91Y-157.624
T6
X97.472Y-126.524
X97.472Y-145.574
X97.5Y-107.46
X114.141Y-164.624
X123.666Y-107.474
X123.666Y-126.524
X123.666Y-145.574
X142.716Y-107.474
X142.716Y-126.524
X142.716Y-145.574
X142.716Y-164.624
X161.766Y-107.474
X161.766Y-126.524
X161.766Y-145.574
X168.91Y-164.624
X180.816Y-107.474
X180.816Y-126.524
X180.816Y-145.574
X195.11Y-172.864
X199.866Y-107.474
X199.866Y-126.524
X199.866Y-145.574
X207.01Y-164.624
X218.91Y-172.864
X218.916Y-107.474
X218.916Y-126.524
X218.916Y-145.574
X237.966Y-107.474
X237.966Y-126.524
X237.966Y-145.574
X245.11Y-164.624
X257.016Y-107.474
X257.016Y-126.524
X257.016Y-145.574
X271.304Y-164.624
X276.066Y-107.474
X276.066Y-126.524
X276.066Y-145.574
X295.116Y-107.474
X295.116Y-126.524
X295.116Y-145.574
X295.116Y-164.624
X314.166Y-107.474
X314.166Y-126.524
X314.166Y-145.574
X318.929Y-164.624
X340.36Y-107.474
X340.36Y-126.524
X340.36Y-145.574
M30
