%TF.GenerationSoftware,KiCad,Pcbnew,8.0.3*%
%TF.CreationDate,2024-06-22T11:54:46+09:00*%
%TF.ProjectId,Sherie,53686572-6965-42e6-9b69-6361645f7063,1.0*%
%TF.SameCoordinates,Original*%
%TF.FileFunction,Legend,Top*%
%TF.FilePolarity,Positive*%
%FSLAX46Y46*%
G04 Gerber Fmt 4.6, Leading zero omitted, Abs format (unit mm)*
G04 Created by KiCad (PCBNEW 8.0.3) date 2024-06-22 11:54:46*
%MOMM*%
%LPD*%
G01*
G04 APERTURE LIST*
%ADD10C,0.100000*%
%ADD11C,0.200000*%
%ADD12C,0.150000*%
%ADD13C,2.000000*%
%ADD14C,4.000000*%
G04 APERTURE END LIST*
D10*
X346256265Y-175324800D02*
X346399122Y-175372419D01*
X346399122Y-175372419D02*
X346637217Y-175372419D01*
X346637217Y-175372419D02*
X346732455Y-175324800D01*
X346732455Y-175324800D02*
X346780074Y-175277180D01*
X346780074Y-175277180D02*
X346827693Y-175181942D01*
X346827693Y-175181942D02*
X346827693Y-175086704D01*
X346827693Y-175086704D02*
X346780074Y-174991466D01*
X346780074Y-174991466D02*
X346732455Y-174943847D01*
X346732455Y-174943847D02*
X346637217Y-174896228D01*
X346637217Y-174896228D02*
X346446741Y-174848609D01*
X346446741Y-174848609D02*
X346351503Y-174800990D01*
X346351503Y-174800990D02*
X346303884Y-174753371D01*
X346303884Y-174753371D02*
X346256265Y-174658133D01*
X346256265Y-174658133D02*
X346256265Y-174562895D01*
X346256265Y-174562895D02*
X346303884Y-174467657D01*
X346303884Y-174467657D02*
X346351503Y-174420038D01*
X346351503Y-174420038D02*
X346446741Y-174372419D01*
X346446741Y-174372419D02*
X346684836Y-174372419D01*
X346684836Y-174372419D02*
X346827693Y-174420038D01*
X347256265Y-175372419D02*
X347256265Y-174372419D01*
X347684836Y-175372419D02*
X347684836Y-174848609D01*
X347684836Y-174848609D02*
X347637217Y-174753371D01*
X347637217Y-174753371D02*
X347541979Y-174705752D01*
X347541979Y-174705752D02*
X347399122Y-174705752D01*
X347399122Y-174705752D02*
X347303884Y-174753371D01*
X347303884Y-174753371D02*
X347256265Y-174800990D01*
X348541979Y-175324800D02*
X348446741Y-175372419D01*
X348446741Y-175372419D02*
X348256265Y-175372419D01*
X348256265Y-175372419D02*
X348161027Y-175324800D01*
X348161027Y-175324800D02*
X348113408Y-175229561D01*
X348113408Y-175229561D02*
X348113408Y-174848609D01*
X348113408Y-174848609D02*
X348161027Y-174753371D01*
X348161027Y-174753371D02*
X348256265Y-174705752D01*
X348256265Y-174705752D02*
X348446741Y-174705752D01*
X348446741Y-174705752D02*
X348541979Y-174753371D01*
X348541979Y-174753371D02*
X348589598Y-174848609D01*
X348589598Y-174848609D02*
X348589598Y-174943847D01*
X348589598Y-174943847D02*
X348113408Y-175039085D01*
X349018170Y-175372419D02*
X349018170Y-174705752D01*
X349018170Y-174896228D02*
X349065789Y-174800990D01*
X349065789Y-174800990D02*
X349113408Y-174753371D01*
X349113408Y-174753371D02*
X349208646Y-174705752D01*
X349208646Y-174705752D02*
X349303884Y-174705752D01*
X349637218Y-175372419D02*
X349637218Y-174705752D01*
X349637218Y-174372419D02*
X349589599Y-174420038D01*
X349589599Y-174420038D02*
X349637218Y-174467657D01*
X349637218Y-174467657D02*
X349684837Y-174420038D01*
X349684837Y-174420038D02*
X349637218Y-174372419D01*
X349637218Y-174372419D02*
X349637218Y-174467657D01*
X350494360Y-175324800D02*
X350399122Y-175372419D01*
X350399122Y-175372419D02*
X350208646Y-175372419D01*
X350208646Y-175372419D02*
X350113408Y-175324800D01*
X350113408Y-175324800D02*
X350065789Y-175229561D01*
X350065789Y-175229561D02*
X350065789Y-174848609D01*
X350065789Y-174848609D02*
X350113408Y-174753371D01*
X350113408Y-174753371D02*
X350208646Y-174705752D01*
X350208646Y-174705752D02*
X350399122Y-174705752D01*
X350399122Y-174705752D02*
X350494360Y-174753371D01*
X350494360Y-174753371D02*
X350541979Y-174848609D01*
X350541979Y-174848609D02*
X350541979Y-174943847D01*
X350541979Y-174943847D02*
X350065789Y-175039085D01*
X351637218Y-174705752D02*
X351875313Y-175372419D01*
X351875313Y-175372419D02*
X352113408Y-174705752D01*
X353018170Y-175372419D02*
X352446742Y-175372419D01*
X352732456Y-175372419D02*
X352732456Y-174372419D01*
X352732456Y-174372419D02*
X352637218Y-174515276D01*
X352637218Y-174515276D02*
X352541980Y-174610514D01*
X352541980Y-174610514D02*
X352446742Y-174658133D01*
X353446742Y-175277180D02*
X353494361Y-175324800D01*
X353494361Y-175324800D02*
X353446742Y-175372419D01*
X353446742Y-175372419D02*
X353399123Y-175324800D01*
X353399123Y-175324800D02*
X353446742Y-175277180D01*
X353446742Y-175277180D02*
X353446742Y-175372419D01*
X354113408Y-174372419D02*
X354208646Y-174372419D01*
X354208646Y-174372419D02*
X354303884Y-174420038D01*
X354303884Y-174420038D02*
X354351503Y-174467657D01*
X354351503Y-174467657D02*
X354399122Y-174562895D01*
X354399122Y-174562895D02*
X354446741Y-174753371D01*
X354446741Y-174753371D02*
X354446741Y-174991466D01*
X354446741Y-174991466D02*
X354399122Y-175181942D01*
X354399122Y-175181942D02*
X354351503Y-175277180D01*
X354351503Y-175277180D02*
X354303884Y-175324800D01*
X354303884Y-175324800D02*
X354208646Y-175372419D01*
X354208646Y-175372419D02*
X354113408Y-175372419D01*
X354113408Y-175372419D02*
X354018170Y-175324800D01*
X354018170Y-175324800D02*
X353970551Y-175277180D01*
X353970551Y-175277180D02*
X353922932Y-175181942D01*
X353922932Y-175181942D02*
X353875313Y-174991466D01*
X353875313Y-174991466D02*
X353875313Y-174753371D01*
X353875313Y-174753371D02*
X353922932Y-174562895D01*
X353922932Y-174562895D02*
X353970551Y-174467657D01*
X353970551Y-174467657D02*
X354018170Y-174420038D01*
X354018170Y-174420038D02*
X354113408Y-174372419D01*
X324778884Y-98972419D02*
X324778884Y-97972419D01*
X324778884Y-97972419D02*
X325016979Y-97972419D01*
X325016979Y-97972419D02*
X325159836Y-98020038D01*
X325159836Y-98020038D02*
X325255074Y-98115276D01*
X325255074Y-98115276D02*
X325302693Y-98210514D01*
X325302693Y-98210514D02*
X325350312Y-98400990D01*
X325350312Y-98400990D02*
X325350312Y-98543847D01*
X325350312Y-98543847D02*
X325302693Y-98734323D01*
X325302693Y-98734323D02*
X325255074Y-98829561D01*
X325255074Y-98829561D02*
X325159836Y-98924800D01*
X325159836Y-98924800D02*
X325016979Y-98972419D01*
X325016979Y-98972419D02*
X324778884Y-98972419D01*
X326159836Y-98924800D02*
X326064598Y-98972419D01*
X326064598Y-98972419D02*
X325874122Y-98972419D01*
X325874122Y-98972419D02*
X325778884Y-98924800D01*
X325778884Y-98924800D02*
X325731265Y-98829561D01*
X325731265Y-98829561D02*
X325731265Y-98448609D01*
X325731265Y-98448609D02*
X325778884Y-98353371D01*
X325778884Y-98353371D02*
X325874122Y-98305752D01*
X325874122Y-98305752D02*
X326064598Y-98305752D01*
X326064598Y-98305752D02*
X326159836Y-98353371D01*
X326159836Y-98353371D02*
X326207455Y-98448609D01*
X326207455Y-98448609D02*
X326207455Y-98543847D01*
X326207455Y-98543847D02*
X325731265Y-98639085D01*
X327064598Y-98972419D02*
X327064598Y-98448609D01*
X327064598Y-98448609D02*
X327016979Y-98353371D01*
X327016979Y-98353371D02*
X326921741Y-98305752D01*
X326921741Y-98305752D02*
X326731265Y-98305752D01*
X326731265Y-98305752D02*
X326636027Y-98353371D01*
X327064598Y-98924800D02*
X326969360Y-98972419D01*
X326969360Y-98972419D02*
X326731265Y-98972419D01*
X326731265Y-98972419D02*
X326636027Y-98924800D01*
X326636027Y-98924800D02*
X326588408Y-98829561D01*
X326588408Y-98829561D02*
X326588408Y-98734323D01*
X326588408Y-98734323D02*
X326636027Y-98639085D01*
X326636027Y-98639085D02*
X326731265Y-98591466D01*
X326731265Y-98591466D02*
X326969360Y-98591466D01*
X326969360Y-98591466D02*
X327064598Y-98543847D01*
X327540789Y-98972419D02*
X327540789Y-98305752D01*
X327540789Y-98496228D02*
X327588408Y-98400990D01*
X327588408Y-98400990D02*
X327636027Y-98353371D01*
X327636027Y-98353371D02*
X327731265Y-98305752D01*
X327731265Y-98305752D02*
X327826503Y-98305752D01*
X328159837Y-98877180D02*
X328207456Y-98924800D01*
X328207456Y-98924800D02*
X328159837Y-98972419D01*
X328159837Y-98972419D02*
X328112218Y-98924800D01*
X328112218Y-98924800D02*
X328159837Y-98877180D01*
X328159837Y-98877180D02*
X328159837Y-98972419D01*
X328636027Y-98877180D02*
X328683646Y-98924800D01*
X328683646Y-98924800D02*
X328636027Y-98972419D01*
X328636027Y-98972419D02*
X328588408Y-98924800D01*
X328588408Y-98924800D02*
X328636027Y-98877180D01*
X328636027Y-98877180D02*
X328636027Y-98972419D01*
X329112217Y-98877180D02*
X329159836Y-98924800D01*
X329159836Y-98924800D02*
X329112217Y-98972419D01*
X329112217Y-98972419D02*
X329064598Y-98924800D01*
X329064598Y-98924800D02*
X329112217Y-98877180D01*
X329112217Y-98877180D02*
X329112217Y-98972419D01*
D11*
X324194673Y-96592219D02*
X324194673Y-95592219D01*
X324194673Y-95592219D02*
X324432768Y-95592219D01*
X324432768Y-95592219D02*
X324575625Y-95639838D01*
X324575625Y-95639838D02*
X324670863Y-95735076D01*
X324670863Y-95735076D02*
X324718482Y-95830314D01*
X324718482Y-95830314D02*
X324766101Y-96020790D01*
X324766101Y-96020790D02*
X324766101Y-96163647D01*
X324766101Y-96163647D02*
X324718482Y-96354123D01*
X324718482Y-96354123D02*
X324670863Y-96449361D01*
X324670863Y-96449361D02*
X324575625Y-96544600D01*
X324575625Y-96544600D02*
X324432768Y-96592219D01*
X324432768Y-96592219D02*
X324194673Y-96592219D01*
X325575625Y-96544600D02*
X325480387Y-96592219D01*
X325480387Y-96592219D02*
X325289911Y-96592219D01*
X325289911Y-96592219D02*
X325194673Y-96544600D01*
X325194673Y-96544600D02*
X325147054Y-96449361D01*
X325147054Y-96449361D02*
X325147054Y-96068409D01*
X325147054Y-96068409D02*
X325194673Y-95973171D01*
X325194673Y-95973171D02*
X325289911Y-95925552D01*
X325289911Y-95925552D02*
X325480387Y-95925552D01*
X325480387Y-95925552D02*
X325575625Y-95973171D01*
X325575625Y-95973171D02*
X325623244Y-96068409D01*
X325623244Y-96068409D02*
X325623244Y-96163647D01*
X325623244Y-96163647D02*
X325147054Y-96258885D01*
X326480387Y-96592219D02*
X326480387Y-96068409D01*
X326480387Y-96068409D02*
X326432768Y-95973171D01*
X326432768Y-95973171D02*
X326337530Y-95925552D01*
X326337530Y-95925552D02*
X326147054Y-95925552D01*
X326147054Y-95925552D02*
X326051816Y-95973171D01*
X326480387Y-96544600D02*
X326385149Y-96592219D01*
X326385149Y-96592219D02*
X326147054Y-96592219D01*
X326147054Y-96592219D02*
X326051816Y-96544600D01*
X326051816Y-96544600D02*
X326004197Y-96449361D01*
X326004197Y-96449361D02*
X326004197Y-96354123D01*
X326004197Y-96354123D02*
X326051816Y-96258885D01*
X326051816Y-96258885D02*
X326147054Y-96211266D01*
X326147054Y-96211266D02*
X326385149Y-96211266D01*
X326385149Y-96211266D02*
X326480387Y-96163647D01*
X326956578Y-96592219D02*
X326956578Y-95925552D01*
X326956578Y-96116028D02*
X327004197Y-96020790D01*
X327004197Y-96020790D02*
X327051816Y-95973171D01*
X327051816Y-95973171D02*
X327147054Y-95925552D01*
X327147054Y-95925552D02*
X327242292Y-95925552D01*
X327575626Y-96496980D02*
X327623245Y-96544600D01*
X327623245Y-96544600D02*
X327575626Y-96592219D01*
X327575626Y-96592219D02*
X327528007Y-96544600D01*
X327528007Y-96544600D02*
X327575626Y-96496980D01*
X327575626Y-96496980D02*
X327575626Y-96592219D01*
X328051816Y-96496980D02*
X328099435Y-96544600D01*
X328099435Y-96544600D02*
X328051816Y-96592219D01*
X328051816Y-96592219D02*
X328004197Y-96544600D01*
X328004197Y-96544600D02*
X328051816Y-96496980D01*
X328051816Y-96496980D02*
X328051816Y-96592219D01*
X328528006Y-96496980D02*
X328575625Y-96544600D01*
X328575625Y-96544600D02*
X328528006Y-96592219D01*
X328528006Y-96592219D02*
X328480387Y-96544600D01*
X328480387Y-96544600D02*
X328528006Y-96496980D01*
X328528006Y-96496980D02*
X328528006Y-96592219D01*
D10*
X326357455Y-100659133D02*
X326357455Y-99959133D01*
X326357455Y-99959133D02*
X326524122Y-99959133D01*
X326524122Y-99959133D02*
X326624122Y-99992466D01*
X326624122Y-99992466D02*
X326690789Y-100059133D01*
X326690789Y-100059133D02*
X326724122Y-100125800D01*
X326724122Y-100125800D02*
X326757455Y-100259133D01*
X326757455Y-100259133D02*
X326757455Y-100359133D01*
X326757455Y-100359133D02*
X326724122Y-100492466D01*
X326724122Y-100492466D02*
X326690789Y-100559133D01*
X326690789Y-100559133D02*
X326624122Y-100625800D01*
X326624122Y-100625800D02*
X326524122Y-100659133D01*
X326524122Y-100659133D02*
X326357455Y-100659133D01*
X327324122Y-100625800D02*
X327257455Y-100659133D01*
X327257455Y-100659133D02*
X327124122Y-100659133D01*
X327124122Y-100659133D02*
X327057455Y-100625800D01*
X327057455Y-100625800D02*
X327024122Y-100559133D01*
X327024122Y-100559133D02*
X327024122Y-100292466D01*
X327024122Y-100292466D02*
X327057455Y-100225800D01*
X327057455Y-100225800D02*
X327124122Y-100192466D01*
X327124122Y-100192466D02*
X327257455Y-100192466D01*
X327257455Y-100192466D02*
X327324122Y-100225800D01*
X327324122Y-100225800D02*
X327357455Y-100292466D01*
X327357455Y-100292466D02*
X327357455Y-100359133D01*
X327357455Y-100359133D02*
X327024122Y-100425800D01*
X327957455Y-100659133D02*
X327957455Y-100292466D01*
X327957455Y-100292466D02*
X327924122Y-100225800D01*
X327924122Y-100225800D02*
X327857455Y-100192466D01*
X327857455Y-100192466D02*
X327724122Y-100192466D01*
X327724122Y-100192466D02*
X327657455Y-100225800D01*
X327957455Y-100625800D02*
X327890789Y-100659133D01*
X327890789Y-100659133D02*
X327724122Y-100659133D01*
X327724122Y-100659133D02*
X327657455Y-100625800D01*
X327657455Y-100625800D02*
X327624122Y-100559133D01*
X327624122Y-100559133D02*
X327624122Y-100492466D01*
X327624122Y-100492466D02*
X327657455Y-100425800D01*
X327657455Y-100425800D02*
X327724122Y-100392466D01*
X327724122Y-100392466D02*
X327890789Y-100392466D01*
X327890789Y-100392466D02*
X327957455Y-100359133D01*
X328290788Y-100659133D02*
X328290788Y-100192466D01*
X328290788Y-100325800D02*
X328324122Y-100259133D01*
X328324122Y-100259133D02*
X328357455Y-100225800D01*
X328357455Y-100225800D02*
X328424122Y-100192466D01*
X328424122Y-100192466D02*
X328490788Y-100192466D01*
X328724121Y-100592466D02*
X328757455Y-100625800D01*
X328757455Y-100625800D02*
X328724121Y-100659133D01*
X328724121Y-100659133D02*
X328690788Y-100625800D01*
X328690788Y-100625800D02*
X328724121Y-100592466D01*
X328724121Y-100592466D02*
X328724121Y-100659133D01*
X329057454Y-100592466D02*
X329090788Y-100625800D01*
X329090788Y-100625800D02*
X329057454Y-100659133D01*
X329057454Y-100659133D02*
X329024121Y-100625800D01*
X329024121Y-100625800D02*
X329057454Y-100592466D01*
X329057454Y-100592466D02*
X329057454Y-100659133D01*
X329390787Y-100592466D02*
X329424121Y-100625800D01*
X329424121Y-100625800D02*
X329390787Y-100659133D01*
X329390787Y-100659133D02*
X329357454Y-100625800D01*
X329357454Y-100625800D02*
X329390787Y-100592466D01*
X329390787Y-100592466D02*
X329390787Y-100659133D01*
D12*
X327093333Y-103787295D02*
X327093333Y-104358723D01*
X327093333Y-104358723D02*
X327055238Y-104473009D01*
X327055238Y-104473009D02*
X326979047Y-104549200D01*
X326979047Y-104549200D02*
X326864762Y-104587295D01*
X326864762Y-104587295D02*
X326788571Y-104587295D01*
X327893333Y-104587295D02*
X327436190Y-104587295D01*
X327664762Y-104587295D02*
X327664762Y-103787295D01*
X327664762Y-103787295D02*
X327588571Y-103901580D01*
X327588571Y-103901580D02*
X327512381Y-103977771D01*
X327512381Y-103977771D02*
X327436190Y-104015866D01*
D13*
%TO.C,SW42*%
X163830000Y-164623750D03*
D14*
X168910000Y-164623750D03*
D13*
X173990000Y-164623750D03*
%TD*%
%TO.C,SW9*%
X251936250Y-107473750D03*
D14*
X257016250Y-107473750D03*
D13*
X262096250Y-107473750D03*
%TD*%
%TO.C,SW6*%
X194786250Y-107473750D03*
D14*
X199866250Y-107473750D03*
D13*
X204946250Y-107473750D03*
%TD*%
%TO.C,SW29*%
X137636250Y-145573750D03*
D14*
X142716250Y-145573750D03*
D13*
X147796250Y-145573750D03*
%TD*%
%TO.C,SW22*%
X251936250Y-126523750D03*
D14*
X257016250Y-126523750D03*
D13*
X262096250Y-126523750D03*
%TD*%
%TO.C,SW15*%
X118586250Y-126523750D03*
D14*
X123666250Y-126523750D03*
D13*
X128746250Y-126523750D03*
%TD*%
%TO.C,SW24*%
X290036250Y-126523750D03*
D14*
X295116250Y-126523750D03*
D13*
X300196250Y-126523750D03*
%TD*%
%TO.C,SW25*%
X309086250Y-126523750D03*
D14*
X314166250Y-126523750D03*
D13*
X319246250Y-126523750D03*
%TD*%
%TO.C,SW45*%
X266223750Y-164623750D03*
D14*
X271303750Y-164623750D03*
D13*
X276383750Y-164623750D03*
%TD*%
%TO.C,SW7*%
X213836250Y-107473750D03*
D14*
X218916250Y-107473750D03*
D13*
X223996250Y-107473750D03*
%TD*%
%TO.C,SW10*%
X270986250Y-107473750D03*
D14*
X276066250Y-107473750D03*
D13*
X281146250Y-107473750D03*
%TD*%
%TO.C,SW19*%
X194786250Y-126523750D03*
D14*
X199866250Y-126523750D03*
D13*
X204946250Y-126523750D03*
%TD*%
%TO.C,SW14*%
X92392500Y-126523750D03*
D14*
X97472500Y-126523750D03*
D13*
X102552500Y-126523750D03*
%TD*%
%TO.C,SW30*%
X156686250Y-145573750D03*
D14*
X161766250Y-145573750D03*
D13*
X166846250Y-145573750D03*
%TD*%
%TO.C,SW39*%
X335280000Y-145573750D03*
D14*
X340360000Y-145573750D03*
D13*
X345440000Y-145573750D03*
%TD*%
%TO.C,SW46*%
X290036250Y-164623750D03*
D14*
X295116250Y-164623750D03*
D13*
X300196250Y-164623750D03*
%TD*%
%TO.C,SW28*%
X118586250Y-145573750D03*
D14*
X123666250Y-145573750D03*
D13*
X128746250Y-145573750D03*
%TD*%
%TO.C,SW40*%
X109061250Y-164623750D03*
D14*
X114141250Y-164623750D03*
D13*
X119221250Y-164623750D03*
%TD*%
%TO.C,SW31*%
X175736250Y-145573750D03*
D14*
X180816250Y-145573750D03*
D13*
X185896250Y-145573750D03*
%TD*%
%TO.C,SW38*%
X309086250Y-145573750D03*
D14*
X314166250Y-145573750D03*
D13*
X319246250Y-145573750D03*
%TD*%
%TO.C,SW26*%
X335280000Y-126523750D03*
D14*
X340360000Y-126523750D03*
D13*
X345440000Y-126523750D03*
%TD*%
%TO.C,SW27*%
X92392500Y-145573750D03*
D14*
X97472500Y-145573750D03*
D13*
X102552500Y-145573750D03*
%TD*%
%TO.C,SW23*%
X270986250Y-126523750D03*
D14*
X276066250Y-126523750D03*
D13*
X281146250Y-126523750D03*
%TD*%
%TO.C,SW37*%
X290036250Y-145573750D03*
D14*
X295116250Y-145573750D03*
D13*
X300196250Y-145573750D03*
%TD*%
%TO.C,SW20*%
X213836250Y-126523750D03*
D14*
X218916250Y-126523750D03*
D13*
X223996250Y-126523750D03*
%TD*%
%TO.C,SW17*%
X156686250Y-126523750D03*
D14*
X161766250Y-126523750D03*
D13*
X166846250Y-126523750D03*
%TD*%
%TO.C,SW2*%
X118586250Y-107473750D03*
D14*
X123666250Y-107473750D03*
D13*
X128746250Y-107473750D03*
%TD*%
%TO.C,SW35*%
X251936250Y-145573750D03*
D14*
X257016250Y-145573750D03*
D13*
X262096250Y-145573750D03*
%TD*%
%TO.C,SW41*%
X137636250Y-164623750D03*
D14*
X142716250Y-164623750D03*
D13*
X147796250Y-164623750D03*
%TD*%
%TO.C,SW4*%
X156686250Y-107473750D03*
D14*
X161766250Y-107473750D03*
D13*
X166846250Y-107473750D03*
%TD*%
%TO.C,SW34*%
X232886250Y-145573750D03*
D14*
X237966250Y-145573750D03*
D13*
X243046250Y-145573750D03*
%TD*%
%TO.C,SW47*%
X313848750Y-164623750D03*
D14*
X318928750Y-164623750D03*
D13*
X324008750Y-164623750D03*
%TD*%
%TO.C,SW3*%
X137636250Y-107473750D03*
D14*
X142716250Y-107473750D03*
D13*
X147796250Y-107473750D03*
%TD*%
%TO.C,SW32*%
X194786250Y-145573750D03*
D14*
X199866250Y-145573750D03*
D13*
X204946250Y-145573750D03*
%TD*%
%TO.C,SW12*%
X309086250Y-107473750D03*
D14*
X314166250Y-107473750D03*
D13*
X319246250Y-107473750D03*
%TD*%
%TO.C,SW8*%
X232886250Y-107473750D03*
D14*
X237966250Y-107473750D03*
D13*
X243046250Y-107473750D03*
%TD*%
%TO.C,SW33*%
X213836250Y-145573750D03*
D14*
X218916250Y-145573750D03*
D13*
X223996250Y-145573750D03*
%TD*%
%TO.C,SW21*%
X232886250Y-126523750D03*
D14*
X237966250Y-126523750D03*
D13*
X243046250Y-126523750D03*
%TD*%
%TO.C,SW18*%
X175736250Y-126523750D03*
D14*
X180816250Y-126523750D03*
D13*
X185896250Y-126523750D03*
%TD*%
%TO.C,SW44*%
X240030000Y-164623750D03*
D14*
X245110000Y-164623750D03*
D13*
X250190000Y-164623750D03*
%TD*%
%TO.C,SW36*%
X270986250Y-145573750D03*
D14*
X276066250Y-145573750D03*
D13*
X281146250Y-145573750D03*
%TD*%
%TO.C,SW13*%
X335280000Y-107473750D03*
D14*
X340360000Y-107473750D03*
D13*
X345440000Y-107473750D03*
%TD*%
%TO.C,SW1*%
X92420000Y-107460000D03*
D14*
X97500000Y-107460000D03*
D13*
X102580000Y-107460000D03*
%TD*%
%TO.C,SW5*%
X175736250Y-107473750D03*
D14*
X180816250Y-107473750D03*
D13*
X185896250Y-107473750D03*
%TD*%
%TO.C,SW11*%
X290036250Y-107473750D03*
D14*
X295116250Y-107473750D03*
D13*
X300196250Y-107473750D03*
%TD*%
%TO.C,SW16*%
X137636250Y-126523750D03*
D14*
X142716250Y-126523750D03*
D13*
X147796250Y-126523750D03*
%TD*%
M02*
