%TF.GenerationSoftware,KiCad,Pcbnew,8.0.3*%
%TF.CreationDate,2024-06-22T11:54:46+09:00*%
%TF.ProjectId,Sherie,53686572-6965-42e6-9b69-6361645f7063,1.0*%
%TF.SameCoordinates,Original*%
%TF.FileFunction,Soldermask,Bot*%
%TF.FilePolarity,Negative*%
%FSLAX46Y46*%
G04 Gerber Fmt 4.6, Leading zero omitted, Abs format (unit mm)*
G04 Created by KiCad (PCBNEW 8.0.3) date 2024-06-22 11:54:46*
%MOMM*%
%LPD*%
G01*
G04 APERTURE LIST*
G04 Aperture macros list*
%AMRoundRect*
0 Rectangle with rounded corners*
0 $1 Rounding radius*
0 $2 $3 $4 $5 $6 $7 $8 $9 X,Y pos of 4 corners*
0 Add a 4 corners polygon primitive as box body*
4,1,4,$2,$3,$4,$5,$6,$7,$8,$9,$2,$3,0*
0 Add four circle primitives for the rounded corners*
1,1,$1+$1,$2,$3*
1,1,$1+$1,$4,$5*
1,1,$1+$1,$6,$7*
1,1,$1+$1,$8,$9*
0 Add four rect primitives between the rounded corners*
20,1,$1+$1,$2,$3,$4,$5,0*
20,1,$1+$1,$4,$5,$6,$7,0*
20,1,$1+$1,$6,$7,$8,$9,0*
20,1,$1+$1,$8,$9,$2,$3,0*%
G04 Aperture macros list end*
%ADD10C,2.000000*%
%ADD11C,3.000000*%
%ADD12C,4.000000*%
%ADD13R,3.300000X3.000000*%
%ADD14C,3.050000*%
%ADD15C,1.800000*%
%ADD16R,0.950000X1.300000*%
%ADD17R,1.300000X0.950000*%
%ADD18C,0.650000*%
%ADD19O,1.100000X2.200000*%
%ADD20O,1.300000X1.700000*%
%ADD21RoundRect,0.250000X0.475000X-0.250000X0.475000X0.250000X-0.475000X0.250000X-0.475000X-0.250000X0*%
%ADD22RoundRect,0.150000X-0.150000X-0.200000X0.150000X-0.200000X0.150000X0.200000X-0.150000X0.200000X0*%
%ADD23RoundRect,0.250000X-0.475000X0.250000X-0.475000X-0.250000X0.475000X-0.250000X0.475000X0.250000X0*%
%ADD24RoundRect,0.250000X0.262500X0.450000X-0.262500X0.450000X-0.262500X-0.450000X0.262500X-0.450000X0*%
%ADD25RoundRect,0.218750X0.218750X0.381250X-0.218750X0.381250X-0.218750X-0.381250X0.218750X-0.381250X0*%
%ADD26RoundRect,0.250000X-0.450000X0.262500X-0.450000X-0.262500X0.450000X-0.262500X0.450000X0.262500X0*%
%ADD27R,1.000000X0.700000*%
%ADD28R,1.400000X1.200000*%
%ADD29RoundRect,0.250000X-0.262500X-0.450000X0.262500X-0.450000X0.262500X0.450000X-0.262500X0.450000X0*%
%ADD30R,1.000000X1.250000*%
%ADD31RoundRect,0.125000X0.000010X0.150000X-0.000010X0.150000X-0.000010X-0.150000X0.000010X-0.150000X0*%
%ADD32R,0.250000X0.550000*%
%ADD33R,0.300000X0.550000*%
%ADD34R,1.500000X0.550000*%
%ADD35R,0.550000X1.500000*%
%ADD36RoundRect,0.250000X0.375000X0.625000X-0.375000X0.625000X-0.375000X-0.625000X0.375000X-0.625000X0*%
G04 APERTURE END LIST*
D10*
%TO.C,SW42*%
X163830000Y-164623750D03*
D11*
X165100000Y-162083750D03*
D12*
X168910000Y-164623750D03*
D11*
X171450000Y-159543750D03*
D10*
X173990000Y-164623750D03*
D13*
X161460000Y-162043750D03*
X175060000Y-159503750D03*
%TD*%
D10*
%TO.C,SW9*%
X251936250Y-107473750D03*
D11*
X253206250Y-104933750D03*
D12*
X257016250Y-107473750D03*
D11*
X259556250Y-102393750D03*
D10*
X262096250Y-107473750D03*
D13*
X249566250Y-104893750D03*
X263166250Y-102353750D03*
%TD*%
D10*
%TO.C,SW6*%
X194786250Y-107473750D03*
D11*
X196056250Y-104933750D03*
D12*
X199866250Y-107473750D03*
D11*
X202406250Y-102393750D03*
D10*
X204946250Y-107473750D03*
D13*
X192416250Y-104893750D03*
X206016250Y-102353750D03*
%TD*%
D10*
%TO.C,SW29*%
X137636250Y-145573750D03*
D11*
X138906250Y-143033750D03*
D12*
X142716250Y-145573750D03*
D11*
X145256250Y-140493750D03*
D10*
X147796250Y-145573750D03*
D13*
X135266250Y-142993750D03*
X148866250Y-140453750D03*
%TD*%
D14*
%TO.C,SW43*%
X195110000Y-157623750D03*
D12*
X195110000Y-172863750D03*
D15*
X201930000Y-164623750D03*
D11*
X203200000Y-162083750D03*
D12*
X207010000Y-164623750D03*
D11*
X209550000Y-159543750D03*
D15*
X212090000Y-164623750D03*
D14*
X218910000Y-157623750D03*
D12*
X218910000Y-172863750D03*
D13*
X199610000Y-162083750D03*
X213110000Y-159543750D03*
%TD*%
D10*
%TO.C,SW22*%
X251936250Y-126523750D03*
D11*
X253206250Y-123983750D03*
D12*
X257016250Y-126523750D03*
D11*
X259556250Y-121443750D03*
D10*
X262096250Y-126523750D03*
D13*
X249566250Y-123943750D03*
X263166250Y-121403750D03*
%TD*%
D10*
%TO.C,SW15*%
X118586250Y-126523750D03*
D11*
X119856250Y-123983750D03*
D12*
X123666250Y-126523750D03*
D11*
X126206250Y-121443750D03*
D10*
X128746250Y-126523750D03*
D13*
X116216250Y-123943750D03*
X129816250Y-121403750D03*
%TD*%
D10*
%TO.C,SW24*%
X290036250Y-126523750D03*
D11*
X291306250Y-123983750D03*
D12*
X295116250Y-126523750D03*
D11*
X297656250Y-121443750D03*
D10*
X300196250Y-126523750D03*
D13*
X287666250Y-123943750D03*
X301266250Y-121403750D03*
%TD*%
D10*
%TO.C,SW25*%
X309086250Y-126523750D03*
D11*
X310356250Y-123983750D03*
D12*
X314166250Y-126523750D03*
D11*
X316706250Y-121443750D03*
D10*
X319246250Y-126523750D03*
D13*
X306716250Y-123943750D03*
X320316250Y-121403750D03*
%TD*%
D16*
%TO.C,D19*%
X207650000Y-133865000D03*
X207650000Y-130315000D03*
%TD*%
D10*
%TO.C,SW45*%
X266223750Y-164623750D03*
D11*
X267493750Y-162083750D03*
D12*
X271303750Y-164623750D03*
D11*
X273843750Y-159543750D03*
D10*
X276383750Y-164623750D03*
D13*
X263853750Y-162043750D03*
X277453750Y-159503750D03*
%TD*%
D10*
%TO.C,SW7*%
X213836250Y-107473750D03*
D11*
X215106250Y-104933750D03*
D12*
X218916250Y-107473750D03*
D11*
X221456250Y-102393750D03*
D10*
X223996250Y-107473750D03*
D13*
X211466250Y-104893750D03*
X225066250Y-102353750D03*
%TD*%
D17*
%TO.C,D13*%
X354415000Y-125160000D03*
X350865000Y-125160000D03*
%TD*%
D10*
%TO.C,SW10*%
X270986250Y-107473750D03*
D11*
X272256250Y-104933750D03*
D12*
X276066250Y-107473750D03*
D11*
X278606250Y-102393750D03*
D10*
X281146250Y-107473750D03*
D13*
X268616250Y-104893750D03*
X282216250Y-102353750D03*
%TD*%
D16*
%TO.C,D3*%
X150500000Y-114815000D03*
X150500000Y-111265000D03*
%TD*%
D10*
%TO.C,SW19*%
X194786250Y-126523750D03*
D11*
X196056250Y-123983750D03*
D12*
X199866250Y-126523750D03*
D11*
X202406250Y-121443750D03*
D10*
X204946250Y-126523750D03*
D13*
X192416250Y-123943750D03*
X206016250Y-121403750D03*
%TD*%
D10*
%TO.C,SW14*%
X92392500Y-126523750D03*
D11*
X93662500Y-123983750D03*
D12*
X97472500Y-126523750D03*
D11*
X100012500Y-121443750D03*
D10*
X102552500Y-126523750D03*
D13*
X90022500Y-123943750D03*
X103622500Y-121403750D03*
%TD*%
D10*
%TO.C,SW30*%
X156686250Y-145573750D03*
D11*
X157956250Y-143033750D03*
D12*
X161766250Y-145573750D03*
D11*
X164306250Y-140493750D03*
D10*
X166846250Y-145573750D03*
D13*
X154316250Y-142993750D03*
X167916250Y-140453750D03*
%TD*%
D16*
%TO.C,D30*%
X169550000Y-152915000D03*
X169550000Y-149365000D03*
%TD*%
%TO.C,D21*%
X245750000Y-133865000D03*
X245750000Y-130315000D03*
%TD*%
D10*
%TO.C,SW39*%
X335280000Y-145573750D03*
D11*
X336550000Y-143033750D03*
D12*
X340360000Y-145573750D03*
D11*
X342900000Y-140493750D03*
D10*
X345440000Y-145573750D03*
D13*
X332910000Y-142993750D03*
X346510000Y-140453750D03*
%TD*%
D16*
%TO.C,D23*%
X283850000Y-133865000D03*
X283850000Y-130315000D03*
%TD*%
D10*
%TO.C,SW46*%
X290036250Y-164623750D03*
D11*
X291306250Y-162083750D03*
D12*
X295116250Y-164623750D03*
D11*
X297656250Y-159543750D03*
D10*
X300196250Y-164623750D03*
D13*
X287666250Y-162043750D03*
X301266250Y-159503750D03*
%TD*%
D16*
%TO.C,D22*%
X264800000Y-133865000D03*
X264800000Y-130315000D03*
%TD*%
%TO.C,D25*%
X308058211Y-133865000D03*
X308058211Y-130315000D03*
%TD*%
%TO.C,D16*%
X150500000Y-133865000D03*
X150500000Y-130315000D03*
%TD*%
%TO.C,D11*%
X302900000Y-114815000D03*
X302900000Y-111265000D03*
%TD*%
D10*
%TO.C,SW28*%
X118586250Y-145573750D03*
D11*
X119856250Y-143033750D03*
D12*
X123666250Y-145573750D03*
D11*
X126206250Y-140493750D03*
D10*
X128746250Y-145573750D03*
D13*
X116216250Y-142993750D03*
X129816250Y-140453750D03*
%TD*%
D10*
%TO.C,SW40*%
X109061250Y-164623750D03*
D11*
X110331250Y-162083750D03*
D12*
X114141250Y-164623750D03*
D11*
X116681250Y-159543750D03*
D10*
X119221250Y-164623750D03*
D13*
X106691250Y-162043750D03*
X120291250Y-159503750D03*
%TD*%
D10*
%TO.C,SW31*%
X175736250Y-145573750D03*
D11*
X177006250Y-143033750D03*
D12*
X180816250Y-145573750D03*
D11*
X183356250Y-140493750D03*
D10*
X185896250Y-145573750D03*
D13*
X173366250Y-142993750D03*
X186966250Y-140453750D03*
%TD*%
D16*
%TO.C,D8*%
X245750000Y-114815000D03*
X245750000Y-111265000D03*
%TD*%
%TO.C,D41*%
X153510000Y-171405000D03*
X153510000Y-167855000D03*
%TD*%
%TO.C,D38*%
X308058211Y-152915000D03*
X308058211Y-149365000D03*
%TD*%
%TO.C,D44*%
X254910000Y-171405000D03*
X254910000Y-167855000D03*
%TD*%
%TO.C,D4*%
X169550000Y-114815000D03*
X169550000Y-111265000D03*
%TD*%
D10*
%TO.C,SW38*%
X309086250Y-145573750D03*
D11*
X310356250Y-143033750D03*
D12*
X314166250Y-145573750D03*
D11*
X316706250Y-140493750D03*
D10*
X319246250Y-145573750D03*
D13*
X306716250Y-142993750D03*
X320316250Y-140453750D03*
%TD*%
D10*
%TO.C,SW26*%
X335280000Y-126523750D03*
D11*
X336550000Y-123983750D03*
D12*
X340360000Y-126523750D03*
D11*
X342900000Y-121443750D03*
D10*
X345440000Y-126523750D03*
D13*
X332910000Y-123943750D03*
X346510000Y-121403750D03*
%TD*%
D16*
%TO.C,D10*%
X283850000Y-114815000D03*
X283850000Y-111265000D03*
%TD*%
%TO.C,D47*%
X304948211Y-171405000D03*
X304948211Y-167855000D03*
%TD*%
D10*
%TO.C,SW27*%
X92392500Y-145573750D03*
D11*
X93662500Y-143033750D03*
D12*
X97472500Y-145573750D03*
D11*
X100012500Y-140493750D03*
D10*
X102552500Y-145573750D03*
D13*
X90022500Y-142993750D03*
X103622500Y-140453750D03*
%TD*%
D10*
%TO.C,SW23*%
X270986250Y-126523750D03*
D11*
X272256250Y-123983750D03*
D12*
X276066250Y-126523750D03*
D11*
X278606250Y-121443750D03*
D10*
X281146250Y-126523750D03*
D13*
X268616250Y-123943750D03*
X282216250Y-121403750D03*
%TD*%
D10*
%TO.C,SW37*%
X290036250Y-145573750D03*
D11*
X291306250Y-143033750D03*
D12*
X295116250Y-145573750D03*
D11*
X297656250Y-140493750D03*
D10*
X300196250Y-145573750D03*
D13*
X287666250Y-142993750D03*
X301266250Y-140453750D03*
%TD*%
D16*
%TO.C,D1*%
X107888211Y-114815000D03*
X107888211Y-111265000D03*
%TD*%
D10*
%TO.C,SW20*%
X213836250Y-126523750D03*
D11*
X215106250Y-123983750D03*
D12*
X218916250Y-126523750D03*
D11*
X221456250Y-121443750D03*
D10*
X223996250Y-126523750D03*
D13*
X211466250Y-123943750D03*
X225066250Y-121403750D03*
%TD*%
D17*
%TO.C,D39*%
X354415000Y-132740000D03*
X350865000Y-132740000D03*
%TD*%
D16*
%TO.C,D35*%
X264800000Y-152915000D03*
X264800000Y-149365000D03*
%TD*%
D10*
%TO.C,SW17*%
X156686250Y-126523750D03*
D11*
X157956250Y-123983750D03*
D12*
X161766250Y-126523750D03*
D11*
X164306250Y-121443750D03*
D10*
X166846250Y-126523750D03*
D13*
X154316250Y-123943750D03*
X167916250Y-121403750D03*
%TD*%
D10*
%TO.C,SW2*%
X118586250Y-107473750D03*
D11*
X119856250Y-104933750D03*
D12*
X123666250Y-107473750D03*
D11*
X126206250Y-102393750D03*
D10*
X128746250Y-107473750D03*
D13*
X116216250Y-104893750D03*
X129816250Y-102353750D03*
%TD*%
D10*
%TO.C,SW35*%
X251936250Y-145573750D03*
D11*
X253206250Y-143033750D03*
D12*
X257016250Y-145573750D03*
D11*
X259556250Y-140493750D03*
D10*
X262096250Y-145573750D03*
D13*
X249566250Y-142993750D03*
X263166250Y-140453750D03*
%TD*%
D16*
%TO.C,D40*%
X124980000Y-171405000D03*
X124980000Y-167855000D03*
%TD*%
D10*
%TO.C,SW41*%
X137636250Y-164623750D03*
D11*
X138906250Y-162083750D03*
D12*
X142716250Y-164623750D03*
D11*
X145256250Y-159543750D03*
D10*
X147796250Y-164623750D03*
D13*
X135266250Y-162043750D03*
X148866250Y-159503750D03*
%TD*%
D10*
%TO.C,SW4*%
X156686250Y-107473750D03*
D11*
X157956250Y-104933750D03*
D12*
X161766250Y-107473750D03*
D11*
X164306250Y-102393750D03*
D10*
X166846250Y-107473750D03*
D13*
X154316250Y-104893750D03*
X167916250Y-102353750D03*
%TD*%
D10*
%TO.C,SW34*%
X232886250Y-145573750D03*
D11*
X234156250Y-143033750D03*
D12*
X237966250Y-145573750D03*
D11*
X240506250Y-140493750D03*
D10*
X243046250Y-145573750D03*
D13*
X230516250Y-142993750D03*
X244116250Y-140453750D03*
%TD*%
D16*
%TO.C,D14*%
X107888211Y-133865000D03*
X107888211Y-130315000D03*
%TD*%
D10*
%TO.C,SW47*%
X313848750Y-164623750D03*
D11*
X315118750Y-162083750D03*
D12*
X318928750Y-164623750D03*
D11*
X321468750Y-159543750D03*
D10*
X324008750Y-164623750D03*
D13*
X311478750Y-162043750D03*
X325078750Y-159503750D03*
%TD*%
D16*
%TO.C,D33*%
X226683211Y-151575000D03*
X226683211Y-148025000D03*
%TD*%
D10*
%TO.C,SW3*%
X137636250Y-107473750D03*
D11*
X138906250Y-104933750D03*
D12*
X142716250Y-107473750D03*
D11*
X145256250Y-102393750D03*
D10*
X147796250Y-107473750D03*
D13*
X135266250Y-104893750D03*
X148866250Y-102353750D03*
%TD*%
D10*
%TO.C,SW32*%
X194786250Y-145573750D03*
D11*
X196056250Y-143033750D03*
D12*
X199866250Y-145573750D03*
D11*
X202406250Y-140493750D03*
D10*
X204946250Y-145573750D03*
D13*
X192416250Y-142993750D03*
X206016250Y-140453750D03*
%TD*%
D16*
%TO.C,D5*%
X188600000Y-114815000D03*
X188600000Y-111265000D03*
%TD*%
%TO.C,D2*%
X131450000Y-114815000D03*
X131450000Y-111265000D03*
%TD*%
%TO.C,D28*%
X131450000Y-152915000D03*
X131450000Y-149365000D03*
%TD*%
D10*
%TO.C,SW12*%
X309086250Y-107473750D03*
D11*
X310356250Y-104933750D03*
D12*
X314166250Y-107473750D03*
D11*
X316706250Y-102393750D03*
D10*
X319246250Y-107473750D03*
D13*
X306716250Y-104893750D03*
X320316250Y-102353750D03*
%TD*%
D18*
%TO.C,J1*%
X330250000Y-101225000D03*
X324470000Y-101225000D03*
D19*
X331680000Y-101755000D03*
D20*
X331680000Y-97575000D03*
D19*
X323040000Y-101755000D03*
D20*
X323040000Y-97575000D03*
%TD*%
D16*
%TO.C,D18*%
X188600000Y-133865000D03*
X188600000Y-130315000D03*
%TD*%
%TO.C,D17*%
X169550000Y-133865000D03*
X169550000Y-130315000D03*
%TD*%
%TO.C,D31*%
X188600000Y-152915000D03*
X188600000Y-149365000D03*
%TD*%
%TO.C,D45*%
X259520000Y-171405000D03*
X259520000Y-167855000D03*
%TD*%
%TO.C,D7*%
X226700000Y-114815000D03*
X226700000Y-111265000D03*
%TD*%
%TO.C,D20*%
X226700000Y-133865000D03*
X226700000Y-130315000D03*
%TD*%
%TO.C,D9*%
X264800000Y-114815000D03*
X264800000Y-111265000D03*
%TD*%
%TO.C,D12*%
X308058211Y-114815000D03*
X308058211Y-111265000D03*
%TD*%
%TO.C,D42*%
X179190000Y-171405000D03*
X179190000Y-167855000D03*
%TD*%
%TO.C,D32*%
X207650000Y-152915000D03*
X207650000Y-149365000D03*
%TD*%
D10*
%TO.C,SW8*%
X232886250Y-107473750D03*
D11*
X234156250Y-104933750D03*
D12*
X237966250Y-107473750D03*
D11*
X240506250Y-102393750D03*
D10*
X243046250Y-107473750D03*
D13*
X230516250Y-104893750D03*
X244116250Y-102353750D03*
%TD*%
D10*
%TO.C,SW33*%
X213836250Y-145573750D03*
D11*
X215106250Y-143033750D03*
D12*
X218916250Y-145573750D03*
D11*
X221456250Y-140493750D03*
D10*
X223996250Y-145573750D03*
D13*
X211466250Y-142993750D03*
X225066250Y-140453750D03*
%TD*%
D17*
%TO.C,D26*%
X354415000Y-128950000D03*
X350865000Y-128950000D03*
%TD*%
D16*
%TO.C,D27*%
X107888211Y-152915000D03*
X107888211Y-149365000D03*
%TD*%
%TO.C,D43*%
X185618211Y-171405000D03*
X185618211Y-167855000D03*
%TD*%
D10*
%TO.C,SW21*%
X232886250Y-126523750D03*
D11*
X234156250Y-123983750D03*
D12*
X237966250Y-126523750D03*
D11*
X240506250Y-121443750D03*
D10*
X243046250Y-126523750D03*
D13*
X230516250Y-123943750D03*
X244116250Y-121403750D03*
%TD*%
D10*
%TO.C,SW18*%
X175736250Y-126523750D03*
D11*
X177006250Y-123983750D03*
D12*
X180816250Y-126523750D03*
D11*
X183356250Y-121443750D03*
D10*
X185896250Y-126523750D03*
D13*
X173366250Y-123943750D03*
X186966250Y-121403750D03*
%TD*%
D16*
%TO.C,D36*%
X283850000Y-152915000D03*
X283850000Y-149365000D03*
%TD*%
D10*
%TO.C,SW44*%
X240030000Y-164623750D03*
D11*
X241300000Y-162083750D03*
D12*
X245110000Y-164623750D03*
D11*
X247650000Y-159543750D03*
D10*
X250190000Y-164623750D03*
D13*
X237660000Y-162043750D03*
X251260000Y-159503750D03*
%TD*%
D10*
%TO.C,SW36*%
X270986250Y-145573750D03*
D11*
X272256250Y-143033750D03*
D12*
X276066250Y-145573750D03*
D11*
X278606250Y-140493750D03*
D10*
X281146250Y-145573750D03*
D13*
X268616250Y-142993750D03*
X282216250Y-140453750D03*
%TD*%
D10*
%TO.C,SW13*%
X335280000Y-107473750D03*
D11*
X336550000Y-104933750D03*
D12*
X340360000Y-107473750D03*
D11*
X342900000Y-102393750D03*
D10*
X345440000Y-107473750D03*
D13*
X332910000Y-104893750D03*
X346510000Y-102353750D03*
%TD*%
D10*
%TO.C,SW1*%
X92420000Y-107460000D03*
D11*
X93690000Y-104920000D03*
D12*
X97500000Y-107460000D03*
D11*
X100040000Y-102380000D03*
D10*
X102580000Y-107460000D03*
D13*
X90050000Y-104880000D03*
X103650000Y-102340000D03*
%TD*%
D16*
%TO.C,D24*%
X302900000Y-133865000D03*
X302900000Y-130315000D03*
%TD*%
%TO.C,D6*%
X207650000Y-114815000D03*
X207650000Y-111265000D03*
%TD*%
%TO.C,D37*%
X302900000Y-152915000D03*
X302900000Y-149365000D03*
%TD*%
D10*
%TO.C,SW5*%
X175736250Y-107473750D03*
D11*
X177006250Y-104933750D03*
D12*
X180816250Y-107473750D03*
D11*
X183356250Y-102393750D03*
D10*
X185896250Y-107473750D03*
D13*
X173366250Y-104893750D03*
X186966250Y-102353750D03*
%TD*%
D16*
%TO.C,D34*%
X245750000Y-152915000D03*
X245750000Y-149365000D03*
%TD*%
D10*
%TO.C,SW11*%
X290036250Y-107473750D03*
D11*
X291306250Y-104933750D03*
D12*
X295116250Y-107473750D03*
D11*
X297656250Y-102393750D03*
D10*
X300196250Y-107473750D03*
D13*
X287666250Y-104893750D03*
X301266250Y-102353750D03*
%TD*%
D16*
%TO.C,D15*%
X131450000Y-133865000D03*
X131450000Y-130315000D03*
%TD*%
%TO.C,D29*%
X150500000Y-152915000D03*
X150500000Y-149365000D03*
%TD*%
D10*
%TO.C,SW16*%
X137636250Y-126523750D03*
D11*
X138906250Y-123983750D03*
D12*
X142716250Y-126523750D03*
D11*
X145256250Y-121443750D03*
D10*
X147796250Y-126523750D03*
D13*
X135266250Y-123943750D03*
X148866250Y-121403750D03*
%TD*%
D16*
%TO.C,D46*%
X282920000Y-171405000D03*
X282920000Y-167855000D03*
%TD*%
D21*
%TO.C,C1*%
X352620000Y-159870000D03*
X352620000Y-157970000D03*
%TD*%
D22*
%TO.C,ESDD0*%
X320907500Y-111240000D03*
X319507500Y-111240000D03*
%TD*%
D23*
%TO.C,C2*%
X336400000Y-133490000D03*
X336400000Y-135390000D03*
%TD*%
D24*
%TO.C,R5*%
X335842500Y-112360000D03*
X334017500Y-112360000D03*
%TD*%
D25*
%TO.C,FB1*%
X343225000Y-113590000D03*
X341100000Y-113590000D03*
%TD*%
D26*
%TO.C,R1*%
X331000000Y-157977500D03*
X331000000Y-159802500D03*
%TD*%
D27*
%TO.C,RESET0*%
X225330000Y-160400000D03*
X231330000Y-160400000D03*
X225330000Y-156700000D03*
X231330000Y-156700000D03*
%TD*%
D26*
%TO.C,R3*%
X328290000Y-139880000D03*
X328290000Y-141705000D03*
%TD*%
D23*
%TO.C,C5*%
X345400000Y-133490000D03*
X345400000Y-135390000D03*
%TD*%
D28*
%TO.C,Y1*%
X322380000Y-153150000D03*
X320180000Y-153150000D03*
X320180000Y-151450000D03*
X322380000Y-151450000D03*
%TD*%
D29*
%TO.C,R6*%
X334017500Y-114350000D03*
X335842500Y-114350000D03*
%TD*%
D26*
%TO.C,R2*%
X325340000Y-139880000D03*
X325340000Y-141705000D03*
%TD*%
D23*
%TO.C,C4*%
X342400000Y-133490000D03*
X342400000Y-135390000D03*
%TD*%
D24*
%TO.C,R4*%
X220382500Y-163310000D03*
X218557500Y-163310000D03*
%TD*%
%TO.C,R7*%
X220382500Y-167360000D03*
X218557500Y-167360000D03*
%TD*%
D23*
%TO.C,C3*%
X339400000Y-133490000D03*
X339400000Y-135390000D03*
%TD*%
D30*
%TO.C,LED1*%
X229850000Y-164540000D03*
X227650000Y-164540000D03*
%TD*%
D31*
%TO.C,U2*%
X328560000Y-112225000D03*
D32*
X328060000Y-112225000D03*
D33*
X327560000Y-112225000D03*
D32*
X327060000Y-112225000D03*
X326560000Y-112225000D03*
X326560000Y-111455000D03*
X327060000Y-111455000D03*
D33*
X327560000Y-111455000D03*
D32*
X328060000Y-111455000D03*
X328560000Y-111455000D03*
%TD*%
D21*
%TO.C,C6*%
X313480000Y-153250000D03*
X313480000Y-151350000D03*
%TD*%
D34*
%TO.C,U1*%
X346218750Y-156987500D03*
X346218750Y-157787500D03*
X346218750Y-158587500D03*
X346218750Y-159387500D03*
X346218750Y-160187500D03*
X346218750Y-160987500D03*
X346218750Y-161787500D03*
X346218750Y-162587500D03*
X346218750Y-163387500D03*
X346218750Y-164187500D03*
X346218750Y-164987500D03*
D35*
X344518750Y-166687500D03*
X343718750Y-166687500D03*
X342918750Y-166687500D03*
X342118750Y-166687500D03*
X341318750Y-166687500D03*
X340518750Y-166687500D03*
X339718750Y-166687500D03*
X338918750Y-166687500D03*
X338118750Y-166687500D03*
X337318750Y-166687500D03*
X336518750Y-166687500D03*
D34*
X334818750Y-164987500D03*
X334818750Y-164187500D03*
X334818750Y-163387500D03*
X334818750Y-162587500D03*
X334818750Y-161787500D03*
X334818750Y-160987500D03*
X334818750Y-160187500D03*
X334818750Y-159387500D03*
X334818750Y-158587500D03*
X334818750Y-157787500D03*
X334818750Y-156987500D03*
D35*
X336518750Y-155287500D03*
X337318750Y-155287500D03*
X338118750Y-155287500D03*
X338918750Y-155287500D03*
X339718750Y-155287500D03*
X340518750Y-155287500D03*
X341318750Y-155287500D03*
X342118750Y-155287500D03*
X342918750Y-155287500D03*
X343718750Y-155287500D03*
X344518750Y-155287500D03*
%TD*%
D36*
%TO.C,F1*%
X321607500Y-114200000D03*
X318807500Y-114200000D03*
%TD*%
D21*
%TO.C,C7*%
X316480000Y-153250000D03*
X316480000Y-151350000D03*
%TD*%
M02*
