  0
SECTION
  2
HEADER
  9
$ANGBASE
  50
0.0
  9
$ANGDIR
  70
1
  9
$MEASUREMENT
  70
1
  0
ENDSEC
  0
SECTION
  2
TABLES
  0
TABLE
  2
LTYPE
  70
4
  0
LTYPE
  5
40F
  2
CONTINUOUS
  70
0
  3
Solid line
  72
65
  73
0
  40
0.0
  0
LTYPE
  5
410
  2
DASHDOT
 70
0
  3
Dash Dot ____ _ ____ _
 72
65
 73
4
 40
2.0
 49
1.25
 49
-0.25
 49
0.25
 49
-0.25
  0
LTYPE
  5
411
  2
DASHED
 70
0
  3
Dashed __ __ __ __ __
 72
65
 73
2
 40
0.75
 49
0.5
 49
-0.25
  0
LTYPE
  5
43B
  2
DOTTED
 70
0
  3
Dotted .  .  .  .
 72
65
 73
2
 40
0.2
 49
0.0
 49
-0.2
  0
ENDTAB
  0
TABLE
  2
STYLE
  70
4
  0
STYLE
  2
KICAD
  70
0
  40
0
  41
1
  42
1
  50
0
  71
0
  3
isocp.shx
  0
STYLE
  2
KICADB
  70
0
  40
0
  41
1
  42
1
  50
0
  71
0
  3
isocp.shx
  0
STYLE
  2
KICADI
  70
0
  40
0
  41
1
  42
1
  50
15
  71
0
  3
isocp.shx
  0
STYLE
  2
KICADBI
  70
0
  40
0
  41
1
  42
1
  50
15
  71
0
  3
isocp.shx
  0
ENDTAB
  0
TABLE
  2
LAYER
  70
1
  0
LAYER
  2
BLACK
  70
0
  62
7
  6
CONTINUOUS
  0
ENDTAB
  0
ENDSEC
  0
SECTION
  2
ENTITIES
0
CIRCLE
8
BLACK
10
228.3299999999999841
20
-158.5499999999999829
40
1.5999999999999999
0
LINE
8
BLACK
6
CONTINUOUS
10
309.0749999999999886
20
-135.5499999999999829
11
303.6999999999999886
21
-135.5499999999999829
0
LINE
8
BLACK
6
CONTINUOUS
10
312.0749999999999886
20
-129.2999999999999829
11
311.0749999999999886
21
-129.2999999999999829
0
LINE
8
BLACK
6
CONTINUOUS
10
184.7989460000000008
20
-173.625
11
186.3989459999999951
21
-173.625
0
LINE
8
BLACK
6
CONTINUOUS
10
186.3989459999999951
20
-165.375
11
184.7989460000000008
21
-165.375
0
ARC
8
BLACK
10
307.772894000000008
20
-155.5971059999999966
40
0.9999990000004999
50
-0.00005730
51
90.00005730
0
LINE
8
BLACK
6
CONTINUOUS
10
330.4728929999999991
20
-137.1028929999999946
11
330.4749999999999659
21
-125.2999999999999972
0
LINE
8
BLACK
6
CONTINUOUS
10
329.4728929999999991
20
-138.1028929999999946
11
321.5
21
-138.0999999999999943
0
ARC
8
BLACK
10
329.4728939999999966
20
-137.102893999999992
40
0.9999990000004999
50
-90.00005730
51
0.00005730
0
LINE
8
BLACK
6
CONTINUOUS
10
348.9250000000000114
20
-122.6728929999999878
11
348.9250000000000114
21
-120.0499999999999972
0
LINE
8
BLACK
6
CONTINUOUS
10
354.7799999999999727
20
-123.6699999999999875
11
349.9199999999999591
21
-123.6728929999999878
0
ARC
8
BLACK
10
349.9224979999999618
20
-122.6753929999999997
40
0.99750312781665
50
-180.14359843
51
-90.14348327
0
LINE
8
BLACK
6
CONTINUOUS
10
355.7799999999999727
20
-124.6699999999999875
11
355.7749999999999773
21
-133.98289299999999
0
ARC
8
BLACK
10
354.7800009999999702
20
-124.66999899999999
40
0.9999990000004999
50
-0.00005730
51
90.00005730
0
LINE
8
BLACK
6
CONTINUOUS
10
354.7749999999999773
20
-134.98289299999999
11
350.1571069999999963
21
-134.982106999999985
0
LINE
8
BLACK
6
CONTINUOUS
10
349.1499999999999773
20
-147.4000000000000057
11
349.1571069999999963
21
-135.982106999999985
0
LINE
8
BLACK
6
CONTINUOUS
10
325.75
20
-148.4000000000000057
11
348.1499999999999773
21
-148.4000000000000057
0
LINE
8
BLACK
6
CONTINUOUS
10
324.75
20
-154.2750000000000057
11
324.75
21
-149.4000000000000057
0
LINE
8
BLACK
6
CONTINUOUS
10
330.7749999999999773
20
-155.2750000000000057
11
325.75
21
-155.2750000000000057
0
LINE
8
BLACK
6
CONTINUOUS
10
331.7749999999999773
20
-153.4749999999999943
11
331.7749999999999773
21
-154.2750000000000057
0
LINE
8
BLACK
6
CONTINUOUS
10
353.8499999999999659
20
-152.4749999999999943
11
332.7749999999999773
21
-152.4749999999999943
0
ARC
8
BLACK
10
350.1571059999999989
20
-135.9821059999999875
40
0.9999990000004999
50
-270.00005730
51
-179.99994270
0
ARC
8
BLACK
10
348.1500009999999747
20
-147.4000010000000032
40
0.9999990000004999
50
-90.00005730
51
0.00005730
0
ARC
8
BLACK
10
325.7499990000000025
20
-149.3999989999999798
40
0.9999990000004999
50
-270.00005730
51
-179.99994270
0
ARC
8
BLACK
10
325.7499990000000025
20
-154.2750010000000032
40
0.9999990000004999
50
-180.00005730
51
-89.99994270
0
ARC
8
BLACK
10
330.7750009999999747
20
-154.2750010000000032
40
0.9999990000004999
50
-90.00005730
51
0.00005730
0
ARC
8
BLACK
10
332.7749989999999798
20
-153.4749989999999968
40
0.9999990000004999
50
-270.00005730
51
-179.99994270
0
LINE
8
BLACK
6
CONTINUOUS
10
354.8499999999999659
20
-153.4749999999999943
11
354.8578839999999559
21
-166.4599999999999795
0
LINE
8
BLACK
6
CONTINUOUS
10
331.7249999999999659
20
-169.75
11
349.1421159999999873
21
-169.7599999999999909
0
LINE
8
BLACK
6
CONTINUOUS
10
330.7249999999999659
20
-168.375
11
330.7249999999999659
21
-168.75
0
ARC
8
BLACK
10
331.7249989999999684
20
-168.7500009999999975
40
0.9999990000004999
50
-180.00005730
51
-89.99994270
0
LINE
8
BLACK
6
CONTINUOUS
10
329.7249999999999659
20
-167.375
11
323.9749999999999659
21
-167.375
0
ARC
8
BLACK
10
329.7250009999999634
20
-168.3749990000000025
40
0.9999990000004999
50
-0.00005730
51
90.00005730
0
LINE
8
BLACK
6
CONTINUOUS
10
307.25
20
-139.0999999999999943
11
307.25
21
-139.5999999999999943
0
LINE
8
BLACK
6
CONTINUOUS
10
306.25
20
-140.5999999999999943
11
304.4499999999999886
21
-140.5999999999999943
0
LINE
8
BLACK
6
CONTINUOUS
10
321.5
20
-138.0999999999999943
11
308.25
21
-138.0999999999999943
0
ARC
8
BLACK
10
306.2500009999999975
20
-139.6000009999999918
40
0.9999990000004999
50
-90.00005730
51
0.00005730
0
ARC
8
BLACK
10
308.2499990000000025
20
-139.0999989999999968
40
0.9999990000004999
50
-270.00005730
51
-179.99994270
0
ARC
8
BLACK
10
347.9250010000000088
20
-120.0499989999999997
40
0.9999990000004999
50
-0.00005730
51
90.00005730
0
ARC
8
BLACK
10
332.6750010000000088
20
-120.5500009999999946
40
0.9999990000004999
50
-90.00005730
51
0.00005730
0
LINE
8
BLACK
6
CONTINUOUS
10
332.6750000000000114
20
-121.5499999999999972
11
331.4749999999999659
21
-121.5499999999999972
0
ARC
8
BLACK
10
331.4749989999999684
20
-122.5499989999999997
40
0.9999990000004999
50
-270.00005730
51
-179.99994270
0
ARC
8
BLACK
10
334.6749989999999571
20
-120.0499989999999997
40
0.9999990000004999
50
-270.00005730
51
-179.99994270
0
LINE
8
BLACK
6
CONTINUOUS
10
333.6750000000000114
20
-120.0499999999999972
11
333.6750000000000114
21
-120.5499999999999972
0
LINE
8
BLACK
6
CONTINUOUS
10
347.9250000000000114
20
-119.0499999999999972
11
334.6750000000000114
21
-119.0499999999999972
0
LINE
8
BLACK
6
CONTINUOUS
10
330.4749999999999659
20
-125.2999999999999972
11
330.4749999999999659
21
-122.5499999999999972
0
ARC
8
BLACK
10
309.7749989999999798
20
-163.3750009999999975
40
0.9999990000004999
50
-180.00005730
51
-89.99994270
0
LINE
8
BLACK
6
CONTINUOUS
10
312.7249999999999659
20
-167.375
11
323.9749999999999659
21
-167.375
0
LINE
8
BLACK
6
CONTINUOUS
10
309.7749999999999773
20
-164.375
11
310.4250000000000114
21
-164.375
0
LINE
8
BLACK
6
CONTINUOUS
10
311.7249999999999659
20
-165.375
11
311.7249999999999659
21
-166.375
0
LINE
8
BLACK
6
CONTINUOUS
10
310.7249999999999659
20
-164.375
11
310.4250000000000114
21
-164.375
0
ARC
8
BLACK
10
310.7250009999999634
20
-165.3749990000000025
40
0.9999990000004999
50
-0.00005730
51
90.00005730
0
LINE
8
BLACK
6
CONTINUOUS
10
308.7749999999999773
20
-163.375
11
308.7749999999999773
21
-160.625
0
ARC
8
BLACK
10
312.7249989999999684
20
-166.3750009999999975
40
0.9999990000004999
50
-180.00005730
51
-89.99994270
0
LINE
8
BLACK
6
CONTINUOUS
10
349.1380439999999794
20
-105.2336109999999962
11
352.
21
-106.6999999999999886
0
LINE
8
BLACK
6
CONTINUOUS
10
348.8499999999999659
20
-101.4749999999999943
11
348.8499999999999659
21
-104.75
0
ARC
8
BLACK
10
349.3999999999999773
20
-104.75
40
0.5500004956879584
50
-180.00000000
51
-118.44293244
0
LINE
8
BLACK
6
CONTINUOUS
10
349.0453959999999825
20
-115.0713700000000017
11
352.
21
-113.2999999999999972
0
LINE
8
BLACK
6
CONTINUOUS
10
339.3499999999999659
20
-115.25
11
348.4749999999999659
21
-115.25
0
ARC
8
BLACK
10
348.4749999999999659
20
-114.25
40
1.0000001368579905
50
-90.00000000
51
-55.22216079
0
LINE
8
BLACK
6
CONTINUOUS
10
337.3805549999999585
20
-116.0920359999999931
11
338.9155189999999607
21
-115.3551769999999976
0
LINE
8
BLACK
6
CONTINUOUS
10
333.7178930000000037
20
-116.1749999999999972
11
337.0500000000000114
21
-116.1749999999999972
0
ARC
8
BLACK
10
337.0500000000000114
20
-115.4749999999999943
40
0.7000000238007138
50
-90.00000000
51
-61.82140989
0
ARC
8
BLACK
10
339.3499999999999659
20
-116.1999999999999886
40
0.9499998108894548
50
90.00000000
51
117.21614374
0
ARC
8
BLACK
10
333.7178920000000062
20
-115.1750009999999946
40
0.9999990000004999
50
-180.00005730
51
-89.99994270
0
LINE
8
BLACK
6
CONTINUOUS
10
332.7178930000000037
20
-108.2249999999999943
11
332.7178930000000037
21
-115.1749999999999972
0
LINE
8
BLACK
6
CONTINUOUS
10
331.7178930000000037
20
-107.2249999999999943
11
331.3999999999999773
21
-107.2249999999999943
0
LINE
8
BLACK
6
CONTINUOUS
10
330.3999999999999773
20
-106.2249999999999943
11
330.3999999999999773
21
-103.4749999999999943
0
ARC
8
BLACK
10
331.3999989999999798
20
-106.2250009999999918
40
0.9999990000004999
50
-180.00005730
51
-89.99994270
0
LINE
8
BLACK
6
CONTINUOUS
10
332.5999999999999659
20
-102.4749999999999943
11
331.3999999999999773
21
-102.4749999999999943
0
ARC
8
BLACK
10
331.3999989999999798
20
-103.4749989999999968
40
0.9999990000004999
50
-270.00005730
51
-179.99994270
0
LINE
8
BLACK
6
CONTINUOUS
10
333.5999999999999659
20
-100.9749999999999943
11
333.5999999999999659
21
-101.4749999999999943
0
ARC
8
BLACK
10
332.6000029999999583
20
-101.475003000000001
40
0.9999970000045
50
-90.00017189
51
0.00017189
0
ARC
8
BLACK
10
334.6000029999999583
20
-100.975003000000001
40
1.0000030000044999
50
90.00017189
51
179.99982811
0
LINE
8
BLACK
6
CONTINUOUS
10
348.8499999999999659
20
-100.9749999999999943
11
348.8499999999999659
21
-101.4749999999999943
0
ARC
8
BLACK
10
347.8500009999999634
20
-100.9749989999999968
40
0.9999990000004999
50
-0.00005730
51
90.00005730
0
LINE
8
BLACK
6
CONTINUOUS
10
347.8499999999999659
20
-99.9749999999999943
11
334.5999999999999659
21
-99.9749999999999943
0
LINE
8
BLACK
6
CONTINUOUS
10
333.5999999999999659
20
-100.9749999999999943
11
333.5999999999999659
21
-101.4749999999999943
0
LINE
8
BLACK
6
CONTINUOUS
10
322.5
20
-108.7249999999999943
11
322.5
21
-101.5
0
LINE
8
BLACK
6
CONTINUOUS
10
323.5
20
-109.7249999999999943
11
328.8499999999999659
21
-109.7249999999999943
0
ARC
8
BLACK
10
323.4999990000000025
20
-108.7250009999999918
40
0.9999990000004999
50
-180.00005730
51
-89.99994270
0
LINE
8
BLACK
6
CONTINUOUS
10
329.8499999999999659
20
-110.7249999999999943
11
329.8499999999999659
21
-112.6499999999999915
0
ARC
8
BLACK
10
328.8500009999999634
20
-110.7249989999999968
40
0.9999990000004999
50
-0.00005730
51
90.00005730
0
ARC
8
BLACK
10
328.8500009999999634
20
-112.6500009999999889
40
0.9999990000004999
50
-90.00005730
51
0.00005730
0
LINE
8
BLACK
6
CONTINUOUS
10
324.8000000000000114
20
-113.6499999999999915
11
328.8499999999999659
21
-113.6499999999999915
0
LINE
8
BLACK
6
CONTINUOUS
10
323.8000000000000114
20
-114.6499999999999915
11
323.8000000000000114
21
-115.5
0
ARC
8
BLACK
10
324.7999989999999571
20
-114.649998999999994
40
0.9999990000004999
50
-270.00005730
51
-179.99994270
0
ARC
8
BLACK
10
322.8000010000000088
20
-115.5000009999999975
40
0.9999990000004999
50
-90.00005730
51
0.00005730
0
LINE
8
BLACK
6
CONTINUOUS
10
317.875
20
-116.5
11
322.8000000000000114
21
-116.5
0
ARC
8
BLACK
10
317.8749990000000025
20
-115.5000009999999975
40
0.9999990000004999
50
-180.00005730
51
-89.99994270
0
LINE
8
BLACK
6
CONTINUOUS
10
316.875
20
-111.25
11
316.875
21
-115.5
0
ARC
8
BLACK
10
315.8750009999999975
20
-111.2499989999999883
40
0.9999990000004999
50
-0.00005730
51
90.00005730
0
LINE
8
BLACK
6
CONTINUOUS
10
310.8999999999999773
20
-110.25
11
315.875
21
-110.25
0
ARC
8
BLACK
10
310.8999989999999798
20
-111.2499989999999883
40
0.9999990000004999
50
-270.00005730
51
-179.99994270
0
LINE
8
BLACK
6
CONTINUOUS
10
309.8999999999999773
20
-111.25
11
309.8999999999999773
21
-115.5
0
ARC
8
BLACK
10
308.9000009999999747
20
-115.5000009999999975
40
0.9999990000004999
50
-90.00005730
51
0.00005730
0
LINE
8
BLACK
6
CONTINUOUS
10
303.6999999999999886
20
-116.5
11
308.8999999999999773
21
-116.5
0
LINE
8
BLACK
6
CONTINUOUS
10
322.5
20
-101.
11
322.5
21
-101.5
0
ARC
8
BLACK
10
308.2500029999999924
20
-101.0000029999999924
40
1.0000030000044999
50
90.00017189
51
179.99982811
0
ARC
8
BLACK
10
321.5000009999999975
20
-100.9999990000000025
40
0.9999990000004999
50
-0.00005730
51
90.00005730
0
ARC
8
BLACK
10
306.2500009999999975
20
-101.5000009999999975
40
0.9999990000004999
50
-90.00005730
51
0.00005730
0
LINE
8
BLACK
6
CONTINUOUS
10
307.25
20
-101.
11
307.25
21
-101.5
0
LINE
8
BLACK
6
CONTINUOUS
10
306.25
20
-102.5
11
304.4499999999999886
21
-102.5
0
LINE
8
BLACK
6
CONTINUOUS
10
321.5
20
-100.
11
308.25
21
-100.
0
LINE
8
BLACK
6
CONTINUOUS
10
87.5750000000000028
20
-103.5
11
87.5750000000000028
21
-104.4249999999999972
0
LINE
8
BLACK
6
CONTINUOUS
10
87.3773649999999975
20
-105.1692079999999976
11
86.2999999999999972
21
-106.7999999999999972
0
ARC
8
BLACK
10
86.0750000000000028
20
-104.4249999999999972
40
1.5
50
-29.74486235
51
-0.00000000
0
LINE
8
BLACK
6
CONTINUOUS
10
92.5249999999999915
20
-110.25
11
102.7749999999999915
21
-110.25
0
LINE
8
BLACK
6
CONTINUOUS
10
91.8444750000000028
20
-110.4132549999999924
11
89.1578839999999957
21
-111.75
0
ARC
8
BLACK
10
92.5249999999999915
20
-111.75
40
1.5000004902165864
50
90.00000000
51
116.98024000
0
ARC
8
BLACK
10
108.5429010000000005
20
-109.2499989999999883
40
0.9999990000319999
50
-0.00005730
51
90.00045837
0
LINE
8
BLACK
6
CONTINUOUS
10
90.7749999999999915
20
-101.
11
90.7749999999999915
21
-101.5
0
ARC
8
BLACK
10
107.0429010000000005
20
-115.4999989999999883
40
1.0000010000319999
50
-179.99994270
51
-90.00045837
0
ARC
8
BLACK
10
105.0250009999999889
20
-100.9999990000000025
40
0.9999990000004999
50
-0.00005730
51
90.00005730
0
ARC
8
BLACK
10
89.7750009999999889
20
-101.5000009999999975
40
0.9999990000004999
50
-90.00005730
51
0.00005730
0
ARC
8
BLACK
10
108.5429010000000005
20
-115.4999989999999883
40
0.9999920000004999
50
-90.00045837
51
-0.00005730
0
ARC
8
BLACK
10
105.0429010000000005
20
-111.2499989999999883
40
0.9999990000319999
50
-0.00005730
51
90.00045837
0
ARC
8
BLACK
10
91.7750009999999889
20
-100.9999990000000025
40
1.0000010000005
50
-269.99994270
51
-179.99994270
0
LINE
8
BLACK
6
CONTINUOUS
10
106.0249999999999915
20
-101.
11
106.0249999999999915
21
-101.5
0
LINE
8
BLACK
6
CONTINUOUS
10
106.0428929999999923
20
-111.25
11
106.0428929999999923
21
-115.5
0
LINE
8
BLACK
6
CONTINUOUS
10
107.0428929999999923
20
-116.5
11
108.5428929999999923
21
-116.5
0
LINE
8
BLACK
6
CONTINUOUS
10
105.0249999999999915
20
-100.
11
91.7749999999999915
21
-100.
0
LINE
8
BLACK
6
CONTINUOUS
10
102.7749999999999915
20
-110.25
11
105.0428929999999923
21
-110.25
0
ARC
8
BLACK
10
88.5749989999999912
20
-103.4999989999999883
40
0.9999990000004999
50
-270.00005730
51
-179.99994270
0
LINE
8
BLACK
6
CONTINUOUS
10
89.7749999999999915
20
-102.5
11
88.5750000000000028
21
-102.5
0
ARC
8
BLACK
10
107.025700999999998
20
-107.2513989999999922
40
0.9986019898022435
50
-179.91427965
51
-89.91932933
0
LINE
8
BLACK
6
CONTINUOUS
10
109.5428929999999923
20
-115.5
11
109.5428929999999923
21
-109.25
0
LINE
8
BLACK
6
CONTINUOUS
10
108.5428929999999923
20
-108.25
11
107.0271070000000009
21
-108.25
0
LINE
8
BLACK
6
CONTINUOUS
10
106.0271070000000009
20
-107.2528930000000003
11
106.0249999999999915
21
-101.5
0
LINE
8
BLACK
6
CONTINUOUS
10
300.2471089999999663
20
-167.375
11
302.0428929999999923
21
-167.375
0
LINE
8
BLACK
6
CONTINUOUS
10
305.0421069999999872
20
-165.375
11
305.5428929999999923
21
-165.375
0
LINE
8
BLACK
6
CONTINUOUS
10
304.4992159999999899
20
-165.375
11
305.0421069999999872
21
-165.375
0
ARC
8
BLACK
10
304.0428989999999771
20
-172.6249939999999867
40
1.0000060000179998
50
-179.99965623
51
-90.00034377
0
ARC
8
BLACK
10
302.4971029999999814
20
-158.1250059999999849
40
1.0000060000179998
50
0.00034377
51
89.99965623
0
ARC
8
BLACK
10
305.5428929999999923
20
-166.375
40
1.
50
0.00000000
51
90.00000000
0
LINE
8
BLACK
6
CONTINUOUS
10
288.2471089999999663
20
-158.125
11
288.2471089999999663
21
-158.625
0
ARC
8
BLACK
10
286.9971099999999637
20
-165.3749990000000025
40
0.9999990000004999
50
-0.00005730
51
90.00005730
0
ARC
8
BLACK
10
305.5429029999999671
20
-172.6250100000000032
40
0.9999900000500005
50
-90.00057296
51
0.00057296
0
ARC
8
BLACK
10
302.0428969999999822
20
-168.3749959999999817
40
0.999996000008
50
-0.00022918
51
90.00022918
0
ARC
8
BLACK
10
289.2471079999999688
20
-158.1249990000000025
40
0.9999990000004999
50
-270.00005730
51
-179.99994270
0
LINE
8
BLACK
6
CONTINUOUS
10
287.9971089999999663
20
-165.375
11
287.9971089999999663
21
-166.375
0
LINE
8
BLACK
6
CONTINUOUS
10
302.4971089999999663
20
-157.125
11
289.2471089999999663
21
-157.125
0
LINE
8
BLACK
6
CONTINUOUS
10
286.9971089999999663
20
-164.375
11
286.6971090000000117
21
-164.375
0
LINE
8
BLACK
6
CONTINUOUS
10
285.0471089999999776
20
-163.375
11
285.0471089999999776
21
-160.625
0
LINE
8
BLACK
6
CONTINUOUS
10
303.4992159999999899
20
-164.3778930000000003
11
303.4971089999999663
21
-158.625
0
ARC
8
BLACK
10
304.4977969999999914
20
-164.3764189999999985
40
0.9985820082106426
50
-179.91542607
51
-89.91858181
0
ARC
8
BLACK
10
286.0471079999999802
20
-160.6249990000000025
40
0.9999990000004999
50
-270.00005730
51
-179.99994270
0
LINE
8
BLACK
6
CONTINUOUS
10
288.9971089999999663
20
-167.375
11
300.2471089999999663
21
-167.375
0
LINE
8
BLACK
6
CONTINUOUS
10
303.0428929999999923
20
-168.375
11
303.0428929999999923
21
-172.625
0
LINE
8
BLACK
6
CONTINUOUS
10
286.0471089999999776
20
-164.375
11
286.6971090000000117
21
-164.375
0
LINE
8
BLACK
6
CONTINUOUS
10
303.4971089999999663
20
-158.125
11
303.4971089999999663
21
-158.625
0
LINE
8
BLACK
6
CONTINUOUS
10
304.0428929999999923
20
-173.625
11
305.5428929999999923
21
-173.625
0
ARC
8
BLACK
10
286.0471079999999802
20
-163.3750009999999975
40
0.9999990000004999
50
-180.00005730
51
-89.99994270
0
ARC
8
BLACK
10
287.2471099999999637
20
-158.6250009999999975
40
0.9999990000004999
50
-90.00005730
51
0.00005730
0
LINE
8
BLACK
6
CONTINUOUS
10
287.2471089999999663
20
-159.625
11
286.0471089999999776
21
-159.625
0
ARC
8
BLACK
10
288.9971079999999688
20
-166.3750009999999975
40
0.9999990000004999
50
-180.00005730
51
-89.99994270
0
LINE
8
BLACK
6
CONTINUOUS
10
306.5428929999999923
20
-172.625
11
306.5428929999999923
21
-166.375
0
LINE
8
BLACK
6
CONTINUOUS
10
279.5518369999999777
20
-167.3928929999999866
11
280.0678929999999696
21
-167.3928929999999866
0
LINE
8
BLACK
6
CONTINUOUS
10
283.0518369999999777
20
-165.3928929999999866
11
283.5678929999999696
21
-165.3928929999999866
0
LINE
8
BLACK
6
CONTINUOUS
10
279.0089459999999804
20
-167.3928929999999866
11
279.5518369999999777
21
-167.3928929999999866
0
LINE
8
BLACK
6
CONTINUOUS
10
280.9931599999999889
20
-165.3928929999999866
11
281.5360509999999863
21
-165.3928929999999866
0
ARC
8
BLACK
10
282.0678990000000113
20
-172.6428870000000018
40
1.0000060000179998
50
-179.99965623
51
-90.00034377
0
ARC
8
BLACK
10
278.9910469999999805
20
-158.1428989999999999
40
1.0000060000179998
50
0.00034377
51
89.99965623
0
ARC
8
BLACK
10
283.5678929999999696
20
-166.3928929999999866
40
1.
50
0.00000000
51
90.00000000
0
LINE
8
BLACK
6
CONTINUOUS
10
264.7410529999999653
20
-158.1428929999999866
11
264.7410529999999653
21
-158.6428929999999866
0
ARC
8
BLACK
10
263.4910539999999628
20
-165.3928919999999891
40
0.9999990000004999
50
-0.00005730
51
90.00005730
0
ARC
8
BLACK
10
283.5679030000000012
20
-172.6429029999999898
40
0.9999900000500005
50
-90.00057296
51
0.00057296
0
ARC
8
BLACK
10
280.0678969999999595
20
-168.3928889999999967
40
0.999996000008
50
-0.00022918
51
90.00022918
0
ARC
8
BLACK
10
265.7410519999999678
20
-158.1428919999999891
40
0.9999990000004999
50
-270.00005730
51
-179.99994270
0
LINE
8
BLACK
6
CONTINUOUS
10
264.4910529999999653
20
-165.3928929999999866
11
264.4910529999999653
21
-166.3928929999999866
0
LINE
8
BLACK
6
CONTINUOUS
10
278.9910529999999653
20
-157.1428929999999866
11
265.7410529999999653
21
-157.1428929999999866
0
LINE
8
BLACK
6
CONTINUOUS
10
263.4910529999999653
20
-164.3928929999999866
11
263.1910530000000108
21
-164.3928929999999866
0
LINE
8
BLACK
6
CONTINUOUS
10
261.5410529999999767
20
-163.3928929999999866
11
261.5410529999999767
21
-160.6428929999999866
0
LINE
8
BLACK
6
CONTINUOUS
10
279.9931599999999889
20
-164.3957859999999869
11
279.9910529999999653
21
-158.6428929999999866
0
ARC
8
BLACK
10
280.9917409999999904
20
-164.3943119999999851
40
0.9985820082106426
50
-179.91542607
51
-89.91858181
0
ARC
8
BLACK
10
262.5410519999999792
20
-160.6428919999999891
40
0.9999990000004999
50
-270.00005730
51
-179.99994270
0
LINE
8
BLACK
6
CONTINUOUS
10
283.0518369999999777
20
-165.3928929999999866
11
281.5360509999999863
21
-165.3928929999999866
0
LINE
8
BLACK
6
CONTINUOUS
10
265.4910529999999653
20
-167.3928929999999866
11
276.7410529999999653
21
-167.3928929999999866
0
LINE
8
BLACK
6
CONTINUOUS
10
281.0678929999999696
20
-168.3928929999999866
11
281.0678929999999696
21
-172.6428929999999866
0
LINE
8
BLACK
6
CONTINUOUS
10
262.5410529999999767
20
-164.3928929999999866
11
263.1910530000000108
21
-164.3928929999999866
0
LINE
8
BLACK
6
CONTINUOUS
10
279.9910529999999653
20
-158.1428929999999866
11
279.9910529999999653
21
-158.6428929999999866
0
LINE
8
BLACK
6
CONTINUOUS
10
282.0678929999999696
20
-173.6428929999999866
11
283.5678929999999696
21
-173.6428929999999866
0
ARC
8
BLACK
10
262.5410519999999792
20
-163.3928939999999841
40
0.9999990000004999
50
-180.00005730
51
-89.99994270
0
ARC
8
BLACK
10
263.7410539999999628
20
-158.6428939999999841
40
0.9999990000004999
50
-90.00005730
51
0.00005730
0
LINE
8
BLACK
6
CONTINUOUS
10
263.7410529999999653
20
-159.6428929999999866
11
262.5410529999999767
21
-159.6428929999999866
0
ARC
8
BLACK
10
265.4910519999999678
20
-166.3928939999999841
40
0.9999990000004999
50
-180.00005730
51
-89.99994270
0
LINE
8
BLACK
6
CONTINUOUS
10
276.7410529999999653
20
-167.3928929999999866
11
279.0089459999999804
21
-167.3928929999999866
0
LINE
8
BLACK
6
CONTINUOUS
10
284.5678929999999696
20
-172.6428929999999866
11
284.5678929999999696
21
-166.3928929999999866
0
LINE
8
BLACK
6
CONTINUOUS
10
252.625
20
-154.5999999999999943
11
248.5499999999999829
21
-154.5999999999999943
0
ARC
8
BLACK
10
252.6250009999999975
20
-155.5999989999999968
40
0.9999990000004999
50
-0.00005730
51
90.00005730
0
ARC
8
BLACK
10
254.6249749999999779
20
-164.6750250000000051
40
0.9999750003125079
50
-180.00143243
51
-89.99856757
0
LINE
8
BLACK
6
CONTINUOUS
10
260.3499999999999659
20
-165.6749999999999829
11
254.625
21
-165.6749999999999829
0
LINE
8
BLACK
6
CONTINUOUS
10
261.3499999999999659
20
-172.625
11
261.3499999999999659
21
-166.6749999999999829
0
ARC
8
BLACK
10
260.3500250000000165
20
-166.6749749999999892
40
0.9999750003125079
50
-0.00143243
51
90.00143243
0
ARC
8
BLACK
10
260.3499729999999772
20
-172.6249729999999829
40
1.0000270003644902
50
-89.99845306
51
-0.00154694
0
LINE
8
BLACK
6
CONTINUOUS
10
254.0499999999999829
20
-173.625
11
260.3499999999999659
21
-173.625
0
LINE
8
BLACK
6
CONTINUOUS
10
219.0249999999999773
20
-154.5749999999999886
11
222.5
21
-154.5749999999999886
0
LINE
8
BLACK
6
CONTINUOUS
10
212.75
20
-148.3499999999999943
11
222.4749999999999943
21
-148.3499999999999943
0
LINE
8
BLACK
6
CONTINUOUS
10
234.75
20
-167.375
11
239.
21
-167.375
0
LINE
8
BLACK
6
CONTINUOUS
10
220.3542599999999823
20
-175.3322819999999922
11
233.382663999999977
21
-167.7383989999999869
0
ARC
8
BLACK
10
234.75
20
-170.1290869999999984
40
2.7540872989504166
50
90.00000000
51
119.76707280
0
LINE
8
BLACK
6
CONTINUOUS
10
252.0499999999999829
20
-167.375
11
250.25
21
-167.375
0
ARC
8
BLACK
10
252.0500249999999767
20
-168.3749750000000063
40
0.9999750003125079
50
-0.00143243
51
90.00143243
0
ARC
8
BLACK
10
254.050027
20
-172.6249729999999829
40
1.0000270003644902
50
-179.99845306
51
-90.00154694
0
LINE
8
BLACK
6
CONTINUOUS
10
253.0499999999999829
20
-168.375
11
253.0499999999999829
21
-172.625
0
LINE
8
BLACK
6
CONTINUOUS
10
239.
20
-167.375
11
250.25
21
-167.375
0
LINE
8
BLACK
6
CONTINUOUS
10
214.1835289999999929
20
-170.4949330000000032
11
216.5999999999999943
21
-174.5499999999999829
0
ARC
8
BLACK
10
218.9099999999999966
20
-172.8637499999999818
40
2.8599890179201735
50
-143.87136490
51
-59.66944733
0
LINE
8
BLACK
6
CONTINUOUS
10
208.8725209999999777
20
-167.4725210000000004
11
201.125
21
-167.4749999999999943
0
ARC
8
BLACK
10
208.8725209999999777
20
-173.6500000000000057
40
6.1774789999999999
50
30.71292932
51
90.00000000
0
ARC
8
BLACK
10
222.5
20
-153.5999999999999943
40
0.975
50
-90.00000000
51
-0.00000000
0
LINE
8
BLACK
6
CONTINUOUS
10
213.1285849999999868
20
-157.2249999999999943
11
201.5
21
-157.2249999999999943
0
LINE
8
BLACK
6
CONTINUOUS
10
215.8256619999999941
20
-156.1996149999999943
11
216.8532689999999832
21
-155.3703179999999975
0
ARC
8
BLACK
10
213.1552349999999763
20
-153.2353359999999896
40
3.9897531693288992
50
-90.38271639
51
-47.98529171
0
ARC
8
BLACK
10
218.9099999999999966
20
-157.6237500000000011
40
3.0509175972131728
50
87.83980572
51
132.38703088
0
ARC
8
BLACK
10
195.1099999999999852
20
-157.6237500000000011
40
2.44652
50
-307.51218998
51
-90.00000000
0
ARC
8
BLACK
10
202.0715539999999919
20
-146.8509420000000034
40
10.3897908237981387
50
-121.77945566
51
-93.15349673
0
LINE
8
BLACK
6
CONTINUOUS
10
183.7989460000000008
20
-166.375
11
183.7989460000000008
21
-172.625
0
ARC
8
BLACK
10
184.7989549999999781
20
-166.3750090000000057
40
1.0000090000404995
50
90.00051566
51
179.99948434
0
ARC
8
BLACK
10
184.798973999999987
20
-172.6249719999999854
40
1.000028000391989
50
-179.99839576
51
-90.00160424
0
ARC
8
BLACK
10
186.3989699999999914
20
-166.3749699999999905
40
0.9999700002880085
50
-0.00171891
51
90.00137514
0
ARC
8
BLACK
10
186.3989349999999945
20
-172.6249889999999994
40
1.0000110000604991
50
-89.99936975
51
-0.00063025
0
LINE
8
BLACK
6
CONTINUOUS
10
187.3989459999999951
20
-172.625
11
187.3989459999999951
21
-166.375
0
LINE
8
BLACK
6
CONTINUOUS
10
197.1749999999999829
20
-161.875
11
197.1749999999999829
21
-163.4749999999999943
0
LINE
8
BLACK
6
CONTINUOUS
10
195.375
20
-160.0749999999999886
11
195.1099999999999852
21
-160.0769369999999867
0
ARC
8
BLACK
10
195.375
20
-161.875
40
1.7999999999999998
50
0.00000000
51
90.00000000
0
ARC
8
BLACK
10
199.1250009999999975
20
-165.4749989999999968
40
0.9999990000004999
50
-0.00005730
51
90.00005730
0
ARC
8
BLACK
10
201.1249990000000025
20
-166.4750009999999918
40
0.9999990000004999
50
-180.00005730
51
-89.99994270
0
LINE
8
BLACK
6
CONTINUOUS
10
200.125
20
-165.4749999999999943
11
200.125
21
-166.4749999999999943
0
ARC
8
BLACK
10
198.1749989999999855
20
-163.4750009999999918
40
0.9999990000004999
50
-180.00005730
51
-89.99994270
0
LINE
8
BLACK
6
CONTINUOUS
10
199.125
20
-164.4749999999999943
11
198.8249999999999886
21
-164.4749999999999943
0
LINE
8
BLACK
6
CONTINUOUS
10
198.1749999999999829
20
-164.4749999999999943
11
198.8249999999999886
21
-164.4749999999999943
0
CIRCLE
8
BLACK
10
195.1099999999999852
20
-172.8637499999999818
40
2.8504389999999997
0
LINE
8
BLACK
6
CONTINUOUS
10
178.4521069999999838
20
-165.3928929999999866
11
179.7999999999999829
21
-165.3928929999999866
0
LINE
8
BLACK
6
CONTINUOUS
10
174.1999999999999886
20
-167.3928929999999866
11
176.2999999999999829
21
-167.3928929999999866
0
ARC
8
BLACK
10
178.3000159999999994
20
-172.6428929999999866
40
1.0000000001280001
50
-180.00000000
51
-90.00091673
0
ARC
8
BLACK
10
176.4499999999999886
20
-158.1428929999999866
40
1.
50
0.00000000
51
90.00000000
0
ARC
8
BLACK
10
179.8000159999999994
20
-166.3928929999999866
40
1.0000000001280001
50
0.00000000
51
90.00091673
0
LINE
8
BLACK
6
CONTINUOUS
10
162.1999999999999886
20
-158.1428929999999866
11
162.1999999999999886
21
-158.6428929999999866
0
ARC
8
BLACK
10
160.9500009999999861
20
-165.3928919999999891
40
0.9999990000004999
50
-0.00005730
51
90.00005730
0
ARC
8
BLACK
10
179.8000159999999994
20
-172.6428929999999866
40
0.999984
50
-90.00091673
51
-0.00000000
0
ARC
8
BLACK
10
176.3000159999999994
20
-168.3928929999999866
40
1.0000000001280001
50
0.00000000
51
90.00091673
0
ARC
8
BLACK
10
163.1999999999999886
20
-158.1428929999999866
40
1.
50
90.00000000
51
180.00000000
0
LINE
8
BLACK
6
CONTINUOUS
10
161.9499999999999886
20
-165.3928929999999866
11
161.9499999999999886
21
-166.3928929999999866
0
LINE
8
BLACK
6
CONTINUOUS
10
176.4499999999999886
20
-157.1428929999999866
11
163.1999999999999886
21
-157.1428929999999866
0
LINE
8
BLACK
6
CONTINUOUS
10
160.9499999999999886
20
-164.3928929999999866
11
160.6500000000000057
21
-164.3928929999999866
0
LINE
8
BLACK
6
CONTINUOUS
10
159.
20
-163.3928929999999866
11
159.
21
-160.6428929999999866
0
LINE
8
BLACK
6
CONTINUOUS
10
177.4521069999999838
20
-164.3957859999999869
11
177.4499999999999886
21
-158.6428929999999866
0
ARC
8
BLACK
10
178.4506999999999834
20
-164.3942930000000047
40
0.9986009912117051
50
-179.91433694
51
-89.91927187
0
ARC
8
BLACK
10
159.9999990000000025
20
-160.6428919999999891
40
0.9999990000004999
50
-270.00005730
51
-179.99994270
0
LINE
8
BLACK
6
CONTINUOUS
10
162.9499999999999886
20
-167.3928929999999866
11
174.1999999999999886
21
-167.3928929999999866
0
LINE
8
BLACK
6
CONTINUOUS
10
177.2999999999999829
20
-168.3928929999999866
11
177.2999999999999829
21
-172.6428929999999866
0
LINE
8
BLACK
6
CONTINUOUS
10
160.
20
-164.3928929999999866
11
160.6500000000000057
21
-164.3928929999999866
0
LINE
8
BLACK
6
CONTINUOUS
10
177.4499999999999886
20
-158.1428929999999866
11
177.4499999999999886
21
-158.6428929999999866
0
LINE
8
BLACK
6
CONTINUOUS
10
178.2999999999999829
20
-173.6428929999999866
11
179.7999999999999829
21
-173.6428929999999866
0
ARC
8
BLACK
10
159.9999990000000025
20
-163.3928939999999841
40
0.9999990000004999
50
-180.00005730
51
-89.99994270
0
ARC
8
BLACK
10
161.2000009999999861
20
-158.6428939999999841
40
0.9999990000004999
50
-90.00005730
51
0.00005730
0
LINE
8
BLACK
6
CONTINUOUS
10
161.1999999999999886
20
-159.6428929999999866
11
160.
21
-159.6428929999999866
0
ARC
8
BLACK
10
162.9499989999999912
20
-166.3928939999999841
40
0.9999990000004999
50
-180.00005730
51
-89.99994270
0
LINE
8
BLACK
6
CONTINUOUS
10
180.7999999999999829
20
-172.6428929999999866
11
180.7999999999999829
21
-166.3928929999999866
0
LINE
8
BLACK
6
CONTINUOUS
10
150.25
20
-167.3928929999999866
11
150.7928909999999973
21
-167.3928929999999866
0
LINE
8
BLACK
6
CONTINUOUS
10
152.2342139999999802
20
-165.3928929999999866
11
152.7771050000000059
21
-165.3928929999999866
0
ARC
8
BLACK
10
152.7929069999999854
20
-172.6428929999999866
40
1.0000000001280001
50
-180.00000000
51
-90.00091673
0
ARC
8
BLACK
10
150.232106999999985
20
-158.1428929999999866
40
1.
50
0.00000000
51
90.00000000
0
ARC
8
BLACK
10
154.2929069999999854
20
-166.3928929999999866
40
1.0000000001280001
50
0.00000000
51
90.00091673
0
LINE
8
BLACK
6
CONTINUOUS
10
135.982106999999985
20
-158.1428929999999866
11
135.982106999999985
21
-158.6428929999999866
0
ARC
8
BLACK
10
134.7321079999999824
20
-165.3928919999999891
40
0.9999990000004999
50
-0.00005730
51
90.00005730
0
ARC
8
BLACK
10
154.2929069999999854
20
-172.6428929999999866
40
0.999984
50
-90.00091673
51
-0.00000000
0
ARC
8
BLACK
10
150.7929069999999854
20
-168.3928929999999866
40
1.0000000001280001
50
0.00000000
51
90.00091673
0
ARC
8
BLACK
10
136.982106999999985
20
-158.1428929999999866
40
1.
50
90.00000000
51
180.00000000
0
LINE
8
BLACK
6
CONTINUOUS
10
135.732106999999985
20
-165.3928929999999866
11
135.732106999999985
21
-166.3928929999999866
0
LINE
8
BLACK
6
CONTINUOUS
10
150.232106999999985
20
-157.1428929999999866
11
136.982106999999985
21
-157.1428929999999866
0
LINE
8
BLACK
6
CONTINUOUS
10
134.732106999999985
20
-164.3928929999999866
11
134.432107000000002
21
-164.3928929999999866
0
LINE
8
BLACK
6
CONTINUOUS
10
132.7821069999999963
20
-163.3928929999999866
11
132.7821069999999963
21
-160.6428929999999866
0
LINE
8
BLACK
6
CONTINUOUS
10
151.2342139999999802
20
-164.3957859999999869
11
151.232106999999985
21
-158.6428929999999866
0
ARC
8
BLACK
10
152.2328069999999798
20
-164.3942930000000047
40
0.9986009912117051
50
-179.91433694
51
-89.91927187
0
ARC
8
BLACK
10
133.7821059999999989
20
-160.6428919999999891
40
0.9999990000004999
50
-270.00005730
51
-179.99994270
0
LINE
8
BLACK
6
CONTINUOUS
10
154.2928909999999973
20
-165.3928929999999866
11
152.7771050000000059
21
-165.3928929999999866
0
LINE
8
BLACK
6
CONTINUOUS
10
136.732106999999985
20
-167.3928929999999866
11
147.982106999999985
21
-167.3928929999999866
0
LINE
8
BLACK
6
CONTINUOUS
10
151.7928909999999973
20
-168.3928929999999866
11
151.7928909999999973
21
-172.6428929999999866
0
LINE
8
BLACK
6
CONTINUOUS
10
133.7821069999999963
20
-164.3928929999999866
11
134.432107000000002
21
-164.3928929999999866
0
LINE
8
BLACK
6
CONTINUOUS
10
151.232106999999985
20
-158.1428929999999866
11
151.232106999999985
21
-158.6428929999999866
0
LINE
8
BLACK
6
CONTINUOUS
10
152.7928909999999973
20
-173.6428929999999866
11
154.2928909999999973
21
-173.6428929999999866
0
ARC
8
BLACK
10
133.7821059999999989
20
-163.3928939999999841
40
0.9999990000004999
50
-180.00005730
51
-89.99994270
0
ARC
8
BLACK
10
134.9821079999999824
20
-158.6428939999999841
40
0.9999990000004999
50
-90.00005730
51
0.00005730
0
LINE
8
BLACK
6
CONTINUOUS
10
134.982106999999985
20
-159.6428929999999866
11
133.7821069999999963
21
-159.6428929999999866
0
ARC
8
BLACK
10
136.7321059999999875
20
-166.3928939999999841
40
0.9999990000004999
50
-180.00005730
51
-89.99994270
0
LINE
8
BLACK
6
CONTINUOUS
10
147.982106999999985
20
-167.3928929999999866
11
150.25
21
-167.3928929999999866
0
LINE
8
BLACK
6
CONTINUOUS
10
155.2928909999999973
20
-172.6428929999999866
11
155.2928909999999973
21
-166.3928929999999866
0
LINE
8
BLACK
6
CONTINUOUS
10
121.6749999999999972
20
-167.3928929999999866
11
122.2178909999999945
21
-167.3928929999999866
0
LINE
8
BLACK
6
CONTINUOUS
10
123.6592139999999915
20
-165.3928929999999866
11
124.2021049999999889
21
-165.3928929999999866
0
ARC
8
BLACK
10
124.2178909999999945
20
-172.6428999999999974
40
0.9999929999999999
50
-180.00040107
51
-90.00000000
0
ARC
8
BLACK
10
121.6570999999999998
20
-158.1428999999999974
40
1.0000070000244998
50
0.00040107
51
89.99959893
0
ARC
8
BLACK
10
125.7178909999999945
20
-166.3928999999999974
40
1.0000069999999999
50
0.00040107
51
90.00000000
0
LINE
8
BLACK
6
CONTINUOUS
10
107.4071069999999963
20
-158.1428929999999866
11
107.4071069999999963
21
-158.6428929999999866
0
ARC
8
BLACK
10
106.1571079999999938
20
-165.3928919999999891
40
0.9999990000004999
50
-0.00005730
51
90.00005730
0
ARC
8
BLACK
10
106.4071079999999938
20
-158.6428939999999841
40
0.9999990000004999
50
-90.00005730
51
0.00005730
0
ARC
8
BLACK
10
125.7178909999999945
20
-172.6428999999999974
40
1.0000000000245
50
-90.00000000
51
0.00040107
0
ARC
8
BLACK
10
122.2178909999999945
20
-168.3928999999999974
40
1.0000069999999999
50
0.00040107
51
90.00000000
0
ARC
8
BLACK
10
108.4071059999999989
20
-158.1428919999999891
40
0.9999990000004999
50
-270.00005730
51
-179.99994270
0
LINE
8
BLACK
6
CONTINUOUS
10
108.1571069999999963
20
-167.3928929999999866
11
119.4071069999999963
21
-167.3928929999999866
0
ARC
8
BLACK
10
108.1571059999999989
20
-166.3928939999999841
40
0.9999990000004999
50
-180.00005730
51
-89.99994270
0
LINE
8
BLACK
6
CONTINUOUS
10
107.1571069999999963
20
-165.3928929999999866
11
107.1571069999999963
21
-166.3928929999999866
0
LINE
8
BLACK
6
CONTINUOUS
10
122.6571069999999963
20
-158.1428929999999866
11
122.6571069999999963
21
-158.6428929999999866
0
LINE
8
BLACK
6
CONTINUOUS
10
121.6571069999999963
20
-157.1428929999999866
11
108.4071069999999963
21
-157.1428929999999866
0
ARC
8
BLACK
10
105.207105999999996
20
-163.3928939999999841
40
0.9999990000004999
50
-180.00005730
51
-89.99994270
0
LINE
8
BLACK
6
CONTINUOUS
10
119.4071069999999963
20
-167.3928929999999866
11
121.6749999999999972
21
-167.3928929999999866
0
LINE
8
BLACK
6
CONTINUOUS
10
123.2178909999999945
20
-168.3928929999999866
11
123.2178909999999945
21
-172.6428929999999866
0
LINE
8
BLACK
6
CONTINUOUS
10
122.6592139999999915
20
-164.3957859999999869
11
122.6571069999999963
21
-158.6428929999999866
0
LINE
8
BLACK
6
CONTINUOUS
10
106.1571069999999963
20
-164.3928929999999866
11
105.8571069999999992
21
-164.3928929999999866
0
LINE
8
BLACK
6
CONTINUOUS
10
105.2071069999999935
20
-164.3928929999999866
11
105.8571069999999992
21
-164.3928929999999866
0
ARC
8
BLACK
10
123.6577999999999946
20
-164.394299999999987
40
0.998594001106055
50
-179.91473797
51
-89.91886967
0
LINE
8
BLACK
6
CONTINUOUS
10
104.2071069999999935
20
-163.3928929999999866
11
104.2071069999999935
21
-160.6428929999999866
0
LINE
8
BLACK
6
CONTINUOUS
10
106.4071069999999963
20
-159.6428929999999866
11
105.2071069999999935
21
-159.6428929999999866
0
LINE
8
BLACK
6
CONTINUOUS
10
124.2178909999999945
20
-173.6428929999999866
11
125.7178909999999945
21
-173.6428929999999866
0
ARC
8
BLACK
10
105.207105999999996
20
-160.6428919999999891
40
0.9999990000004999
50
-270.00005730
51
-179.99994270
0
LINE
8
BLACK
6
CONTINUOUS
10
126.7178909999999945
20
-172.6428929999999866
11
126.7178909999999945
21
-166.3928929999999866
0
LINE
8
BLACK
6
CONTINUOUS
10
125.7178909999999945
20
-165.3928929999999866
11
124.2021049999999889
21
-165.3928929999999866
0
ARC
8
BLACK
10
108.5428999999999888
20
-147.3499999999999943
40
1.0000000000245
50
0.00000000
51
90.00040107
0
ARC
8
BLACK
10
89.5249999999999915
20
-146.3499999999999943
40
1.
50
0.00000000
51
90.00000000
0
LINE
8
BLACK
6
CONTINUOUS
10
90.7749999999999915
20
-139.0999999999999943
11
90.7749999999999915
21
-139.5999999999999943
0
ARC
8
BLACK
10
107.0428999999999888
20
-153.5999999999999943
40
1.0000000000245
50
-180.00000000
51
-90.00040107
0
ARC
8
BLACK
10
105.0249999999999915
20
-139.0999999999999943
40
1.
50
0.00000000
51
90.00000000
0
ARC
8
BLACK
10
89.7749999999999915
20
-139.5999999999999943
40
1.
50
-90.00000000
51
-0.00000000
0
ARC
8
BLACK
10
108.5428999999999888
20
-153.5999999999999943
40
0.9999929999999999
50
-90.00040107
51
-0.00000000
0
ARC
8
BLACK
10
105.0428999999999888
20
-149.3499999999999943
40
1.0000000000245
50
0.00000000
51
90.00040107
0
ARC
8
BLACK
10
91.7749999999999915
20
-139.0999999999999943
40
1.
50
90.00000000
51
180.00000000
0
LINE
8
BLACK
6
CONTINUOUS
10
91.5249999999999915
20
-148.3499999999999943
11
102.7749999999999915
21
-148.3499999999999943
0
ARC
8
BLACK
10
91.5249999999999915
20
-147.3499999999999943
40
1.
50
-180.00000000
51
-90.00000000
0
LINE
8
BLACK
6
CONTINUOUS
10
106.0249999999999915
20
-139.0999999999999943
11
106.0249999999999915
21
-139.5999999999999943
0
LINE
8
BLACK
6
CONTINUOUS
10
106.0428929999999923
20
-149.3499999999999943
11
106.0428929999999923
21
-153.5999999999999943
0
LINE
8
BLACK
6
CONTINUOUS
10
107.0428929999999923
20
-154.5999999999999943
11
108.5428929999999923
21
-154.5999999999999943
0
LINE
8
BLACK
6
CONTINUOUS
10
105.0249999999999915
20
-138.0999999999999943
11
91.7749999999999915
21
-138.0999999999999943
0
LINE
8
BLACK
6
CONTINUOUS
10
89.5249999999999915
20
-145.3499999999999943
11
89.2249999999999943
21
-145.3499999999999943
0
LINE
8
BLACK
6
CONTINUOUS
10
90.5249999999999915
20
-146.3499999999999943
11
90.5249999999999915
21
-147.3499999999999943
0
LINE
8
BLACK
6
CONTINUOUS
10
102.7749999999999915
20
-148.3499999999999943
11
105.0428929999999923
21
-148.3499999999999943
0
LINE
8
BLACK
6
CONTINUOUS
10
88.5750000000000028
20
-145.3499999999999943
11
89.2249999999999943
21
-145.3499999999999943
0
LINE
8
BLACK
6
CONTINUOUS
10
87.5750000000000028
20
-144.3499999999999943
11
87.5750000000000028
21
-141.5999999999999943
0
ARC
8
BLACK
10
88.5750000000000028
20
-141.5999999999999943
40
1.
50
90.00000000
51
180.00000000
0
ARC
8
BLACK
10
88.5750000000000028
20
-144.3499999999999943
40
1.
50
-180.00000000
51
-90.00000000
0
LINE
8
BLACK
6
CONTINUOUS
10
89.7749999999999915
20
-140.5999999999999943
11
88.5750000000000028
21
-140.5999999999999943
0
ARC
8
BLACK
10
107.0257000000000005
20
-145.3513999999999839
40
0.9986009912117051
50
-179.91433694
51
-89.91927187
0
LINE
8
BLACK
6
CONTINUOUS
10
109.5428929999999923
20
-153.5999999999999943
11
109.5428929999999923
21
-147.3499999999999943
0
LINE
8
BLACK
6
CONTINUOUS
10
108.5428929999999923
20
-146.3499999999999943
11
107.0271070000000009
21
-146.3499999999999943
0
LINE
8
BLACK
6
CONTINUOUS
10
106.0271070000000009
20
-145.3528929999999946
11
106.0249999999999915
21
-139.5999999999999943
0
LINE
8
BLACK
6
CONTINUOUS
10
106.0271070000000009
20
-126.3028929999999974
11
106.0249999999999915
21
-120.5499999999999972
0
LINE
8
BLACK
6
CONTINUOUS
10
108.5428929999999923
20
-127.2999999999999972
11
107.0271070000000009
21
-127.2999999999999972
0
LINE
8
BLACK
6
CONTINUOUS
10
109.5428929999999923
20
-134.5499999999999829
11
109.5428929999999923
21
-128.2999999999999829
0
ARC
8
BLACK
10
107.0256589999999903
20
-126.301446999999996
40
0.9985540498706116
50
-179.91703022
51
-89.91691555
0
ARC
8
BLACK
10
108.5428929999999923
20
-128.2999999999999829
40
1.
50
0.00000000
51
90.00000000
0
LINE
8
BLACK
6
CONTINUOUS
10
102.7749999999999915
20
-129.2999999999999829
11
105.0428929999999923
21
-129.2999999999999829
0
LINE
8
BLACK
6
CONTINUOUS
10
88.5750000000000028
20
-126.2999999999999972
11
89.2249999999999943
21
-126.2999999999999972
0
LINE
8
BLACK
6
CONTINUOUS
10
89.7749999999999915
20
-121.5499999999999972
11
88.5750000000000028
21
-121.5499999999999972
0
LINE
8
BLACK
6
CONTINUOUS
10
87.5750000000000028
20
-125.2999999999999972
11
87.5750000000000028
21
-122.5499999999999972
0
ARC
8
BLACK
10
88.5749989999999912
20
-122.5499989999999997
40
0.9999990000004999
50
-270.00005730
51
-179.99994270
0
ARC
8
BLACK
10
88.5749989999999912
20
-125.3000009999999946
40
0.9999990000004999
50
-180.00005730
51
-89.99994270
0
ARC
8
BLACK
10
89.5250009999999889
20
-127.2999989999999997
40
0.9999990000004999
50
-0.00005730
51
90.00005730
0
LINE
8
BLACK
6
CONTINUOUS
10
90.7749999999999915
20
-120.0499999999999972
11
90.7749999999999915
21
-120.5499999999999972
0
ARC
8
BLACK
10
107.0428929999999923
20
-134.5499999999999829
40
1.
50
-180.00000000
51
-90.00000000
0
ARC
8
BLACK
10
105.0249999999999915
20
-120.0499999999999972
40
1.
50
0.00000000
51
90.00000000
0
LINE
8
BLACK
6
CONTINUOUS
10
105.0249999999999915
20
-119.0499999999999972
11
91.7749999999999915
21
-119.0499999999999972
0
ARC
8
BLACK
10
108.5428929999999923
20
-134.5499999999999829
40
1.
50
-90.00000000
51
-0.00000000
0
LINE
8
BLACK
6
CONTINUOUS
10
91.5249999999999915
20
-129.2999999999999829
11
102.7749999999999915
21
-129.2999999999999829
0
ARC
8
BLACK
10
105.0428929999999923
20
-130.2999999999999829
40
1.
50
0.00000000
51
90.00000000
0
ARC
8
BLACK
10
89.7749999999999915
20
-120.5499999999999972
40
1.
50
-90.00000000
51
-0.00000000
0
ARC
8
BLACK
10
91.7749999999999915
20
-120.0499999999999972
40
1.
50
90.00000000
51
180.00000000
0
ARC
8
BLACK
10
91.5249900000000025
20
-128.3000099999999861
40
0.9999900000500005
50
-180.00057296
51
-89.99942704
0
LINE
8
BLACK
6
CONTINUOUS
10
106.0249999999999915
20
-120.0499999999999972
11
106.0249999999999915
21
-120.5499999999999972
0
LINE
8
BLACK
6
CONTINUOUS
10
106.0428929999999923
20
-130.2999999999999829
11
106.0428929999999923
21
-134.5499999999999829
0
LINE
8
BLACK
6
CONTINUOUS
10
90.5249999999999915
20
-127.2999999999999972
11
90.5249999999999915
21
-128.2999999999999829
0
LINE
8
BLACK
6
CONTINUOUS
10
89.5249999999999915
20
-126.2999999999999972
11
89.2249999999999943
21
-126.2999999999999972
0
LINE
8
BLACK
6
CONTINUOUS
10
107.0428929999999923
20
-135.5499999999999829
11
108.5428929999999923
21
-135.5499999999999829
0
LINE
8
BLACK
6
CONTINUOUS
10
321.5
20
-129.2999999999999829
11
312.0749999999999886
21
-129.2999999999999829
0
LINE
8
BLACK
6
CONTINUOUS
10
322.5
20
-120.5499999999999972
11
322.5
21
-128.2999999999999829
0
ARC
8
BLACK
10
321.5000009999999975
20
-128.3000009999999804
40
0.9999990000004999
50
-90.00005730
51
0.00005730
0
ARC
8
BLACK
10
311.0749989999999912
20
-130.2999989999999855
40
0.9999990000004999
50
-270.00005730
51
-179.99994270
0
LINE
8
BLACK
6
CONTINUOUS
10
310.0749999999999886
20
-130.2999999999999829
11
310.0749999999999886
21
-134.5499999999999829
0
ARC
8
BLACK
10
309.0750009999999861
20
-134.5500009999999804
40
0.9999990000004999
50
-90.00005730
51
0.00005730
0
LINE
8
BLACK
6
CONTINUOUS
10
307.25
20
-120.0499999999999972
11
307.25
21
-120.5499999999999972
0
ARC
8
BLACK
10
306.2500009999999975
20
-120.5500009999999946
40
0.9999990000004999
50
-90.00005730
51
0.00005730
0
ARC
8
BLACK
10
321.5
20
-120.0499999999999972
40
1.
50
0.00000000
51
90.00000000
0
LINE
8
BLACK
6
CONTINUOUS
10
321.5
20
-119.0499999999999972
11
308.25
21
-119.0499999999999972
0
LINE
8
BLACK
6
CONTINUOUS
10
322.5
20
-120.0499999999999972
11
322.5
21
-120.5499999999999972
0
ARC
8
BLACK
10
308.25
20
-120.0499999999999972
40
1.
50
90.00000000
51
180.00000000
0
LINE
8
BLACK
6
CONTINUOUS
10
302.1999999999999886
20
-135.5499999999999829
11
303.6999999999999886
21
-135.5499999999999829
0
ARC
8
BLACK
10
302.4499999999999886
20
-120.0499999999999972
40
1.
50
0.00000000
51
90.00000000
0
LINE
8
BLACK
6
CONTINUOUS
10
288.1999999999999886
20
-120.0499999999999972
11
288.1999999999999886
21
-120.5499999999999972
0
LINE
8
BLACK
6
CONTINUOUS
10
286.9499999999999886
20
-126.2999999999999972
11
286.6499999999999773
21
-126.2999999999999972
0
LINE
8
BLACK
6
CONTINUOUS
10
301.1999999999999886
20
-130.2999999999999829
11
301.1999999999999886
21
-134.5499999999999829
0
ARC
8
BLACK
10
300.1999999999999886
20
-130.2999999999999829
40
1.
50
0.00000000
51
90.00000000
0
LINE
8
BLACK
6
CONTINUOUS
10
287.1999999999999886
20
-121.5499999999999972
11
285.3999999999999773
21
-121.5499999999999972
0
ARC
8
BLACK
10
286.6499989999999798
20
-127.2999989999999997
40
0.9999990000004999
50
-270.00005730
51
-179.99994270
0
ARC
8
BLACK
10
287.2000009999999861
20
-120.5500009999999946
40
0.9999990000004999
50
-90.00005730
51
0.00005730
0
ARC
8
BLACK
10
288.9499920000000088
20
-128.3000079999999912
40
0.9999920000320002
50
-180.00045837
51
-89.99954163
0
LINE
8
BLACK
6
CONTINUOUS
10
302.4499999999999886
20
-119.0499999999999972
11
289.1999999999999886
21
-119.0499999999999972
0
LINE
8
BLACK
6
CONTINUOUS
10
288.9499999999999886
20
-129.2999999999999829
11
300.1999999999999886
21
-129.2999999999999829
0
LINE
8
BLACK
6
CONTINUOUS
10
287.9499999999999886
20
-127.2999999999999972
11
287.9499999999999886
21
-128.2999999999999829
0
LINE
8
BLACK
6
CONTINUOUS
10
303.4499999999999886
20
-120.0499999999999972
11
303.4499999999999886
21
-120.5499999999999972
0
ARC
8
BLACK
10
286.9500009999999861
20
-127.2999989999999997
40
0.9999990000004999
50
-0.00005730
51
90.00005730
0
ARC
8
BLACK
10
289.1999989999999912
20
-120.0499989999999997
40
0.9999990000004999
50
-270.00005730
51
-179.99994270
0
ARC
8
BLACK
10
304.4499999999999886
20
-120.5499999999999972
40
1.
50
-180.00000000
51
-90.00000000
0
ARC
8
BLACK
10
302.1999999999999886
20
-134.5499999999999829
40
1.
50
-180.00000000
51
-90.00000000
0
LINE
8
BLACK
6
CONTINUOUS
10
268.1499999999999773
20
-121.5499999999999972
11
266.3499999999999659
21
-121.5499999999999972
0
ARC
8
BLACK
10
267.5999989999999684
20
-127.2999989999999997
40
0.9999990000004999
50
-270.00005730
51
-179.99994270
0
ARC
8
BLACK
10
281.1500179999999887
20
-130.299982
40
0.9999820001620028
50
-0.00103134
51
90.00103134
0
ARC
8
BLACK
10
284.6500100000000089
20
-134.5500099999999861
40
0.9999900000500005
50
-90.00057296
51
0.00057296
0
LINE
8
BLACK
6
CONTINUOUS
10
267.8999999999999773
20
-126.2999999999999972
11
267.5999999999999659
21
-126.2999999999999972
0
ARC
8
BLACK
10
285.4000199999999836
20
-120.5499799999999908
40
1.0000200001999959
50
-179.99885411
51
-90.00114589
0
LINE
8
BLACK
6
CONTINUOUS
10
269.1499999999999773
20
-120.0499999999999972
11
269.1499999999999773
21
-120.5499999999999972
0
ARC
8
BLACK
10
270.1499989999999798
20
-120.0499989999999997
40
0.9999990000004999
50
-270.00005730
51
-179.99994270
0
LINE
8
BLACK
6
CONTINUOUS
10
269.8999999999999773
20
-129.2999999999999829
11
281.1499999999999773
21
-129.2999999999999829
0
ARC
8
BLACK
10
283.4000199999999836
20
-120.0499799999999908
40
0.9999800002000039
50
-0.00114594
51
90.00114594
0
ARC
8
BLACK
10
267.9000009999999747
20
-127.2999989999999997
40
0.9999990000004999
50
-0.00005730
51
90.00005730
0
LINE
8
BLACK
6
CONTINUOUS
10
283.1499999999999773
20
-135.5499999999999829
11
284.6499999999999773
21
-135.5499999999999829
0
ARC
8
BLACK
10
268.1500009999999747
20
-120.5500009999999946
40
0.9999990000004999
50
-90.00005730
51
0.00005730
0
LINE
8
BLACK
6
CONTINUOUS
10
285.6499999999999773
20
-127.2999999999999972
11
285.6499999999999773
21
-134.5499999999999829
0
ARC
8
BLACK
10
269.8999919999999975
20
-128.3000079999999912
40
0.9999920000320002
50
-180.00045837
51
-89.99954163
0
ARC
8
BLACK
10
283.1500159999999937
20
-134.5499839999999949
40
1.0000160001279979
50
-179.99908328
51
-90.00091672
0
LINE
8
BLACK
6
CONTINUOUS
10
284.3999999999999773
20
-120.0499999999999972
11
284.3999999999999773
21
-120.5499999999999972
0
LINE
8
BLACK
6
CONTINUOUS
10
282.1499999999999773
20
-130.2999999999999829
11
282.1499999999999773
21
-134.5499999999999829
0
LINE
8
BLACK
6
CONTINUOUS
10
283.3999999999999773
20
-119.0499999999999972
11
270.1499999999999773
21
-119.0499999999999972
0
LINE
8
BLACK
6
CONTINUOUS
10
268.8999999999999773
20
-127.2999999999999972
11
268.8999999999999773
21
-128.2999999999999829
0
LINE
8
BLACK
6
CONTINUOUS
10
264.3499999999999659
20
-119.0499999999999972
11
251.0999999999999943
21
-119.0499999999999972
0
LINE
8
BLACK
6
CONTINUOUS
10
249.0999999999999943
20
-121.5499999999999972
11
247.2999999999999829
21
-121.5499999999999972
0
LINE
8
BLACK
6
CONTINUOUS
10
248.8499999999999943
20
-126.2999999999999972
11
248.5499999999999829
21
-126.2999999999999972
0
LINE
8
BLACK
6
CONTINUOUS
10
266.5999999999999659
20
-127.2999999999999972
11
266.5999999999999659
21
-134.5499999999999829
0
LINE
8
BLACK
6
CONTINUOUS
10
249.8499999999999943
20
-127.2999999999999972
11
249.8499999999999943
21
-128.2999999999999829
0
LINE
8
BLACK
6
CONTINUOUS
10
250.8499999999999943
20
-129.2999999999999829
11
262.0999999999999659
21
-129.2999999999999829
0
ARC
8
BLACK
10
250.8499919999999861
20
-128.3000079999999912
40
0.9999920000320002
50
-180.00045837
51
-89.99954163
0
ARC
8
BLACK
10
264.3500179999999773
20
-120.049982
40
0.9999820001620028
50
-0.00103134
51
90.00103134
0
ARC
8
BLACK
10
266.3500169999999798
20
-120.5499870000000016
40
1.000013000144498
50
-179.99925517
51
-90.00097402
0
ARC
8
BLACK
10
248.8500009999999918
20
-127.2999989999999997
40
0.9999990000004999
50
-0.00005730
51
90.00005730
0
ARC
8
BLACK
10
248.5499989999999855
20
-127.2999989999999997
40
0.9999990000004999
50
-270.00005730
51
-179.99994270
0
LINE
8
BLACK
6
CONTINUOUS
10
265.3499999999999659
20
-120.0499999999999972
11
265.3499999999999659
21
-120.5499999999999972
0
ARC
8
BLACK
10
265.6000070000000051
20
-134.5500069999999937
40
0.9999930000245001
50
-90.00040107
51
0.00040107
0
ARC
8
BLACK
10
264.1000159999999823
20
-134.5499839999999949
40
1.0000160001279979
50
-179.99908328
51
-90.00091672
0
ARC
8
BLACK
10
251.0999989999999968
20
-120.0499989999999997
40
0.9999990000004999
50
-270.00005730
51
-179.99994270
0
LINE
8
BLACK
6
CONTINUOUS
10
250.0999999999999943
20
-120.0499999999999972
11
250.0999999999999943
21
-120.5499999999999972
0
LINE
8
BLACK
6
CONTINUOUS
10
263.0999999999999659
20
-130.2999999999999829
11
263.0999999999999659
21
-134.5499999999999829
0
LINE
8
BLACK
6
CONTINUOUS
10
264.0999999999999659
20
-135.5499999999999829
11
265.5999999999999659
21
-135.5499999999999829
0
ARC
8
BLACK
10
262.1000179999999773
20
-130.299982
40
0.9999820001620028
50
-0.00103134
51
90.00103134
0
ARC
8
BLACK
10
249.1000009999999918
20
-120.5500009999999946
40
0.9999990000004999
50
-90.00005730
51
0.00005730
0
ARC
8
BLACK
10
243.0500069999999937
20
-130.3000069999999937
40
1.0000070000244998
50
0.00040107
51
90.00040107
0
LINE
8
BLACK
6
CONTINUOUS
10
230.0499999999999829
20
-121.5499999999999972
11
228.25
21
-121.5499999999999972
0
LINE
8
BLACK
6
CONTINUOUS
10
244.0499999999999829
20
-130.2999999999999829
11
244.0499999999999829
21
-134.5499999999999829
0
ARC
8
BLACK
10
231.7999969999999905
20
-128.2999969999999905
40
1.0000030000044999
50
-179.99982811
51
-89.99982811
0
ARC
8
BLACK
10
229.4999990000000025
20
-127.2999989999999997
40
0.9999990000004999
50
-270.00005730
51
-179.99994270
0
ARC
8
BLACK
10
229.8000009999999804
20
-127.2999989999999997
40
0.9999990000004999
50
-0.00005730
51
90.00005730
0
LINE
8
BLACK
6
CONTINUOUS
10
246.2999999999999829
20
-120.0499999999999972
11
246.2999999999999829
21
-120.5499999999999972
0
ARC
8
BLACK
10
246.5500069999999937
20
-134.5500069999999937
40
0.9999930000245001
50
-90.00040107
51
0.00040107
0
LINE
8
BLACK
6
CONTINUOUS
10
231.0499999999999829
20
-120.0499999999999972
11
231.0499999999999829
21
-120.5499999999999972
0
ARC
8
BLACK
10
245.0500069999999937
20
-134.5500069999999937
40
0.9999930000245001
50
-180.00040107
51
-90.00040107
0
ARC
8
BLACK
10
247.3000069999999937
20
-120.5500069999999937
40
0.9999930000245001
50
-180.00040107
51
-90.00040107
0
LINE
8
BLACK
6
CONTINUOUS
10
230.7999999999999829
20
-127.2999999999999972
11
230.7999999999999829
21
-128.2999999999999829
0
LINE
8
BLACK
6
CONTINUOUS
10
245.0499999999999829
20
-135.5499999999999829
11
246.5499999999999829
21
-135.5499999999999829
0
ARC
8
BLACK
10
230.0500009999999804
20
-120.5500009999999946
40
0.9999990000004999
50
-90.00005730
51
0.00005730
0
LINE
8
BLACK
6
CONTINUOUS
10
231.7999999999999829
20
-129.2999999999999829
11
243.0499999999999829
21
-129.2999999999999829
0
ARC
8
BLACK
10
245.3000069999999937
20
-120.0500069999999937
40
1.0000070000244998
50
0.00040107
51
90.00040107
0
LINE
8
BLACK
6
CONTINUOUS
10
245.2999999999999829
20
-119.0499999999999972
11
232.0499999999999829
21
-119.0499999999999972
0
LINE
8
BLACK
6
CONTINUOUS
10
247.5499999999999829
20
-127.2999999999999972
11
247.5499999999999829
21
-134.5499999999999829
0
ARC
8
BLACK
10
232.0499989999999855
20
-120.0499989999999997
40
0.9999990000004999
50
-270.00005730
51
-179.99994270
0
LINE
8
BLACK
6
CONTINUOUS
10
229.7999999999999829
20
-126.2999999999999972
11
229.5
21
-126.2999999999999972
0
ARC
8
BLACK
10
226.
20
-134.5499999999999829
40
1.
50
-180.00000000
51
-90.00000000
0
LINE
8
BLACK
6
CONTINUOUS
10
212.
20
-120.0499999999999972
11
212.
21
-120.5499999999999972
0
ARC
8
BLACK
10
228.25
20
-120.5499999999999972
40
1.
50
-180.00000000
51
-90.00000000
0
LINE
8
BLACK
6
CONTINUOUS
10
228.5
20
-127.2999999999999972
11
228.5
21
-134.5499999999999829
0
LINE
8
BLACK
6
CONTINUOUS
10
212.75
20
-129.2999999999999829
11
224.
21
-129.2999999999999829
0
LINE
8
BLACK
6
CONTINUOUS
10
226.25
20
-119.0499999999999972
11
213.
21
-119.0499999999999972
0
ARC
8
BLACK
10
224.
20
-130.2999999999999829
40
1.
50
0.00000000
51
90.00000000
0
LINE
8
BLACK
6
CONTINUOUS
10
211.
20
-121.5499999999999972
11
209.1999999999999886
21
-121.5499999999999972
0
ARC
8
BLACK
10
227.5
20
-134.5499999999999829
40
1.
50
-90.00000000
51
-0.00000000
0
LINE
8
BLACK
6
CONTINUOUS
10
227.25
20
-120.0499999999999972
11
227.25
21
-120.5499999999999972
0
ARC
8
BLACK
10
212.9999990000000025
20
-120.0499989999999997
40
0.9999990000004999
50
-270.00005730
51
-179.99994270
0
LINE
8
BLACK
6
CONTINUOUS
10
210.75
20
-126.2999999999999972
11
210.4499999999999886
21
-126.2999999999999972
0
ARC
8
BLACK
10
211.0000009999999975
20
-120.5500009999999946
40
0.9999990000004999
50
-90.00005730
51
0.00005730
0
ARC
8
BLACK
10
210.4499989999999912
20
-127.2999989999999997
40
0.9999990000004999
50
-270.00005730
51
-179.99994270
0
LINE
8
BLACK
6
CONTINUOUS
10
211.75
20
-127.2999999999999972
11
211.75
21
-128.2999999999999829
0
LINE
8
BLACK
6
CONTINUOUS
10
226.
20
-135.5499999999999829
11
227.5
21
-135.5499999999999829
0
ARC
8
BLACK
10
212.7499990000000025
20
-128.3000009999999804
40
0.9999990000004999
50
-180.00005730
51
-89.99994270
0
ARC
8
BLACK
10
226.25
20
-120.0499999999999972
40
1.
50
0.00000000
51
90.00000000
0
ARC
8
BLACK
10
210.7500009999999975
20
-127.2999989999999997
40
0.9999990000004999
50
-0.00005730
51
90.00005730
0
LINE
8
BLACK
6
CONTINUOUS
10
225.
20
-130.2999999999999829
11
225.
21
-134.5499999999999829
0
LINE
8
BLACK
6
CONTINUOUS
10
115.75
20
-140.5999999999999943
11
114.5499999999999972
21
-140.5999999999999943
0
LINE
8
BLACK
6
CONTINUOUS
10
115.5
20
-145.3499999999999943
11
114.5499999999999972
21
-145.3499999999999943
0
LINE
8
BLACK
6
CONTINUOUS
10
113.5499999999999972
20
-144.3499999999999943
11
113.5499999999999972
21
-141.5999999999999943
0
ARC
8
BLACK
10
114.5499989999999997
20
-141.5999989999999968
40
0.9999990000004999
50
-270.00005730
51
-179.99994270
0
ARC
8
BLACK
10
114.5499989999999997
20
-144.3500009999999918
40
0.9999990000004999
50
-180.00005730
51
-89.99994270
0
LINE
8
BLACK
6
CONTINUOUS
10
113.5499999999999972
20
-125.2999999999999972
11
113.5499999999999972
21
-122.5499999999999972
0
LINE
8
BLACK
6
CONTINUOUS
10
115.5
20
-126.2999999999999972
11
114.5499999999999972
21
-126.2999999999999972
0
LINE
8
BLACK
6
CONTINUOUS
10
115.75
20
-121.5499999999999972
11
114.5499999999999972
21
-121.5499999999999972
0
ARC
8
BLACK
10
114.5499989999999997
20
-122.5499989999999997
40
0.9999990000004999
50
-270.00005730
51
-179.99994270
0
ARC
8
BLACK
10
114.5499989999999997
20
-125.3000009999999946
40
0.9999990000004999
50
-180.00005730
51
-89.99994270
0
LINE
8
BLACK
6
CONTINUOUS
10
115.5
20
-107.25
11
114.5499999999999972
21
-107.25
0
LINE
8
BLACK
6
CONTINUOUS
10
113.5499999999999972
20
-106.25
11
113.5499999999999972
21
-103.5
0
LINE
8
BLACK
6
CONTINUOUS
10
115.75
20
-102.5
11
114.5499999999999972
21
-102.5
0
ARC
8
BLACK
10
114.5499989999999997
20
-106.2500009999999975
40
0.9999990000004999
50
-180.00005730
51
-89.99994270
0
ARC
8
BLACK
10
114.5499989999999997
20
-103.4999989999999883
40
0.9999990000004999
50
-270.00005730
51
-179.99994270
0
ARC
8
BLACK
10
287.1999999999999886
20
-139.5999999999999943
40
1.
50
-90.00000000
51
-0.00000000
0
LINE
8
BLACK
6
CONTINUOUS
10
303.4499999999999886
20
-139.0999999999999943
11
303.4499999999999886
21
-139.5999999999999943
0
ARC
8
BLACK
10
302.1999999999999886
20
-153.5999999999999943
40
1.
50
-180.00000000
51
-90.00000000
0
ARC
8
BLACK
10
302.4499999999999886
20
-139.0999999999999943
40
1.
50
0.00000000
51
90.00000000
0
LINE
8
BLACK
6
CONTINUOUS
10
302.4499999999999886
20
-138.0999999999999943
11
289.1999999999999886
21
-138.0999999999999943
0
ARC
8
BLACK
10
300.1999999999999886
20
-149.3499999999999943
40
1.
50
0.00000000
51
90.00000000
0
ARC
8
BLACK
10
286.9499999999999886
20
-146.3499999999999943
40
1.
50
0.00000000
51
90.00000000
0
ARC
8
BLACK
10
288.9499799999999823
20
-147.3500200000000007
40
0.9999800002000039
50
-180.00114594
51
-89.99885406
0
LINE
8
BLACK
6
CONTINUOUS
10
288.9499999999999886
20
-148.3499999999999943
11
300.1999999999999886
21
-148.3499999999999943
0
LINE
8
BLACK
6
CONTINUOUS
10
287.9499999999999886
20
-146.3499999999999943
11
287.9499999999999886
21
-147.3499999999999943
0
LINE
8
BLACK
6
CONTINUOUS
10
286.9499999999999886
20
-145.3499999999999943
11
286.6499999999999773
21
-145.3499999999999943
0
LINE
8
BLACK
6
CONTINUOUS
10
302.1999999999999886
20
-154.5999999999999943
11
303.6999999999999886
21
-154.5999999999999943
0
ARC
8
BLACK
10
289.1999999999999886
20
-139.0999999999999943
40
1.
50
90.00000000
51
180.00000000
0
LINE
8
BLACK
6
CONTINUOUS
10
301.1999999999999886
20
-149.3499999999999943
11
301.1999999999999886
21
-153.5999999999999943
0
LINE
8
BLACK
6
CONTINUOUS
10
288.1999999999999886
20
-139.0999999999999943
11
288.1999999999999886
21
-139.5999999999999943
0
ARC
8
BLACK
10
286.6499999999999773
20
-146.3499999999999943
40
1.
50
90.00000000
51
180.00000000
0
ARC
8
BLACK
10
304.4499999999999886
20
-139.5999999999999943
40
1.
50
-180.00000000
51
-90.00000000
0
LINE
8
BLACK
6
CONTINUOUS
10
287.1999999999999886
20
-140.5999999999999943
11
285.3999999999999773
21
-140.5999999999999943
0
LINE
8
BLACK
6
CONTINUOUS
10
303.4499999999999886
20
-139.0999999999999943
11
303.4499999999999886
21
-139.5999999999999943
0
LINE
8
BLACK
6
CONTINUOUS
10
286.9499999999999886
20
-145.3499999999999943
11
286.6499999999999773
21
-145.3499999999999943
0
LINE
8
BLACK
6
CONTINUOUS
10
302.1999999999999886
20
-154.5999999999999943
11
303.6999999999999886
21
-154.5999999999999943
0
LINE
8
BLACK
6
CONTINUOUS
10
302.4499999999999886
20
-138.0999999999999943
11
289.1999999999999886
21
-138.0999999999999943
0
ARC
8
BLACK
10
287.1999999999999886
20
-139.5999999999999943
40
1.
50
-90.00000000
51
-0.00000000
0
LINE
8
BLACK
6
CONTINUOUS
10
287.9499999999999886
20
-146.3499999999999943
11
287.9499999999999886
21
-147.3499999999999943
0
ARC
8
BLACK
10
288.9499799999999823
20
-147.3500200000000007
40
0.9999800002000039
50
-180.00114594
51
-89.99885406
0
LINE
8
BLACK
6
CONTINUOUS
10
288.9499999999999886
20
-148.3499999999999943
11
300.1999999999999886
21
-148.3499999999999943
0
ARC
8
BLACK
10
304.4499999999999886
20
-139.5999999999999943
40
1.
50
-180.00000000
51
-90.00000000
0
LINE
8
BLACK
6
CONTINUOUS
10
287.1999999999999886
20
-140.5999999999999943
11
285.3999999999999773
21
-140.5999999999999943
0
ARC
8
BLACK
10
286.9499999999999886
20
-146.3499999999999943
40
1.
50
0.00000000
51
90.00000000
0
ARC
8
BLACK
10
300.1999999999999886
20
-149.3499999999999943
40
1.
50
0.00000000
51
90.00000000
0
LINE
8
BLACK
6
CONTINUOUS
10
301.1999999999999886
20
-149.3499999999999943
11
301.1999999999999886
21
-153.5999999999999943
0
ARC
8
BLACK
10
302.1999999999999886
20
-153.5999999999999943
40
1.
50
-180.00000000
51
-90.00000000
0
ARC
8
BLACK
10
302.4499999999999886
20
-139.0999999999999943
40
1.
50
0.00000000
51
90.00000000
0
ARC
8
BLACK
10
286.6499999999999773
20
-146.3499999999999943
40
1.
50
90.00000000
51
180.00000000
0
ARC
8
BLACK
10
289.1999999999999886
20
-139.0999999999999943
40
1.
50
90.00000000
51
180.00000000
0
LINE
8
BLACK
6
CONTINUOUS
10
288.1999999999999886
20
-139.0999999999999943
11
288.1999999999999886
21
-139.5999999999999943
0
LINE
8
BLACK
6
CONTINUOUS
10
269.1499999999999773
20
-139.0999999999999943
11
269.1499999999999773
21
-139.5999999999999943
0
ARC
8
BLACK
10
270.1499999999999773
20
-139.0999999999999943
40
1.
50
90.00000000
51
180.00000000
0
ARC
8
BLACK
10
268.1499999999999773
20
-139.5999999999999943
40
1.
50
-90.00000000
51
-0.00000000
0
ARC
8
BLACK
10
281.1499999999999773
20
-149.3499999999999943
40
1.
50
0.00000000
51
90.00000000
0
ARC
8
BLACK
10
269.8999799999999709
20
-147.3500200000000007
40
0.9999800002000039
50
-180.00114594
51
-89.99885406
0
LINE
8
BLACK
6
CONTINUOUS
10
268.1499999999999773
20
-140.5999999999999943
11
266.3499999999999659
21
-140.5999999999999943
0
LINE
8
BLACK
6
CONTINUOUS
10
283.3999999999999773
20
-138.0999999999999943
11
270.1499999999999773
21
-138.0999999999999943
0
ARC
8
BLACK
10
283.3999999999999773
20
-139.0999999999999943
40
1.
50
0.00000000
51
90.00000000
0
ARC
8
BLACK
10
284.65003999999999
20
-153.600040000000007
40
0.999960000800032
50
-90.00229192
51
0.00229192
0
LINE
8
BLACK
6
CONTINUOUS
10
268.8999999999999773
20
-146.3499999999999943
11
268.8999999999999773
21
-147.3499999999999943
0
LINE
8
BLACK
6
CONTINUOUS
10
283.1499999999999773
20
-154.5999999999999943
11
284.6499999999999773
21
-154.5999999999999943
0
ARC
8
BLACK
10
267.8999999999999773
20
-146.3499999999999943
40
1.
50
0.00000000
51
90.00000000
0
LINE
8
BLACK
6
CONTINUOUS
10
282.1499999999999773
20
-149.3499999999999943
11
282.1499999999999773
21
-153.5999999999999943
0
ARC
8
BLACK
10
267.5999989999999684
20
-146.3499989999999968
40
0.9999990000004999
50
-270.00005730
51
-179.99994270
0
ARC
8
BLACK
10
285.3999999999999773
20
-139.5999999999999943
40
1.
50
-180.00000000
51
-90.00000000
0
ARC
8
BLACK
10
283.1499999999999773
20
-153.5999999999999943
40
1.
50
-180.00000000
51
-90.00000000
0
LINE
8
BLACK
6
CONTINUOUS
10
285.6499999999999773
20
-146.3499999999999943
11
285.6499999999999773
21
-153.5999999999999943
0
LINE
8
BLACK
6
CONTINUOUS
10
284.3999999999999773
20
-139.0999999999999943
11
284.3999999999999773
21
-139.5999999999999943
0
LINE
8
BLACK
6
CONTINUOUS
10
267.8999999999999773
20
-145.3499999999999943
11
267.5999999999999659
21
-145.3499999999999943
0
LINE
8
BLACK
6
CONTINUOUS
10
269.8999999999999773
20
-148.3499999999999943
11
281.1499999999999773
21
-148.3499999999999943
0
LINE
8
BLACK
6
CONTINUOUS
10
284.3999999999999773
20
-139.0999999999999943
11
284.3999999999999773
21
-139.5999999999999943
0
LINE
8
BLACK
6
CONTINUOUS
10
267.8999999999999773
20
-145.3499999999999943
11
267.5999999999999659
21
-145.3499999999999943
0
ARC
8
BLACK
10
269.8999799999999709
20
-147.3500200000000007
40
0.9999800002000039
50
-180.00114594
51
-89.99885406
0
ARC
8
BLACK
10
267.8999999999999773
20
-146.3499999999999943
40
1.
50
0.00000000
51
90.00000000
0
LINE
8
BLACK
6
CONTINUOUS
10
269.8999999999999773
20
-148.3499999999999943
11
281.1499999999999773
21
-148.3499999999999943
0
ARC
8
BLACK
10
270.1499999999999773
20
-139.0999999999999943
40
1.
50
90.00000000
51
180.00000000
0
ARC
8
BLACK
10
268.1499999999999773
20
-139.5999999999999943
40
1.
50
-90.00000000
51
-0.00000000
0
LINE
8
BLACK
6
CONTINUOUS
10
268.1499999999999773
20
-140.5999999999999943
11
266.3499999999999659
21
-140.5999999999999943
0
ARC
8
BLACK
10
281.1499999999999773
20
-149.3499999999999943
40
1.
50
0.00000000
51
90.00000000
0
LINE
8
BLACK
6
CONTINUOUS
10
268.8999999999999773
20
-146.3499999999999943
11
268.8999999999999773
21
-147.3499999999999943
0
LINE
8
BLACK
6
CONTINUOUS
10
283.1499999999999773
20
-154.5999999999999943
11
284.6499999999999773
21
-154.5999999999999943
0
ARC
8
BLACK
10
267.5999989999999684
20
-146.3499989999999968
40
0.9999990000004999
50
-270.00005730
51
-179.99994270
0
LINE
8
BLACK
6
CONTINUOUS
10
285.6499999999999773
20
-146.3499999999999943
11
285.6499999999999773
21
-153.5999999999999943
0
ARC
8
BLACK
10
283.1499999999999773
20
-153.5999999999999943
40
1.
50
-180.00000000
51
-90.00000000
0
ARC
8
BLACK
10
283.3999999999999773
20
-139.0999999999999943
40
1.
50
0.00000000
51
90.00000000
0
ARC
8
BLACK
10
284.65003999999999
20
-153.600040000000007
40
0.999960000800032
50
-90.00229192
51
0.00229192
0
LINE
8
BLACK
6
CONTINUOUS
10
283.3999999999999773
20
-138.0999999999999943
11
270.1499999999999773
21
-138.0999999999999943
0
ARC
8
BLACK
10
285.3999999999999773
20
-139.5999999999999943
40
1.
50
-180.00000000
51
-90.00000000
0
LINE
8
BLACK
6
CONTINUOUS
10
282.1499999999999773
20
-149.3499999999999943
11
282.1499999999999773
21
-153.5999999999999943
0
LINE
8
BLACK
6
CONTINUOUS
10
269.1499999999999773
20
-139.0999999999999943
11
269.1499999999999773
21
-139.5999999999999943
0
ARC
8
BLACK
10
251.0999989999999968
20
-139.0999989999999968
40
0.9999990000004999
50
-270.00005730
51
-179.99994270
0
ARC
8
BLACK
10
264.3499820000000113
20
-139.1000180000000057
40
1.0000180001619969
50
0.00103131
51
89.99896869
0
LINE
8
BLACK
6
CONTINUOUS
10
265.3499999999999659
20
-139.0999999999999943
11
265.3499999999999659
21
-139.5999999999999943
0
ARC
8
BLACK
10
265.5999820000000113
20
-153.6000180000000057
40
1.0000180001619969
50
-89.99896866
51
0.00103131
0
LINE
8
BLACK
6
CONTINUOUS
10
249.8499999999999943
20
-146.3499999999999943
11
249.8499999999999943
21
-147.3499999999999943
0
LINE
8
BLACK
6
CONTINUOUS
10
264.3499999999999659
20
-138.0999999999999943
11
251.0999999999999943
21
-138.0999999999999943
0
LINE
8
BLACK
6
CONTINUOUS
10
264.0999999999999659
20
-154.5999999999999943
11
265.5999999999999659
21
-154.5999999999999943
0
ARC
8
BLACK
10
249.1000009999999918
20
-139.6000009999999918
40
0.9999990000004999
50
-90.00005730
51
0.00005730
0
ARC
8
BLACK
10
264.0999820000000113
20
-153.6000180000000057
40
0.9999820001620028
50
-180.00103134
51
-89.99896866
0
LINE
8
BLACK
6
CONTINUOUS
10
248.8499999999999943
20
-145.3499999999999943
11
248.5499999999999829
21
-145.3499999999999943
0
ARC
8
BLACK
10
266.3499820000000113
20
-139.6000180000000057
40
0.9999820001620028
50
-180.00103134
51
-89.99896866
0
LINE
8
BLACK
6
CONTINUOUS
10
250.0999999999999943
20
-139.0999999999999943
11
250.0999999999999943
21
-139.5999999999999943
0
ARC
8
BLACK
10
248.5499989999999855
20
-146.3499989999999968
40
0.9999990000004999
50
-270.00005730
51
-179.99994270
0
ARC
8
BLACK
10
262.1000219999999672
20
-149.349977999999993
40
0.9999780002420053
50
-0.00126053
51
90.00126053
0
ARC
8
BLACK
10
248.8500009999999918
20
-146.3499989999999968
40
0.9999990000004999
50
-0.00005730
51
90.00005730
0
LINE
8
BLACK
6
CONTINUOUS
10
249.0999999999999943
20
-140.5999999999999943
11
247.2999999999999829
21
-140.5999999999999943
0
LINE
8
BLACK
6
CONTINUOUS
10
250.8499999999999943
20
-148.3499999999999943
11
262.0999999999999659
21
-148.3499999999999943
0
LINE
8
BLACK
6
CONTINUOUS
10
266.5999999999999659
20
-146.3499999999999943
11
266.5999999999999659
21
-153.5999999999999943
0
ARC
8
BLACK
10
250.8499819999999829
20
-147.3500180000000057
40
0.9999820001620028
50
-180.00103134
51
-89.99896866
0
LINE
8
BLACK
6
CONTINUOUS
10
263.0999999999999659
20
-149.3499999999999943
11
263.0999999999999659
21
-153.5999999999999943
0
LINE
8
BLACK
6
CONTINUOUS
10
249.8499999999999943
20
-146.3499999999999943
11
249.8499999999999943
21
-147.3499999999999943
0
LINE
8
BLACK
6
CONTINUOUS
10
265.3499999999999659
20
-139.0999999999999943
11
265.3499999999999659
21
-139.5999999999999943
0
LINE
8
BLACK
6
CONTINUOUS
10
250.0999999999999943
20
-139.0999999999999943
11
250.0999999999999943
21
-139.5999999999999943
0
LINE
8
BLACK
6
CONTINUOUS
10
249.0999999999999943
20
-140.5999999999999943
11
247.2999999999999829
21
-140.5999999999999943
0
LINE
8
BLACK
6
CONTINUOUS
10
264.3499999999999659
20
-138.0999999999999943
11
251.0999999999999943
21
-138.0999999999999943
0
ARC
8
BLACK
10
249.1000009999999918
20
-139.6000009999999918
40
0.9999990000004999
50
-90.00005730
51
0.00005730
0
ARC
8
BLACK
10
262.1000219999999672
20
-149.349977999999993
40
0.9999780002420053
50
-0.00126053
51
90.00126053
0
ARC
8
BLACK
10
264.0999820000000113
20
-153.6000180000000057
40
0.9999820001620028
50
-180.00103134
51
-89.99896866
0
ARC
8
BLACK
10
248.8500009999999918
20
-146.3499989999999968
40
0.9999990000004999
50
-0.00005730
51
90.00005730
0
ARC
8
BLACK
10
266.3499820000000113
20
-139.6000180000000057
40
0.9999820001620028
50
-180.00103134
51
-89.99896866
0
ARC
8
BLACK
10
264.3499820000000113
20
-139.1000180000000057
40
1.0000180001619969
50
0.00103131
51
89.99896869
0
ARC
8
BLACK
10
265.5999820000000113
20
-153.6000180000000057
40
1.0000180001619969
50
-89.99896866
51
0.00103131
0
LINE
8
BLACK
6
CONTINUOUS
10
266.5999999999999659
20
-146.3499999999999943
11
266.5999999999999659
21
-153.5999999999999943
0
LINE
8
BLACK
6
CONTINUOUS
10
264.0999999999999659
20
-154.5999999999999943
11
265.5999999999999659
21
-154.5999999999999943
0
ARC
8
BLACK
10
250.8499819999999829
20
-147.3500180000000057
40
0.9999820001620028
50
-180.00103134
51
-89.99896866
0
ARC
8
BLACK
10
248.5499989999999855
20
-146.3499989999999968
40
0.9999990000004999
50
-270.00005730
51
-179.99994270
0
ARC
8
BLACK
10
251.0999989999999968
20
-139.0999989999999968
40
0.9999990000004999
50
-270.00005730
51
-179.99994270
0
LINE
8
BLACK
6
CONTINUOUS
10
250.8499999999999943
20
-148.3499999999999943
11
262.0999999999999659
21
-148.3499999999999943
0
LINE
8
BLACK
6
CONTINUOUS
10
263.0999999999999659
20
-149.3499999999999943
11
263.0999999999999659
21
-153.5999999999999943
0
LINE
8
BLACK
6
CONTINUOUS
10
248.8499999999999943
20
-145.3499999999999943
11
248.5499999999999829
21
-145.3499999999999943
0
ARC
8
BLACK
10
232.0499989999999855
20
-139.0999989999999968
40
0.9999990000004999
50
-270.00005730
51
-179.99994270
0
ARC
8
BLACK
10
245.2999999999999829
20
-139.0999999999999943
40
1.
50
0.00000000
51
90.00000000
0
LINE
8
BLACK
6
CONTINUOUS
10
246.2999999999999829
20
-139.0999999999999943
11
246.2999999999999829
21
-139.5999999999999943
0
LINE
8
BLACK
6
CONTINUOUS
10
230.0499999999999829
20
-140.5999999999999943
11
228.25
21
-140.5999999999999943
0
LINE
8
BLACK
6
CONTINUOUS
10
245.2999999999999829
20
-138.0999999999999943
11
232.0499999999999829
21
-138.0999999999999943
0
ARC
8
BLACK
10
230.0500009999999804
20
-139.6000009999999918
40
0.9999990000004999
50
-90.00005730
51
0.00005730
0
ARC
8
BLACK
10
247.2999999999999829
20
-139.5999999999999943
40
1.
50
-180.00000000
51
-90.00000000
0
LINE
8
BLACK
6
CONTINUOUS
10
231.0499999999999829
20
-139.0999999999999943
11
231.0499999999999829
21
-139.5999999999999943
0
LINE
8
BLACK
6
CONTINUOUS
10
247.5499999999999829
20
-146.3499999999999943
11
247.5499999999999829
21
-153.5999999999999943
0
LINE
8
BLACK
6
CONTINUOUS
10
211.75
20
-146.3499999999999943
11
211.75
21
-147.3499999999999943
0
LINE
8
BLACK
6
CONTINUOUS
10
226.25
20
-138.0999999999999943
11
213.
21
-138.0999999999999943
0
ARC
8
BLACK
10
211.0000009999999975
20
-139.6000009999999918
40
0.9999990000004999
50
-90.00005730
51
0.00005730
0
LINE
8
BLACK
6
CONTINUOUS
10
223.4749999999999943
20
-149.3499999999999943
11
223.4749999999999943
21
-153.5999999999999943
0
LINE
8
BLACK
6
CONTINUOUS
10
210.75
20
-145.3499999999999943
11
210.4499999999999886
21
-145.3499999999999943
0
ARC
8
BLACK
10
210.4499989999999912
20
-146.3499989999999968
40
0.9999990000004999
50
-270.00005730
51
-179.99994270
0
ARC
8
BLACK
10
226.2500069999999823
20
-139.1000070000000051
40
1.0000070000244998
50
0.00040107
51
90.00040107
0
ARC
8
BLACK
10
212.9999990000000025
20
-139.0999989999999968
40
0.9999990000004999
50
-270.00005730
51
-179.99994270
0
ARC
8
BLACK
10
228.2500069999999823
20
-139.6000070000000051
40
0.9999930000245001
50
-180.00040107
51
-90.00040107
0
ARC
8
BLACK
10
212.7499819999999886
20
-147.3500180000000057
40
0.9999820001620028
50
-180.00103134
51
-89.99896866
0
ARC
8
BLACK
10
210.7500009999999975
20
-146.3499989999999968
40
0.9999990000004999
50
-0.00005730
51
90.00005730
0
LINE
8
BLACK
6
CONTINUOUS
10
211.
20
-140.5999999999999943
11
209.1999999999999886
21
-140.5999999999999943
0
LINE
8
BLACK
6
CONTINUOUS
10
227.25
20
-139.0999999999999943
11
227.25
21
-139.5999999999999943
0
LINE
8
BLACK
6
CONTINUOUS
10
212.
20
-139.0999999999999943
11
212.
21
-139.5999999999999943
0
ARC
8
BLACK
10
211.0000009999999975
20
-139.6000009999999918
40
0.9999990000004999
50
-90.00005730
51
0.00005730
0
ARC
8
BLACK
10
222.4750069999999766
20
-149.3500070000000051
40
1.0000070000244998
50
0.00040107
51
90.00040107
0
LINE
8
BLACK
6
CONTINUOUS
10
211.
20
-140.5999999999999943
11
209.1999999999999886
21
-140.5999999999999943
0
ARC
8
BLACK
10
228.2500069999999823
20
-139.6000070000000051
40
0.9999930000245001
50
-180.00040107
51
-90.00040107
0
LINE
8
BLACK
6
CONTINUOUS
10
211.75
20
-146.3499999999999943
11
211.75
21
-147.3499999999999943
0
LINE
8
BLACK
6
CONTINUOUS
10
212.
20
-139.0999999999999943
11
212.
21
-139.5999999999999943
0
ARC
8
BLACK
10
226.2500069999999823
20
-139.1000070000000051
40
1.0000070000244998
50
0.00040107
51
90.00040107
0
LINE
8
BLACK
6
CONTINUOUS
10
210.75
20
-145.3499999999999943
11
210.4499999999999886
21
-145.3499999999999943
0
ARC
8
BLACK
10
212.7499819999999886
20
-147.3500180000000057
40
0.9999820001620028
50
-180.00103134
51
-89.99896866
0
LINE
8
BLACK
6
CONTINUOUS
10
227.25
20
-139.0999999999999943
11
227.25
21
-139.5999999999999943
0
ARC
8
BLACK
10
210.4499989999999912
20
-146.3499989999999968
40
0.9999990000004999
50
-270.00005730
51
-179.99994270
0
LINE
8
BLACK
6
CONTINUOUS
10
226.25
20
-138.0999999999999943
11
213.
21
-138.0999999999999943
0
ARC
8
BLACK
10
212.9999990000000025
20
-139.0999989999999968
40
0.9999990000004999
50
-270.00005730
51
-179.99994270
0
ARC
8
BLACK
10
210.7500009999999975
20
-146.3499989999999968
40
0.9999990000004999
50
-0.00005730
51
90.00005730
0
ARC
8
BLACK
10
193.6999819999999772
20
-147.3500180000000057
40
0.9999820001620028
50
-180.00103134
51
-89.99896866
0
LINE
8
BLACK
6
CONTINUOUS
10
192.6999999999999886
20
-146.3499999999999943
11
192.6999999999999886
21
-147.3499999999999943
0
ARC
8
BLACK
10
191.7000009999999861
20
-146.3499989999999968
40
0.9999990000004999
50
-0.00005730
51
90.00005730
0
LINE
8
BLACK
6
CONTINUOUS
10
207.1999999999999886
20
-138.0999999999999943
11
193.9499999999999886
21
-138.0999999999999943
0
LINE
8
BLACK
6
CONTINUOUS
10
191.9499999999999886
20
-140.5999999999999943
11
190.1499999999999773
21
-140.5999999999999943
0
ARC
8
BLACK
10
191.9500009999999861
20
-139.6000009999999918
40
0.9999990000004999
50
-90.00005730
51
0.00005730
0
LINE
8
BLACK
6
CONTINUOUS
10
205.9499999999999886
20
-149.3499999999999943
11
205.9499999999999886
21
-153.5999999999999943
0
LINE
8
BLACK
6
CONTINUOUS
10
208.1999999999999886
20
-139.0999999999999943
11
208.1999999999999886
21
-139.5999999999999943
0
LINE
8
BLACK
6
CONTINUOUS
10
206.9499999999999886
20
-154.5999999999999943
11
208.4499999999999886
21
-154.5999999999999943
0
ARC
8
BLACK
10
206.9499999999999886
20
-153.5999999999999943
40
1.
50
-180.00000000
51
-90.00000000
0
ARC
8
BLACK
10
209.1999999999999886
20
-139.5999999999999943
40
1.
50
-180.00000000
51
-90.00000000
0
LINE
8
BLACK
6
CONTINUOUS
10
192.9499999999999886
20
-139.0999999999999943
11
192.9499999999999886
21
-139.5999999999999943
0
LINE
8
BLACK
6
CONTINUOUS
10
191.6999999999999886
20
-145.3499999999999943
11
191.3999999999999773
21
-145.3499999999999943
0
ARC
8
BLACK
10
208.4499999999999886
20
-153.5999999999999943
40
1.
50
-90.00000000
51
-0.00000000
0
ARC
8
BLACK
10
191.3999989999999798
20
-146.3499989999999968
40
0.9999990000004999
50
-270.00005730
51
-179.99994270
0
ARC
8
BLACK
10
204.9499999999999886
20
-149.3499999999999943
40
1.
50
0.00000000
51
90.00000000
0
LINE
8
BLACK
6
CONTINUOUS
10
193.6999999999999886
20
-148.3499999999999943
11
204.9499999999999886
21
-148.3499999999999943
0
LINE
8
BLACK
6
CONTINUOUS
10
209.4499999999999886
20
-146.3499999999999943
11
209.4499999999999886
21
-153.5999999999999943
0
ARC
8
BLACK
10
193.9499989999999912
20
-139.0999989999999968
40
0.9999990000004999
50
-270.00005730
51
-179.99994270
0
ARC
8
BLACK
10
193.6999819999999772
20
-147.3500180000000057
40
0.9999820001620028
50
-180.00103134
51
-89.99896866
0
LINE
8
BLACK
6
CONTINUOUS
10
207.1999999999999886
20
-138.0999999999999943
11
193.9499999999999886
21
-138.0999999999999943
0
LINE
8
BLACK
6
CONTINUOUS
10
191.9499999999999886
20
-140.5999999999999943
11
190.1499999999999773
21
-140.5999999999999943
0
ARC
8
BLACK
10
206.9499999999999886
20
-153.5999999999999943
40
1.
50
-180.00000000
51
-90.00000000
0
LINE
8
BLACK
6
CONTINUOUS
10
191.6999999999999886
20
-145.3499999999999943
11
191.3999999999999773
21
-145.3499999999999943
0
ARC
8
BLACK
10
191.9500009999999861
20
-139.6000009999999918
40
0.9999990000004999
50
-90.00005730
51
0.00005730
0
LINE
8
BLACK
6
CONTINUOUS
10
192.9499999999999886
20
-139.0999999999999943
11
192.9499999999999886
21
-139.5999999999999943
0
ARC
8
BLACK
10
209.1999999999999886
20
-139.5999999999999943
40
1.
50
-180.00000000
51
-90.00000000
0
LINE
8
BLACK
6
CONTINUOUS
10
192.6999999999999886
20
-146.3499999999999943
11
192.6999999999999886
21
-147.3499999999999943
0
ARC
8
BLACK
10
191.7000009999999861
20
-146.3499989999999968
40
0.9999990000004999
50
-0.00005730
51
90.00005730
0
ARC
8
BLACK
10
191.3999989999999798
20
-146.3499989999999968
40
0.9999990000004999
50
-270.00005730
51
-179.99994270
0
LINE
8
BLACK
6
CONTINUOUS
10
193.6999999999999886
20
-148.3499999999999943
11
204.9499999999999886
21
-148.3499999999999943
0
LINE
8
BLACK
6
CONTINUOUS
10
206.9499999999999886
20
-154.5999999999999943
11
208.4499999999999886
21
-154.5999999999999943
0
ARC
8
BLACK
10
204.9499999999999886
20
-149.3499999999999943
40
1.
50
0.00000000
51
90.00000000
0
ARC
8
BLACK
10
208.4499999999999886
20
-153.5999999999999943
40
1.
50
-90.00000000
51
-0.00000000
0
LINE
8
BLACK
6
CONTINUOUS
10
209.4499999999999886
20
-146.3499999999999943
11
209.4499999999999886
21
-153.5999999999999943
0
ARC
8
BLACK
10
193.9499989999999912
20
-139.0999989999999968
40
0.9999990000004999
50
-270.00005730
51
-179.99994270
0
LINE
8
BLACK
6
CONTINUOUS
10
208.1999999999999886
20
-139.0999999999999943
11
208.1999999999999886
21
-139.5999999999999943
0
ARC
8
BLACK
10
207.1999999999999886
20
-139.0999999999999943
40
1.
50
0.00000000
51
90.00000000
0
LINE
8
BLACK
6
CONTINUOUS
10
205.9499999999999886
20
-149.3499999999999943
11
205.9499999999999886
21
-153.5999999999999943
0
ARC
8
BLACK
10
207.1999999999999886
20
-139.0999999999999943
40
1.
50
0.00000000
51
90.00000000
0
ARC
8
BLACK
10
185.900006999999988
20
-149.3500070000000051
40
1.0000070000244998
50
0.00040107
51
90.00040107
0
LINE
8
BLACK
6
CONTINUOUS
10
172.9000000000000057
20
-140.5999999999999943
11
171.0999999999999943
21
-140.5999999999999943
0
LINE
8
BLACK
6
CONTINUOUS
10
173.6500000000000057
20
-146.3499999999999943
11
173.6500000000000057
21
-147.3499999999999943
0
ARC
8
BLACK
10
190.150006999999988
20
-139.6000070000000051
40
0.9999930000245001
50
-180.00040107
51
-90.00040107
0
ARC
8
BLACK
10
189.400006999999988
20
-153.6000070000000051
40
0.9999930000245001
50
-90.00040107
51
0.00040107
0
ARC
8
BLACK
10
172.6500010000000032
20
-146.3499989999999968
40
0.9999990000004999
50
-0.00005730
51
90.00005730
0
ARC
8
BLACK
10
172.9000010000000032
20
-139.6000009999999918
40
0.9999990000004999
50
-90.00005730
51
0.00005730
0
LINE
8
BLACK
6
CONTINUOUS
10
189.1499999999999773
20
-139.0999999999999943
11
189.1499999999999773
21
-139.5999999999999943
0
LINE
8
BLACK
6
CONTINUOUS
10
172.6500000000000057
20
-145.3499999999999943
11
172.3499999999999943
21
-145.3499999999999943
0
LINE
8
BLACK
6
CONTINUOUS
10
173.9000000000000057
20
-139.0999999999999943
11
173.9000000000000057
21
-139.5999999999999943
0
LINE
8
BLACK
6
CONTINUOUS
10
188.1500000000000057
20
-138.0999999999999943
11
174.9000000000000057
21
-138.0999999999999943
0
ARC
8
BLACK
10
187.900006999999988
20
-153.6000070000000051
40
0.9999930000245001
50
-180.00040107
51
-90.00040107
0
LINE
8
BLACK
6
CONTINUOUS
10
186.9000000000000057
20
-149.3499999999999943
11
186.9000000000000057
21
-153.5999999999999943
0
ARC
8
BLACK
10
172.3499989999999968
20
-146.3499989999999968
40
0.9999990000004999
50
-270.00005730
51
-179.99994270
0
ARC
8
BLACK
10
174.6499869999999817
20
-147.3500070000000051
40
0.9999930000845006
50
-180.00040108
51
-89.99925515
0
LINE
8
BLACK
6
CONTINUOUS
10
187.9000000000000057
20
-154.5999999999999943
11
189.3999999999999773
21
-154.5999999999999943
0
ARC
8
BLACK
10
188.150006999999988
20
-139.1000070000000051
40
1.0000070000244998
50
0.00040107
51
90.00040107
0
LINE
8
BLACK
6
CONTINUOUS
10
174.6500000000000057
20
-148.3499999999999943
11
185.9000000000000057
21
-148.3499999999999943
0
LINE
8
BLACK
6
CONTINUOUS
10
190.3999999999999773
20
-146.3499999999999943
11
190.3999999999999773
21
-153.5999999999999943
0
ARC
8
BLACK
10
174.8999989999999798
20
-139.0999989999999968
40
0.9999990000004999
50
-270.00005730
51
-179.99994270
0
ARC
8
BLACK
10
172.3499989999999968
20
-146.3499989999999968
40
0.9999990000004999
50
-270.00005730
51
-179.99994270
0
LINE
8
BLACK
6
CONTINUOUS
10
186.9000000000000057
20
-149.3499999999999943
11
186.9000000000000057
21
-153.5999999999999943
0
ARC
8
BLACK
10
174.8999989999999798
20
-139.0999989999999968
40
0.9999990000004999
50
-270.00005730
51
-179.99994270
0
LINE
8
BLACK
6
CONTINUOUS
10
173.9000000000000057
20
-139.0999999999999943
11
173.9000000000000057
21
-139.5999999999999943
0
ARC
8
BLACK
10
172.9000010000000032
20
-139.6000009999999918
40
0.9999990000004999
50
-90.00005730
51
0.00005730
0
ARC
8
BLACK
10
189.400006999999988
20
-153.6000070000000051
40
0.9999930000245001
50
-90.00040107
51
0.00040107
0
ARC
8
BLACK
10
174.6499869999999817
20
-147.3500070000000051
40
0.9999930000845006
50
-180.00040108
51
-89.99925515
0
LINE
8
BLACK
6
CONTINUOUS
10
172.6500000000000057
20
-145.3499999999999943
11
172.3499999999999943
21
-145.3499999999999943
0
ARC
8
BLACK
10
185.900006999999988
20
-149.3500070000000051
40
1.0000070000244998
50
0.00040107
51
90.00040107
0
LINE
8
BLACK
6
CONTINUOUS
10
190.3999999999999773
20
-146.3499999999999943
11
190.3999999999999773
21
-153.5999999999999943
0
LINE
8
BLACK
6
CONTINUOUS
10
187.9000000000000057
20
-154.5999999999999943
11
189.3999999999999773
21
-154.5999999999999943
0
ARC
8
BLACK
10
187.900006999999988
20
-153.6000070000000051
40
0.9999930000245001
50
-180.00040107
51
-90.00040107
0
ARC
8
BLACK
10
172.6500010000000032
20
-146.3499989999999968
40
0.9999990000004999
50
-0.00005730
51
90.00005730
0
LINE
8
BLACK
6
CONTINUOUS
10
173.6500000000000057
20
-146.3499999999999943
11
173.6500000000000057
21
-147.3499999999999943
0
LINE
8
BLACK
6
CONTINUOUS
10
189.1499999999999773
20
-139.0999999999999943
11
189.1499999999999773
21
-139.5999999999999943
0
LINE
8
BLACK
6
CONTINUOUS
10
174.6500000000000057
20
-148.3499999999999943
11
185.9000000000000057
21
-148.3499999999999943
0
LINE
8
BLACK
6
CONTINUOUS
10
188.1500000000000057
20
-138.0999999999999943
11
174.9000000000000057
21
-138.0999999999999943
0
ARC
8
BLACK
10
188.150006999999988
20
-139.1000070000000051
40
1.0000070000244998
50
0.00040107
51
90.00040107
0
ARC
8
BLACK
10
190.150006999999988
20
-139.6000070000000051
40
0.9999930000245001
50
-180.00040107
51
-90.00040107
0
LINE
8
BLACK
6
CONTINUOUS
10
172.9000000000000057
20
-140.5999999999999943
11
171.0999999999999943
21
-140.5999999999999943
0
ARC
8
BLACK
10
166.8499999999999943
20
-149.3499999999999943
40
1.
50
0.00000000
51
90.00000000
0
LINE
8
BLACK
6
CONTINUOUS
10
153.8499999999999943
20
-140.5999999999999943
11
152.0499999999999829
21
-140.5999999999999943
0
LINE
8
BLACK
6
CONTINUOUS
10
154.5999999999999943
20
-146.3499999999999943
11
154.5999999999999943
21
-147.3499999999999943
0
LINE
8
BLACK
6
CONTINUOUS
10
155.5999999999999943
20
-148.3499999999999943
11
166.8499999999999943
21
-148.3499999999999943
0
ARC
8
BLACK
10
171.0999999999999943
20
-139.5999999999999943
40
1.
50
-180.00000000
51
-90.00000000
0
ARC
8
BLACK
10
155.5999899999999911
20
-147.3500099999999975
40
0.9999900000500005
50
-180.00057296
51
-89.99942704
0
ARC
8
BLACK
10
170.3499999999999943
20
-153.5999999999999943
40
1.
50
-90.00000000
51
-0.00000000
0
ARC
8
BLACK
10
153.5999999999999943
20
-146.3499999999999943
40
1.
50
0.00000000
51
90.00000000
0
ARC
8
BLACK
10
153.8499999999999943
20
-139.5999999999999943
40
1.
50
-90.00000000
51
-0.00000000
0
LINE
8
BLACK
6
CONTINUOUS
10
170.0999999999999943
20
-139.0999999999999943
11
170.0999999999999943
21
-139.5999999999999943
0
LINE
8
BLACK
6
CONTINUOUS
10
171.3499999999999943
20
-146.3499999999999943
11
171.3499999999999943
21
-153.5999999999999943
0
LINE
8
BLACK
6
CONTINUOUS
10
168.8499999999999943
20
-154.5999999999999943
11
170.3499999999999943
21
-154.5999999999999943
0
LINE
8
BLACK
6
CONTINUOUS
10
153.5999999999999943
20
-145.3499999999999943
11
153.2999999999999829
21
-145.3499999999999943
0
ARC
8
BLACK
10
155.8499999999999943
20
-139.0999999999999943
40
1.
50
90.00000000
51
180.00000000
0
LINE
8
BLACK
6
CONTINUOUS
10
154.8499999999999943
20
-139.0999999999999943
11
154.8499999999999943
21
-139.5999999999999943
0
LINE
8
BLACK
6
CONTINUOUS
10
169.0999999999999943
20
-138.0999999999999943
11
155.8499999999999943
21
-138.0999999999999943
0
ARC
8
BLACK
10
168.8499999999999943
20
-153.5999999999999943
40
1.
50
-180.00000000
51
-90.00000000
0
ARC
8
BLACK
10
169.0999999999999943
20
-139.0999999999999943
40
1.
50
0.00000000
51
90.00000000
0
LINE
8
BLACK
6
CONTINUOUS
10
167.8499999999999943
20
-149.3499999999999943
11
167.8499999999999943
21
-153.5999999999999943
0
ARC
8
BLACK
10
153.2999999999999829
20
-146.3499999999999943
40
1.
50
90.00000000
51
180.00000000
0
ARC
8
BLACK
10
155.5999899999999911
20
-147.3500099999999975
40
0.9999900000500005
50
-180.00057296
51
-89.99942704
0
LINE
8
BLACK
6
CONTINUOUS
10
170.0999999999999943
20
-139.0999999999999943
11
170.0999999999999943
21
-139.5999999999999943
0
LINE
8
BLACK
6
CONTINUOUS
10
154.8499999999999943
20
-139.0999999999999943
11
154.8499999999999943
21
-139.5999999999999943
0
ARC
8
BLACK
10
168.8499999999999943
20
-153.5999999999999943
40
1.
50
-180.00000000
51
-90.00000000
0
LINE
8
BLACK
6
CONTINUOUS
10
168.8499999999999943
20
-154.5999999999999943
11
170.3499999999999943
21
-154.5999999999999943
0
ARC
8
BLACK
10
170.3499999999999943
20
-153.5999999999999943
40
1.
50
-90.00000000
51
-0.00000000
0
ARC
8
BLACK
10
153.5999999999999943
20
-146.3499999999999943
40
1.
50
0.00000000
51
90.00000000
0
ARC
8
BLACK
10
171.0999999999999943
20
-139.5999999999999943
40
1.
50
-180.00000000
51
-90.00000000
0
ARC
8
BLACK
10
169.0999999999999943
20
-139.0999999999999943
40
1.
50
0.00000000
51
90.00000000
0
ARC
8
BLACK
10
155.8499999999999943
20
-139.0999999999999943
40
1.
50
90.00000000
51
180.00000000
0
LINE
8
BLACK
6
CONTINUOUS
10
155.5999999999999943
20
-148.3499999999999943
11
166.8499999999999943
21
-148.3499999999999943
0
LINE
8
BLACK
6
CONTINUOUS
10
167.8499999999999943
20
-149.3499999999999943
11
167.8499999999999943
21
-153.5999999999999943
0
LINE
8
BLACK
6
CONTINUOUS
10
153.5999999999999943
20
-145.3499999999999943
11
153.2999999999999829
21
-145.3499999999999943
0
ARC
8
BLACK
10
153.2999999999999829
20
-146.3499999999999943
40
1.
50
90.00000000
51
180.00000000
0
LINE
8
BLACK
6
CONTINUOUS
10
169.0999999999999943
20
-138.0999999999999943
11
155.8499999999999943
21
-138.0999999999999943
0
LINE
8
BLACK
6
CONTINUOUS
10
171.3499999999999943
20
-146.3499999999999943
11
171.3499999999999943
21
-153.5999999999999943
0
LINE
8
BLACK
6
CONTINUOUS
10
153.8499999999999943
20
-140.5999999999999943
11
152.0499999999999829
21
-140.5999999999999943
0
LINE
8
BLACK
6
CONTINUOUS
10
154.5999999999999943
20
-146.3499999999999943
11
154.5999999999999943
21
-147.3499999999999943
0
ARC
8
BLACK
10
153.8499999999999943
20
-139.5999999999999943
40
1.
50
-90.00000000
51
-0.00000000
0
ARC
8
BLACK
10
166.8499999999999943
20
-149.3499999999999943
40
1.
50
0.00000000
51
90.00000000
0
ARC
8
BLACK
10
151.2999999999999829
20
-153.5999999999999943
40
1.
50
-90.00000000
51
-0.00000000
0
LINE
8
BLACK
6
CONTINUOUS
10
134.7999999999999829
20
-140.5999999999999943
11
133.
21
-140.5999999999999943
0
ARC
8
BLACK
10
134.2499990000000025
20
-146.3499989999999968
40
0.9999990000004999
50
-270.00005730
51
-179.99994270
0
LINE
8
BLACK
6
CONTINUOUS
10
135.7999999999999829
20
-139.0999999999999943
11
135.7999999999999829
21
-139.5999999999999943
0
LINE
8
BLACK
6
CONTINUOUS
10
149.7999999999999829
20
-154.5999999999999943
11
151.2999999999999829
21
-154.5999999999999943
0
LINE
8
BLACK
6
CONTINUOUS
10
152.2999999999999829
20
-146.3499999999999943
11
152.2999999999999829
21
-153.5999999999999943
0
LINE
8
BLACK
6
CONTINUOUS
10
151.0499999999999829
20
-139.0999999999999943
11
151.0499999999999829
21
-139.5999999999999943
0
ARC
8
BLACK
10
147.7999999999999829
20
-149.3499999999999943
40
1.
50
0.00000000
51
90.00000000
0
LINE
8
BLACK
6
CONTINUOUS
10
150.0499999999999829
20
-138.0999999999999943
11
136.7999999999999829
21
-138.0999999999999943
0
ARC
8
BLACK
10
136.7999989999999855
20
-139.0999989999999968
40
0.9999990000004999
50
-270.00005730
51
-179.99994270
0
ARC
8
BLACK
10
134.8000009999999804
20
-139.6000009999999918
40
0.9999990000004999
50
-90.00005730
51
0.00005730
0
ARC
8
BLACK
10
149.7999999999999829
20
-153.5999999999999943
40
1.
50
-180.00000000
51
-90.00000000
0
LINE
8
BLACK
6
CONTINUOUS
10
148.7999999999999829
20
-149.3499999999999943
11
148.7999999999999829
21
-153.5999999999999943
0
ARC
8
BLACK
10
136.5499889999999823
20
-147.350010999999995
40
0.9999890000605006
50
-180.00063026
51
-89.99936974
0
LINE
8
BLACK
6
CONTINUOUS
10
135.5499999999999829
20
-146.3499999999999943
11
135.5499999999999829
21
-147.3499999999999943
0
ARC
8
BLACK
10
152.0499999999999829
20
-139.5999999999999943
40
1.
50
-180.00000000
51
-90.00000000
0
ARC
8
BLACK
10
134.5500009999999804
20
-146.3499989999999968
40
0.9999990000004999
50
-0.00005730
51
90.00005730
0
LINE
8
BLACK
6
CONTINUOUS
10
136.5499999999999829
20
-148.3499999999999943
11
147.7999999999999829
21
-148.3499999999999943
0
ARC
8
BLACK
10
150.0499999999999829
20
-139.0999999999999943
40
1.
50
0.00000000
51
90.00000000
0
LINE
8
BLACK
6
CONTINUOUS
10
134.5499999999999829
20
-145.3499999999999943
11
134.25
21
-145.3499999999999943
0
LINE
8
BLACK
6
CONTINUOUS
10
134.5499999999999829
20
-145.3499999999999943
11
134.25
21
-145.3499999999999943
0
ARC
8
BLACK
10
134.8000009999999804
20
-139.6000009999999918
40
0.9999990000004999
50
-90.00005730
51
0.00005730
0
LINE
8
BLACK
6
CONTINUOUS
10
135.7999999999999829
20
-139.0999999999999943
11
135.7999999999999829
21
-139.5999999999999943
0
ARC
8
BLACK
10
136.7999989999999855
20
-139.0999989999999968
40
0.9999990000004999
50
-270.00005730
51
-179.99994270
0
LINE
8
BLACK
6
CONTINUOUS
10
134.7999999999999829
20
-140.5999999999999943
11
133.
21
-140.5999999999999943
0
ARC
8
BLACK
10
134.5500009999999804
20
-146.3499989999999968
40
0.9999990000004999
50
-0.00005730
51
90.00005730
0
ARC
8
BLACK
10
149.7999999999999829
20
-153.5999999999999943
40
1.
50
-180.00000000
51
-90.00000000
0
ARC
8
BLACK
10
150.0499999999999829
20
-139.0999999999999943
40
1.
50
0.00000000
51
90.00000000
0
ARC
8
BLACK
10
134.2499990000000025
20
-146.3499989999999968
40
0.9999990000004999
50
-270.00005730
51
-179.99994270
0
LINE
8
BLACK
6
CONTINUOUS
10
136.5499999999999829
20
-148.3499999999999943
11
147.7999999999999829
21
-148.3499999999999943
0
LINE
8
BLACK
6
CONTINUOUS
10
150.0499999999999829
20
-138.0999999999999943
11
136.7999999999999829
21
-138.0999999999999943
0
LINE
8
BLACK
6
CONTINUOUS
10
148.7999999999999829
20
-149.3499999999999943
11
148.7999999999999829
21
-153.5999999999999943
0
LINE
8
BLACK
6
CONTINUOUS
10
151.0499999999999829
20
-139.0999999999999943
11
151.0499999999999829
21
-139.5999999999999943
0
ARC
8
BLACK
10
152.0499999999999829
20
-139.5999999999999943
40
1.
50
-180.00000000
51
-90.00000000
0
ARC
8
BLACK
10
136.5499889999999823
20
-147.350010999999995
40
0.9999890000605006
50
-180.00063026
51
-89.99936974
0
ARC
8
BLACK
10
151.2999999999999829
20
-153.5999999999999943
40
1.
50
-90.00000000
51
-0.00000000
0
LINE
8
BLACK
6
CONTINUOUS
10
149.7999999999999829
20
-154.5999999999999943
11
151.2999999999999829
21
-154.5999999999999943
0
ARC
8
BLACK
10
147.7999999999999829
20
-149.3499999999999943
40
1.
50
0.00000000
51
90.00000000
0
LINE
8
BLACK
6
CONTINUOUS
10
152.2999999999999829
20
-146.3499999999999943
11
152.2999999999999829
21
-153.5999999999999943
0
LINE
8
BLACK
6
CONTINUOUS
10
135.5499999999999829
20
-146.3499999999999943
11
135.5499999999999829
21
-147.3499999999999943
0
ARC
8
BLACK
10
128.75
20
-149.3499999999999943
40
1.
50
0.00000000
51
90.00000000
0
ARC
8
BLACK
10
115.5000009999999975
20
-146.3499989999999968
40
0.9999990000004999
50
-0.00005730
51
90.00005730
0
ARC
8
BLACK
10
132.25
20
-153.5999999999999943
40
1.
50
-90.00000000
51
-0.00000000
0
LINE
8
BLACK
6
CONTINUOUS
10
117.5
20
-148.3499999999999943
11
128.75
21
-148.3499999999999943
0
LINE
8
BLACK
6
CONTINUOUS
10
131.
20
-138.0999999999999943
11
117.75
21
-138.0999999999999943
0
ARC
8
BLACK
10
131.
20
-139.0999999999999943
40
1.
50
0.00000000
51
90.00000000
0
LINE
8
BLACK
6
CONTINUOUS
10
116.75
20
-139.0999999999999943
11
116.75
21
-139.5999999999999943
0
ARC
8
BLACK
10
115.7500009999999975
20
-139.6000009999999918
40
0.9999990000004999
50
-90.00005730
51
0.00005730
0
ARC
8
BLACK
10
130.75
20
-153.5999999999999943
40
1.
50
-180.00000000
51
-90.00000000
0
LINE
8
BLACK
6
CONTINUOUS
10
129.75
20
-149.3499999999999943
11
129.75
21
-153.5999999999999943
0
ARC
8
BLACK
10
128.75
20
-149.3499999999999943
40
1.
50
0.00000000
51
90.00000000
0
LINE
8
BLACK
6
CONTINUOUS
10
133.25
20
-146.3499999999999943
11
133.25
21
-153.5999999999999943
0
LINE
8
BLACK
6
CONTINUOUS
10
116.5
20
-146.3499999999999943
11
116.5
21
-147.3499999999999943
0
LINE
8
BLACK
6
CONTINUOUS
10
131.
20
-138.0999999999999943
11
117.75
21
-138.0999999999999943
0
ARC
8
BLACK
10
117.7499989999999883
20
-139.0999989999999968
40
0.9999990000004999
50
-270.00005730
51
-179.99994270
0
LINE
8
BLACK
6
CONTINUOUS
10
130.75
20
-154.5999999999999943
11
132.25
21
-154.5999999999999943
0
LINE
8
BLACK
6
CONTINUOUS
10
117.5
20
-148.3499999999999943
11
128.75
21
-148.3499999999999943
0
ARC
8
BLACK
10
115.7500009999999975
20
-139.6000009999999918
40
0.9999990000004999
50
-90.00005730
51
0.00005730
0
ARC
8
BLACK
10
117.4999889999999994
20
-147.350010999999995
40
0.9999890000605006
50
-180.00063026
51
-89.99936974
0
LINE
8
BLACK
6
CONTINUOUS
10
132.
20
-139.0999999999999943
11
132.
21
-139.5999999999999943
0
ARC
8
BLACK
10
133.
20
-139.5999999999999943
40
1.
50
-180.00000000
51
-90.00000000
0
ARC
8
BLACK
10
130.75
20
-153.5999999999999943
40
1.
50
-180.00000000
51
-90.00000000
0
ARC
8
BLACK
10
131.
20
-139.0999999999999943
40
1.
50
0.00000000
51
90.00000000
0
LINE
8
BLACK
6
CONTINUOUS
10
116.75
20
-139.0999999999999943
11
116.75
21
-139.5999999999999943
0
LINE
8
BLACK
6
CONTINUOUS
10
115.5
20
-145.3499999999999943
11
115.1999999999999886
21
-145.3499999999999943
0
ARC
8
BLACK
10
132.25
20
-153.5999999999999943
40
1.
50
-90.00000000
51
-0.00000000
0
ARC
8
BLACK
10
115.5000009999999975
20
-146.3499989999999968
40
0.9999990000004999
50
-0.00005730
51
90.00005730
0
ARC
8
BLACK
10
117.7499989999999883
20
-139.0999989999999968
40
0.9999990000004999
50
-270.00005730
51
-179.99994270
0
ARC
8
BLACK
10
117.4999889999999994
20
-147.350010999999995
40
0.9999890000605006
50
-180.00063026
51
-89.99936974
0
ARC
8
BLACK
10
133.
20
-139.5999999999999943
40
1.
50
-180.00000000
51
-90.00000000
0
LINE
8
BLACK
6
CONTINUOUS
10
132.
20
-139.0999999999999943
11
132.
21
-139.5999999999999943
0
LINE
8
BLACK
6
CONTINUOUS
10
133.25
20
-146.3499999999999943
11
133.25
21
-153.5999999999999943
0
LINE
8
BLACK
6
CONTINUOUS
10
115.5
20
-145.3499999999999943
11
115.1999999999999886
21
-145.3499999999999943
0
LINE
8
BLACK
6
CONTINUOUS
10
116.5
20
-146.3499999999999943
11
116.5
21
-147.3499999999999943
0
LINE
8
BLACK
6
CONTINUOUS
10
129.75
20
-149.3499999999999943
11
129.75
21
-153.5999999999999943
0
LINE
8
BLACK
6
CONTINUOUS
10
130.75
20
-154.5999999999999943
11
132.25
21
-154.5999999999999943
0
ARC
8
BLACK
10
115.5000009999999975
20
-127.2999989999999997
40
0.9999990000004999
50
-0.00005730
51
90.00005730
0
LINE
8
BLACK
6
CONTINUOUS
10
116.75
20
-120.0499999999999972
11
116.75
21
-120.5499999999999972
0
ARC
8
BLACK
10
130.75
20
-134.5499999999999829
40
1.
50
-180.00000000
51
-90.00000000
0
ARC
8
BLACK
10
131.
20
-120.0499999999999972
40
1.
50
0.00000000
51
90.00000000
0
LINE
8
BLACK
6
CONTINUOUS
10
131.
20
-119.0499999999999972
11
117.75
21
-119.0499999999999972
0
ARC
8
BLACK
10
132.25
20
-134.5499999999999829
40
1.
50
-90.00000000
51
-0.00000000
0
LINE
8
BLACK
6
CONTINUOUS
10
117.5
20
-129.2999999999999829
11
128.75
21
-129.2999999999999829
0
ARC
8
BLACK
10
128.75
20
-130.2999999999999829
40
1.
50
0.00000000
51
90.00000000
0
ARC
8
BLACK
10
115.7500009999999975
20
-120.5500009999999946
40
0.9999990000004999
50
-90.00005730
51
0.00005730
0
ARC
8
BLACK
10
117.7499989999999883
20
-120.0499989999999997
40
0.9999990000004999
50
-270.00005730
51
-179.99994270
0
ARC
8
BLACK
10
117.4999889999999994
20
-128.3000109999999836
40
0.9999890000605006
50
-180.00063026
51
-89.99936974
0
ARC
8
BLACK
10
133.
20
-120.5499999999999972
40
1.
50
-180.00000000
51
-90.00000000
0
LINE
8
BLACK
6
CONTINUOUS
10
132.
20
-120.0499999999999972
11
132.
21
-120.5499999999999972
0
LINE
8
BLACK
6
CONTINUOUS
10
133.25
20
-127.2999999999999972
11
133.25
21
-134.5499999999999829
0
LINE
8
BLACK
6
CONTINUOUS
10
129.75
20
-130.2999999999999829
11
129.75
21
-134.5499999999999829
0
LINE
8
BLACK
6
CONTINUOUS
10
116.5
20
-127.2999999999999972
11
116.5
21
-128.2999999999999829
0
LINE
8
BLACK
6
CONTINUOUS
10
130.75
20
-135.5499999999999829
11
132.25
21
-135.5499999999999829
0
ARC
8
BLACK
10
136.7999999999999829
20
-120.0499999999999972
40
1.
50
90.00000000
51
180.00000000
0
ARC
8
BLACK
10
149.7999999999999829
20
-134.5499999999999829
40
1.
50
-180.00000000
51
-90.00000000
0
LINE
8
BLACK
6
CONTINUOUS
10
150.0499999999999829
20
-119.0499999999999972
11
136.7999999999999829
21
-119.0499999999999972
0
LINE
8
BLACK
6
CONTINUOUS
10
135.7999999999999829
20
-120.0499999999999972
11
135.7999999999999829
21
-120.5499999999999972
0
LINE
8
BLACK
6
CONTINUOUS
10
134.5499999999999829
20
-126.2999999999999972
11
134.25
21
-126.2999999999999972
0
ARC
8
BLACK
10
150.0499999999999829
20
-120.0499999999999972
40
1.
50
0.00000000
51
90.00000000
0
ARC
8
BLACK
10
134.7999999999999829
20
-120.5499999999999972
40
1.
50
-90.00000000
51
-0.00000000
0
ARC
8
BLACK
10
134.2499990000000025
20
-127.2999989999999997
40
0.9999990000004999
50
-270.00005730
51
-179.99994270
0
ARC
8
BLACK
10
151.2999999999999829
20
-134.5499999999999829
40
1.
50
-90.00000000
51
-0.00000000
0
ARC
8
BLACK
10
134.5499999999999829
20
-127.2999999999999972
40
1.
50
0.00000000
51
90.00000000
0
ARC
8
BLACK
10
136.5499899999999798
20
-128.3000099999999861
40
0.9999900000500005
50
-180.00057296
51
-89.99942704
0
LINE
8
BLACK
6
CONTINUOUS
10
152.2999999999999829
20
-127.2999999999999972
11
152.2999999999999829
21
-134.5499999999999829
0
LINE
8
BLACK
6
CONTINUOUS
10
149.7999999999999829
20
-135.5499999999999829
11
151.2999999999999829
21
-135.5499999999999829
0
LINE
8
BLACK
6
CONTINUOUS
10
151.0499999999999829
20
-120.0499999999999972
11
151.0499999999999829
21
-120.5499999999999972
0
LINE
8
BLACK
6
CONTINUOUS
10
136.5499999999999829
20
-129.2999999999999829
11
147.7999999999999829
21
-129.2999999999999829
0
ARC
8
BLACK
10
147.7999999999999829
20
-130.2999999999999829
40
1.
50
0.00000000
51
90.00000000
0
LINE
8
BLACK
6
CONTINUOUS
10
135.5499999999999829
20
-127.2999999999999972
11
135.5499999999999829
21
-128.2999999999999829
0
ARC
8
BLACK
10
152.0499999999999829
20
-120.5499999999999972
40
1.
50
-180.00000000
51
-90.00000000
0
LINE
8
BLACK
6
CONTINUOUS
10
134.7999999999999829
20
-121.5499999999999972
11
133.
21
-121.5499999999999972
0
LINE
8
BLACK
6
CONTINUOUS
10
148.7999999999999829
20
-130.2999999999999829
11
148.7999999999999829
21
-134.5499999999999829
0
ARC
8
BLACK
10
166.8500070000000051
20
-130.3000069999999937
40
1.0000070000244998
50
0.00040107
51
90.00040107
0
LINE
8
BLACK
6
CONTINUOUS
10
167.8499999999999943
20
-130.2999999999999829
11
167.8499999999999943
21
-134.5499999999999829
0
ARC
8
BLACK
10
171.1000070000000051
20
-120.5500069999999937
40
0.9999930000245001
50
-180.00040107
51
-90.00040107
0
ARC
8
BLACK
10
153.2999989999999855
20
-127.2999989999999997
40
0.9999990000004999
50
-270.00005730
51
-179.99994270
0
ARC
8
BLACK
10
153.6000009999999918
20
-127.2999989999999997
40
0.9999990000004999
50
-0.00005730
51
90.00005730
0
LINE
8
BLACK
6
CONTINUOUS
10
154.5999999999999943
20
-127.2999999999999972
11
154.5999999999999943
21
-128.2999999999999829
0
LINE
8
BLACK
6
CONTINUOUS
10
170.0999999999999943
20
-120.0499999999999972
11
170.0999999999999943
21
-120.5499999999999972
0
ARC
8
BLACK
10
168.8500070000000051
20
-134.5500069999999937
40
0.9999930000245001
50
-180.00040107
51
-90.00040107
0
LINE
8
BLACK
6
CONTINUOUS
10
153.5999999999999943
20
-126.2999999999999972
11
153.2999999999999829
21
-126.2999999999999972
0
ARC
8
BLACK
10
155.5999970000000019
20
-128.2999969999999905
40
1.0000030000044999
50
-179.99982811
51
-89.99982811
0
ARC
8
BLACK
10
153.8500009999999918
20
-120.5500009999999946
40
0.9999990000004999
50
-90.00005730
51
0.00005730
0
LINE
8
BLACK
6
CONTINUOUS
10
155.5999999999999943
20
-129.2999999999999829
11
166.8499999999999943
21
-129.2999999999999829
0
LINE
8
BLACK
6
CONTINUOUS
10
171.3499999999999943
20
-127.2999999999999972
11
171.3499999999999943
21
-134.5499999999999829
0
ARC
8
BLACK
10
170.3500070000000051
20
-134.5500069999999937
40
0.9999930000245001
50
-90.00040107
51
0.00040107
0
ARC
8
BLACK
10
169.1000070000000051
20
-120.0500069999999937
40
1.0000070000244998
50
0.00040107
51
90.00040107
0
LINE
8
BLACK
6
CONTINUOUS
10
168.8499999999999943
20
-135.5499999999999829
11
170.3499999999999943
21
-135.5499999999999829
0
LINE
8
BLACK
6
CONTINUOUS
10
154.8499999999999943
20
-120.0499999999999972
11
154.8499999999999943
21
-120.5499999999999972
0
LINE
8
BLACK
6
CONTINUOUS
10
169.0999999999999943
20
-119.0499999999999972
11
155.8499999999999943
21
-119.0499999999999972
0
ARC
8
BLACK
10
155.8499989999999968
20
-120.0499989999999997
40
0.9999990000004999
50
-270.00005730
51
-179.99994270
0
LINE
8
BLACK
6
CONTINUOUS
10
153.8499999999999943
20
-121.5499999999999972
11
152.0499999999999829
21
-121.5499999999999972
0
ARC
8
BLACK
10
187.9000000000000057
20
-134.5499999999999829
40
1.
50
-180.00000000
51
-90.00000000
0
LINE
8
BLACK
6
CONTINUOUS
10
173.9000000000000057
20
-120.0499999999999972
11
173.9000000000000057
21
-120.5499999999999972
0
LINE
8
BLACK
6
CONTINUOUS
10
190.3999999999999773
20
-127.2999999999999972
11
190.3999999999999773
21
-134.5499999999999829
0
LINE
8
BLACK
6
CONTINUOUS
10
188.1500000000000057
20
-119.0499999999999972
11
174.9000000000000057
21
-119.0499999999999972
0
ARC
8
BLACK
10
185.9000000000000057
20
-130.2999999999999829
40
1.
50
0.00000000
51
90.00000000
0
ARC
8
BLACK
10
190.1499999999999773
20
-120.5499999999999972
40
1.
50
-180.00000000
51
-90.00000000
0
LINE
8
BLACK
6
CONTINUOUS
10
172.9000000000000057
20
-121.5499999999999972
11
171.0999999999999943
21
-121.5499999999999972
0
ARC
8
BLACK
10
189.3999999999999773
20
-134.5499999999999829
40
1.
50
-90.00000000
51
-0.00000000
0
ARC
8
BLACK
10
174.8999989999999798
20
-120.0499989999999997
40
0.9999990000004999
50
-270.00005730
51
-179.99994270
0
LINE
8
BLACK
6
CONTINUOUS
10
172.6500000000000057
20
-126.2999999999999972
11
172.3499999999999943
21
-126.2999999999999972
0
ARC
8
BLACK
10
172.9000010000000032
20
-120.5500009999999946
40
0.9999990000004999
50
-90.00005730
51
0.00005730
0
ARC
8
BLACK
10
172.3499989999999968
20
-127.2999989999999997
40
0.9999990000004999
50
-270.00005730
51
-179.99994270
0
LINE
8
BLACK
6
CONTINUOUS
10
173.6500000000000057
20
-127.2999999999999972
11
173.6500000000000057
21
-128.2999999999999829
0
LINE
8
BLACK
6
CONTINUOUS
10
189.1499999999999773
20
-120.0499999999999972
11
189.1499999999999773
21
-120.5499999999999972
0
LINE
8
BLACK
6
CONTINUOUS
10
187.9000000000000057
20
-135.5499999999999829
11
189.3999999999999773
21
-135.5499999999999829
0
LINE
8
BLACK
6
CONTINUOUS
10
174.6500000000000057
20
-129.2999999999999829
11
185.9000000000000057
21
-129.2999999999999829
0
ARC
8
BLACK
10
174.6499989999999798
20
-128.3000009999999804
40
0.9999990000004999
50
-180.00005730
51
-89.99994270
0
ARC
8
BLACK
10
188.1500000000000057
20
-120.0499999999999972
40
1.
50
0.00000000
51
90.00000000
0
ARC
8
BLACK
10
172.6500010000000032
20
-127.2999989999999997
40
0.9999990000004999
50
-0.00005730
51
90.00005730
0
LINE
8
BLACK
6
CONTINUOUS
10
186.9000000000000057
20
-130.2999999999999829
11
186.9000000000000057
21
-134.5499999999999829
0
LINE
8
BLACK
6
CONTINUOUS
10
193.6999999999999886
20
-129.2999999999999829
11
204.9499999999999886
21
-129.2999999999999829
0
ARC
8
BLACK
10
209.1999999999999886
20
-120.5499999999999972
40
1.
50
-180.00000000
51
-90.00000000
0
ARC
8
BLACK
10
208.4499999999999886
20
-134.5499999999999829
40
1.
50
-90.00000000
51
-0.00000000
0
LINE
8
BLACK
6
CONTINUOUS
10
206.9499999999999886
20
-135.5499999999999829
11
208.4499999999999886
21
-135.5499999999999829
0
LINE
8
BLACK
6
CONTINUOUS
10
208.1999999999999886
20
-120.0499999999999972
11
208.1999999999999886
21
-120.5499999999999972
0
LINE
8
BLACK
6
CONTINUOUS
10
205.9499999999999886
20
-130.2999999999999829
11
205.9499999999999886
21
-134.5499999999999829
0
ARC
8
BLACK
10
191.3999989999999798
20
-127.2999989999999997
40
0.9999990000004999
50
-270.00005730
51
-179.99994270
0
LINE
8
BLACK
6
CONTINUOUS
10
209.4499999999999886
20
-127.2999999999999972
11
209.4499999999999886
21
-134.5499999999999829
0
ARC
8
BLACK
10
193.6999989999999912
20
-128.3000009999999804
40
0.9999990000004999
50
-180.00005730
51
-89.99994270
0
LINE
8
BLACK
6
CONTINUOUS
10
192.6999999999999886
20
-127.2999999999999972
11
192.6999999999999886
21
-128.2999999999999829
0
ARC
8
BLACK
10
207.1999999999999886
20
-120.0499999999999972
40
1.
50
0.00000000
51
90.00000000
0
ARC
8
BLACK
10
206.9499999999999886
20
-134.5499999999999829
40
1.
50
-180.00000000
51
-90.00000000
0
ARC
8
BLACK
10
193.9499999999999886
20
-120.0499999999999972
40
1.
50
90.00000000
51
180.00000000
0
ARC
8
BLACK
10
191.9500009999999861
20
-120.5500009999999946
40
0.9999990000004999
50
-90.00005730
51
0.00005730
0
ARC
8
BLACK
10
204.9499999999999886
20
-130.2999999999999829
40
1.
50
0.00000000
51
90.00000000
0
LINE
8
BLACK
6
CONTINUOUS
10
191.6999999999999886
20
-126.2999999999999972
11
191.3999999999999773
21
-126.2999999999999972
0
LINE
8
BLACK
6
CONTINUOUS
10
192.9499999999999886
20
-120.0499999999999972
11
192.9499999999999886
21
-120.5499999999999972
0
ARC
8
BLACK
10
191.7000009999999861
20
-127.2999989999999997
40
0.9999990000004999
50
-0.00005730
51
90.00005730
0
LINE
8
BLACK
6
CONTINUOUS
10
207.1999999999999886
20
-119.0499999999999972
11
193.9499999999999886
21
-119.0499999999999972
0
LINE
8
BLACK
6
CONTINUOUS
10
191.9499999999999886
20
-121.5499999999999972
11
190.1499999999999773
21
-121.5499999999999972
0
ARC
8
BLACK
10
286.9500079999999684
20
-108.2499919999999918
40
0.9999920000320002
50
-0.00045837
51
90.00045837
0
LINE
8
BLACK
6
CONTINUOUS
10
288.9499999999999886
20
-110.25
11
300.1999999999999886
21
-110.25
0
ARC
8
BLACK
10
302.4499999999999886
20
-101.
40
1.
50
0.00000000
51
90.00000000
0
ARC
8
BLACK
10
286.6499989999999798
20
-108.2499989999999883
40
0.9999990000004999
50
-270.00005730
51
-179.99994270
0
ARC
8
BLACK
10
300.1999999999999886
20
-111.25
40
1.
50
0.00000000
51
90.00000000
0
LINE
8
BLACK
6
CONTINUOUS
10
303.4499999999999886
20
-101.
11
303.4499999999999886
21
-101.5
0
ARC
8
BLACK
10
287.2000009999999861
20
-101.5000009999999975
40
0.9999990000004999
50
-90.00005730
51
0.00005730
0
LINE
8
BLACK
6
CONTINUOUS
10
302.1999999999999886
20
-116.5
11
303.6999999999999886
21
-116.5
0
ARC
8
BLACK
10
302.1999999999999886
20
-115.5
40
1.
50
-180.00000000
51
-90.00000000
0
LINE
8
BLACK
6
CONTINUOUS
10
288.1999999999999886
20
-101.
11
288.1999999999999886
21
-101.5
0
ARC
8
BLACK
10
304.4499999999999886
20
-101.5
40
1.
50
-180.00000000
51
-90.00000000
0
LINE
8
BLACK
6
CONTINUOUS
10
301.1999999999999886
20
-111.25
11
301.1999999999999886
21
-115.5
0
LINE
8
BLACK
6
CONTINUOUS
10
287.1999999999999886
20
-102.5
11
285.3999999999999773
21
-102.5
0
LINE
8
BLACK
6
CONTINUOUS
10
287.9499999999999886
20
-108.25
11
287.9499999999999886
21
-109.25
0
ARC
8
BLACK
10
288.9499819999999772
20
-109.2500179999999972
40
0.9999820001620028
50
-180.00103134
51
-89.99896866
0
ARC
8
BLACK
10
289.2000029999999811
20
-101.0000029999999924
40
1.0000030000044999
50
90.00017189
51
179.99982811
0
LINE
8
BLACK
6
CONTINUOUS
10
286.9499999999999886
20
-107.25
11
286.6499999999999773
21
-107.25
0
LINE
8
BLACK
6
CONTINUOUS
10
302.4499999999999886
20
-100.
11
289.1999999999999886
21
-100.
0
ARC
8
BLACK
10
267.5999989999999684
20
-108.2499989999999883
40
0.9999990000004999
50
-270.00005730
51
-179.99994270
0
ARC
8
BLACK
10
284.6499999999999773
20
-115.5
40
1.
50
-90.00000000
51
-0.00000000
0
LINE
8
BLACK
6
CONTINUOUS
10
284.3999999999999773
20
-101.
11
284.3999999999999773
21
-101.5
0
LINE
8
BLACK
6
CONTINUOUS
10
283.1499999999999773
20
-116.5
11
284.6499999999999773
21
-116.5
0
ARC
8
BLACK
10
268.1500009999999747
20
-101.5000009999999975
40
0.9999990000004999
50
-90.00005730
51
0.00005730
0
ARC
8
BLACK
10
269.8999819999999659
20
-109.2500179999999972
40
0.9999820001620028
50
-180.00103134
51
-89.99896866
0
LINE
8
BLACK
6
CONTINUOUS
10
285.6499999999999773
20
-108.25
11
285.6499999999999773
21
-115.5
0
ARC
8
BLACK
10
285.3999999999999773
20
-101.5
40
1.
50
-180.00000000
51
-90.00000000
0
ARC
8
BLACK
10
283.1499999999999773
20
-115.5
40
1.
50
-180.00000000
51
-90.00000000
0
LINE
8
BLACK
6
CONTINUOUS
10
283.3999999999999773
20
-100.
11
270.1499999999999773
21
-100.
0
LINE
8
BLACK
6
CONTINUOUS
10
268.8999999999999773
20
-108.25
11
268.8999999999999773
21
-109.25
0
LINE
8
BLACK
6
CONTINUOUS
10
267.8999999999999773
20
-107.25
11
267.5999999999999659
21
-107.25
0
ARC
8
BLACK
10
267.9000080000000139
20
-108.2499919999999918
40
0.9999920000320002
50
-0.00045837
51
90.00045837
0
ARC
8
BLACK
10
283.3999999999999773
20
-101.
40
1.
50
0.00000000
51
90.00000000
0
LINE
8
BLACK
6
CONTINUOUS
10
269.1499999999999773
20
-101.
11
269.1499999999999773
21
-101.5
0
LINE
8
BLACK
6
CONTINUOUS
10
282.1499999999999773
20
-111.25
11
282.1499999999999773
21
-115.5
0
LINE
8
BLACK
6
CONTINUOUS
10
269.8999999999999773
20
-110.25
11
281.1499999999999773
21
-110.25
0
ARC
8
BLACK
10
270.1500029999999697
20
-101.0000029999999924
40
1.0000030000044999
50
90.00017189
51
179.99982811
0
ARC
8
BLACK
10
281.1499999999999773
20
-111.25
40
1.
50
0.00000000
51
90.00000000
0
LINE
8
BLACK
6
CONTINUOUS
10
268.1499999999999773
20
-102.5
11
266.3499999999999659
21
-102.5
0
LINE
8
BLACK
6
CONTINUOUS
10
250.8499999999999943
20
-110.25
11
262.0999999999999659
21
-110.25
0
ARC
8
BLACK
10
265.5999999999999659
20
-115.5
40
1.
50
-90.00000000
51
-0.00000000
0
LINE
8
BLACK
6
CONTINUOUS
10
264.0999999999999659
20
-116.5
11
265.5999999999999659
21
-116.5
0
LINE
8
BLACK
6
CONTINUOUS
10
265.3499999999999659
20
-101.
11
265.3499999999999659
21
-101.5
0
LINE
8
BLACK
6
CONTINUOUS
10
263.0999999999999659
20
-111.25
11
263.0999999999999659
21
-115.5
0
ARC
8
BLACK
10
248.5499989999999855
20
-108.2499989999999883
40
0.9999990000004999
50
-270.00005730
51
-179.99994270
0
LINE
8
BLACK
6
CONTINUOUS
10
266.5999999999999659
20
-108.25
11
266.5999999999999659
21
-115.5
0
ARC
8
BLACK
10
250.8499819999999829
20
-109.2500179999999972
40
0.9999820001620028
50
-180.00103134
51
-89.99896866
0
LINE
8
BLACK
6
CONTINUOUS
10
249.8499999999999943
20
-108.25
11
249.8499999999999943
21
-109.25
0
ARC
8
BLACK
10
264.0999999999999659
20
-115.5
40
1.
50
-180.00000000
51
-90.00000000
0
LINE
8
BLACK
6
CONTINUOUS
10
248.8499999999999943
20
-107.25
11
248.5499999999999829
21
-107.25
0
LINE
8
BLACK
6
CONTINUOUS
10
250.0999999999999943
20
-101.
11
250.0999999999999943
21
-101.5
0
ARC
8
BLACK
10
264.3499999999999659
20
-101.
40
1.
50
0.00000000
51
90.00000000
0
ARC
8
BLACK
10
262.0999999999999659
20
-111.25
40
1.
50
0.00000000
51
90.00000000
0
LINE
8
BLACK
6
CONTINUOUS
10
264.3499999999999659
20
-100.
11
251.0999999999999943
21
-100.
0
ARC
8
BLACK
10
249.1000009999999918
20
-101.5000009999999975
40
0.9999990000004999
50
-90.00005730
51
0.00005730
0
ARC
8
BLACK
10
248.8500080000000025
20
-108.2499919999999918
40
0.9999920000320002
50
-0.00045837
51
90.00045837
0
ARC
8
BLACK
10
251.1000029999999867
20
-101.0000029999999924
40
1.0000030000044999
50
90.00017189
51
179.99982811
0
LINE
8
BLACK
6
CONTINUOUS
10
249.0999999999999943
20
-102.5
11
247.2999999999999829
21
-102.5
0
ARC
8
BLACK
10
266.3499999999999659
20
-101.5
40
1.
50
-180.00000000
51
-90.00000000
0
ARC
8
BLACK
10
245.0499930000000006
20
-115.4999929999999893
40
1.0000070000244998
50
-179.99959893
51
-89.99959893
0
LINE
8
BLACK
6
CONTINUOUS
10
230.7999999999999829
20
-108.25
11
230.7999999999999829
21
-109.25
0
ARC
8
BLACK
10
247.2999930000000006
20
-101.4999929999999893
40
1.0000070000244998
50
-179.99959893
51
-89.99959893
0
LINE
8
BLACK
6
CONTINUOUS
10
245.2999999999999829
20
-100.
11
232.0499999999999829
21
-100.
0
LINE
8
BLACK
6
CONTINUOUS
10
244.0499999999999829
20
-111.25
11
244.0499999999999829
21
-115.5
0
LINE
8
BLACK
6
CONTINUOUS
10
231.7999999999999829
20
-110.25
11
243.0499999999999829
21
-110.25
0
LINE
8
BLACK
6
CONTINUOUS
10
246.2999999999999829
20
-101.
11
246.2999999999999829
21
-101.5
0
LINE
8
BLACK
6
CONTINUOUS
10
230.0499999999999829
20
-102.5
11
228.25
21
-102.5
0
ARC
8
BLACK
10
230.0500009999999804
20
-101.5000009999999975
40
0.9999990000004999
50
-90.00005730
51
0.00005730
0
LINE
8
BLACK
6
CONTINUOUS
10
229.7999999999999829
20
-107.25
11
229.5
21
-107.25
0
ARC
8
BLACK
10
245.2999930000000006
20
-100.9999929999999893
40
0.9999930000245001
50
-0.00040107
51
89.99959893
0
ARC
8
BLACK
10
229.8000030000000038
20
-108.2500029999999924
40
1.0000030000044999
50
0.00017189
51
90.00017189
0
ARC
8
BLACK
10
232.0500029999999754
20
-101.0000029999999924
40
1.0000030000044999
50
90.00017189
51
179.99982811
0
LINE
8
BLACK
6
CONTINUOUS
10
231.0499999999999829
20
-101.
11
231.0499999999999829
21
-101.5
0
ARC
8
BLACK
10
246.5499930000000006
20
-115.4999929999999893
40
1.0000070000244998
50
-89.99959893
51
-0.00040107
0
LINE
8
BLACK
6
CONTINUOUS
10
245.0499999999999829
20
-116.5
11
246.5499999999999829
21
-116.5
0
ARC
8
BLACK
10
231.7999930000000006
20
-109.2499929999999893
40
1.0000070000244998
50
-179.99959893
51
-89.99959893
0
ARC
8
BLACK
10
229.4999990000000025
20
-108.2499989999999883
40
0.9999990000004999
50
-270.00005730
51
-179.99994270
0
LINE
8
BLACK
6
CONTINUOUS
10
247.5499999999999829
20
-108.25
11
247.5499999999999829
21
-115.5
0
ARC
8
BLACK
10
243.0499930000000006
20
-111.2499929999999893
40
0.9999930000245001
50
-0.00040107
51
89.99959893
0
ARC
8
BLACK
10
206.9499999999999886
20
-115.5
40
1.
50
-180.00000000
51
-90.00000000
0
LINE
8
BLACK
6
CONTINUOUS
10
192.6999999999999886
20
-108.25
11
192.6999999999999886
21
-109.25
0
ARC
8
BLACK
10
209.1999999999999886
20
-101.5
40
1.
50
-180.00000000
51
-90.00000000
0
LINE
8
BLACK
6
CONTINUOUS
10
207.1999999999999886
20
-100.
11
193.9499999999999886
21
-100.
0
LINE
8
BLACK
6
CONTINUOUS
10
205.9499999999999886
20
-111.25
11
205.9499999999999886
21
-115.5
0
LINE
8
BLACK
6
CONTINUOUS
10
193.6999999999999886
20
-110.25
11
204.9499999999999886
21
-110.25
0
LINE
8
BLACK
6
CONTINUOUS
10
208.1999999999999886
20
-101.
11
208.1999999999999886
21
-101.5
0
LINE
8
BLACK
6
CONTINUOUS
10
191.9499999999999886
20
-102.5
11
190.1499999999999773
21
-102.5
0
ARC
8
BLACK
10
191.9500009999999861
20
-101.5000009999999975
40
0.9999990000004999
50
-90.00005730
51
0.00005730
0
LINE
8
BLACK
6
CONTINUOUS
10
191.6999999999999886
20
-107.25
11
191.3999999999999773
21
-107.25
0
ARC
8
BLACK
10
207.1999999999999886
20
-101.
40
1.
50
0.00000000
51
90.00000000
0
ARC
8
BLACK
10
191.7000009999999861
20
-108.2499989999999883
40
0.9999990000004999
50
-0.00005730
51
90.00005730
0
ARC
8
BLACK
10
193.9499989999999912
20
-100.9999990000000025
40
0.9999990000004999
50
-270.00005730
51
-179.99994270
0
ARC
8
BLACK
10
193.6999989999999912
20
-109.2500009999999975
40
0.9999990000004999
50
-180.00005730
51
-89.99994270
0
LINE
8
BLACK
6
CONTINUOUS
10
192.9499999999999886
20
-101.
11
192.9499999999999886
21
-101.5
0
ARC
8
BLACK
10
208.4499999999999886
20
-115.5
40
1.
50
-90.00000000
51
-0.00000000
0
LINE
8
BLACK
6
CONTINUOUS
10
206.9499999999999886
20
-116.5
11
208.4499999999999886
21
-116.5
0
ARC
8
BLACK
10
191.3999989999999798
20
-108.2499989999999883
40
0.9999990000004999
50
-270.00005730
51
-179.99994270
0
LINE
8
BLACK
6
CONTINUOUS
10
209.4499999999999886
20
-108.25
11
209.4499999999999886
21
-115.5
0
ARC
8
BLACK
10
204.9499999999999886
20
-111.25
40
1.
50
0.00000000
51
90.00000000
0
LINE
8
BLACK
6
CONTINUOUS
10
211.
20
-102.5
11
209.1999999999999886
21
-102.5
0
ARC
8
BLACK
10
212.7499990000000025
20
-109.2500009999999975
40
0.9999990000004999
50
-180.00005730
51
-89.99994270
0
LINE
8
BLACK
6
CONTINUOUS
10
226.
20
-116.5
11
227.5
21
-116.5
0
ARC
8
BLACK
10
228.25
20
-101.5
40
1.
50
-180.00000000
51
-90.00000000
0
ARC
8
BLACK
10
226.25
20
-101.
40
1.
50
0.00000000
51
90.00000000
0
ARC
8
BLACK
10
224.
20
-111.25
40
1.
50
0.00000000
51
90.00000000
0
LINE
8
BLACK
6
CONTINUOUS
10
225.
20
-111.25
11
225.
21
-115.5
0
LINE
8
BLACK
6
CONTINUOUS
10
226.25
20
-100.
11
213.
21
-100.
0
ARC
8
BLACK
10
210.4499989999999912
20
-108.2499989999999883
40
0.9999990000004999
50
-270.00005730
51
-179.99994270
0
LINE
8
BLACK
6
CONTINUOUS
10
227.25
20
-101.
11
227.25
21
-101.5
0
LINE
8
BLACK
6
CONTINUOUS
10
212.
20
-101.
11
212.
21
-101.5
0
LINE
8
BLACK
6
CONTINUOUS
10
228.5
20
-108.25
11
228.5
21
-115.5
0
ARC
8
BLACK
10
226.
20
-115.5
40
1.
50
-180.00000000
51
-90.00000000
0
ARC
8
BLACK
10
227.5
20
-115.5
40
1.
50
-90.00000000
51
-0.00000000
0
LINE
8
BLACK
6
CONTINUOUS
10
211.75
20
-108.25
11
211.75
21
-109.25
0
ARC
8
BLACK
10
210.7500009999999975
20
-108.2499989999999883
40
0.9999990000004999
50
-0.00005730
51
90.00005730
0
LINE
8
BLACK
6
CONTINUOUS
10
212.75
20
-110.25
11
224.
21
-110.25
0
LINE
8
BLACK
6
CONTINUOUS
10
210.75
20
-107.25
11
210.4499999999999886
21
-107.25
0
ARC
8
BLACK
10
212.9999990000000025
20
-100.9999990000000025
40
0.9999990000004999
50
-270.00005730
51
-179.99994270
0
ARC
8
BLACK
10
211.0000009999999975
20
-101.5000009999999975
40
0.9999990000004999
50
-90.00005730
51
0.00005730
0
ARC
8
BLACK
10
174.8999989999999798
20
-100.9999990000000025
40
0.9999990000004999
50
-270.00005730
51
-179.99994270
0
LINE
8
BLACK
6
CONTINUOUS
10
186.9000000000000057
20
-111.25
11
186.9000000000000057
21
-115.5
0
ARC
8
BLACK
10
172.3499989999999968
20
-108.2499989999999883
40
0.9999990000004999
50
-270.00005730
51
-179.99994270
0
ARC
8
BLACK
10
185.9000000000000057
20
-111.25
40
1.
50
0.00000000
51
90.00000000
0
LINE
8
BLACK
6
CONTINUOUS
10
172.9000000000000057
20
-102.5
11
171.0999999999999943
21
-102.5
0
ARC
8
BLACK
10
188.1500000000000057
20
-101.
40
1.
50
0.00000000
51
90.00000000
0
LINE
8
BLACK
6
CONTINUOUS
10
172.6500000000000057
20
-107.25
11
172.3499999999999943
21
-107.25
0
LINE
8
BLACK
6
CONTINUOUS
10
189.1499999999999773
20
-101.
11
189.1499999999999773
21
-101.5
0
LINE
8
BLACK
6
CONTINUOUS
10
173.9000000000000057
20
-101.
11
173.9000000000000057
21
-101.5
0
LINE
8
BLACK
6
CONTINUOUS
10
174.6500000000000057
20
-110.25
11
185.9000000000000057
21
-110.25
0
LINE
8
BLACK
6
CONTINUOUS
10
188.1500000000000057
20
-100.
11
174.9000000000000057
21
-100.
0
LINE
8
BLACK
6
CONTINUOUS
10
187.9000000000000057
20
-116.5
11
189.3999999999999773
21
-116.5
0
LINE
8
BLACK
6
CONTINUOUS
10
190.3999999999999773
20
-108.25
11
190.3999999999999773
21
-115.5
0
ARC
8
BLACK
10
174.6499989999999798
20
-109.2500009999999975
40
0.9999990000004999
50
-180.00005730
51
-89.99994270
0
ARC
8
BLACK
10
189.3999999999999773
20
-115.5
40
1.
50
-90.00000000
51
-0.00000000
0
LINE
8
BLACK
6
CONTINUOUS
10
173.6500000000000057
20
-108.25
11
173.6500000000000057
21
-109.25
0
ARC
8
BLACK
10
172.9000010000000032
20
-101.5000009999999975
40
0.9999990000004999
50
-90.00005730
51
0.00005730
0
ARC
8
BLACK
10
187.9000000000000057
20
-115.5
40
1.
50
-180.00000000
51
-90.00000000
0
ARC
8
BLACK
10
172.6500010000000032
20
-108.2499989999999883
40
0.9999990000004999
50
-0.00005730
51
90.00005730
0
ARC
8
BLACK
10
190.1499999999999773
20
-101.5
40
1.
50
-180.00000000
51
-90.00000000
0
LINE
8
BLACK
6
CONTINUOUS
10
170.0999999999999943
20
-101.
11
170.0999999999999943
21
-101.5
0
ARC
8
BLACK
10
168.8499999999999943
20
-115.5
40
1.
50
-180.00000000
51
-90.00000000
0
LINE
8
BLACK
6
CONTINUOUS
10
153.8499999999999943
20
-102.5
11
152.0499999999999829
21
-102.5
0
ARC
8
BLACK
10
170.3499999999999943
20
-115.5
40
1.
50
-90.00000000
51
-0.00000000
0
LINE
8
BLACK
6
CONTINUOUS
10
167.8499999999999943
20
-111.25
11
167.8499999999999943
21
-115.5
0
ARC
8
BLACK
10
169.0999999999999943
20
-101.
40
1.
50
0.00000000
51
90.00000000
0
LINE
8
BLACK
6
CONTINUOUS
10
153.5999999999999943
20
-107.25
11
153.2999999999999829
21
-107.25
0
ARC
8
BLACK
10
171.0999999999999943
20
-101.5
40
1.
50
-180.00000000
51
-90.00000000
0
ARC
8
BLACK
10
153.6000009999999918
20
-108.2499989999999883
40
0.9999990000004999
50
-0.00005730
51
90.00005730
0
LINE
8
BLACK
6
CONTINUOUS
10
155.5999999999999943
20
-110.25
11
166.8499999999999943
21
-110.25
0
LINE
8
BLACK
6
CONTINUOUS
10
169.0999999999999943
20
-100.
11
155.8499999999999943
21
-100.
0
ARC
8
BLACK
10
153.8500009999999918
20
-101.5000009999999975
40
0.9999990000004999
50
-90.00005730
51
0.00005730
0
ARC
8
BLACK
10
166.8499999999999943
20
-111.25
40
1.
50
0.00000000
51
90.00000000
0
ARC
8
BLACK
10
155.5999989999999968
20
-109.2500009999999975
40
0.9999990000004999
50
-180.00005730
51
-89.99994270
0
LINE
8
BLACK
6
CONTINUOUS
10
168.8499999999999943
20
-116.5
11
170.3499999999999943
21
-116.5
0
ARC
8
BLACK
10
155.8499989999999968
20
-100.9999990000000025
40
0.9999990000004999
50
-270.00005730
51
-179.99994270
0
LINE
8
BLACK
6
CONTINUOUS
10
171.3499999999999943
20
-108.25
11
171.3499999999999943
21
-115.5
0
LINE
8
BLACK
6
CONTINUOUS
10
154.8499999999999943
20
-101.
11
154.8499999999999943
21
-101.5
0
LINE
8
BLACK
6
CONTINUOUS
10
154.5999999999999943
20
-108.25
11
154.5999999999999943
21
-109.25
0
ARC
8
BLACK
10
153.2999989999999855
20
-108.2499989999999883
40
0.9999990000004999
50
-270.00005730
51
-179.99994270
0
LINE
8
BLACK
6
CONTINUOUS
10
134.7999999999999829
20
-102.5
11
133.
21
-102.5
0
ARC
8
BLACK
10
136.7999989999999855
20
-100.9999990000000025
40
0.9999990000004999
50
-270.00005730
51
-179.99994270
0
LINE
8
BLACK
6
CONTINUOUS
10
151.0499999999999829
20
-101.
11
151.0499999999999829
21
-101.5
0
LINE
8
BLACK
6
CONTINUOUS
10
135.7999999999999829
20
-101.
11
135.7999999999999829
21
-101.5
0
ARC
8
BLACK
10
149.7999989999999855
20
-115.5000009999999975
40
0.9999990000004999
50
-180.00005730
51
-89.99994270
0
LINE
8
BLACK
6
CONTINUOUS
10
148.7999999999999829
20
-111.25
11
148.7999999999999829
21
-115.5
0
ARC
8
BLACK
10
150.0500009999999804
20
-100.9999990000000025
40
0.9999990000004999
50
-0.00005730
51
90.00005730
0
ARC
8
BLACK
10
152.0499989999999855
20
-101.5000009999999975
40
0.9999990000004999
50
-180.00005730
51
-89.99994270
0
ARC
8
BLACK
10
134.5500009999999804
20
-108.2499989999999883
40
0.9999990000004999
50
-0.00005730
51
90.00005730
0
LINE
8
BLACK
6
CONTINUOUS
10
136.5499999999999829
20
-110.25
11
147.7999999999999829
21
-110.25
0
LINE
8
BLACK
6
CONTINUOUS
10
134.5499999999999829
20
-107.25
11
134.25
21
-107.25
0
ARC
8
BLACK
10
151.3000009999999804
20
-115.5000009999999975
40
0.9999990000004999
50
-90.00005730
51
0.00005730
0
LINE
8
BLACK
6
CONTINUOUS
10
135.5499999999999829
20
-108.25
11
135.5499999999999829
21
-109.25
0
LINE
8
BLACK
6
CONTINUOUS
10
150.0499999999999829
20
-100.
11
136.7999999999999829
21
-100.
0
ARC
8
BLACK
10
134.8000009999999804
20
-101.5000009999999975
40
0.9999990000004999
50
-90.00005730
51
0.00005730
0
ARC
8
BLACK
10
147.8000009999999804
20
-111.2499989999999883
40
0.9999990000004999
50
-0.00005730
51
90.00005730
0
LINE
8
BLACK
6
CONTINUOUS
10
149.7999999999999829
20
-116.5
11
151.2999999999999829
21
-116.5
0
ARC
8
BLACK
10
136.5499989999999855
20
-109.2500009999999975
40
0.9999990000004999
50
-180.00005730
51
-89.99994270
0
LINE
8
BLACK
6
CONTINUOUS
10
152.2999999999999829
20
-108.25
11
152.2999999999999829
21
-115.5
0
LINE
8
BLACK
6
CONTINUOUS
10
152.2999999999999829
20
-108.25
11
152.2999999999999829
21
-115.5
0
LINE
8
BLACK
6
CONTINUOUS
10
133.25
20
-108.25
11
133.25
21
-115.5
0
LINE
8
BLACK
6
CONTINUOUS
10
134.5499999999999829
20
-107.25
11
134.25
21
-107.25
0
ARC
8
BLACK
10
134.25
20
-108.25
40
1.
50
90.00000000
51
180.00000000
0
LINE
8
BLACK
6
CONTINUOUS
10
134.7999999999999829
20
-102.5
11
133.
21
-102.5
0
ARC
8
BLACK
10
136.7999989999999855
20
-100.9999990000000025
40
0.9999990000004999
50
-270.00005730
51
-179.99994270
0
LINE
8
BLACK
6
CONTINUOUS
10
151.0499999999999829
20
-101.
11
151.0499999999999829
21
-101.5
0
LINE
8
BLACK
6
CONTINUOUS
10
135.7999999999999829
20
-101.
11
135.7999999999999829
21
-101.5
0
ARC
8
BLACK
10
149.7999930000000006
20
-115.5000069999999965
40
0.9999930000245001
50
-180.00040107
51
-89.99959893
0
LINE
8
BLACK
6
CONTINUOUS
10
148.7999999999999829
20
-111.25
11
148.7999999999999829
21
-115.5
0
ARC
8
BLACK
10
150.0499930000000006
20
-101.0000069999999965
40
1.0000070000244998
50
0.00040107
51
89.99959893
0
ARC
8
BLACK
10
152.0499930000000006
20
-101.5000069999999965
40
0.9999930000245001
50
-180.00040107
51
-89.99959893
0
ARC
8
BLACK
10
134.5500009999999804
20
-108.2499989999999883
40
0.9999990000004999
50
-0.00005730
51
90.00005730
0
LINE
8
BLACK
6
CONTINUOUS
10
136.5499999999999829
20
-110.25
11
147.7999999999999829
21
-110.25
0
ARC
8
BLACK
10
151.2999930000000006
20
-115.5000069999999965
40
1.0000070000244998
50
-89.99959893
51
0.00040107
0
LINE
8
BLACK
6
CONTINUOUS
10
135.5499999999999829
20
-108.25
11
135.5499999999999829
21
-109.25
0
LINE
8
BLACK
6
CONTINUOUS
10
150.0499999999999829
20
-100.
11
136.7999999999999829
21
-100.
0
ARC
8
BLACK
10
134.8000009999999804
20
-101.5000009999999975
40
0.9999990000004999
50
-90.00005730
51
0.00005730
0
ARC
8
BLACK
10
147.7999930000000006
20
-111.2500069999999965
40
1.0000070000244998
50
0.00040107
51
89.99959893
0
LINE
8
BLACK
6
CONTINUOUS
10
149.7999999999999829
20
-116.5
11
151.2999999999999829
21
-116.5
0
ARC
8
BLACK
10
136.5499989999999855
20
-109.2500009999999975
40
0.9999990000004999
50
-180.00005730
51
-89.99994270
0
LINE
8
BLACK
6
CONTINUOUS
10
134.7999999999999829
20
-102.5
11
133.
21
-102.5
0
LINE
8
BLACK
6
CONTINUOUS
10
149.7999999999999829
20
-116.5
11
151.2999999999999829
21
-116.5
0
LINE
8
BLACK
6
CONTINUOUS
10
148.7999999999999829
20
-111.25
11
148.7999999999999829
21
-115.5
0
LINE
8
BLACK
6
CONTINUOUS
10
135.5499999999999829
20
-108.25
11
135.5499999999999829
21
-109.25
0
LINE
8
BLACK
6
CONTINUOUS
10
150.0499999999999829
20
-100.
11
136.7999999999999829
21
-100.
0
ARC
8
BLACK
10
149.7999989999999855
20
-115.5000009999999975
40
0.9999990000004999
50
-180.00005730
51
-89.99994270
0
ARC
8
BLACK
10
147.8000009999999804
20
-111.2499989999999883
40
0.9999990000004999
50
-0.00005730
51
90.00005730
0
ARC
8
BLACK
10
134.5500009999999804
20
-108.2499989999999883
40
0.9999990000004999
50
-0.00005730
51
90.00005730
0
LINE
8
BLACK
6
CONTINUOUS
10
151.0499999999999829
20
-101.
11
151.0499999999999829
21
-101.5
0
ARC
8
BLACK
10
151.3000009999999804
20
-115.5000009999999975
40
0.9999990000004999
50
-90.00005730
51
0.00005730
0
LINE
8
BLACK
6
CONTINUOUS
10
135.7999999999999829
20
-101.
11
135.7999999999999829
21
-101.5
0
ARC
8
BLACK
10
150.0500009999999804
20
-100.9999990000000025
40
0.9999990000004999
50
-0.00005730
51
90.00005730
0
ARC
8
BLACK
10
134.8000009999999804
20
-101.5000009999999975
40
0.9999990000004999
50
-90.00005730
51
0.00005730
0
ARC
8
BLACK
10
136.7999989999999855
20
-100.9999990000000025
40
0.9999990000004999
50
-270.00005730
51
-179.99994270
0
ARC
8
BLACK
10
152.0499989999999855
20
-101.5000009999999975
40
0.9999990000004999
50
-180.00005730
51
-89.99994270
0
ARC
8
BLACK
10
136.5499989999999855
20
-109.2500009999999975
40
0.9999990000004999
50
-180.00005730
51
-89.99994270
0
LINE
8
BLACK
6
CONTINUOUS
10
136.5499999999999829
20
-110.25
11
147.7999999999999829
21
-110.25
0
LINE
8
BLACK
6
CONTINUOUS
10
130.75
20
-116.5
11
132.25
21
-116.5
0
LINE
8
BLACK
6
CONTINUOUS
10
129.75
20
-111.25
11
129.75
21
-115.5
0
LINE
8
BLACK
6
CONTINUOUS
10
117.5
20
-110.25
11
128.75
21
-110.25
0
LINE
8
BLACK
6
CONTINUOUS
10
116.5
20
-108.25
11
116.5
21
-109.25
0
LINE
8
BLACK
6
CONTINUOUS
10
116.75
20
-101.
11
116.75
21
-101.5
0
LINE
8
BLACK
6
CONTINUOUS
10
131.
20
-100.
11
117.75
21
-100.
0
LINE
8
BLACK
6
CONTINUOUS
10
132.
20
-101.
11
132.
21
-101.5
0
ARC
8
BLACK
10
132.25
20
-115.5
40
1.
50
-90.00000000
51
-0.00000000
0
ARC
8
BLACK
10
130.7499990000000025
20
-115.5000009999999975
40
0.9999990000004999
50
-180.00005730
51
-89.99994270
0
ARC
8
BLACK
10
128.7500009999999975
20
-111.2499989999999883
40
0.9999990000004999
50
-0.00005730
51
90.00005730
0
ARC
8
BLACK
10
117.4999989999999883
20
-109.2500009999999975
40
0.9999990000004999
50
-180.00005730
51
-89.99994270
0
ARC
8
BLACK
10
115.5000009999999975
20
-108.2499989999999883
40
0.9999990000004999
50
-0.00005730
51
90.00005730
0
ARC
8
BLACK
10
117.75
20
-101.
40
1.
50
90.00000000
51
180.00000000
0
ARC
8
BLACK
10
115.75
20
-101.5
40
1.
50
-90.00000000
51
-0.00000000
0
ARC
8
BLACK
10
133.
20
-101.5
40
1.
50
-180.00000000
51
-90.00000000
0
ARC
8
BLACK
10
131.
20
-101.
40
1.
50
0.00000000
51
90.00000000
0
ARC
8
BLACK
10
80.8099979999999931
20
-95.9899979999999999
40
0.999998000002
50
-270.00011459
51
-179.99988541
0
LINE
8
BLACK
6
CONTINUOUS
10
357.089999999999975
20
-95.
11
80.8100000000000023
21
-94.9899999999999949
0
ARC
8
BLACK
10
357.0900009999999725
20
-95.9999979999999908
40
0.9999980000005
50
-0.00011459
51
90.00005730
0
LINE
8
BLACK
6
CONTINUOUS
10
358.0600000000000023
20
-175.8700000000000045
11
358.089999999999975
21
-96.
0
ARC
8
BLACK
10
357.0600009999999997
20
-175.870001000000002
40
0.9999990000004999
50
-90.00005730
51
0.00005730
0
LINE
8
BLACK
6
CONTINUOUS
10
80.789999999999992
20
-176.8700000000000045
11
357.0600000000000023
21
-176.8700000000000045
0
ARC
8
BLACK
10
80.7899979999999971
20
-175.870001000000002
40
0.9999990000019999
50
-180.00005730
51
-89.99988541
0
LINE
8
BLACK
6
CONTINUOUS
10
79.8100000000000023
20
-95.9899999999999949
11
79.789999999999992
21
-175.8700000000000045
0
LINE
8
BLACK
6
CONTINUOUS
10
306.25
20
-121.5499999999999972
11
304.4499999999999886
21
-121.5499999999999972
0
LINE
8
BLACK
6
CONTINUOUS
10
246.2999999999999829
20
-139.0999999999999943
11
246.2999999999999829
21
-139.5999999999999943
0
LINE
8
BLACK
6
CONTINUOUS
10
231.0499999999999829
20
-139.0999999999999943
11
231.0499999999999829
21
-139.5999999999999943
0
LINE
8
BLACK
6
CONTINUOUS
10
230.0499999999999829
20
-140.5999999999999943
11
228.25
21
-140.5999999999999943
0
LINE
8
BLACK
6
CONTINUOUS
10
245.2999999999999829
20
-138.0999999999999943
11
232.0499999999999829
21
-138.0999999999999943
0
ARC
8
BLACK
10
230.0500009999999804
20
-139.6000009999999918
40
0.9999990000004999
50
-90.00005730
51
0.00005730
0
ARC
8
BLACK
10
247.2999999999999829
20
-139.5999999999999943
40
1.
50
-180.00000000
51
-90.00000000
0
ARC
8
BLACK
10
245.2999999999999829
20
-139.0999999999999943
40
1.
50
0.00000000
51
90.00000000
0
ARC
8
BLACK
10
248.5499999999999829
20
-153.5999999999999943
40
1.
50
-180.00000000
51
-90.00000000
0
LINE
8
BLACK
6
CONTINUOUS
10
247.5499999999999829
20
-146.3499999999999943
11
247.5499999999999829
21
-153.5999999999999943
0
ARC
8
BLACK
10
232.0499989999999855
20
-139.0999989999999968
40
0.9999990000004999
50
-270.00005730
51
-179.99994270
0
LINE
8
BLACK
6
CONTINUOUS
10
253.625
20
-155.5999999999999943
11
253.625
21
-164.6749999999999829
0
ARC
8
BLACK
10
331.7178940000000011
20
-108.2249989999999968
40
0.9999990000004999
50
-0.00005730
51
90.00005730
0
ARC
8
BLACK
10
353.8500009999999634
20
-153.4749989999999968
40
0.9999990000004999
50
-0.00005730
51
90.00005730
0
ARC
8
BLACK
10
354.7750009999999747
20
-133.9828939999999875
40
0.9999990000004999
50
-90.00005730
51
0.00005730
0
LINE
8
BLACK
6
CONTINUOUS
10
307.7728930000000105
20
-154.5971069999999941
11
303.6999999999999886
21
-154.5999999999999943
0
LINE
8
BLACK
6
CONTINUOUS
10
308.7728930000000105
20
-155.5971069999999941
11
308.7749999999999773
21
-160.625
0
LINE
8
BLACK
6
CONTINUOUS
10
349.1421159999999873
20
-169.7599999999999909
11
352.
21
-171.4099999999999966
0
LINE
8
BLACK
6
CONTINUOUS
10
352.
20
-171.4099999999999966
11
354.8578839999999559
21
-169.7599999999999909
0
LINE
8
BLACK
6
CONTINUOUS
10
354.8578839999999559
20
-169.7599999999999909
11
354.8578839999999559
21
-166.4599999999999795
0
LINE
8
BLACK
6
CONTINUOUS
10
352.
20
-106.6999999999999886
11
354.8578839999999559
21
-108.3499999999999943
0
LINE
8
BLACK
6
CONTINUOUS
10
352.
20
-113.2999999999999972
11
354.8578839999999559
21
-111.6499999999999915
0
LINE
8
BLACK
6
CONTINUOUS
10
354.8578839999999559
20
-111.6499999999999915
11
354.8578839999999559
21
-108.3499999999999943
0
LINE
8
BLACK
6
CONTINUOUS
10
83.4421159999999986
20
-108.4499999999999886
11
83.4421159999999986
21
-111.75
0
LINE
8
BLACK
6
CONTINUOUS
10
83.4421159999999986
20
-111.75
11
86.2999999999999972
21
-113.3999999999999915
0
LINE
8
BLACK
6
CONTINUOUS
10
86.2999999999999972
20
-106.7999999999999972
11
83.4421159999999986
21
-108.4499999999999886
0
LINE
8
BLACK
6
CONTINUOUS
10
86.2999999999999972
20
-113.3999999999999915
11
89.1578839999999957
21
-111.75
0
LINE
8
BLACK
6
CONTINUOUS
10
82.9921159999999958
20
-166.4599999999999795
11
82.9921159999999958
21
-169.7599999999999909
0
LINE
8
BLACK
6
CONTINUOUS
10
82.9921159999999958
20
-169.7599999999999909
11
85.8499999999999943
21
-171.4099999999999966
0
LINE
8
BLACK
6
CONTINUOUS
10
85.8499999999999943
20
-164.8100000000000023
11
82.9921159999999958
21
-166.4599999999999795
0
LINE
8
BLACK
6
CONTINUOUS
10
85.8499999999999943
20
-164.8100000000000023
11
88.7078839999999929
21
-166.4599999999999795
0
LINE
8
BLACK
6
CONTINUOUS
10
85.8499999999999943
20
-171.4099999999999966
11
88.7078839999999929
21
-169.7599999999999909
0
LINE
8
BLACK
6
CONTINUOUS
10
88.7078839999999929
20
-169.7599999999999909
11
88.7078839999999929
21
-166.4599999999999795
  0
ENDSEC
  0
EOF
