  0
SECTION
  2
HEADER
  9
$ANGBASE
  50
0.0
  9
$ANGDIR
  70
1
  9
$MEASUREMENT
  70
1
  0
ENDSEC
  0
SECTION
  2
TABLES
  0
TABLE
  2
LTYPE
  70
4
  0
LTYPE
  5
40F
  2
CONTINUOUS
  70
0
  3
Solid line
  72
65
  73
0
  40
0.0
  0
LTYPE
  5
410
  2
DASHDOT
 70
0
  3
Dash Dot ____ _ ____ _
 72
65
 73
4
 40
2.0
 49
1.25
 49
-0.25
 49
0.25
 49
-0.25
  0
LTYPE
  5
411
  2
DASHED
 70
0
  3
Dashed __ __ __ __ __
 72
65
 73
2
 40
0.75
 49
0.5
 49
-0.25
  0
LTYPE
  5
43B
  2
DOTTED
 70
0
  3
Dotted .  .  .  .
 72
65
 73
2
 40
0.2
 49
0.0
 49
-0.2
  0
ENDTAB
  0
TABLE
  2
STYLE
  70
4
  0
STYLE
  2
KICAD
  70
0
  40
0
  41
1
  42
1
  50
0
  71
0
  3
isocp.shx
  0
STYLE
  2
KICADB
  70
0
  40
0
  41
1
  42
1
  50
0
  71
0
  3
isocp.shx
  0
STYLE
  2
KICADI
  70
0
  40
0
  41
1
  42
1
  50
15
  71
0
  3
isocp.shx
  0
STYLE
  2
KICADBI
  70
0
  40
0
  41
1
  42
1
  50
15
  71
0
  3
isocp.shx
  0
ENDTAB
  0
TABLE
  2
LAYER
  70
1
  0
LAYER
  2
BLACK
  70
0
  62
7
  6
CONTINUOUS
  0
ENDTAB
  0
ENDSEC
  0
SECTION
  2
ENTITIES
0
LINE
8
BLACK
6
CONTINUOUS
10
332.3599999999999568
20
-104.6099999999999994
11
322.3600000000000136
21
-104.6099999999999994
0
LINE
8
BLACK
6
CONTINUOUS
10
322.3600000000000136
20
-94.9849999999999994
11
322.3600000000000136
21
-104.6099999999999994
0
LINE
8
BLACK
6
CONTINUOUS
10
322.3600000000000136
20
-94.9849999999999994
11
332.3599999999999568
21
-94.9849999999999994
0
LINE
8
BLACK
6
CONTINUOUS
10
332.3599999999999568
20
-94.9849999999999994
11
332.3599999999999568
21
-104.6099999999999994
0
LINE
8
BLACK
6
CONTINUOUS
10
357.089999999999975
20
-95.
11
80.8100000000000023
21
-94.9899999999999949
0
ARC
8
BLACK
10
357.0600000000000023
20
-175.8700000000000045
40
1.
50
-90.00000000
51
-0.00000000
0
ARC
8
BLACK
10
80.8100000000000023
20
-95.9899999999999949
40
1.
50
90.00000000
51
180.00000000
0
ARC
8
BLACK
10
357.089999999999975
20
-96.
40
1.
50
0.00000000
51
90.00000000
0
LINE
8
BLACK
6
CONTINUOUS
10
358.0600000000000023
20
-175.8700000000000045
11
358.089999999999975
21
-96.
0
LINE
8
BLACK
6
CONTINUOUS
10
80.789999999999992
20
-176.8700000000000045
11
357.0600000000000023
21
-176.8700000000000045
0
LINE
8
BLACK
6
CONTINUOUS
10
79.8100000000000023
20
-95.9899999999999949
11
79.789999999999992
21
-175.8700000000000045
0
ARC
8
BLACK
10
80.789999999999992
20
-175.8700000000000045
40
1.
50
-180.00000000
51
-90.00000000
0
LINE
8
BLACK
6
CONTINUOUS
10
161.8599999999999852
20
-157.5737499999999898
11
175.9599999999999795
21
-157.5737499999999898
0
LINE
8
BLACK
6
CONTINUOUS
10
161.8599999999999852
20
-171.6737499999999841
11
161.8599999999999852
21
-157.5737499999999898
0
LINE
8
BLACK
6
CONTINUOUS
10
175.9599999999999795
20
-157.5737499999999898
11
175.9599999999999795
21
-171.6737499999999841
0
LINE
8
BLACK
6
CONTINUOUS
10
175.9599999999999795
20
-171.6737499999999841
11
161.8599999999999852
21
-171.6737499999999841
0
LINE
8
BLACK
6
CONTINUOUS
10
249.9662500000000023
20
-100.4237499999999983
11
264.0662499999999682
21
-100.4237499999999983
0
LINE
8
BLACK
6
CONTINUOUS
10
249.9662500000000023
20
-114.5237499999999926
11
249.9662500000000023
21
-100.4237499999999983
0
LINE
8
BLACK
6
CONTINUOUS
10
264.0662499999999682
20
-100.4237499999999983
11
264.0662499999999682
21
-114.5237499999999926
0
LINE
8
BLACK
6
CONTINUOUS
10
264.0662499999999682
20
-114.5237499999999926
11
249.9662500000000023
21
-114.5237499999999926
0
LINE
8
BLACK
6
CONTINUOUS
10
192.8162499999999966
20
-100.4237499999999983
11
206.9162499999999909
21
-100.4237499999999983
0
LINE
8
BLACK
6
CONTINUOUS
10
192.8162499999999966
20
-114.5237499999999926
11
192.8162499999999966
21
-100.4237499999999983
0
LINE
8
BLACK
6
CONTINUOUS
10
206.9162499999999909
20
-100.4237499999999983
11
206.9162499999999909
21
-114.5237499999999926
0
LINE
8
BLACK
6
CONTINUOUS
10
206.9162499999999909
20
-114.5237499999999926
11
192.8162499999999966
21
-114.5237499999999926
0
LINE
8
BLACK
6
CONTINUOUS
10
135.6662499999999909
20
-138.5237500000000068
11
149.7662499999999852
21
-138.5237500000000068
0
LINE
8
BLACK
6
CONTINUOUS
10
135.6662499999999909
20
-152.6237500000000011
11
135.6662499999999909
21
-138.5237500000000068
0
LINE
8
BLACK
6
CONTINUOUS
10
149.7662499999999852
20
-138.5237500000000068
11
149.7662499999999852
21
-152.6237500000000011
0
LINE
8
BLACK
6
CONTINUOUS
10
149.7662499999999852
20
-152.6237500000000011
11
135.6662499999999909
21
-152.6237500000000011
0
LINE
8
BLACK
6
CONTINUOUS
10
222.4099999999999966
20
-173.4237499999999841
11
222.4099999999999966
21
-158.6237500000000011
0
LINE
8
BLACK
6
CONTINUOUS
10
222.4099999999999966
20
-158.6237500000000011
11
215.4099999999999966
21
-158.6237500000000011
0
LINE
8
BLACK
6
CONTINUOUS
10
215.4099999999999966
20
-173.4237499999999841
11
222.4099999999999966
21
-173.4237499999999841
0
LINE
8
BLACK
6
CONTINUOUS
10
215.4099999999999966
20
-158.6237500000000011
11
215.4099999999999966
21
-173.4237499999999841
0
LINE
8
BLACK
6
CONTINUOUS
10
214.0600000000000023
20
-171.6737499999999841
11
199.9599999999999795
21
-171.6737499999999841
0
LINE
8
BLACK
6
CONTINUOUS
10
214.0600000000000023
20
-157.5737499999999898
11
214.0600000000000023
21
-171.6737499999999841
0
LINE
8
BLACK
6
CONTINUOUS
10
199.9599999999999795
20
-171.6737499999999841
11
199.9599999999999795
21
-157.5737499999999898
0
LINE
8
BLACK
6
CONTINUOUS
10
199.9599999999999795
20
-157.5737499999999898
11
214.0600000000000023
21
-157.5737499999999898
0
LINE
8
BLACK
6
CONTINUOUS
10
198.6099999999999852
20
-173.4237499999999841
11
191.6099999999999852
21
-173.4237499999999841
0
LINE
8
BLACK
6
CONTINUOUS
10
198.6099999999999852
20
-158.6237500000000011
11
198.6099999999999852
21
-173.4237499999999841
0
LINE
8
BLACK
6
CONTINUOUS
10
191.6099999999999852
20
-173.4237499999999841
11
191.6099999999999852
21
-158.6237500000000011
0
LINE
8
BLACK
6
CONTINUOUS
10
191.6099999999999852
20
-158.6237500000000011
11
198.6099999999999852
21
-158.6237500000000011
0
LINE
8
BLACK
6
CONTINUOUS
10
249.9662500000000023
20
-119.4737499999999955
11
264.0662499999999682
21
-119.4737499999999955
0
LINE
8
BLACK
6
CONTINUOUS
10
249.9662500000000023
20
-133.5737499999999898
11
249.9662500000000023
21
-119.4737499999999955
0
LINE
8
BLACK
6
CONTINUOUS
10
264.0662499999999682
20
-119.4737499999999955
11
264.0662499999999682
21
-133.5737499999999898
0
LINE
8
BLACK
6
CONTINUOUS
10
264.0662499999999682
20
-133.5737499999999898
11
249.9662500000000023
21
-133.5737499999999898
0
LINE
8
BLACK
6
CONTINUOUS
10
116.6162499999999937
20
-119.4737499999999955
11
130.7162500000000023
21
-119.4737499999999955
0
LINE
8
BLACK
6
CONTINUOUS
10
116.6162499999999937
20
-133.5737499999999898
11
116.6162499999999937
21
-119.4737499999999955
0
LINE
8
BLACK
6
CONTINUOUS
10
130.7162500000000023
20
-119.4737499999999955
11
130.7162500000000023
21
-133.5737499999999898
0
LINE
8
BLACK
6
CONTINUOUS
10
130.7162500000000023
20
-133.5737499999999898
11
116.6162499999999937
21
-133.5737499999999898
0
LINE
8
BLACK
6
CONTINUOUS
10
82.9921159999999958
20
-108.3499999999999943
11
82.9921159999999958
21
-111.6499999999999915
0
LINE
8
BLACK
6
CONTINUOUS
10
82.9921159999999958
20
-111.6499999999999915
11
85.8499999999999943
21
-113.2999999999999972
0
LINE
8
BLACK
6
CONTINUOUS
10
85.8499999999999943
20
-106.6999999999999886
11
82.9921159999999958
21
-108.3499999999999943
0
LINE
8
BLACK
6
CONTINUOUS
10
85.8499999999999943
20
-106.6999999999999886
11
88.7078839999999929
21
-108.3499999999999943
0
LINE
8
BLACK
6
CONTINUOUS
10
85.8499999999999943
20
-113.2999999999999972
11
88.7078839999999929
21
-111.6499999999999915
0
LINE
8
BLACK
6
CONTINUOUS
10
88.7078839999999929
20
-111.6499999999999915
11
88.7078839999999929
21
-108.3499999999999943
0
LINE
8
BLACK
6
CONTINUOUS
10
288.0662499999999682
20
-119.4737499999999955
11
302.1662499999999909
21
-119.4737499999999955
0
LINE
8
BLACK
6
CONTINUOUS
10
288.0662499999999682
20
-133.5737499999999898
11
288.0662499999999682
21
-119.4737499999999955
0
LINE
8
BLACK
6
CONTINUOUS
10
302.1662499999999909
20
-119.4737499999999955
11
302.1662499999999909
21
-133.5737499999999898
0
LINE
8
BLACK
6
CONTINUOUS
10
302.1662499999999909
20
-133.5737499999999898
11
288.0662499999999682
21
-133.5737499999999898
0
LINE
8
BLACK
6
CONTINUOUS
10
307.1162499999999795
20
-119.4737499999999955
11
321.2162500000000023
21
-119.4737499999999955
0
LINE
8
BLACK
6
CONTINUOUS
10
307.1162499999999795
20
-133.5737499999999898
11
307.1162499999999795
21
-119.4737499999999955
0
LINE
8
BLACK
6
CONTINUOUS
10
321.2162500000000023
20
-119.4737499999999955
11
321.2162500000000023
21
-133.5737499999999898
0
LINE
8
BLACK
6
CONTINUOUS
10
321.2162500000000023
20
-133.5737499999999898
11
307.1162499999999795
21
-133.5737499999999898
0
LINE
8
BLACK
6
CONTINUOUS
10
264.2537499999999682
20
-157.5737499999999898
11
278.3537499999999909
21
-157.5737499999999898
0
LINE
8
BLACK
6
CONTINUOUS
10
264.2537499999999682
20
-171.6737499999999841
11
264.2537499999999682
21
-157.5737499999999898
0
LINE
8
BLACK
6
CONTINUOUS
10
278.3537499999999909
20
-157.5737499999999898
11
278.3537499999999909
21
-171.6737499999999841
0
LINE
8
BLACK
6
CONTINUOUS
10
278.3537499999999909
20
-171.6737499999999841
11
264.2537499999999682
21
-171.6737499999999841
0
LINE
8
BLACK
6
CONTINUOUS
10
211.8662499999999795
20
-100.4237499999999983
11
225.9662500000000023
21
-100.4237499999999983
0
LINE
8
BLACK
6
CONTINUOUS
10
211.8662499999999795
20
-114.5237499999999926
11
211.8662499999999795
21
-100.4237499999999983
0
LINE
8
BLACK
6
CONTINUOUS
10
225.9662500000000023
20
-100.4237499999999983
11
225.9662500000000023
21
-114.5237499999999926
0
LINE
8
BLACK
6
CONTINUOUS
10
225.9662500000000023
20
-114.5237499999999926
11
211.8662499999999795
21
-114.5237499999999926
0
LINE
8
BLACK
6
CONTINUOUS
10
82.9921159999999958
20
-166.4599999999999795
11
82.9921159999999958
21
-169.7599999999999909
0
LINE
8
BLACK
6
CONTINUOUS
10
82.9921159999999958
20
-169.7599999999999909
11
85.8499999999999943
21
-171.4099999999999966
0
LINE
8
BLACK
6
CONTINUOUS
10
85.8499999999999943
20
-164.8100000000000023
11
82.9921159999999958
21
-166.4599999999999795
0
LINE
8
BLACK
6
CONTINUOUS
10
85.8499999999999943
20
-164.8100000000000023
11
88.7078839999999929
21
-166.4599999999999795
0
LINE
8
BLACK
6
CONTINUOUS
10
85.8499999999999943
20
-171.4099999999999966
11
88.7078839999999929
21
-169.7599999999999909
0
LINE
8
BLACK
6
CONTINUOUS
10
88.7078839999999929
20
-169.7599999999999909
11
88.7078839999999929
21
-166.4599999999999795
0
LINE
8
BLACK
6
CONTINUOUS
10
269.0162500000000136
20
-100.4237499999999983
11
283.1162499999999795
21
-100.4237499999999983
0
LINE
8
BLACK
6
CONTINUOUS
10
269.0162500000000136
20
-114.5237499999999926
11
269.0162500000000136
21
-100.4237499999999983
0
LINE
8
BLACK
6
CONTINUOUS
10
283.1162499999999795
20
-100.4237499999999983
11
283.1162499999999795
21
-114.5237499999999926
0
LINE
8
BLACK
6
CONTINUOUS
10
283.1162499999999795
20
-114.5237499999999926
11
269.0162500000000136
21
-114.5237499999999926
0
LINE
8
BLACK
6
CONTINUOUS
10
349.1421159999999873
20
-108.3499999999999943
11
349.1421159999999873
21
-111.6499999999999915
0
LINE
8
BLACK
6
CONTINUOUS
10
349.1421159999999873
20
-111.6499999999999915
11
352.
21
-113.2999999999999972
0
LINE
8
BLACK
6
CONTINUOUS
10
352.
20
-106.6999999999999886
11
349.1421159999999873
21
-108.3499999999999943
0
LINE
8
BLACK
6
CONTINUOUS
10
352.
20
-106.6999999999999886
11
354.8578839999999559
21
-108.3499999999999943
0
LINE
8
BLACK
6
CONTINUOUS
10
352.
20
-113.2999999999999972
11
354.8578839999999559
21
-111.6499999999999915
0
LINE
8
BLACK
6
CONTINUOUS
10
354.8578839999999559
20
-111.6499999999999915
11
354.8578839999999559
21
-108.3499999999999943
0
LINE
8
BLACK
6
CONTINUOUS
10
192.8162499999999966
20
-119.4737499999999955
11
206.9162499999999909
21
-119.4737499999999955
0
LINE
8
BLACK
6
CONTINUOUS
10
192.8162499999999966
20
-133.5737499999999898
11
192.8162499999999966
21
-119.4737499999999955
0
LINE
8
BLACK
6
CONTINUOUS
10
206.9162499999999909
20
-119.4737499999999955
11
206.9162499999999909
21
-133.5737499999999898
0
LINE
8
BLACK
6
CONTINUOUS
10
206.9162499999999909
20
-133.5737499999999898
11
192.8162499999999966
21
-133.5737499999999898
0
LINE
8
BLACK
6
CONTINUOUS
10
90.4224999999999994
20
-119.4737499999999955
11
104.5224999999999937
21
-119.4737499999999955
0
LINE
8
BLACK
6
CONTINUOUS
10
90.4224999999999994
20
-133.5737499999999898
11
90.4224999999999994
21
-119.4737499999999955
0
LINE
8
BLACK
6
CONTINUOUS
10
104.5224999999999937
20
-119.4737499999999955
11
104.5224999999999937
21
-133.5737499999999898
0
LINE
8
BLACK
6
CONTINUOUS
10
104.5224999999999937
20
-133.5737499999999898
11
90.4224999999999994
21
-133.5737499999999898
0
LINE
8
BLACK
6
CONTINUOUS
10
154.7162500000000023
20
-138.5237500000000068
11
168.8162499999999966
21
-138.5237500000000068
0
LINE
8
BLACK
6
CONTINUOUS
10
154.7162500000000023
20
-152.6237500000000011
11
154.7162500000000023
21
-138.5237500000000068
0
LINE
8
BLACK
6
CONTINUOUS
10
168.8162499999999966
20
-138.5237500000000068
11
168.8162499999999966
21
-152.6237500000000011
0
LINE
8
BLACK
6
CONTINUOUS
10
168.8162499999999966
20
-152.6237500000000011
11
154.7162500000000023
21
-152.6237500000000011
0
LINE
8
BLACK
6
CONTINUOUS
10
333.3100000000000023
20
-138.5237500000000068
11
347.4099999999999682
21
-138.5237500000000068
0
LINE
8
BLACK
6
CONTINUOUS
10
333.3100000000000023
20
-152.6237500000000011
11
333.3100000000000023
21
-138.5237500000000068
0
LINE
8
BLACK
6
CONTINUOUS
10
347.4099999999999682
20
-138.5237500000000068
11
347.4099999999999682
21
-152.6237500000000011
0
LINE
8
BLACK
6
CONTINUOUS
10
347.4099999999999682
20
-152.6237500000000011
11
333.3100000000000023
21
-152.6237500000000011
0
LINE
8
BLACK
6
CONTINUOUS
10
288.0662499999999682
20
-157.5737499999999898
11
302.1662499999999909
21
-157.5737499999999898
0
LINE
8
BLACK
6
CONTINUOUS
10
288.0662499999999682
20
-171.6737499999999841
11
288.0662499999999682
21
-157.5737499999999898
0
LINE
8
BLACK
6
CONTINUOUS
10
302.1662499999999909
20
-157.5737499999999898
11
302.1662499999999909
21
-171.6737499999999841
0
LINE
8
BLACK
6
CONTINUOUS
10
302.1662499999999909
20
-171.6737499999999841
11
288.0662499999999682
21
-171.6737499999999841
0
LINE
8
BLACK
6
CONTINUOUS
10
116.6162499999999937
20
-138.5237500000000068
11
130.7162500000000023
21
-138.5237500000000068
0
LINE
8
BLACK
6
CONTINUOUS
10
116.6162499999999937
20
-152.6237500000000011
11
116.6162499999999937
21
-138.5237500000000068
0
LINE
8
BLACK
6
CONTINUOUS
10
130.7162500000000023
20
-138.5237500000000068
11
130.7162500000000023
21
-152.6237500000000011
0
LINE
8
BLACK
6
CONTINUOUS
10
130.7162500000000023
20
-152.6237500000000011
11
116.6162499999999937
21
-152.6237500000000011
0
LINE
8
BLACK
6
CONTINUOUS
10
107.0912499999999881
20
-157.5737499999999898
11
121.1912499999999966
21
-157.5737499999999898
0
LINE
8
BLACK
6
CONTINUOUS
10
107.0912499999999881
20
-171.6737499999999841
11
107.0912499999999881
21
-157.5737499999999898
0
LINE
8
BLACK
6
CONTINUOUS
10
121.1912499999999966
20
-157.5737499999999898
11
121.1912499999999966
21
-171.6737499999999841
0
LINE
8
BLACK
6
CONTINUOUS
10
121.1912499999999966
20
-171.6737499999999841
11
107.0912499999999881
21
-171.6737499999999841
0
LINE
8
BLACK
6
CONTINUOUS
10
173.7662499999999852
20
-138.5237500000000068
11
187.8662499999999795
21
-138.5237500000000068
0
LINE
8
BLACK
6
CONTINUOUS
10
173.7662499999999852
20
-152.6237500000000011
11
173.7662499999999852
21
-138.5237500000000068
0
LINE
8
BLACK
6
CONTINUOUS
10
187.8662499999999795
20
-138.5237500000000068
11
187.8662499999999795
21
-152.6237500000000011
0
LINE
8
BLACK
6
CONTINUOUS
10
187.8662499999999795
20
-152.6237500000000011
11
173.7662499999999852
21
-152.6237500000000011
0
LINE
8
BLACK
6
CONTINUOUS
10
307.1162499999999795
20
-138.5237500000000068
11
321.2162500000000023
21
-138.5237500000000068
0
LINE
8
BLACK
6
CONTINUOUS
10
307.1162499999999795
20
-152.6237500000000011
11
307.1162499999999795
21
-138.5237500000000068
0
LINE
8
BLACK
6
CONTINUOUS
10
321.2162500000000023
20
-138.5237500000000068
11
321.2162500000000023
21
-152.6237500000000011
0
LINE
8
BLACK
6
CONTINUOUS
10
321.2162500000000023
20
-152.6237500000000011
11
307.1162499999999795
21
-152.6237500000000011
0
LINE
8
BLACK
6
CONTINUOUS
10
333.3100000000000023
20
-119.4737499999999955
11
347.4099999999999682
21
-119.4737499999999955
0
LINE
8
BLACK
6
CONTINUOUS
10
333.3100000000000023
20
-133.5737499999999898
11
333.3100000000000023
21
-119.4737499999999955
0
LINE
8
BLACK
6
CONTINUOUS
10
347.4099999999999682
20
-119.4737499999999955
11
347.4099999999999682
21
-133.5737499999999898
0
LINE
8
BLACK
6
CONTINUOUS
10
347.4099999999999682
20
-133.5737499999999898
11
333.3100000000000023
21
-133.5737499999999898
0
LINE
8
BLACK
6
CONTINUOUS
10
90.4224999999999994
20
-138.5237500000000068
11
104.5224999999999937
21
-138.5237500000000068
0
LINE
8
BLACK
6
CONTINUOUS
10
90.4224999999999994
20
-152.6237500000000011
11
90.4224999999999994
21
-138.5237500000000068
0
LINE
8
BLACK
6
CONTINUOUS
10
104.5224999999999937
20
-138.5237500000000068
11
104.5224999999999937
21
-152.6237500000000011
0
LINE
8
BLACK
6
CONTINUOUS
10
104.5224999999999937
20
-152.6237500000000011
11
90.4224999999999994
21
-152.6237500000000011
0
LINE
8
BLACK
6
CONTINUOUS
10
269.0162500000000136
20
-119.4737499999999955
11
283.1162499999999795
21
-119.4737499999999955
0
LINE
8
BLACK
6
CONTINUOUS
10
269.0162500000000136
20
-133.5737499999999898
11
269.0162500000000136
21
-119.4737499999999955
0
LINE
8
BLACK
6
CONTINUOUS
10
283.1162499999999795
20
-119.4737499999999955
11
283.1162499999999795
21
-133.5737499999999898
0
LINE
8
BLACK
6
CONTINUOUS
10
283.1162499999999795
20
-133.5737499999999898
11
269.0162500000000136
21
-133.5737499999999898
0
LINE
8
BLACK
6
CONTINUOUS
10
288.0662499999999682
20
-138.5237500000000068
11
302.1662499999999909
21
-138.5237500000000068
0
LINE
8
BLACK
6
CONTINUOUS
10
288.0662499999999682
20
-152.6237500000000011
11
288.0662499999999682
21
-138.5237500000000068
0
LINE
8
BLACK
6
CONTINUOUS
10
302.1662499999999909
20
-138.5237500000000068
11
302.1662499999999909
21
-152.6237500000000011
0
LINE
8
BLACK
6
CONTINUOUS
10
302.1662499999999909
20
-152.6237500000000011
11
288.0662499999999682
21
-152.6237500000000011
0
LINE
8
BLACK
6
CONTINUOUS
10
211.8662499999999795
20
-119.4737499999999955
11
225.9662500000000023
21
-119.4737499999999955
0
LINE
8
BLACK
6
CONTINUOUS
10
211.8662499999999795
20
-133.5737499999999898
11
211.8662499999999795
21
-119.4737499999999955
0
LINE
8
BLACK
6
CONTINUOUS
10
225.9662500000000023
20
-119.4737499999999955
11
225.9662500000000023
21
-133.5737499999999898
0
LINE
8
BLACK
6
CONTINUOUS
10
225.9662500000000023
20
-133.5737499999999898
11
211.8662499999999795
21
-133.5737499999999898
0
LINE
8
BLACK
6
CONTINUOUS
10
154.7162500000000023
20
-119.4737499999999955
11
168.8162499999999966
21
-119.4737499999999955
0
LINE
8
BLACK
6
CONTINUOUS
10
154.7162500000000023
20
-133.5737499999999898
11
154.7162500000000023
21
-119.4737499999999955
0
LINE
8
BLACK
6
CONTINUOUS
10
168.8162499999999966
20
-119.4737499999999955
11
168.8162499999999966
21
-133.5737499999999898
0
LINE
8
BLACK
6
CONTINUOUS
10
168.8162499999999966
20
-133.5737499999999898
11
154.7162500000000023
21
-133.5737499999999898
0
LINE
8
BLACK
6
CONTINUOUS
10
116.6162499999999937
20
-100.4237499999999983
11
130.7162500000000023
21
-100.4237499999999983
0
LINE
8
BLACK
6
CONTINUOUS
10
116.6162499999999937
20
-114.5237499999999926
11
116.6162499999999937
21
-100.4237499999999983
0
LINE
8
BLACK
6
CONTINUOUS
10
130.7162500000000023
20
-100.4237499999999983
11
130.7162500000000023
21
-114.5237499999999926
0
LINE
8
BLACK
6
CONTINUOUS
10
130.7162500000000023
20
-114.5237499999999926
11
116.6162499999999937
21
-114.5237499999999926
0
LINE
8
BLACK
6
CONTINUOUS
10
249.9662500000000023
20
-138.5237500000000068
11
264.0662499999999682
21
-138.5237500000000068
0
LINE
8
BLACK
6
CONTINUOUS
10
249.9662500000000023
20
-152.6237500000000011
11
249.9662500000000023
21
-138.5237500000000068
0
LINE
8
BLACK
6
CONTINUOUS
10
264.0662499999999682
20
-138.5237500000000068
11
264.0662499999999682
21
-152.6237500000000011
0
LINE
8
BLACK
6
CONTINUOUS
10
264.0662499999999682
20
-152.6237500000000011
11
249.9662500000000023
21
-152.6237500000000011
0
LINE
8
BLACK
6
CONTINUOUS
10
135.6662499999999909
20
-157.5737499999999898
11
149.7662499999999852
21
-157.5737499999999898
0
LINE
8
BLACK
6
CONTINUOUS
10
135.6662499999999909
20
-171.6737499999999841
11
135.6662499999999909
21
-157.5737499999999898
0
LINE
8
BLACK
6
CONTINUOUS
10
149.7662499999999852
20
-157.5737499999999898
11
149.7662499999999852
21
-171.6737499999999841
0
LINE
8
BLACK
6
CONTINUOUS
10
149.7662499999999852
20
-171.6737499999999841
11
135.6662499999999909
21
-171.6737499999999841
0
LINE
8
BLACK
6
CONTINUOUS
10
154.7162500000000023
20
-100.4237499999999983
11
168.8162499999999966
21
-100.4237499999999983
0
LINE
8
BLACK
6
CONTINUOUS
10
154.7162500000000023
20
-114.5237499999999926
11
154.7162500000000023
21
-100.4237499999999983
0
LINE
8
BLACK
6
CONTINUOUS
10
168.8162499999999966
20
-100.4237499999999983
11
168.8162499999999966
21
-114.5237499999999926
0
LINE
8
BLACK
6
CONTINUOUS
10
168.8162499999999966
20
-114.5237499999999926
11
154.7162500000000023
21
-114.5237499999999926
0
LINE
8
BLACK
6
CONTINUOUS
10
349.1421159999999873
20
-166.4599999999999795
11
349.1421159999999873
21
-169.7599999999999909
0
LINE
8
BLACK
6
CONTINUOUS
10
349.1421159999999873
20
-169.7599999999999909
11
352.
21
-171.4099999999999966
0
LINE
8
BLACK
6
CONTINUOUS
10
352.
20
-164.8100000000000023
11
349.1421159999999873
21
-166.4599999999999795
0
LINE
8
BLACK
6
CONTINUOUS
10
352.
20
-164.8100000000000023
11
354.8578839999999559
21
-166.4599999999999795
0
LINE
8
BLACK
6
CONTINUOUS
10
352.
20
-171.4099999999999966
11
354.8578839999999559
21
-169.7599999999999909
0
LINE
8
BLACK
6
CONTINUOUS
10
354.8578839999999559
20
-169.7599999999999909
11
354.8578839999999559
21
-166.4599999999999795
0
LINE
8
BLACK
6
CONTINUOUS
10
230.9162499999999909
20
-138.5237500000000068
11
245.0162499999999852
21
-138.5237500000000068
0
LINE
8
BLACK
6
CONTINUOUS
10
230.9162499999999909
20
-152.6237500000000011
11
230.9162499999999909
21
-138.5237500000000068
0
LINE
8
BLACK
6
CONTINUOUS
10
245.0162499999999852
20
-138.5237500000000068
11
245.0162499999999852
21
-152.6237500000000011
0
LINE
8
BLACK
6
CONTINUOUS
10
245.0162499999999852
20
-152.6237500000000011
11
230.9162499999999909
21
-152.6237500000000011
0
LINE
8
BLACK
6
CONTINUOUS
10
311.8787499999999682
20
-157.5737499999999898
11
325.9787499999999909
21
-157.5737499999999898
0
LINE
8
BLACK
6
CONTINUOUS
10
311.8787499999999682
20
-171.6737499999999841
11
311.8787499999999682
21
-157.5737499999999898
0
LINE
8
BLACK
6
CONTINUOUS
10
325.9787499999999909
20
-157.5737499999999898
11
325.9787499999999909
21
-171.6737499999999841
0
LINE
8
BLACK
6
CONTINUOUS
10
325.9787499999999909
20
-171.6737499999999841
11
311.8787499999999682
21
-171.6737499999999841
0
LINE
8
BLACK
6
CONTINUOUS
10
135.6662499999999909
20
-100.4237499999999983
11
149.7662499999999852
21
-100.4237499999999983
0
LINE
8
BLACK
6
CONTINUOUS
10
135.6662499999999909
20
-114.5237499999999926
11
135.6662499999999909
21
-100.4237499999999983
0
LINE
8
BLACK
6
CONTINUOUS
10
149.7662499999999852
20
-100.4237499999999983
11
149.7662499999999852
21
-114.5237499999999926
0
LINE
8
BLACK
6
CONTINUOUS
10
149.7662499999999852
20
-114.5237499999999926
11
135.6662499999999909
21
-114.5237499999999926
0
LINE
8
BLACK
6
CONTINUOUS
10
192.8162499999999966
20
-138.5237500000000068
11
206.9162499999999909
21
-138.5237500000000068
0
LINE
8
BLACK
6
CONTINUOUS
10
192.8162499999999966
20
-152.6237500000000011
11
192.8162499999999966
21
-138.5237500000000068
0
LINE
8
BLACK
6
CONTINUOUS
10
206.9162499999999909
20
-138.5237500000000068
11
206.9162499999999909
21
-152.6237500000000011
0
LINE
8
BLACK
6
CONTINUOUS
10
206.9162499999999909
20
-152.6237500000000011
11
192.8162499999999966
21
-152.6237500000000011
0
LINE
8
BLACK
6
CONTINUOUS
10
307.1162499999999795
20
-100.4237499999999983
11
321.2162500000000023
21
-100.4237499999999983
0
LINE
8
BLACK
6
CONTINUOUS
10
307.1162499999999795
20
-114.5237499999999926
11
307.1162499999999795
21
-100.4237499999999983
0
LINE
8
BLACK
6
CONTINUOUS
10
321.2162500000000023
20
-100.4237499999999983
11
321.2162500000000023
21
-114.5237499999999926
0
LINE
8
BLACK
6
CONTINUOUS
10
321.2162500000000023
20
-114.5237499999999926
11
307.1162499999999795
21
-114.5237499999999926
0
LINE
8
BLACK
6
CONTINUOUS
10
230.9162499999999909
20
-100.4237499999999983
11
245.0162499999999852
21
-100.4237499999999983
0
LINE
8
BLACK
6
CONTINUOUS
10
230.9162499999999909
20
-114.5237499999999926
11
230.9162499999999909
21
-100.4237499999999983
0
LINE
8
BLACK
6
CONTINUOUS
10
245.0162499999999852
20
-100.4237499999999983
11
245.0162499999999852
21
-114.5237499999999926
0
LINE
8
BLACK
6
CONTINUOUS
10
245.0162499999999852
20
-114.5237499999999926
11
230.9162499999999909
21
-114.5237499999999926
0
LINE
8
BLACK
6
CONTINUOUS
10
211.8662499999999795
20
-138.5237500000000068
11
225.9662500000000023
21
-138.5237500000000068
0
LINE
8
BLACK
6
CONTINUOUS
10
211.8662499999999795
20
-152.6237500000000011
11
211.8662499999999795
21
-138.5237500000000068
0
LINE
8
BLACK
6
CONTINUOUS
10
225.9662500000000023
20
-138.5237500000000068
11
225.9662500000000023
21
-152.6237500000000011
0
LINE
8
BLACK
6
CONTINUOUS
10
225.9662500000000023
20
-152.6237500000000011
11
211.8662499999999795
21
-152.6237500000000011
0
LINE
8
BLACK
6
CONTINUOUS
10
230.9162499999999909
20
-119.4737499999999955
11
245.0162499999999852
21
-119.4737499999999955
0
LINE
8
BLACK
6
CONTINUOUS
10
230.9162499999999909
20
-133.5737499999999898
11
230.9162499999999909
21
-119.4737499999999955
0
LINE
8
BLACK
6
CONTINUOUS
10
245.0162499999999852
20
-119.4737499999999955
11
245.0162499999999852
21
-133.5737499999999898
0
LINE
8
BLACK
6
CONTINUOUS
10
245.0162499999999852
20
-133.5737499999999898
11
230.9162499999999909
21
-133.5737499999999898
0
LINE
8
BLACK
6
CONTINUOUS
10
173.7662499999999852
20
-119.4737499999999955
11
187.8662499999999795
21
-119.4737499999999955
0
LINE
8
BLACK
6
CONTINUOUS
10
173.7662499999999852
20
-133.5737499999999898
11
173.7662499999999852
21
-119.4737499999999955
0
LINE
8
BLACK
6
CONTINUOUS
10
187.8662499999999795
20
-119.4737499999999955
11
187.8662499999999795
21
-133.5737499999999898
0
LINE
8
BLACK
6
CONTINUOUS
10
187.8662499999999795
20
-133.5737499999999898
11
173.7662499999999852
21
-133.5737499999999898
0
LINE
8
BLACK
6
CONTINUOUS
10
238.0600000000000023
20
-157.5737499999999898
11
252.1599999999999966
21
-157.5737499999999898
0
LINE
8
BLACK
6
CONTINUOUS
10
238.0600000000000023
20
-171.6737499999999841
11
238.0600000000000023
21
-157.5737499999999898
0
LINE
8
BLACK
6
CONTINUOUS
10
252.1599999999999966
20
-157.5737499999999898
11
252.1599999999999966
21
-171.6737499999999841
0
LINE
8
BLACK
6
CONTINUOUS
10
252.1599999999999966
20
-171.6737499999999841
11
238.0600000000000023
21
-171.6737499999999841
0
LINE
8
BLACK
6
CONTINUOUS
10
269.0162500000000136
20
-138.5237500000000068
11
283.1162499999999795
21
-138.5237500000000068
0
LINE
8
BLACK
6
CONTINUOUS
10
269.0162500000000136
20
-152.6237500000000011
11
269.0162500000000136
21
-138.5237500000000068
0
LINE
8
BLACK
6
CONTINUOUS
10
283.1162499999999795
20
-138.5237500000000068
11
283.1162499999999795
21
-152.6237500000000011
0
LINE
8
BLACK
6
CONTINUOUS
10
283.1162499999999795
20
-152.6237500000000011
11
269.0162500000000136
21
-152.6237500000000011
0
LINE
8
BLACK
6
CONTINUOUS
10
333.3100000000000023
20
-100.4237499999999983
11
347.4099999999999682
21
-100.4237499999999983
0
LINE
8
BLACK
6
CONTINUOUS
10
333.3100000000000023
20
-114.5237499999999926
11
333.3100000000000023
21
-100.4237499999999983
0
LINE
8
BLACK
6
CONTINUOUS
10
347.4099999999999682
20
-100.4237499999999983
11
347.4099999999999682
21
-114.5237499999999926
0
LINE
8
BLACK
6
CONTINUOUS
10
347.4099999999999682
20
-114.5237499999999926
11
333.3100000000000023
21
-114.5237499999999926
0
LINE
8
BLACK
6
CONTINUOUS
10
90.4500000000000028
20
-100.4099999999999966
11
104.5499999999999972
21
-100.4099999999999966
0
LINE
8
BLACK
6
CONTINUOUS
10
90.4500000000000028
20
-114.5099999999999909
11
90.4500000000000028
21
-100.4099999999999966
0
LINE
8
BLACK
6
CONTINUOUS
10
104.5499999999999972
20
-100.4099999999999966
11
104.5499999999999972
21
-114.5099999999999909
0
LINE
8
BLACK
6
CONTINUOUS
10
104.5499999999999972
20
-114.5099999999999909
11
90.4500000000000028
21
-114.5099999999999909
0
LINE
8
BLACK
6
CONTINUOUS
10
173.7662499999999852
20
-100.4237499999999983
11
187.8662499999999795
21
-100.4237499999999983
0
LINE
8
BLACK
6
CONTINUOUS
10
173.7662499999999852
20
-114.5237499999999926
11
173.7662499999999852
21
-100.4237499999999983
0
LINE
8
BLACK
6
CONTINUOUS
10
187.8662499999999795
20
-100.4237499999999983
11
187.8662499999999795
21
-114.5237499999999926
0
LINE
8
BLACK
6
CONTINUOUS
10
187.8662499999999795
20
-114.5237499999999926
11
173.7662499999999852
21
-114.5237499999999926
0
LINE
8
BLACK
6
CONTINUOUS
10
288.0662499999999682
20
-100.4237499999999983
11
302.1662499999999909
21
-100.4237499999999983
0
LINE
8
BLACK
6
CONTINUOUS
10
288.0662499999999682
20
-114.5237499999999926
11
288.0662499999999682
21
-100.4237499999999983
0
LINE
8
BLACK
6
CONTINUOUS
10
302.1662499999999909
20
-100.4237499999999983
11
302.1662499999999909
21
-114.5237499999999926
0
LINE
8
BLACK
6
CONTINUOUS
10
302.1662499999999909
20
-114.5237499999999926
11
288.0662499999999682
21
-114.5237499999999926
0
LINE
8
BLACK
6
CONTINUOUS
10
135.6662499999999909
20
-119.4737499999999955
11
149.7662499999999852
21
-119.4737499999999955
0
LINE
8
BLACK
6
CONTINUOUS
10
135.6662499999999909
20
-133.5737499999999898
11
135.6662499999999909
21
-119.4737499999999955
0
LINE
8
BLACK
6
CONTINUOUS
10
149.7662499999999852
20
-119.4737499999999955
11
149.7662499999999852
21
-133.5737499999999898
0
LINE
8
BLACK
6
CONTINUOUS
10
149.7662499999999852
20
-133.5737499999999898
11
135.6662499999999909
21
-133.5737499999999898
  0
ENDSEC
  0
EOF
