<?xml version="1.0" standalone="no"?>
 <!DOCTYPE svg PUBLIC "-//W3C//DTD SVG 1.1//EN" 
 "http://www.w3.org/Graphics/SVG/1.1/DTD/svg11.dtd"> 
<svg
  xmlns:svg="http://www.w3.org/2000/svg"
  xmlns="http://www.w3.org/2000/svg"
  xmlns:xlink="http://www.w3.org/1999/xlink"
  version="1.1"
  width="419.9890mm" height="297.0022mm" viewBox="0.0000 0.0000 419.9890 297.0022">
<title>SVG Image created as Sherie-bottom-Edge_Cuts.svg date 2024/06/21 22:50:16 </title>
  <desc>Image generated by PCBNEW </desc>
<g style="fill:#000000; fill-opacity:1.0000;stroke:#000000; stroke-opacity:1.0000;
stroke-linecap:round; stroke-linejoin:round;"
 transform="translate(0 0) scale(1 1)">
</g>
<g style="fill:none; 
stroke:#000000; stroke-width:0.0500; stroke-opacity:1; 
stroke-linecap:round; stroke-linejoin:round;">
<path d="M157.6489 153.1250
L159.2490 153.1250
" />
<path d="M156.6489 160.3844
L156.6489 154.1250
" />
<path d="M159.2489 161.3750
L157.6491 161.3750
" />
<path d="M160.2489 154.1250
L160.2489 160.3750
" />
<circle cx="324.8500" cy="155.8600" r="1.0000" /> 
<circle cx="324.8500" cy="97.7500" r="1.0000" /> 
<circle cx="59.1500" cy="97.8500" r="1.0000" /> 
<circle cx="58.7000" cy="155.8600" r="1.0000" /> 
<path d="M122.6500 104.2500
L124.1500 104.2500
" />
<path d="M86.4000 132.1000
L86.4000 129.3500
" />
<path d="M88.3500 133.1000
L87.4000 133.1000
" />
</g>
<g style="fill:none; 
stroke:#000000; stroke-width:0.2000; stroke-opacity:1; 
stroke-linecap:round; stroke-linejoin:round;">
<path d="M167.9779 147.8202
L167.9779 147.8268
" />
<path d="M61.5579 157.5100
L61.5579 154.2100
" />
<path d="M58.7000 159.1600
L61.5579 157.5100
" />
<path d="M58.7000 152.5600
L61.5579 154.2100
" />
<path d="M58.7000 152.5600
L55.8421 154.2100
" />
<path d="M55.8421 157.5100
L58.7000 159.1600
" />
<path d="M55.8421 154.2100
L55.8421 157.5100
" />
<path d="M59.1500 101.1500
L62.0079 99.5000
" />
<path d="M59.1500 94.5500
L56.2921 96.2000
" />
<path d="M56.2921 99.5000
L59.1500 101.1500
" />
<path d="M56.2921 96.2000
L56.2921 99.5000
" />
<path d="M327.7079 99.4000
L327.7079 96.1000
" />
<path d="M324.8500 101.0500
L327.7079 99.4000
" />
<path d="M324.8500 94.4500
L327.7079 96.1000
" />
<path d="M327.7079 157.5100
L327.7079 154.2100
" />
<path d="M324.8500 159.1600
L327.7079 157.5100
" />
<path d="M321.9921 157.5100
L324.8500 159.1600
" />
<path d="M281.6229 143.3467
L281.6250 148.3750
" />
<path d="M280.6222 142.3471
L276.5500 142.3500
" />
<path d="M327.6211 122.7329 A1.0000 1.0000 0.0 0 0 328.6250 121.7334" />
<path d="M327.7000 141.2244 A1.0000 1.0000 0.0 0 0 326.7000 140.2250" />
<path d="M305.5679 95.9787 A1.0000 1.0000 0.0 0 0 304.5679 94.9750" />
<path d="M226.4750 143.3500
L226.4750 152.4250
" />
<path d="M220.4000 134.1000
L220.4000 141.3500
" />
<path d="M220.4000 141.3500 A1.0000 1.0000 0.0 0 0 221.4000 142.3500" />
<path d="M219.1500 126.8500 A1.0000 1.0000 0.0 0 0 218.1500 125.8500" />
<path d="M219.1500 127.3500 A1.0000 1.0000 0.0 0 0 220.1500 128.3500" />
<path d="M202.9000 128.3500
L201.1000 128.3500
" />
<path d="M279.1000 109.3000
L277.3000 109.3000
" />
<path d="M52.6600 83.7398
L52.6400 163.6197
" />
<path d="M52.6400 163.6198 A1.0000 1.0000 0.0 0 0 53.6400 164.6200" />
<path d="M53.6400 164.6200
L329.9100 164.6200
" />
<path d="M329.9100 164.6200 A1.0000 1.0000 0.0 0 0 330.9100 163.6204" />
<path d="M330.9100 163.6204
L330.9400 83.7504
" />
<path d="M330.9400 83.7504 A1.0000 1.0000 0.0 0 0 329.9400 82.7500" />
<path d="M329.9400 82.7500
L53.6600 82.7400
" />
<path d="M53.6600 82.7400 A1.0000 1.0000 0.0 0 0 52.6600 83.7398" />
<path d="M104.8500 88.7500 A1.0000 1.0000 0.0 0 0 103.8500 87.7500" />
<path d="M104.8500 89.2500 A1.0000 1.0000 0.0 0 0 105.8500 90.2500" />
<path d="M88.6000 90.2500 A1.0000 1.0000 0.0 0 0 89.6000 89.2500" />
<path d="M90.6000 87.7500 A1.0000 1.0000 0.0 0 0 89.6000 88.7500" />
<path d="M89.3500 96.0000 A1.0000 1.0000 0.0 0 0 88.3500 95.0000" />
<path d="M89.3500 97.0000 A1.0000 1.0000 0.0 0 0 90.3500 98.0000" />
<path d="M102.6000 99.0000 A1.0000 1.0000 0.0 0 0 101.6000 98.0000" />
<path d="M102.6000 103.2500 A1.0000 1.0000 0.0 0 0 103.6000 104.2500" />
<path d="M105.1000 104.2500 A1.0000 1.0000 0.0 0 0 106.1000 103.2500" />
<path d="M104.8500 88.7500
L104.8500 89.2500
" />
<path d="M103.8500 87.7500
L90.6000 87.7500
" />
<path d="M89.6000 88.7500
L89.6000 89.2500
" />
<path d="M89.3500 96.0000
L89.3500 97.0000
" />
<path d="M90.3500 98.0000
L101.6000 98.0000
" />
<path d="M102.6000 99.0000
L102.6000 103.2500
" />
<path d="M103.6000 104.2500
L105.1000 104.2500
" />
<path d="M109.4000 98.0000
L120.6500 98.0000
" />
<path d="M121.6500 99.0000 A1.0000 1.0000 0.0 0 0 120.6500 98.0000" />
<path d="M122.9000 87.7500
L109.6500 87.7500
" />
<path d="M107.1000 95.0000 A1.0000 1.0000 0.0 0 0 106.1000 96.0000" />
<path d="M106.1000 96.0000
L106.1000 103.2500
" />
<path d="M125.1500 96.0000
L125.1500 103.2500
" />
<path d="M108.4000 97.0000 A1.0000 1.0000 0.0 0 0 109.4000 98.0000" />
<path d="M107.6500 90.2500 A1.0000 1.0000 0.0 0 0 108.6500 89.2500" />
<path d="M108.4000 96.0000
L108.4000 97.0000
" />
<path d="M124.1500 104.2500 A1.0000 1.0000 0.0 0 0 125.1500 103.2500" />
<path d="M107.4000 95.0000
L107.1000 95.0000
" />
<path d="M108.4000 96.0000 A1.0000 1.0000 0.0 0 0 107.4000 95.0000" />
<path d="M123.9000 89.2500 A1.0000 1.0000 0.0 0 0 124.9000 90.2500" />
<path d="M123.9000 88.7500 A1.0000 1.0000 0.0 0 0 122.9000 87.7500" />
<path d="M121.6500 99.0000
L121.6500 103.2500
" />
<path d="M121.6500 103.2500 A1.0000 1.0000 0.0 0 0 122.6500 104.2500" />
<path d="M108.6500 88.7500
L108.6500 89.2500
" />
<path d="M123.9000 88.7500
L123.9000 89.2500
" />
<path d="M109.6500 87.7500 A1.0000 1.0000 0.0 0 0 108.6500 88.7500" />
<path d="M107.6500 90.2500
L105.8500 90.2500
" />
<path d="M126.1500 95.0000 A1.0000 1.0000 0.0 0 0 125.1500 96.0000" />
<path d="M127.4500 96.0000
L127.4500 97.0000
" />
<path d="M127.7000 88.7500
L127.7000 89.2500
" />
<path d="M144.2000 96.0000
L144.2000 103.2500
" />
<path d="M128.7000 87.7500 A1.0000 1.0000 0.0 0 0 127.7000 88.7500" />
<path d="M141.7000 104.2500
L143.2000 104.2500
" />
<path d="M127.4500 97.0000 A1.0000 1.0000 0.0 0 0 128.4500 98.0000" />
<path d="M140.7000 99.0000 A1.0000 1.0000 0.0 0 0 139.7000 98.0000" />
<path d="M126.7000 90.2500 A1.0000 1.0000 0.0 0 0 127.7000 89.2500" />
<path d="M141.9500 87.7500
L128.7000 87.7500
" />
<path d="M128.4500 98.0000
L139.7000 98.0000
" />
<path d="M127.4500 96.0000 A1.0000 1.0000 0.0 0 0 126.4500 95.0000" />
<path d="M142.9500 89.2500 A1.0000 1.0000 0.0 0 0 143.9500 90.2500" />
<path d="M126.4500 95.0000
L126.1500 95.0000
" />
<path d="M142.9500 88.7500 A1.0000 1.0000 0.0 0 0 141.9500 87.7500" />
<path d="M140.7000 99.0000
L140.7000 103.2500
" />
<path d="M143.2000 104.2500 A1.0000 1.0000 0.0 0 0 144.2000 103.2500" />
<path d="M126.7000 90.2500
L124.9000 90.2500
" />
<path d="M140.7000 103.2500 A1.0000 1.0000 0.0 0 0 141.7000 104.2500" />
<path d="M142.9500 88.7500
L142.9500 89.2500
" />
<path d="M162.0000 89.2500 A1.0000 1.0000 0.0 0 0 163.0000 90.2500" />
<path d="M146.5000 96.0000 A1.0000 1.0000 0.0 0 0 145.5000 95.0000" />
<path d="M159.7500 103.2500 A1.0000 1.0000 0.0 0 0 160.7500 104.2500" />
<path d="M145.7500 90.2500 A1.0000 1.0000 0.0 0 0 146.7500 89.2500" />
<path d="M146.5000 96.0000
L146.5000 97.0000
" />
<path d="M162.2500 104.2500 A1.0000 1.0000 0.0 0 0 163.2500 103.2500" />
<path d="M146.5000 97.0000 A1.0000 1.0000 0.0 0 0 147.5000 98.0000" />
<path d="M163.2500 96.0000
L163.2500 103.2500
" />
<path d="M160.7500 104.2500
L162.2500 104.2500
" />
<path d="M161.0000 87.7500
L147.7500 87.7500
" />
<path d="M147.5000 98.0000
L158.7500 98.0000
" />
<path d="M146.7500 88.7500
L146.7500 89.2500
" />
<path d="M162.0000 88.7500
L162.0000 89.2500
" />
<path d="M145.5000 95.0000
L145.2000 95.0000
" />
<path d="M162.0000 88.7500 A1.0000 1.0000 0.0 0 0 161.0000 87.7500" />
<path d="M145.7500 90.2500
L143.9500 90.2500
" />
<path d="M159.7500 99.0000 A1.0000 1.0000 0.0 0 0 158.7500 98.0000" />
<path d="M145.2000 95.0000 A1.0000 1.0000 0.0 0 0 144.2000 96.0000" />
<path d="M159.7500 99.0000
L159.7500 103.2500
" />
<path d="M147.7500 87.7500 A1.0000 1.0000 0.0 0 0 146.7500 88.7500" />
<path d="M183.8500 90.2500 A1.0000 1.0000 0.0 0 0 184.8500 89.2500" />
<path d="M185.8500 87.7500 A1.0000 1.0000 0.0 0 0 184.8500 88.7500" />
<path d="M183.6000 95.0000
L183.3000 95.0000
" />
<path d="M185.6000 98.0000
L196.8500 98.0000
" />
<path d="M184.6000 96.0000 A1.0000 1.0000 0.0 0 0 183.6000 95.0000" />
<path d="M184.6000 96.0000
L184.6000 97.0000
" />
<path d="M200.3500 104.2500 A1.0000 1.0000 0.0 0 0 201.3500 103.2500" />
<path d="M197.8500 103.2500 A1.0000 1.0000 0.0 0 0 198.8500 104.2500" />
<path d="M201.3500 96.0000
L201.3500 103.2500
" />
<path d="M184.8500 88.7500
L184.8500 89.2500
" />
<path d="M200.1000 88.7500
L200.1000 89.2500
" />
<path d="M183.3000 95.0000 A1.0000 1.0000 0.0 0 0 182.3000 96.0000" />
<path d="M199.1000 87.7500
L185.8500 87.7500
" />
<path d="M197.8500 99.0000
L197.8500 103.2500
" />
<path d="M197.8500 99.0000 A1.0000 1.0000 0.0 0 0 196.8500 98.0000" />
<path d="M200.1000 88.7500 A1.0000 1.0000 0.0 0 0 199.1000 87.7500" />
<path d="M200.1000 89.2500 A1.0000 1.0000 0.0 0 0 201.1000 90.2500" />
<path d="M198.8500 104.2500
L200.3500 104.2500
" />
<path d="M184.6000 97.0000 A1.0000 1.0000 0.0 0 0 185.6000 98.0000" />
<path d="M183.8500 90.2500
L182.0500 90.2500
" />
<path d="M178.8000 99.0000 A1.0000 1.0000 0.0 0 0 177.8000 98.0000" />
<path d="M182.3000 96.0000
L182.3000 103.2500
" />
<path d="M164.2500 95.0000 A1.0000 1.0000 0.0 0 0 163.2500 96.0000" />
<path d="M179.8000 104.2500
L181.3000 104.2500
" />
<path d="M181.3000 104.2500 A1.0000 1.0000 0.0 0 0 182.3000 103.2500" />
<path d="M165.8000 88.7500
L165.8000 89.2500
" />
<path d="M165.5500 97.0000 A1.0000 1.0000 0.0 0 0 166.5500 98.0000" />
<path d="M166.8000 87.7500 A1.0000 1.0000 0.0 0 0 165.8000 88.7500" />
<path d="M165.5500 96.0000 A1.0000 1.0000 0.0 0 0 164.5500 95.0000" />
<path d="M181.0500 88.7500 A1.0000 1.0000 0.0 0 0 180.0500 87.7500" />
<path d="M164.5500 95.0000
L164.2500 95.0000
" />
<path d="M164.8000 90.2500 A1.0000 1.0000 0.0 0 0 165.8000 89.2500" />
<path d="M164.8000 90.2500
L163.0000 90.2500
" />
<path d="M181.0500 88.7500
L181.0500 89.2500
" />
<path d="M166.5500 98.0000
L177.8000 98.0000
" />
<path d="M178.8000 99.0000
L178.8000 103.2500
" />
<path d="M180.0500 87.7500
L166.8000 87.7500
" />
<path d="M181.0500 89.2500 A1.0000 1.0000 0.0 0 0 182.0500 90.2500" />
<path d="M165.5500 96.0000
L165.5500 97.0000
" />
<path d="M178.8000 103.2500 A1.0000 1.0000 0.0 0 0 179.8000 104.2500" />
<path d="M216.9000 99.0000 A1.0000 1.0000 0.0 0 0 215.9000 98.0000" />
<path d="M220.4000 96.0000
L220.4000 103.2500
" />
<path d="M202.3500 95.0000 A1.0000 1.0000 0.0 0 0 201.3500 96.0000" />
<path d="M203.6500 97.0000 A1.0000 1.0000 0.0 0 0 204.6500 98.0000" />
<path d="M217.9000 104.2500
L219.4000 104.2500
" />
<path d="M219.4000 104.2500 A1.0000 1.0000 0.0 0 0 220.4000 103.2500" />
<path d="M203.9000 88.7500
L203.9000 89.2500
" />
<path d="M204.9000 87.7500 A1.0000 1.0000 0.0 0 0 203.9000 88.7500" />
<path d="M203.6500 96.0000 A1.0000 1.0000 0.0 0 0 202.6500 95.0000" />
<path d="M219.1500 88.7500 A1.0000 1.0000 0.0 0 0 218.1500 87.7500" />
<path d="M202.6500 95.0000
L202.3500 95.0000
" />
<path d="M202.9000 90.2500 A1.0000 1.0000 0.0 0 0 203.9000 89.2500" />
<path d="M202.9000 90.2500
L201.1000 90.2500
" />
<path d="M219.1500 88.7500
L219.1500 89.2500
" />
<path d="M204.6500 98.0000
L215.9000 98.0000
" />
<path d="M216.9000 99.0000
L216.9000 103.2500
" />
<path d="M218.1500 87.7500
L204.9000 87.7500
" />
<path d="M219.1500 89.2500 A1.0000 1.0000 0.0 0 0 220.1500 90.2500" />
<path d="M203.6500 96.0000
L203.6500 97.0000
" />
<path d="M216.9000 103.2500 A1.0000 1.0000 0.0 0 0 217.9000 104.2500" />
<path d="M238.2000 89.2500 A1.0000 1.0000 0.0 0 0 239.2000 90.2500" />
<path d="M221.9500 90.2500
L220.1500 90.2500
" />
<path d="M223.9500 87.7500 A1.0000 1.0000 0.0 0 0 222.9500 88.7500" />
<path d="M222.7000 96.0000 A1.0000 1.0000 0.0 0 0 221.7000 95.0000" />
<path d="M221.9500 90.2500 A1.0000 1.0000 0.0 0 0 222.9500 89.2500" />
<path d="M237.2000 87.7500
L223.9500 87.7500
" />
<path d="M235.9500 99.0000 A1.0000 1.0000 0.0 0 0 234.9500 98.0000" />
<path d="M238.2000 88.7500 A1.0000 1.0000 0.0 0 0 237.2000 87.7500" />
<path d="M222.9500 88.7500
L222.9500 89.2500
" />
<path d="M221.7000 95.0000
L221.4000 95.0000
" />
<path d="M235.9500 103.2500 A1.0000 1.0000 0.0 0 0 236.9500 104.2500" />
<path d="M222.7000 96.0000
L222.7000 97.0000
" />
<path d="M222.7000 97.0000 A1.0000 1.0000 0.0 0 0 223.7000 98.0000" />
<path d="M239.4500 96.0000
L239.4500 103.2500
" />
<path d="M221.4000 95.0000 A1.0000 1.0000 0.0 0 0 220.4000 96.0000" />
<path d="M235.9500 99.0000
L235.9500 103.2500
" />
<path d="M238.2000 88.7500
L238.2000 89.2500
" />
<path d="M236.9500 104.2500
L238.4500 104.2500
" />
<path d="M238.4500 104.2500 A1.0000 1.0000 0.0 0 0 239.4500 103.2500" />
<path d="M223.7000 98.0000
L234.9500 98.0000
" />
<path d="M241.0000 90.2500
L239.2000 90.2500
" />
<path d="M255.0000 99.0000 A1.0000 1.0000 0.0 0 0 254.0000 98.0000" />
<path d="M243.0000 87.7500 A1.0000 1.0000 0.0 0 0 242.0000 88.7500" />
<path d="M242.7500 98.0000
L254.0000 98.0000
" />
<path d="M255.0000 99.0000
L255.0000 103.2500
" />
<path d="M242.0000 88.7500
L242.0000 89.2500
" />
<path d="M257.2500 88.7500 A1.0000 1.0000 0.0 0 0 256.2500 87.7500" />
<path d="M241.7500 96.0000 A1.0000 1.0000 0.0 0 0 240.7500 95.0000" />
<path d="M240.7500 95.0000
L240.4500 95.0000
" />
<path d="M241.7500 96.0000
L241.7500 97.0000
" />
<path d="M256.2500 87.7500
L243.0000 87.7500
" />
<path d="M255.0000 103.2500 A1.0000 1.0000 0.0 0 0 256.0000 104.2500" />
<path d="M257.2500 89.2500 A1.0000 1.0000 0.0 0 0 258.2500 90.2500" />
<path d="M258.5000 96.0000
L258.5000 103.2500
" />
<path d="M241.7500 97.0000 A1.0000 1.0000 0.0 0 0 242.7500 98.0000" />
<path d="M241.0000 90.2500 A1.0000 1.0000 0.0 0 0 242.0000 89.2500" />
<path d="M256.0000 104.2500
L257.5000 104.2500
" />
<path d="M257.2500 88.7500
L257.2500 89.2500
" />
<path d="M257.5000 104.2500 A1.0000 1.0000 0.0 0 0 258.5000 103.2500" />
<path d="M240.4500 95.0000 A1.0000 1.0000 0.0 0 0 239.4500 96.0000" />
<path d="M275.3000 87.7500
L262.0500 87.7500
" />
<path d="M259.8000 95.0000
L259.5000 95.0000
" />
<path d="M262.0500 87.7500 A1.0000 1.0000 0.0 0 0 261.0500 88.7500" />
<path d="M260.8000 97.0000 A1.0000 1.0000 0.0 0 0 261.8000 98.0000" />
<path d="M260.8000 96.0000
L260.8000 97.0000
" />
<path d="M260.0500 90.2500
L258.2500 90.2500
" />
<path d="M274.0500 99.0000
L274.0500 103.2500
" />
<path d="M276.3000 89.2500 A1.0000 1.0000 0.0 0 0 277.3000 90.2500" />
<path d="M261.0500 88.7500
L261.0500 89.2500
" />
<path d="M274.0500 103.2500 A1.0000 1.0000 0.0 0 0 275.0500 104.2500" />
<path d="M275.0500 104.2500
L276.5500 104.2500
" />
<path d="M260.0500 90.2500 A1.0000 1.0000 0.0 0 0 261.0500 89.2500" />
<path d="M276.3000 88.7500
L276.3000 89.2500
" />
<path d="M274.0500 99.0000 A1.0000 1.0000 0.0 0 0 273.0500 98.0000" />
<path d="M259.5000 95.0000 A1.0000 1.0000 0.0 0 0 258.5000 96.0000" />
<path d="M276.3000 88.7500 A1.0000 1.0000 0.0 0 0 275.3000 87.7500" />
<path d="M261.8000 98.0000
L273.0500 98.0000
" />
<path d="M260.8000 96.0000 A1.0000 1.0000 0.0 0 0 259.8000 95.0000" />
<path d="M164.8000 109.3000
L163.0000 109.3000
" />
<path d="M180.0500 106.8000
L166.8000 106.8000
" />
<path d="M165.5500 115.0500 A1.0000 1.0000 0.0 0 0 164.5500 114.0500" />
<path d="M165.8000 107.8000
L165.8000 108.3000
" />
<path d="M164.5500 114.0500
L164.2500 114.0500
" />
<path d="M178.8000 118.0500 A1.0000 1.0000 0.0 0 0 177.8000 117.0500" />
<path d="M164.8000 109.3000 A1.0000 1.0000 0.0 0 0 165.8000 108.3000" />
<path d="M166.8000 106.8000 A1.0000 1.0000 0.0 0 0 165.8000 107.8000" />
<path d="M178.8000 122.3000 A1.0000 1.0000 0.0 0 0 179.8000 123.3000" />
<path d="M181.0500 107.8000 A1.0000 1.0000 0.0 0 0 180.0500 106.8000" />
<path d="M165.5500 115.0500
L165.5500 116.0500
" />
<path d="M165.5500 116.0500 A1.0000 1.0000 0.0 0 0 166.5500 117.0500" />
<path d="M182.3000 115.0500
L182.3000 122.3000
" />
<path d="M164.2500 114.0500 A1.0000 1.0000 0.0 0 0 163.2500 115.0500" />
<path d="M178.8000 118.0500
L178.8000 122.3000
" />
<path d="M181.0500 107.8000
L181.0500 108.3000
" />
<path d="M179.8000 123.3000
L181.3000 123.3000
" />
<path d="M181.3000 123.3000 A1.0000 1.0000 0.0 0 0 182.3000 122.3000" />
<path d="M181.0500 108.3000 A1.0000 1.0000 0.0 0 0 182.0500 109.3000" />
<path d="M166.5500 117.0500
L177.8000 117.0500
" />
<path d="M159.7500 118.0500
L159.7500 122.3000
" />
<path d="M146.5000 115.0500 A1.0000 1.0000 0.0 0 0 145.5000 114.0500" />
<path d="M162.0000 107.8000 A1.0000 1.0000 0.0 0 0 161.0000 106.8000" />
<path d="M146.5000 116.0500 A1.0000 1.0000 0.0 0 0 147.5000 117.0500" />
<path d="M147.5000 117.0500
L158.7500 117.0500
" />
<path d="M160.7500 123.3000
L162.2500 123.3000
" />
<path d="M162.0000 107.8000
L162.0000 108.3000
" />
<path d="M146.5000 115.0500
L146.5000 116.0500
" />
<path d="M145.2000 114.0500 A1.0000 1.0000 0.0 0 0 144.2000 115.0500" />
<path d="M145.7500 109.3000 A1.0000 1.0000 0.0 0 0 146.7500 108.3000" />
<path d="M145.5000 114.0500
L145.2000 114.0500
" />
<path d="M147.7500 106.8000 A1.0000 1.0000 0.0 0 0 146.7500 107.8000" />
<path d="M162.2500 123.3000 A1.0000 1.0000 0.0 0 0 163.2500 122.3000" />
<path d="M145.7500 109.3000
L143.9500 109.3000
" />
<path d="M162.0000 108.3000 A1.0000 1.0000 0.0 0 0 163.0000 109.3000" />
<path d="M159.7500 118.0500 A1.0000 1.0000 0.0 0 0 158.7500 117.0500" />
<path d="M161.0000 106.8000
L147.7500 106.8000
" />
<path d="M163.2500 115.0500
L163.2500 122.3000
" />
<path d="M146.7500 107.8000
L146.7500 108.3000
" />
<path d="M159.7500 122.3000 A1.0000 1.0000 0.0 0 0 160.7500 123.3000" />
<path d="M126.7000 109.3000
L124.9000 109.3000
" />
<path d="M128.7000 106.8000 A1.0000 1.0000 0.0 0 0 127.7000 107.8000" />
<path d="M141.9500 106.8000
L128.7000 106.8000
" />
<path d="M127.7000 107.8000
L127.7000 108.3000
" />
<path d="M141.7000 123.3000
L143.2000 123.3000
" />
<path d="M142.9500 107.8000 A1.0000 1.0000 0.0 0 0 141.9500 106.8000" />
<path d="M143.2000 123.3000 A1.0000 1.0000 0.0 0 0 144.2000 122.3000" />
<path d="M144.2000 115.0500
L144.2000 122.3000
" />
<path d="M128.4500 117.0500
L139.7000 117.0500
" />
<path d="M126.7000 109.3000 A1.0000 1.0000 0.0 0 0 127.7000 108.3000" />
<path d="M127.4500 116.0500 A1.0000 1.0000 0.0 0 0 128.4500 117.0500" />
<path d="M126.4500 114.0500
L126.1500 114.0500
" />
<path d="M140.7000 122.3000 A1.0000 1.0000 0.0 0 0 141.7000 123.3000" />
<path d="M142.9500 107.8000
L142.9500 108.3000
" />
<path d="M127.4500 115.0500
L127.4500 116.0500
" />
<path d="M127.4500 115.0500 A1.0000 1.0000 0.0 0 0 126.4500 114.0500" />
<path d="M126.1500 114.0500 A1.0000 1.0000 0.0 0 0 125.1500 115.0500" />
<path d="M142.9500 108.3000 A1.0000 1.0000 0.0 0 0 143.9500 109.3000" />
<path d="M140.7000 118.0500
L140.7000 122.3000
" />
<path d="M140.7000 118.0500 A1.0000 1.0000 0.0 0 0 139.7000 117.0500" />
<path d="M121.6500 118.0500
L121.6500 122.3000
" />
<path d="M107.6500 109.3000
L105.8500 109.3000
" />
<path d="M123.9000 108.3000 A1.0000 1.0000 0.0 0 0 124.9000 109.3000" />
<path d="M108.4000 115.0500
L108.4000 116.0500
" />
<path d="M121.6500 118.0500 A1.0000 1.0000 0.0 0 0 120.6500 117.0500" />
<path d="M109.4000 117.0500
L120.6500 117.0500
" />
<path d="M123.9000 107.8000
L123.9000 108.3000
" />
<path d="M122.6500 123.3000
L124.1500 123.3000
" />
<path d="M125.1500 115.0500
L125.1500 122.3000
" />
<path d="M108.4000 116.0500 A1.0000 1.0000 0.0 0 0 109.4000 117.0500" />
<path d="M108.4000 115.0500 A1.0000 1.0000 0.0 0 0 107.4000 114.0500" />
<path d="M124.1500 123.3000 A1.0000 1.0000 0.0 0 0 125.1500 122.3000" />
<path d="M107.1000 114.0500 A1.0000 1.0000 0.0 0 0 106.1000 115.0500" />
<path d="M107.6500 109.3000 A1.0000 1.0000 0.0 0 0 108.6500 108.3000" />
<path d="M123.9000 107.8000 A1.0000 1.0000 0.0 0 0 122.9000 106.8000" />
<path d="M107.4000 114.0500
L107.1000 114.0500
" />
<path d="M108.6500 107.8000
L108.6500 108.3000
" />
<path d="M122.9000 106.8000
L109.6500 106.8000
" />
<path d="M121.6500 122.3000 A1.0000 1.0000 0.0 0 0 122.6500 123.3000" />
<path d="M109.6500 106.8000 A1.0000 1.0000 0.0 0 0 108.6500 107.8000" />
<path d="M103.6000 123.3000
L105.1000 123.3000
" />
<path d="M89.3500 115.0500
L89.3500 116.0500
" />
<path d="M102.6000 118.0500
L102.6000 122.3000
" />
<path d="M106.1000 115.0500
L106.1000 122.3000
" />
<path d="M104.8500 107.8000
L104.8500 108.3000
" />
<path d="M104.8500 108.3000 A1.0000 1.0000 0.0 0 0 105.8500 109.3000" />
<path d="M89.3500 116.0500 A1.0000 1.0000 0.0 0 0 90.3500 117.0500" />
<path d="M90.6000 106.8000 A1.0000 1.0000 0.0 0 0 89.6000 107.8000" />
<path d="M88.6000 109.3000 A1.0000 1.0000 0.0 0 0 89.6000 108.3000" />
<path d="M102.6000 118.0500 A1.0000 1.0000 0.0 0 0 101.6000 117.0500" />
<path d="M90.3500 117.0500
L101.6000 117.0500
" />
<path d="M105.1000 123.3000 A1.0000 1.0000 0.0 0 0 106.1000 122.3000" />
<path d="M103.8500 106.8000
L90.6000 106.8000
" />
<path d="M104.8500 107.8000 A1.0000 1.0000 0.0 0 0 103.8500 106.8000" />
<path d="M102.6000 122.3000 A1.0000 1.0000 0.0 0 0 103.6000 123.3000" />
<path d="M89.6000 107.8000
L89.6000 108.3000
" />
<path d="M89.3500 115.0500 A1.0000 1.0000 0.0 0 0 88.3500 114.0500" />
<path d="M103.6000 142.3500
L105.1000 142.3500
" />
<path d="M102.6000 137.1000
L102.6000 141.3500
" />
<path d="M89.3500 134.1000
L89.3500 135.1000
" />
<path d="M106.1000 134.1000
L106.1000 141.3500
" />
<path d="M104.8500 127.3500 A1.0000 1.0000 0.0 0 0 105.8500 128.3500" />
<path d="M89.3500 135.1000 A1.0000 1.0000 0.0 0 0 90.3500 136.1000" />
<path d="M90.6000 125.8500 A1.0000 1.0000 0.0 0 0 89.6000 126.8500" />
<path d="M89.3500 134.1000 A1.0000 1.0000 0.0 0 0 88.3500 133.1000" />
<path d="M105.1000 142.3500 A1.0000 1.0000 0.0 0 0 106.1000 141.3500" />
<path d="M104.8500 126.8500 A1.0000 1.0000 0.0 0 0 103.8500 125.8500" />
<path d="M102.6000 141.3500 A1.0000 1.0000 0.0 0 0 103.6000 142.3500" />
<path d="M104.8500 126.8500
L104.8500 127.3500
" />
<path d="M102.6000 137.1000 A1.0000 1.0000 0.0 0 0 101.6000 136.1000" />
<path d="M89.6000 126.8500
L89.6000 127.3500
" />
<path d="M103.8500 125.8500
L90.6000 125.8500
" />
<path d="M90.3500 136.1000
L101.6000 136.1000
" />
<path d="M108.4000 134.1000
L108.4000 135.1000
" />
<path d="M125.1500 134.1000
L125.1500 141.3500
" />
<path d="M122.6500 142.3500
L124.1500 142.3500
" />
<path d="M123.9000 126.8500
L123.9000 127.3500
" />
<path d="M109.4000 136.1000
L120.6500 136.1000
" />
<path d="M123.9000 126.8500 A1.0000 1.0000 0.0 0 0 122.9000 125.8500" />
<path d="M108.6500 126.8500
L108.6500 127.3500
" />
<path d="M107.6500 128.3500 A1.0000 1.0000 0.0 0 0 108.6500 127.3500" />
<path d="M107.4000 133.1000
L107.1000 133.1000
" />
<path d="M108.4000 134.1000 A1.0000 1.0000 0.0 0 0 107.4000 133.1000" />
<path d="M123.9000 127.3500 A1.0000 1.0000 0.0 0 0 124.9000 128.3500" />
<path d="M108.4000 135.1000 A1.0000 1.0000 0.0 0 0 109.4000 136.1000" />
<path d="M121.6500 137.1000
L121.6500 141.3500
" />
<path d="M121.6500 141.3500 A1.0000 1.0000 0.0 0 0 122.6500 142.3500" />
<path d="M109.6500 125.8500 A1.0000 1.0000 0.0 0 0 108.6500 126.8500" />
<path d="M122.9000 125.8500
L109.6500 125.8500
" />
<path d="M121.6500 137.1000 A1.0000 1.0000 0.0 0 0 120.6500 136.1000" />
<path d="M107.1000 133.1000 A1.0000 1.0000 0.0 0 0 106.1000 134.1000" />
<path d="M107.6500 128.3500
L105.8500 128.3500
" />
<path d="M124.1500 142.3500 A1.0000 1.0000 0.0 0 0 125.1500 141.3500" />
<path d="M127.4500 134.1000
L127.4500 135.1000
" />
<path d="M126.7000 128.3500
L124.9000 128.3500
" />
<path d="M126.1500 133.1000 A1.0000 1.0000 0.0 0 0 125.1500 134.1000" />
<path d="M126.4500 133.1000
L126.1500 133.1000
" />
<path d="M128.7000 125.8500 A1.0000 1.0000 0.0 0 0 127.7000 126.8500" />
<path d="M142.9500 126.8500 A1.0000 1.0000 0.0 0 0 141.9500 125.8500" />
<path d="M127.4500 134.1000 A1.0000 1.0000 0.0 0 0 126.4500 133.1000" />
<path d="M143.2000 142.3500 A1.0000 1.0000 0.0 0 0 144.2000 141.3500" />
<path d="M141.7000 142.3500
L143.2000 142.3500
" />
<path d="M140.7000 141.3500 A1.0000 1.0000 0.0 0 0 141.7000 142.3500" />
<path d="M142.9500 126.8500
L142.9500 127.3500
" />
<path d="M140.7000 137.1000
L140.7000 141.3500
" />
<path d="M141.9500 125.8500
L128.7000 125.8500
" />
<path d="M127.7000 126.8500
L127.7000 127.3500
" />
<path d="M144.2000 134.1000
L144.2000 141.3500
" />
<path d="M126.7000 128.3500 A1.0000 1.0000 0.0 0 0 127.7000 127.3500" />
<path d="M127.4500 135.1000 A1.0000 1.0000 0.0 0 0 128.4500 136.1000" />
<path d="M142.9500 127.3500 A1.0000 1.0000 0.0 0 0 143.9500 128.3500" />
<path d="M128.4500 136.1000
L139.7000 136.1000
" />
<path d="M140.7000 137.1000 A1.0000 1.0000 0.0 0 0 139.7000 136.1000" />
<path d="M146.5000 134.1000
L146.5000 135.1000
" />
<path d="M146.5000 134.1000 A1.0000 1.0000 0.0 0 0 145.5000 133.1000" />
<path d="M159.7500 141.3500 A1.0000 1.0000 0.0 0 0 160.7500 142.3500" />
<path d="M163.2500 134.1000
L163.2500 141.3500
" />
<path d="M159.7500 137.1000 A1.0000 1.0000 0.0 0 0 158.7500 136.1000" />
<path d="M145.5000 133.1000
L145.2000 133.1000
" />
<path d="M145.7500 128.3500 A1.0000 1.0000 0.0 0 0 146.7500 127.3500" />
<path d="M147.7500 125.8500 A1.0000 1.0000 0.0 0 0 146.7500 126.8500" />
<path d="M159.7500 137.1000
L159.7500 141.3500
" />
<path d="M147.5000 136.1000
L158.7500 136.1000
" />
<path d="M162.0000 126.8500 A1.0000 1.0000 0.0 0 0 161.0000 125.8500" />
<path d="M160.7500 142.3500
L162.2500 142.3500
" />
<path d="M146.5000 135.1000 A1.0000 1.0000 0.0 0 0 147.5000 136.1000" />
<path d="M145.2000 133.1000 A1.0000 1.0000 0.0 0 0 144.2000 134.1000" />
<path d="M161.0000 125.8500
L147.7500 125.8500
" />
<path d="M146.7500 126.8500
L146.7500 127.3500
" />
<path d="M162.0000 126.8500
L162.0000 127.3500
" />
<path d="M162.2500 142.3500 A1.0000 1.0000 0.0 0 0 163.2500 141.3500" />
<path d="M162.0000 127.3500 A1.0000 1.0000 0.0 0 0 163.0000 128.3500" />
<path d="M145.7500 128.3500
L143.9500 128.3500
" />
<path d="M181.0500 126.8500 A1.0000 1.0000 0.0 0 0 180.0500 125.8500" />
<path d="M178.8000 137.1000
L178.8000 141.3500
" />
<path d="M181.0500 126.8500
L181.0500 127.3500
" />
<path d="M182.3000 134.1000
L182.3000 141.3500
" />
<path d="M178.8000 137.1000 A1.0000 1.0000 0.0 0 0 177.8000 136.1000" />
<path d="M179.8000 142.3500
L181.3000 142.3500
" />
<path d="M165.5500 134.1000 A1.0000 1.0000 0.0 0 0 164.5500 133.1000" />
<path d="M165.5500 134.1000
L165.5500 135.1000
" />
<path d="M178.8000 141.3500 A1.0000 1.0000 0.0 0 0 179.8000 142.3500" />
<path d="M164.8000 128.3500
L163.0000 128.3500
" />
<path d="M180.0500 125.8500
L166.8000 125.8500
" />
<path d="M165.5500 135.1000 A1.0000 1.0000 0.0 0 0 166.5500 136.1000" />
<path d="M166.8000 125.8500 A1.0000 1.0000 0.0 0 0 165.8000 126.8500" />
<path d="M166.5500 136.1000
L177.8000 136.1000
" />
<path d="M164.2500 133.1000 A1.0000 1.0000 0.0 0 0 163.2500 134.1000" />
<path d="M181.3000 142.3500 A1.0000 1.0000 0.0 0 0 182.3000 141.3500" />
<path d="M164.5500 133.1000
L164.2500 133.1000
" />
<path d="M165.8000 126.8500
L165.8000 127.3500
" />
<path d="M181.0500 127.3500 A1.0000 1.0000 0.0 0 0 182.0500 128.3500" />
<path d="M164.8000 128.3500 A1.0000 1.0000 0.0 0 0 165.8000 127.3500" />
<path d="M199.1000 125.8500
L185.8500 125.8500
" />
<path d="M200.1000 126.8500
L200.1000 127.3500
" />
<path d="M184.6000 135.1000 A1.0000 1.0000 0.0 0 0 185.6000 136.1000" />
<path d="M183.6000 133.1000
L183.3000 133.1000
" />
<path d="M200.1000 126.8500 A1.0000 1.0000 0.0 0 0 199.1000 125.8500" />
<path d="M196.3250 137.1000 A1.0000 1.0000 0.0 0 0 195.3250 136.1000" />
<path d="M183.8500 128.3500 A1.0000 1.0000 0.0 0 0 184.8500 127.3500" />
<path d="M184.8500 126.8500
L184.8500 127.3500
" />
<path d="M183.8500 128.3500
L182.0500 128.3500
" />
<path d="M184.6000 134.1000 A1.0000 1.0000 0.0 0 0 183.6000 133.1000" />
<path d="M200.1000 127.3500 A1.0000 1.0000 0.0 0 0 201.1000 128.3500" />
<path d="M183.3000 133.1000 A1.0000 1.0000 0.0 0 0 182.3000 134.1000" />
<path d="M196.3250 137.1000
L196.3250 141.3500
" />
<path d="M184.6000 134.1000
L184.6000 135.1000
" />
<path d="M203.9000 126.8500
L203.9000 127.3500
" />
<path d="M202.9000 128.3500 A1.0000 1.0000 0.0 0 0 203.9000 127.3500" />
<path d="M218.1500 125.8500
L204.9000 125.8500
" />
<path d="M219.1500 126.8500
L219.1500 127.3500
" />
<path d="M204.9000 125.8500 A1.0000 1.0000 0.0 0 0 203.9000 126.8500" />
<path d="M223.7000 136.1000
L234.9500 136.1000
" />
<path d="M221.4000 133.1000 A1.0000 1.0000 0.0 0 0 220.4000 134.1000" />
<path d="M222.7000 135.1000 A1.0000 1.0000 0.0 0 0 223.7000 136.1000" />
<path d="M238.4500 142.3501 A1.0001 1.0001 0.0 0 0 239.4500 141.3500" />
<path d="M238.2000 126.8500 A1.0000 1.0000 0.0 0 0 237.2000 125.8500" />
<path d="M222.7000 134.1000 A1.0000 1.0000 0.0 0 0 221.7000 133.1000" />
<path d="M235.9500 137.1000 A1.0000 1.0000 0.0 0 0 234.9500 136.1000" />
<path d="M221.9500 128.3500
L220.1500 128.3500
" />
<path d="M222.7000 134.1000
L222.7000 135.1000
" />
<path d="M235.9500 137.1000
L235.9500 141.3500
" />
<path d="M239.4500 134.1000
L239.4500 141.3500
" />
<path d="M222.9500 126.8500
L222.9500 127.3500
" />
<path d="M238.2000 127.3500 A1.0000 1.0000 0.0 0 0 239.2000 128.3500" />
<path d="M221.7000 133.1000
L221.4000 133.1000
" />
<path d="M235.9500 141.3500 A1.0000 1.0000 0.0 0 0 236.9500 142.3500" />
<path d="M221.9500 128.3500 A1.0000 1.0000 0.0 0 0 222.9500 127.3500" />
<path d="M236.9500 142.3500
L238.4500 142.3500
" />
<path d="M237.2000 125.8500
L223.9500 125.8500
" />
<path d="M238.2000 126.8500
L238.2000 127.3500
" />
<path d="M223.9500 125.8500 A1.0000 1.0000 0.0 0 0 222.9500 126.8500" />
<path d="M242.0000 126.8500
L242.0000 127.3500
" />
<path d="M241.7500 134.1000
L241.7500 135.1000
" />
<path d="M241.0000 128.3500
L239.2000 128.3500
" />
<path d="M241.7500 134.1000 A1.0000 1.0000 0.0 0 0 240.7500 133.1000" />
<path d="M240.7500 133.1000
L240.4500 133.1000
" />
<path d="M242.7500 136.1000
L254.0000 136.1000
" />
<path d="M257.2500 126.8500
L257.2500 127.3500
" />
<path d="M258.5000 134.1000
L258.5000 141.3500
" />
<path d="M255.0000 141.3500 A1.0000 1.0000 0.0 0 0 256.0000 142.3500" />
<path d="M257.2500 127.3500 A1.0000 1.0000 0.0 0 0 258.2500 128.3500" />
<path d="M240.4500 133.1000 A1.0000 1.0000 0.0 0 0 239.4500 134.1000" />
<path d="M255.0000 137.1000
L255.0000 141.3500
" />
<path d="M256.0000 142.3500
L257.5000 142.3500
" />
<path d="M257.5000 142.3500 A1.0000 1.0000 0.0 0 0 258.5000 141.3500" />
<path d="M257.2500 126.8500 A1.0000 1.0000 0.0 0 0 256.2500 125.8500" />
<path d="M256.2500 125.8500
L243.0000 125.8500
" />
<path d="M241.7500 135.1000 A1.0000 1.0000 0.0 0 0 242.7500 136.1000" />
<path d="M255.0000 137.1000 A1.0000 1.0000 0.0 0 0 254.0000 136.1000" />
<path d="M241.0000 128.3500 A1.0000 1.0000 0.0 0 0 242.0000 127.3500" />
<path d="M243.0000 125.8500 A1.0000 1.0000 0.0 0 0 242.0000 126.8500" />
<path d="M259.5000 133.1000 A1.0000 1.0000 0.0 0 0 258.5000 134.1000" />
<path d="M276.3000 126.8500 A1.0000 1.0000 0.0 0 0 275.3000 125.8500" />
<path d="M274.0500 141.3500 A1.0000 1.0000 0.0 0 0 275.0500 142.3500" />
<path d="M274.0500 137.1000
L274.0500 141.3500
" />
<path d="M260.0500 128.3500 A1.0000 1.0000 0.0 0 0 261.0500 127.3500" />
<path d="M275.3000 125.8500
L262.0500 125.8500
" />
<path d="M276.3000 126.8500
L276.3000 127.3500
" />
<path d="M260.0500 128.3500
L258.2500 128.3500
" />
<path d="M276.3000 127.3500 A1.0000 1.0000 0.0 0 0 277.3000 128.3500" />
<path d="M261.0500 126.8500
L261.0500 127.3500
" />
<path d="M262.0500 125.8500 A1.0000 1.0000 0.0 0 0 261.0500 126.8500" />
<path d="M275.0500 142.3500
L276.5500 142.3500
" />
<path d="M259.8000 133.1000
L259.5000 133.1000
" />
<path d="M260.8000 134.1000
L260.8000 135.1000
" />
<path d="M261.8000 136.1000
L273.0500 136.1000
" />
<path d="M260.8000 135.1000 A1.0000 1.0000 0.0 0 0 261.8000 136.1000" />
<path d="M260.8000 134.1000 A1.0000 1.0000 0.0 0 0 259.8000 133.1000" />
<path d="M274.0500 137.1000 A1.0000 1.0000 0.0 0 0 273.0500 136.1000" />
<path d="M87.4000 90.2500 A1.0000 1.0000 0.0 0 0 86.4000 91.2500" />
<path d="M86.4000 94.0000 A1.0000 1.0000 0.0 0 0 87.4000 95.0000" />
<path d="M88.6000 90.2500
L87.4000 90.2500
" />
<path d="M86.4000 94.0000
L86.4000 91.2500
" />
<path d="M88.3500 95.0000
L87.4000 95.0000
" />
<path d="M86.4000 113.0500 A1.0000 1.0000 0.0 0 0 87.4000 114.0500" />
<path d="M87.4000 109.3000 A1.0000 1.0000 0.0 0 0 86.4000 110.3000" />
<path d="M88.6000 109.3000
L87.4000 109.3000
" />
<path d="M88.3500 114.0500
L87.4000 114.0500
" />
<path d="M86.4000 113.0500
L86.4000 110.3000
" />
<path d="M86.4000 132.1000 A1.0000 1.0000 0.0 0 0 87.4000 133.1000" />
<path d="M87.4000 128.3500 A1.0000 1.0000 0.0 0 0 86.4000 129.3500" />
<path d="M197.8500 118.0500
L197.8500 122.3000
" />
<path d="M184.6000 115.0500 A1.0000 1.0000 0.0 0 0 183.6000 114.0500" />
<path d="M200.1000 107.8000 A1.0000 1.0000 0.0 0 0 199.1000 106.8000" />
<path d="M184.6000 116.0500 A1.0000 1.0000 0.0 0 0 185.6000 117.0500" />
<path d="M198.8500 123.3000
L200.3500 123.3000
" />
<path d="M184.6000 115.0500
L184.6000 116.0500
" />
<path d="M183.3000 114.0500 A1.0000 1.0000 0.0 0 0 182.3000 115.0500" />
<path d="M183.8500 109.3000 A1.0000 1.0000 0.0 0 0 184.8500 108.3000" />
<path d="M183.6000 114.0500
L183.3000 114.0500
" />
<path d="M185.8500 106.8000 A1.0000 1.0000 0.0 0 0 184.8500 107.8000" />
<path d="M200.1000 107.8000
L200.1000 108.3000
" />
<path d="M200.3500 123.3000 A1.0000 1.0000 0.0 0 0 201.3500 122.3000" />
<path d="M183.8500 109.3000
L182.0500 109.3000
" />
<path d="M197.8500 118.0500 A1.0000 1.0000 0.0 0 0 196.8500 117.0500" />
<path d="M199.1000 106.8000
L185.8500 106.8000
" />
<path d="M185.6000 117.0500
L196.8500 117.0500
" />
<path d="M201.3500 115.0500
L201.3500 122.3000
" />
<path d="M200.1000 108.3000 A1.0000 1.0000 0.0 0 0 201.1000 109.3000" />
<path d="M184.8500 107.8000
L184.8500 108.3000
" />
<path d="M197.8500 122.3000 A1.0000 1.0000 0.0 0 0 198.8500 123.3000" />
<path d="M202.6500 114.0500
L202.3500 114.0500
" />
<path d="M204.9000 106.8000 A1.0000 1.0000 0.0 0 0 203.9000 107.8000" />
<path d="M220.4000 115.0500
L220.4000 122.3000
" />
<path d="M218.1500 106.8000
L204.9000 106.8000
" />
<path d="M219.1500 107.8000 A1.0000 1.0000 0.0 0 0 218.1500 106.8000" />
<path d="M204.6500 117.0500
L215.9000 117.0500
" />
<path d="M202.9000 109.3000 A1.0000 1.0000 0.0 0 0 203.9000 108.3000" />
<path d="M217.9000 123.3000
L219.4000 123.3000
" />
<path d="M203.6500 115.0500
L203.6500 116.0500
" />
<path d="M219.1500 108.3000 A1.0000 1.0000 0.0 0 0 220.1500 109.3000" />
<path d="M216.9000 122.3000 A1.0000 1.0000 0.0 0 0 217.9000 123.3000" />
<path d="M203.9000 107.8000
L203.9000 108.3000
" />
<path d="M219.4000 123.3000 A1.0000 1.0000 0.0 0 0 220.4000 122.3000" />
<path d="M219.1500 107.8000
L219.1500 108.3000
" />
<path d="M203.6500 115.0500 A1.0000 1.0000 0.0 0 0 202.6500 114.0500" />
<path d="M202.3500 114.0500 A1.0000 1.0000 0.0 0 0 201.3500 115.0500" />
<path d="M203.6500 116.0500 A1.0000 1.0000 0.0 0 0 204.6500 117.0500" />
<path d="M216.9000 118.0500
L216.9000 122.3000
" />
<path d="M202.9000 109.3000
L201.1000 109.3000
" />
<path d="M216.9000 118.0500 A1.0000 1.0000 0.0 0 0 215.9000 117.0500" />
<path d="M221.9500 109.3000 A1.0000 1.0000 0.0 0 0 222.9500 108.3000" />
<path d="M235.9500 118.0500 A1.0000 1.0000 0.0 0 0 234.9500 117.0500" />
<path d="M236.9500 123.3000
L238.4500 123.3000
" />
<path d="M235.9500 118.0500
L235.9500 122.3000
" />
<path d="M222.9500 107.8000
L222.9500 108.3000
" />
<path d="M223.9500 106.8000 A1.0000 1.0000 0.0 0 0 222.9500 107.8000" />
<path d="M235.9500 122.3000 A1.0000 1.0000 0.0 0 0 236.9500 123.3000" />
<path d="M238.4500 123.3000 A1.0000 1.0000 0.0 0 0 239.4500 122.3000" />
<path d="M238.2000 107.8000
L238.2000 108.3000
" />
<path d="M221.4000 114.0500 A1.0000 1.0000 0.0 0 0 220.4000 115.0500" />
<path d="M222.7000 115.0500 A1.0000 1.0000 0.0 0 0 221.7000 114.0500" />
<path d="M238.2000 108.3000 A1.0000 1.0000 0.0 0 0 239.2000 109.3000" />
<path d="M238.2000 107.8000 A1.0000 1.0000 0.0 0 0 237.2000 106.8000" />
<path d="M222.7000 116.0500 A1.0000 1.0000 0.0 0 0 223.7000 117.0500" />
<path d="M223.7000 117.0500
L234.9500 117.0500
" />
<path d="M222.7000 115.0500
L222.7000 116.0500
" />
<path d="M239.4500 115.0500
L239.4500 122.3000
" />
<path d="M221.7000 114.0500
L221.4000 114.0500
" />
<path d="M221.9500 109.3000
L220.1500 109.3000
" />
<path d="M237.2000 106.8000
L223.9500 106.8000
" />
<path d="M241.7500 115.0500
L241.7500 116.0500
" />
<path d="M256.2500 106.8000
L243.0000 106.8000
" />
<path d="M255.0000 118.0500
L255.0000 122.3000
" />
<path d="M257.2500 107.8000
L257.2500 108.3000
" />
<path d="M255.0000 122.3000 A1.0000 1.0000 0.0 0 0 256.0000 123.3000" />
<path d="M241.7500 116.0500 A1.0000 1.0000 0.0 0 0 242.7500 117.0500" />
<path d="M258.5000 115.0500
L258.5000 122.3000
" />
<path d="M241.0000 109.3000 A1.0000 1.0000 0.0 0 0 242.0000 108.3000" />
<path d="M256.0000 123.3000
L257.5000 123.3000
" />
<path d="M241.7500 115.0500 A1.0000 1.0000 0.0 0 0 240.7500 114.0500" />
<path d="M257.2500 107.8000 A1.0000 1.0000 0.0 0 0 256.2500 106.8000" />
<path d="M242.7500 117.0500
L254.0000 117.0500
" />
<path d="M243.0000 106.8000 A1.0000 1.0000 0.0 0 0 242.0000 107.8000" />
<path d="M242.0000 107.8000
L242.0000 108.3000
" />
<path d="M257.2500 108.3000 A1.0000 1.0000 0.0 0 0 258.2500 109.3000" />
<path d="M240.7500 114.0500
L240.4500 114.0500
" />
<path d="M257.5000 123.3000 A1.0000 1.0000 0.0 0 0 258.5000 122.3000" />
<path d="M255.0000 118.0500 A1.0000 1.0000 0.0 0 0 254.0000 117.0500" />
<path d="M240.4500 114.0500 A1.0000 1.0000 0.0 0 0 239.4500 115.0500" />
<path d="M241.0000 109.3000
L239.2000 109.3000
" />
<path d="M274.0500 122.3000 A1.0000 1.0000 0.0 0 0 275.0500 123.3000" />
<path d="M276.3000 108.3000 A1.0000 1.0000 0.0 0 0 277.3000 109.3000" />
<path d="M262.0500 106.8000 A1.0000 1.0000 0.0 0 0 261.0500 107.8000" />
<path d="M260.8000 115.0500 A1.0000 1.0000 0.0 0 0 259.8000 114.0500" />
<path d="M276.3000 107.8000
L276.3000 108.3000
" />
<path d="M260.8000 115.0500
L260.8000 116.0500
" />
<path d="M261.8000 117.0500
L273.0500 117.0500
" />
<path d="M275.3000 106.8000
L262.0500 106.8000
" />
<path d="M260.8000 116.0500 A1.0000 1.0000 0.0 0 0 261.8000 117.0500" />
<path d="M260.0500 109.3000 A1.0000 1.0000 0.0 0 0 261.0500 108.3000" />
<path d="M259.5000 114.0500 A1.0000 1.0000 0.0 0 0 258.5000 115.0500" />
<path d="M260.0500 109.3000
L258.2500 109.3000
" />
<path d="M274.0500 118.0500 A1.0000 1.0000 0.0 0 0 273.0500 117.0500" />
<path d="M274.0500 118.0500
L274.0500 122.3000
" />
<path d="M259.8000 114.0500
L259.5000 114.0500
" />
<path d="M261.0500 107.8000
L261.0500 108.3000
" />
<path d="M276.3000 107.8000 A1.0000 1.0000 0.0 0 0 275.3000 106.8000" />
<path d="M275.0500 123.3000
L276.5500 123.3000
" />
<path d="M281.1000 106.8000 A1.0000 1.0000 0.0 0 0 280.1000 107.8000" />
<path d="M295.3500 107.8000
L295.3500 108.3000
" />
<path d="M294.3500 106.8000
L281.1000 106.8000
" />
<path d="M295.3500 107.8000 A1.0000 1.0000 0.0 0 0 294.3500 106.8000" />
<path d="M279.1000 109.3000 A1.0000 1.0000 0.0 0 0 280.1000 108.3000" />
<path d="M280.1000 107.8000
L280.1000 108.3000
" />
<path d="M281.9250 123.3000 A1.0000 1.0000 0.0 0 0 282.9250 122.3000" />
<path d="M282.9250 118.0500
L282.9250 122.3000
" />
<path d="M283.9250 117.0500 A1.0000 1.0000 0.0 0 0 282.9250 118.0500" />
<path d="M294.3500 117.0500 A1.0000 1.0000 0.0 0 0 295.3500 116.0500" />
<path d="M295.3500 108.3000
L295.3500 116.0500
" />
<path d="M294.3500 117.0500
L284.9250 117.0500
" />
<path d="M79.8929 123.3000
L81.3929 123.3000
" />
<path d="M62.3750 114.0500
L62.0750 114.0500
" />
<path d="M63.3750 115.0500
L63.3750 116.0500
" />
<path d="M78.8929 118.0537
L78.8929 122.3000
" />
<path d="M78.8750 107.8000
L78.8750 108.3000
" />
<path d="M63.3750 116.0500 A1.0000 1.0000 0.0 0 0 64.3750 117.0500" />
<path d="M64.6250 106.8000 A1.0000 1.0000 0.0 0 0 63.6250 107.8000" />
<path d="M62.6250 109.3000 A1.0000 1.0000 0.0 0 0 63.6250 108.3000" />
<path d="M78.8929 118.0537 A1.0000 1.0000 0.0 0 0 77.8929 117.0500" />
<path d="M64.3750 117.0500
L75.6250 117.0500
" />
<path d="M81.3929 123.3000 A1.0000 1.0000 0.0 0 0 82.3929 122.3000" />
<path d="M77.8750 106.8000
L64.6250 106.8000
" />
<path d="M78.8750 107.8000 A1.0000 1.0000 0.0 0 0 77.8750 106.8000" />
<path d="M78.8929 122.3000 A1.0000 1.0000 0.0 0 0 79.8929 123.3000" />
<path d="M63.6250 107.8000
L63.6250 108.3000
" />
<path d="M63.3750 115.0500 A1.0000 1.0000 0.0 0 0 62.3750 114.0500" />
<path d="M60.4250 113.0500 A1.0000 1.0000 0.0 0 0 61.4250 114.0500" />
<path d="M61.4250 109.3000 A1.0000 1.0000 0.0 0 0 60.4250 110.3000" />
<path d="M60.4250 113.0500
L60.4250 110.3000
" />
<path d="M62.6250 109.3000
L61.4250 109.3000
" />
<path d="M61.4250 114.0500
L62.0750 114.0500
" />
<path d="M75.6250 117.0500
L77.8929 117.0500
" />
<path d="M82.3929 116.0463 A1.0000 1.0000 0.0 0 0 81.3929 115.0500" />
<path d="M78.8771 114.0483 A0.9986 0.9986 0.0 0 0 79.8757 115.0500" />
<path d="M82.3929 122.3000
L82.3929 116.0463
" />
<path d="M81.3929 115.0500
L79.8757 115.0500
" />
<path d="M78.8771 114.0483
L78.8750 108.3000
" />
<path d="M78.8771 133.0980
L78.8750 127.3500
" />
<path d="M81.3929 134.1000
L79.8757 134.1000
" />
<path d="M82.3929 141.3500
L82.3929 135.0963
" />
<path d="M78.8771 133.0980 A0.9986 0.9986 0.0 0 0 79.8757 134.1000" />
<path d="M62.6250 128.3500
L61.4250 128.3500
" />
<path d="M60.4250 132.1000 A1.0000 1.0000 0.0 0 0 61.4250 133.1000" />
<path d="M61.4250 128.3500 A1.0000 1.0000 0.0 0 0 60.4250 129.3500" />
<path d="M60.4250 132.1000
L60.4250 129.3500
" />
<path d="M61.4250 133.1000
L62.0750 133.1000
" />
<path d="M75.6250 136.1000
L77.8929 136.1000
" />
<path d="M63.3750 134.1000
L63.3750 135.1000
" />
<path d="M62.3750 133.1000
L62.0750 133.1000
" />
<path d="M77.8750 125.8500
L64.6250 125.8500
" />
<path d="M79.8929 142.3500
L81.3929 142.3500
" />
<path d="M78.8929 137.1037
L78.8929 141.3500
" />
<path d="M78.8750 126.8500
L78.8750 127.3500
" />
<path d="M63.3750 135.1000 A1.0000 1.0000 0.0 0 0 64.3750 136.1000" />
<path d="M64.3750 136.1000
L75.6250 136.1000
" />
<path d="M64.6250 125.8500 A1.0000 1.0000 0.0 0 0 63.6250 126.8500" />
<path d="M78.8929 137.1037 A1.0000 1.0000 0.0 0 0 77.8929 136.1000" />
<path d="M81.3929 142.3500 A1.0000 1.0000 0.0 0 0 82.3929 141.3500" />
<path d="M62.6250 128.3500 A1.0000 1.0000 0.0 0 0 63.6250 127.3500" />
<path d="M78.8750 126.8500 A1.0000 1.0000 0.0 0 0 77.8750 125.8500" />
<path d="M78.8929 141.3500 A1.0000 1.0000 0.0 0 0 79.8929 142.3500" />
<path d="M63.6250 126.8500
L63.6250 127.3500
" />
<path d="M63.3750 134.1000 A1.0000 1.0000 0.0 0 0 62.3750 133.1000" />
<path d="M82.3929 135.0963 A1.0000 1.0000 0.0 0 0 81.3929 134.1000" />
<path d="M98.5679 153.1429
L97.0521 153.1429
" />
<path d="M99.5679 160.3929
L99.5679 154.1372
" />
<path d="M78.0571 147.3929 A1.0000 1.0000 0.0 0 0 77.0571 148.3929" />
<path d="M97.0679 161.3929
L98.5679 161.3929
" />
<path d="M79.2520 147.3929
L78.0571 147.3929
" />
<path d="M77.0571 151.1429
L77.0571 148.3929
" />
<path d="M95.5092 152.1412 A0.9986 0.9986 0.0 0 0 96.5078 153.1429" />
<path d="M78.0571 152.1429
L78.7071 152.1429
" />
<path d="M79.0071 152.1429
L78.7071 152.1429
" />
<path d="M95.5092 152.1412
L95.5071 146.3929
" />
<path d="M96.0679 156.1486
L96.0679 160.3929
" />
<path d="M92.2571 155.1429
L94.5250 155.1429
" />
<path d="M77.0571 151.1429 A1.0000 1.0000 0.0 0 0 78.0571 152.1429" />
<path d="M94.5071 144.8929
L81.2571 144.8929
" />
<path d="M95.5071 145.8929
L95.5071 146.3929
" />
<path d="M80.0071 153.1429
L80.0071 154.1429
" />
<path d="M80.0071 154.1429 A1.0000 1.0000 0.0 0 0 81.0071 155.1429" />
<path d="M81.0071 155.1429
L92.2571 155.1429
" />
<path d="M81.2571 144.8929 A1.0000 1.0000 0.0 0 0 80.2571 145.8929" />
<path d="M96.0679 156.1486 A1.0000 1.0000 0.0 0 0 95.0679 155.1429" />
<path d="M98.5679 161.3929 A1.0000 1.0000 0.0 0 0 99.5679 160.3929" />
<path d="M79.2520 147.3929 A1.0000 1.0000 0.0 0 0 80.2571 146.3929" />
<path d="M80.0071 153.1429 A1.0000 1.0000 0.0 0 0 79.0071 152.1429" />
<path d="M80.2571 145.8929
L80.2571 146.3929
" />
<path d="M99.5679 154.1372 A1.0000 1.0000 0.0 0 0 98.5679 153.1429" />
<path d="M95.5071 145.8929 A1.0000 1.0000 0.0 0 0 94.5071 144.8929" />
<path d="M96.0679 160.3929 A1.0000 1.0000 0.0 0 0 97.0679 161.3929" />
<path d="M96.5078 153.1429
L97.0521 153.1429
" />
<path d="M94.5250 155.1429
L95.0679 155.1429
" />
<path d="M128.1429 160.3929
L128.1429 154.1372
" />
<path d="M120.8321 155.1429
L123.1000 155.1429
" />
<path d="M108.5821 154.1429 A1.0000 1.0000 0.0 0 0 109.5821 155.1429" />
<path d="M107.8270 147.3929
L106.6321 147.3929
" />
<path d="M107.8270 147.3929 A1.0000 1.0000 0.0 0 0 108.8321 146.3929" />
<path d="M105.6321 151.1429 A1.0000 1.0000 0.0 0 0 106.6321 152.1429" />
<path d="M125.6429 161.3929
L127.1429 161.3929
" />
<path d="M124.0821 145.8929
L124.0821 146.3929
" />
<path d="M106.6321 152.1429
L107.2821 152.1429
" />
<path d="M124.6429 156.1486
L124.6429 160.3929
" />
<path d="M109.5821 155.1429
L120.8321 155.1429
" />
<path d="M127.1429 153.1429
L125.6271 153.1429
" />
<path d="M106.6321 147.3929 A1.0000 1.0000 0.0 0 0 105.6321 148.3929" />
<path d="M124.0842 152.1412 A0.9986 0.9986 0.0 0 0 125.0828 153.1429" />
<path d="M124.0842 152.1412
L124.0821 146.3929
" />
<path d="M105.6321 151.1429
L105.6321 148.3929
" />
<path d="M107.5821 152.1429
L107.2821 152.1429
" />
<path d="M123.0821 144.8929
L109.8321 144.8929
" />
<path d="M108.5821 153.1429
L108.5821 154.1429
" />
<path d="M109.8321 144.8929 A1.0000 1.0000 0.0 0 0 108.8321 145.8929" />
<path d="M124.6429 156.1486 A1.0000 1.0000 0.0 0 0 123.6429 155.1429" />
<path d="M127.1429 161.3929 A1.0000 1.0000 0.0 0 0 128.1429 160.3929" />
<path d="M108.5821 153.1429 A1.0000 1.0000 0.0 0 0 107.5821 152.1429" />
<path d="M108.8321 145.8929
L108.8321 146.3929
" />
<path d="M128.1429 154.1372 A1.0000 1.0000 0.0 0 0 127.1429 153.1429" />
<path d="M124.0821 145.8929 A1.0000 1.0000 0.0 0 0 123.0821 144.8929" />
<path d="M124.6429 160.3929 A1.0000 1.0000 0.0 0 0 125.6429 161.3929" />
<path d="M125.0828 153.1429
L125.6271 153.1429
" />
<path d="M123.1000 155.1429
L123.6429 155.1429
" />
<path d="M153.6500 160.3929
L153.6500 154.1392
" />
<path d="M134.8000 154.1429 A1.0000 1.0000 0.0 0 0 135.8000 155.1429" />
<path d="M134.0465 147.3929
L132.8500 147.3929
" />
<path d="M134.0465 147.3929 A1.0000 1.0000 0.0 0 0 135.0500 146.3929" />
<path d="M131.8500 151.1429 A1.0000 1.0000 0.0 0 0 132.8500 152.1429" />
<path d="M151.1500 161.3929
L152.6535 161.3929
" />
<path d="M150.3000 145.8966
L150.3000 146.3929
" />
<path d="M132.8500 152.1429
L133.5000 152.1429
" />
<path d="M150.1500 156.1466
L150.1500 160.3929
" />
<path d="M135.8000 155.1429
L147.0500 155.1429
" />
<path d="M132.8500 147.3929 A1.0000 1.0000 0.0 0 0 131.8500 148.3929" />
<path d="M150.3021 152.1447 A0.9986 0.9986 0.0 0 0 151.3007 153.1429" />
<path d="M150.3021 152.1447
L150.3000 146.3929
" />
<path d="M131.8500 151.1429
L131.8500 148.3929
" />
<path d="M133.8000 152.1429
L133.5000 152.1429
" />
<path d="M149.3000 144.8929
L136.0500 144.8929
" />
<path d="M134.8000 153.1466
L134.8000 154.1429
" />
<path d="M136.0500 144.8929 A1.0000 1.0000 0.0 0 0 135.0500 145.8929" />
<path d="M150.1500 156.1466 A1.0000 1.0000 0.0 0 0 149.1500 155.1429" />
<path d="M152.6535 161.3929 A1.0000 1.0000 0.0 0 0 153.6500 160.3929" />
<path d="M134.8000 153.1466 A1.0000 1.0000 0.0 0 0 133.8000 152.1429" />
<path d="M135.0500 145.8929
L135.0500 146.3929
" />
<path d="M153.6500 154.1392 A1.0000 1.0000 0.0 0 0 152.6500 153.1429" />
<path d="M150.3000 145.8966 A1.0000 1.0000 0.0 0 0 149.3000 144.8929" />
<path d="M150.1500 160.3929 A1.0000 1.0000 0.0 0 0 151.1500 161.3929" />
<path d="M147.0500 155.1429
L149.1500 155.1429
" />
<path d="M151.3007 153.1429
L152.6500 153.1429
" />
<circle cx="167.9600" cy="160.6137" r="2.8504" /> 
<path d="M171.0250 152.2250
L171.6750 152.2250
" />
<path d="M171.9750 152.2250
L171.6750 152.2250
" />
<path d="M170.0250 151.2250 A1.0000 1.0000 0.0 0 0 171.0250 152.2250" />
<path d="M172.9750 153.2250
L172.9750 154.2250
" />
<path d="M172.9750 154.2250 A1.0000 1.0000 0.0 0 0 173.9753 155.2250" />
<path d="M172.9750 153.2250 A1.0000 1.0000 0.0 0 0 171.9750 152.2250" />
<path d="M170.0250 149.6250 A1.8000 1.8000 0.0 0 0 168.1987 147.8252" />
<path d="M168.1987 147.8252
L167.9779 147.8268
" />
<path d="M170.0250 149.6250
L170.0250 151.2250
" />
<path d="M159.2489 161.3749 A0.9999 0.9999 0.0 0 0 160.2489 160.3750" />
<path d="M160.2489 154.1250 A0.9999 0.9999 0.0 0 0 159.2490 153.1250" />
<path d="M156.6489 160.3844 A1.0002 1.0002 0.0 0 0 157.6491 161.3750" />
<path d="M157.6489 153.1250 A1.0000 1.0000 0.0 0 0 156.6489 154.1250" />
<path d="M169.4498 143.4331 A10.3900 10.3900 0.0 0 0 174.3500 144.9750" />
<path d="M169.4498 143.4330 A2.4466 2.4466 0.0 1 0 167.9779 147.8202" />
<path d="M191.8760 142.3250 A3.0510 3.0510 0.0 0 0 189.9917 142.8875" />
<path d="M185.9834 144.9750 A3.9894 3.9894 0.0 0 0 188.6757 143.9496" />
<path d="M188.6757 143.9496
L189.9917 142.8875
" />
<path d="M185.9834 144.9750
L174.3500 144.9750
" />
<path d="M195.3500 142.3250 A0.9750 0.9750 0.0 0 0 196.3250 141.3500" />
<path d="M187.0401 158.2558 A6.1777 6.1777 0.0 0 0 181.7205 155.2225" />
<path d="M181.7205 155.2225
L173.9753 155.2250
" />
<path d="M189.4499 162.2999 A2.8599 2.8599 0.0 0 0 193.2002 163.0847" />
<path d="M187.0400 158.2559
L189.4499 162.2999
" />
<path d="M211.8500 155.1250
L223.1000 155.1250
" />
<path d="M225.9000 156.1250
L225.9000 160.3750
" />
<path d="M225.9000 160.3750 A1.0000 1.0000 0.0 0 0 226.9000 161.3750" />
<path d="M225.9000 156.1250 A1.0000 1.0000 0.0 0 0 224.9000 155.1250" />
<path d="M224.9000 155.1250
L223.1000 155.1250
" />
<path d="M207.6000 155.1250 A2.7541 2.7541 0.0 0 0 206.2327 155.4884" />
<path d="M193.2002 163.0847
L206.2327 155.4884
" />
<path d="M207.6000 155.1250
L211.8500 155.1250
" />
<path d="M185.6000 136.1000
L195.3250 136.1000
" />
<path d="M191.8760 142.3250
L195.3500 142.3250
" />
<path d="M226.9000 161.3750
L233.2000 161.3750
" />
<path d="M233.2000 161.3750 A1.0000 1.0000 0.0 0 0 234.2000 160.3750" />
<path d="M234.2000 154.4250 A1.0000 1.0000 0.0 0 0 233.2000 153.4250" />
<path d="M234.2000 160.3750
L234.2000 154.4250
" />
<path d="M233.2000 153.4250
L227.4750 153.4250
" />
<path d="M226.4750 152.4250 A1.0000 1.0000 0.0 0 0 227.4750 153.4250" />
<path d="M226.4750 143.3500 A1.0000 1.0000 0.0 0 0 225.4750 142.3500" />
<path d="M225.4750 142.3500
L221.4000 142.3500
" />
<path d="M257.4179 160.3929
L257.4179 154.1376
" />
<path d="M249.5911 155.1429
L251.8589 155.1429
" />
<path d="M237.3411 154.1523 A1.0002 1.0002 0.0 0 0 238.3411 155.1429" />
<path d="M236.5800 147.3929
L235.3911 147.3929
" />
<path d="M236.5800 147.3929 A1.0002 1.0002 0.0 0 0 237.5911 146.3928" />
<path d="M234.3911 151.1333 A1.0002 1.0002 0.0 0 0 235.3911 152.1429" />
<path d="M254.9179 161.3929
L256.4179 161.3929
" />
<path d="M252.8411 145.9034
L252.8411 146.3929
" />
<path d="M235.3911 152.1429
L236.0411 152.1429
" />
<path d="M253.9179 156.1482
L253.9179 160.3929
" />
<path d="M238.3411 155.1429
L249.5911 155.1429
" />
<path d="M255.9018 153.1429
L254.3861 153.1429
" />
<path d="M235.3911 147.3930 A0.9999 0.9999 0.0 0 0 234.3911 148.3929" />
<path d="M252.8432 152.1448 A0.9984 0.9984 0.0 0 0 253.8416 153.1429" />
<path d="M252.8432 152.1448
L252.8411 146.3929
" />
<path d="M234.3911 151.1333
L234.3911 148.3929
" />
<path d="M236.3411 152.1429
L236.0411 152.1429
" />
<path d="M251.8410 144.8929
L238.5911 144.8929
" />
<path d="M237.3411 153.1429
L237.3411 154.1523
" />
<path d="M238.5911 144.8930 A0.9999 0.9999 0.0 0 0 237.5911 145.8929" />
<path d="M253.9179 156.1482 A1.0000 1.0000 0.0 0 0 252.9179 155.1429" />
<path d="M256.4179 161.3929 A1.0000 1.0000 0.0 0 0 257.4179 160.3929" />
<path d="M237.3410 153.1429 A0.9999 0.9999 0.0 0 0 236.3411 152.1429" />
<path d="M237.5911 145.8929
L237.5911 146.3928
" />
<path d="M257.4179 154.1376 A1.0000 1.0000 0.0 0 0 256.4179 153.1429" />
<path d="M252.8411 145.9034 A1.0002 1.0002 0.0 0 0 251.8410 144.8929" />
<path d="M253.9179 160.3929 A1.0000 1.0000 0.0 0 0 254.9179 161.3929" />
<path d="M253.8416 153.1429
L254.3861 153.1429
" />
<path d="M251.8589 155.1429
L252.4018 155.1429
" />
<path d="M255.9018 153.1429
L256.4179 153.1429
" />
<path d="M252.4018 155.1429
L252.9179 155.1429
" />
<path d="M279.3929 160.3750
L279.3929 154.1213
" />
<path d="M260.8471 154.1290 A1.0000 1.0000 0.0 0 0 261.8471 155.1250" />
<path d="M260.0929 147.3750
L258.8971 147.3750
" />
<path d="M260.0929 147.3750 A1.0000 1.0000 0.0 0 0 261.0971 146.3750" />
<path d="M257.8971 151.1210 A1.0000 1.0000 0.0 0 0 258.8971 152.1250" />
<path d="M276.8929 161.3750
L278.3929 161.3750
" />
<path d="M276.3471 145.8750
L276.3471 146.3750
" />
<path d="M258.8971 152.1250
L259.5471 152.1250
" />
<path d="M275.8929 156.1287
L275.8929 160.3750
" />
<path d="M261.8471 155.1250
L273.0971 155.1250
" />
<path d="M258.8971 147.3750 A1.0000 1.0000 0.0 0 0 257.8971 148.3750" />
<path d="M276.3492 152.1213 A0.9986 0.9986 0.0 0 0 277.3478 153.1250" />
<path d="M276.3492 152.1213
L276.3471 146.3750
" />
<path d="M257.8971 151.1210
L257.8971 148.3750
" />
<path d="M259.8471 152.1250
L259.5471 152.1250
" />
<path d="M275.3471 144.8750
L262.0971 144.8750
" />
<path d="M260.8471 153.1250
L260.8471 154.1290
" />
<path d="M262.0971 144.8750 A1.0000 1.0000 0.0 0 0 261.0971 145.8750" />
<path d="M275.8929 156.1287 A1.0000 1.0000 0.0 0 0 274.8929 155.1250" />
<path d="M278.3929 161.3750 A1.0000 1.0000 0.0 0 0 279.3929 160.3750" />
<path d="M260.8471 153.1250 A1.0000 1.0000 0.0 0 0 259.8471 152.1250" />
<path d="M261.0971 145.8750
L261.0971 146.3750
" />
<path d="M279.3929 154.1213 A1.0000 1.0000 0.0 0 0 278.3929 153.1250" />
<path d="M276.3471 145.8750 A1.0000 1.0000 0.0 0 0 275.3471 144.8750" />
<path d="M275.8929 160.3750 A1.0000 1.0000 0.0 0 0 276.8929 161.3750" />
<path d="M277.3478 153.1250
L277.8921 153.1250
" />
<path d="M277.8921 153.1250
L278.3929 153.1250
" />
<path d="M273.0971 155.1250
L274.8929 155.1250
" />
<path d="M78.8771 94.9983
L78.8750 89.2500
" />
<path d="M81.3929 96.0000
L79.8757 96.0000
" />
<path d="M82.3929 103.2500
L82.3929 96.9963
" />
<path d="M78.8771 94.9983 A0.9986 0.9986 0.0 0 0 79.8757 96.0000" />
<path d="M62.6250 90.2500
L61.4250 90.2500
" />
<path d="M61.4250 90.2500 A1.0000 1.0000 0.0 0 0 60.4250 91.2500" />
<path d="M75.6250 98.0000
L77.8929 98.0000
" />
<path d="M77.8750 87.7500
L64.6250 87.7500
" />
<path d="M79.8929 104.2500
L81.3929 104.2500
" />
<path d="M78.8929 99.0037
L78.8929 103.2500
" />
<path d="M78.8750 88.7500
L78.8750 89.2500
" />
<path d="M64.6250 87.7500 A1.0000 1.0000 0.0 0 0 63.6250 88.7500" />
<path d="M78.8929 99.0037 A1.0000 1.0000 0.0 0 0 77.8929 98.0000" />
<path d="M81.3929 104.2500 A1.0000 1.0000 0.0 0 0 82.3929 103.2500" />
<path d="M62.6250 90.2500 A1.0000 1.0000 0.0 0 0 63.6250 89.2500" />
<path d="M78.8750 88.7500 A1.0000 1.0000 0.0 0 0 77.8750 87.7500" />
<path d="M78.8929 103.2500 A1.0000 1.0000 0.0 0 0 79.8929 104.2500" />
<path d="M63.6250 88.7500
L63.6250 89.2500
" />
<path d="M82.3929 96.9963 A1.0000 1.0000 0.0 0 0 81.3929 96.0000" />
<path d="M65.3750 98.0000 A1.5000 1.5000 0.0 0 0 64.6944 98.1633" />
<path d="M64.6944 98.1633
L62.0079 99.5000
" />
<path d="M65.3750 98.0000
L75.6250 98.0000
" />
<path d="M60.1205 93.0810 A1.5000 1.5000 0.0 0 0 60.4250 92.1750" />
<path d="M60.1205 93.0810
L59.1500 94.5500
" />
<path d="M60.4250 91.2500
L60.4250 92.1750
" />
<path d="M294.3500 87.7500
L281.1000 87.7500
" />
<path d="M279.1000 90.2500
L277.3000 90.2500
" />
<path d="M280.1000 88.7500
L280.1000 89.2500
" />
<path d="M279.1000 90.2500 A1.0000 1.0000 0.0 0 0 280.1000 89.2500" />
<path d="M295.3500 88.7500 A1.0000 1.0000 0.0 0 0 294.3500 87.7500" />
<path d="M281.1000 87.7500 A1.0000 1.0000 0.0 0 0 280.1000 88.7500" />
<path d="M295.3500 88.7500
L295.3500 89.2500
" />
<path d="M276.5500 104.2500
L281.7500 104.2500
" />
<path d="M281.7500 104.2500 A1.0000 1.0000 0.0 0 0 282.7500 103.2500" />
<path d="M282.7500 99.0000
L282.7500 103.2500
" />
<path d="M283.7500 98.0000 A1.0000 1.0000 0.0 0 0 282.7500 99.0000" />
<path d="M283.7500 98.0000
L288.7250 98.0000
" />
<path d="M289.7250 99.0000 A1.0000 1.0000 0.0 0 0 288.7250 98.0000" />
<path d="M289.7250 99.0000
L289.7250 103.2500
" />
<path d="M289.7250 103.2500 A1.0000 1.0000 0.0 0 0 290.7250 104.2500" />
<path d="M290.7250 104.2500
L295.6500 104.2500
" />
<path d="M295.6500 104.2500 A1.0000 1.0000 0.0 0 0 296.6500 103.2500" />
<path d="M297.6500 101.4000 A1.0000 1.0000 0.0 0 0 296.6500 102.4000" />
<path d="M296.6500 102.4000
L296.6500 103.2500
" />
<path d="M297.6500 101.4000
L301.7000 101.4000
" />
<path d="M301.7000 101.4000 A1.0000 1.0000 0.0 0 0 302.7000 100.4000" />
<path d="M302.7000 98.4750 A1.0000 1.0000 0.0 0 0 301.7000 97.4750" />
<path d="M302.7000 98.4750
L302.7000 100.4000
" />
<path d="M295.3500 96.4750 A1.0000 1.0000 0.0 0 0 296.3500 97.4750" />
<path d="M296.3500 97.4750
L301.7000 97.4750
" />
<path d="M295.3500 96.4750
L295.3500 89.2500
" />
<path d="M320.7000 87.7250
L307.4500 87.7250
" />
<path d="M321.7000 88.7250 A1.0000 1.0000 0.0 0 0 320.7000 87.7250" />
<path d="M321.7000 88.7250
L321.7000 89.2250
" />
<path d="M307.4500 87.7250 A1.0000 1.0000 0.0 0 0 306.4500 88.7250" />
<path d="M305.4500 90.2250 A1.0000 1.0000 0.0 0 0 306.4500 89.2250" />
<path d="M306.4500 88.7250
L306.4500 89.2250
" />
<path d="M304.2500 90.2250 A1.0000 1.0000 0.0 0 0 303.2500 91.2250" />
<path d="M305.4500 90.2250
L304.2500 90.2250
" />
<path d="M303.2500 93.9750 A1.0000 1.0000 0.0 0 0 304.2500 94.9750" />
<path d="M303.2500 93.9750
L303.2500 91.2250
" />
<path d="M304.5679 94.9750
L304.2500 94.9750
" />
<path d="M305.5679 95.9787
L305.5679 102.9250
" />
<path d="M305.5679 102.9250 A1.0000 1.0000 0.0 0 0 306.5679 103.9250" />
<path d="M312.2000 103.0000 A0.9500 0.9500 0.0 0 0 311.8125 103.0826" />
<path d="M309.9000 103.9250 A0.7000 0.7000 0.0 0 0 310.2305 103.8420" />
<path d="M306.5679 103.9250
L309.9000 103.9250
" />
<path d="M310.2305 103.8420
L311.8125 103.0826
" />
<path d="M321.3250 103.0000 A1.0000 1.0000 0.0 0 0 321.8954 102.8214" />
<path d="M312.2000 103.0000
L321.3250 103.0000
" />
<path d="M321.8954 102.8214
L324.8500 101.0500
" />
<path d="M321.7000 92.5000 A0.5500 0.5500 0.0 0 0 322.0105 92.9951" />
<path d="M321.7000 89.2250
L321.7000 92.5000
" />
<path d="M322.0105 92.9951
L324.8500 94.4500
" />
<path d="M284.5750 154.1250 A1.0000 1.0000 0.0 0 0 285.5750 155.1250" />
<path d="M281.6250 151.1250
L281.6250 148.3750
" />
<path d="M284.5750 153.1250 A1.0000 1.0000 0.0 0 0 283.5750 152.1250" />
<path d="M283.5750 152.1250
L283.2750 152.1250
" />
<path d="M284.5750 153.1250
L284.5750 154.1250
" />
<path d="M282.6250 152.1250
L283.2750 152.1250
" />
<path d="M285.5750 155.1250
L296.8250 155.1250
" />
<path d="M281.6250 151.1250 A1.0000 1.0000 0.0 0 0 282.6250 152.1250" />
<path d="M303.3250 113.0500
L303.3250 110.3000
" />
<path d="M320.7750 106.8000
L307.5250 106.8000
" />
<path d="M306.5250 107.8000
L306.5250 108.3000
" />
<path d="M307.5250 106.8000 A1.0000 1.0000 0.0 0 0 306.5250 107.8000" />
<path d="M304.3250 109.3000 A1.0000 1.0000 0.0 0 0 303.3250 110.3000" />
<path d="M305.5250 109.3000
L304.3250 109.3000
" />
<path d="M305.5250 109.3000 A1.0000 1.0000 0.0 0 0 306.5250 108.3000" />
<path d="M321.7750 107.8000 A1.0000 1.0000 0.0 0 0 320.7750 106.8000" />
<path d="M281.1000 125.8500 A1.0000 1.0000 0.0 0 0 280.1000 126.8500" />
<path d="M279.1000 128.3500 A1.0000 1.0000 0.0 0 0 280.1000 127.3500" />
<path d="M294.3500 125.8500
L281.1000 125.8500
" />
<path d="M279.1000 128.3500
L277.3000 128.3500
" />
<path d="M280.1000 126.8500
L280.1000 127.3500
" />
<path d="M303.5750 156.1250 A1.0000 1.0000 0.0 0 0 302.5750 155.1250" />
<path d="M302.5750 155.1250
L296.8250 155.1250
" />
<path d="M303.5750 156.5000 A1.0000 1.0000 0.0 0 0 304.5744 157.5000" />
<path d="M303.5750 156.1250
L303.5750 156.5000
" />
<path d="M304.5744 157.5000
L321.9921 157.5100
" />
<path d="M327.7000 141.2244
L327.7079 154.2100
" />
<path d="M305.6250 140.2250 A1.0000 1.0000 0.0 0 0 304.6250 141.2250" />
<path d="M303.6250 143.0250 A1.0000 1.0000 0.0 0 0 304.6250 142.0250" />
<path d="M297.6000 142.0250 A1.0000 1.0000 0.0 0 0 298.6000 143.0250" />
<path d="M298.6000 136.1500 A1.0000 1.0000 0.0 0 0 297.6000 137.1500" />
<path d="M321.0000 136.1500 A1.0000 1.0000 0.0 0 0 322.0000 135.1506" />
<path d="M323.0073 122.7321 A1.0000 1.0000 0.0 0 0 322.0071 123.7315" />
<path d="M326.7000 140.2250
L305.6250 140.2250
" />
<path d="M304.6250 141.2250
L304.6250 142.0250
" />
<path d="M303.6250 143.0250
L298.6000 143.0250
" />
<path d="M297.6000 142.0250
L297.6000 137.1500
" />
<path d="M298.6000 136.1500
L321.0000 136.1500
" />
<path d="M322.0000 135.1506
L322.0071 123.7315
" />
<path d="M327.6211 122.7329
L323.0073 122.7321
" />
<path d="M328.6300 112.4205 A1.0000 1.0000 0.0 0 0 327.6294 111.4200" />
<path d="M328.6300 112.4205
L328.6250 121.7334
" />
<path d="M321.7750 110.4229 A0.9975 0.9975 0.0 0 0 322.7731 111.4229" />
<path d="M327.6294 111.4200
L322.7731 111.4229
" />
<path d="M321.7750 110.4229
L321.7750 107.8000
" />
<path d="M302.3225 125.8529 A1.0000 1.0000 0.0 0 0 303.3229 124.8531" />
<path d="M302.3225 125.8529
L294.3500 125.8500
" />
<path d="M303.3229 124.8531
L303.3250 113.0500
" />
<path d="M281.6229 143.3467 A1.0000 1.0000 0.0 0 0 280.6222 142.3471" />
<path d="M284.9250 117.0500
L283.9250 117.0500
" />
<path d="M281.9250 123.3000
L276.5500 123.3000
" />
<circle cx="201.1800" cy="146.3000" r="1.6000" /> 
<path d="M88.6000 128.3500 A1.0000 1.0000 0.0 0 0 89.6000 127.3500" />
<path d="M88.6000 128.3500
L87.4000 128.3500
" />
<path d="M185.8500 125.8500 A1.0000 1.0000 0.0 0 0 184.8500 126.8500" />
</g> 
</svg>
