  0
SECTION
  2
HEADER
  9
$ANGBASE
  50
0.0
  9
$ANGDIR
  70
1
  9
$MEASUREMENT
  70
1
  0
ENDSEC
  0
SECTION
  2
TABLES
  0
TABLE
  2
LTYPE
  70
4
  0
LTYPE
  5
40F
  2
CONTINUOUS
  70
0
  3
Solid line
  72
65
  73
0
  40
0.0
  0
LTYPE
  5
410
  2
DASHDOT
 70
0
  3
Dash Dot ____ _ ____ _
 72
65
 73
4
 40
2.0
 49
1.25
 49
-0.25
 49
0.25
 49
-0.25
  0
LTYPE
  5
411
  2
DASHED
 70
0
  3
Dashed __ __ __ __ __
 72
65
 73
2
 40
0.75
 49
0.5
 49
-0.25
  0
LTYPE
  5
43B
  2
DOTTED
 70
0
  3
Dotted .  .  .  .
 72
65
 73
2
 40
0.2
 49
0.0
 49
-0.2
  0
ENDTAB
  0
TABLE
  2
STYLE
  70
4
  0
STYLE
  2
KICAD
  70
0
  40
0
  41
1
  42
1
  50
0
  71
0
  3
isocp.shx
  0
STYLE
  2
KICADB
  70
0
  40
0
  41
1
  42
1
  50
0
  71
0
  3
isocp.shx
  0
STYLE
  2
KICADI
  70
0
  40
0
  41
1
  42
1
  50
15
  71
0
  3
isocp.shx
  0
STYLE
  2
KICADBI
  70
0
  40
0
  41
1
  42
1
  50
15
  71
0
  3
isocp.shx
  0
ENDTAB
  0
TABLE
  2
LAYER
  70
1
  0
LAYER
  2
BLACK
  70
0
  62
7
  6
CONTINUOUS
  0
ENDTAB
  0
ENDSEC
  0
SECTION
  2
ENTITIES
0
LINE
8
BLACK
6
CONTINUOUS
10
157.6489459999999951
20
-153.125
11
159.2489999999999952
21
-153.125
0
LINE
8
BLACK
6
CONTINUOUS
10
156.6489459999999951
20
-160.3843870000000038
11
156.6489459999999951
21
-154.125
0
LINE
8
BLACK
6
CONTINUOUS
10
159.2489459999999895
20
-161.375
11
157.6491000000000042
21
-161.375
0
LINE
8
BLACK
6
CONTINUOUS
10
160.2489400000000046
20
-154.125
11
160.2489459999999895
21
-160.375
0
CIRCLE
8
BLACK
10
324.8499999999999659
20
-155.8599999999999852
40
1.
0
CIRCLE
8
BLACK
10
324.8499999999999659
20
-97.75
40
1.
0
CIRCLE
8
BLACK
10
59.1499999999999986
20
-97.8499999999999943
40
1.
0
CIRCLE
8
BLACK
10
58.6999999999999957
20
-155.8599999999999852
40
1.
0
LINE
8
BLACK
6
CONTINUOUS
10
122.6499999999999915
20
-104.25
11
124.1499999999999915
21
-104.25
0
LINE
8
BLACK
6
CONTINUOUS
10
86.3999999999999915
20
-132.0999999999999943
11
86.3999999999999915
21
-129.3499999999999943
0
LINE
8
BLACK
6
CONTINUOUS
10
88.3499999999999943
20
-133.0999999999999943
11
87.3999999999999915
21
-133.0999999999999943
0
LINE
8
BLACK
6
CONTINUOUS
10
167.9778829999999914
20
-147.8202049999999872
11
167.9779309999999839
21
-147.8268060000000048
0
LINE
8
BLACK
6
CONTINUOUS
10
61.5578839999999943
20
-157.5099999999999909
11
61.5578839999999943
21
-154.2099999999999795
0
LINE
8
BLACK
6
CONTINUOUS
10
58.6999999999999957
20
-159.1599999999999966
11
61.5578839999999943
21
-157.5099999999999909
0
LINE
8
BLACK
6
CONTINUOUS
10
58.6999999999999957
20
-152.5600000000000023
11
61.5578839999999943
21
-154.2099999999999795
0
LINE
8
BLACK
6
CONTINUOUS
10
58.6999999999999957
20
-152.5600000000000023
11
55.8421159999999972
21
-154.2099999999999795
0
LINE
8
BLACK
6
CONTINUOUS
10
55.8421159999999972
20
-157.5099999999999909
11
58.6999999999999957
21
-159.1599999999999966
0
LINE
8
BLACK
6
CONTINUOUS
10
55.8421159999999972
20
-154.2099999999999795
11
55.8421159999999972
21
-157.5099999999999909
0
LINE
8
BLACK
6
CONTINUOUS
10
59.1499999999999986
20
-101.1499999999999915
11
62.0078839999999971
21
-99.5
0
LINE
8
BLACK
6
CONTINUOUS
10
59.1499999999999986
20
-94.5499999999999972
11
56.292116
21
-96.1999999999999886
0
LINE
8
BLACK
6
CONTINUOUS
10
56.292116
20
-99.5
11
59.1499999999999986
21
-101.1499999999999915
0
LINE
8
BLACK
6
CONTINUOUS
10
56.292116
20
-96.1999999999999886
11
56.292116
21
-99.5
0
LINE
8
BLACK
6
CONTINUOUS
10
327.7078839999999786
20
-99.3999999999999915
11
327.7078839999999786
21
-96.0999999999999943
0
LINE
8
BLACK
6
CONTINUOUS
10
324.8499999999999659
20
-101.0499999999999972
11
327.7078839999999786
21
-99.3999999999999915
0
LINE
8
BLACK
6
CONTINUOUS
10
324.8499999999999659
20
-94.4499999999999886
11
327.7078839999999786
21
-96.0999999999999943
0
LINE
8
BLACK
6
CONTINUOUS
10
327.7078839999999786
20
-157.5099999999999909
11
327.7078839999999786
21
-154.2099999999999795
0
LINE
8
BLACK
6
CONTINUOUS
10
324.8499999999999659
20
-159.1599999999999966
11
327.7078839999999786
21
-157.5099999999999909
0
LINE
8
BLACK
6
CONTINUOUS
10
321.99211600000001
20
-157.5099999999999909
11
324.8499999999999659
21
-159.1599999999999966
0
LINE
8
BLACK
6
CONTINUOUS
10
281.6228929999999764
20
-143.3466809999999896
11
281.625
21
-148.375
0
LINE
8
BLACK
6
CONTINUOUS
10
280.6221899999999891
20
-142.3471069999999941
11
276.5500000000000114
21
-142.3499999999999943
0
ARC
8
BLACK
10
327.625
20
-121.7329000000000008
40
1.0000001441844897
50
-90.22408422
51
-0.03076783
0
ARC
8
BLACK
10
326.6999999999999886
20
-141.2249999999999943
40
1.
50
0.03477853
51
90.00000000
0
ARC
8
BLACK
10
304.5679000000000087
20
-95.9749999999999943
40
1.
50
-0.21434401
51
90.00000000
0
LINE
8
BLACK
6
CONTINUOUS
10
226.4749999999999943
20
-143.3499999999999943
11
226.4749999999999943
21
-152.4249999999999829
0
LINE
8
BLACK
6
CONTINUOUS
10
220.3999999999999773
20
-134.0999999999999943
11
220.3999999999999773
21
-141.3499999999999943
0
ARC
8
BLACK
10
221.3999999999999773
20
-141.3499999999999943
40
1.
50
-180.00000000
51
-90.00000000
0
ARC
8
BLACK
10
218.1499999999999773
20
-126.8499999999999943
40
1.
50
0.00000000
51
90.00000000
0
ARC
8
BLACK
10
220.1499999999999773
20
-127.3499999999999943
40
1.
50
-180.00000000
51
-90.00000000
0
LINE
8
BLACK
6
CONTINUOUS
10
202.8999999999999773
20
-128.3499999999999943
11
201.0999999999999943
21
-128.3499999999999943
0
LINE
8
BLACK
6
CONTINUOUS
10
279.0999999999999659
20
-109.2999999999999972
11
277.3000000000000114
21
-109.2999999999999972
0
LINE
8
BLACK
6
CONTINUOUS
10
52.6599999999999966
20
-83.7397500000000008
11
52.6400000000000006
21
-163.619749999999982
0
ARC
8
BLACK
10
53.6400000000000006
20
-163.6200000000000045
40
1.
50
-180.01432394
51
-90.00000000
0
LINE
8
BLACK
6
CONTINUOUS
10
53.6400000000000006
20
-164.6200000000000045
11
329.9099999999999682
21
-164.6200000000000045
0
ARC
8
BLACK
10
329.9099999999999682
20
-163.6200000000000045
40
1.0000000706879975
50
-90.00000000
51
-0.02154321
0
LINE
8
BLACK
6
CONTINUOUS
10
330.9099999999999682
20
-163.6203759999999932
11
330.9399999999999977
21
-83.7503760000000028
0
ARC
8
BLACK
10
329.9399999999999977
20
-83.75
40
1.0000000006480001
50
-0.02154321
51
89.99793735
0
LINE
8
BLACK
6
CONTINUOUS
10
329.9400359999999637
20
-82.75
11
53.6600359999999981
21
-82.7399999999999949
0
ARC
8
BLACK
10
53.6599999999999966
20
-83.7399999999999949
40
1.0000000312499995
50
89.99793735
51
179.98567606
0
ARC
8
BLACK
10
103.8499999999999943
20
-88.75
40
1.
50
0.00000000
51
90.00000000
0
ARC
8
BLACK
10
105.8499999999999943
20
-89.25
40
1.
50
-180.00000000
51
-90.00000000
0
ARC
8
BLACK
10
88.5999999999999943
20
-89.25
40
1.
50
-90.00000000
51
-0.00000000
0
ARC
8
BLACK
10
90.5999999999999943
20
-88.75
40
1.
50
90.00000000
51
180.00000000
0
ARC
8
BLACK
10
88.3499999999999943
20
-96.
40
1.
50
0.00000000
51
90.00000000
0
ARC
8
BLACK
10
90.3499999999999943
20
-97.
40
1.
50
-180.00000000
51
-90.00000000
0
ARC
8
BLACK
10
101.5999999999999943
20
-99.
40
1.
50
0.00000000
51
90.00000000
0
ARC
8
BLACK
10
103.5999999999999943
20
-103.25
40
1.
50
-180.00000000
51
-90.00000000
0
ARC
8
BLACK
10
105.0999999999999943
20
-103.25
40
1.
50
-90.00000000
51
-0.00000000
0
LINE
8
BLACK
6
CONTINUOUS
10
104.8499999999999943
20
-88.75
11
104.8499999999999943
21
-89.25
0
LINE
8
BLACK
6
CONTINUOUS
10
103.8499999999999943
20
-87.75
11
90.5999999999999943
21
-87.75
0
LINE
8
BLACK
6
CONTINUOUS
10
89.5999999999999943
20
-88.75
11
89.5999999999999943
21
-89.25
0
LINE
8
BLACK
6
CONTINUOUS
10
89.3499999999999943
20
-96.
11
89.3499999999999943
21
-97.
0
LINE
8
BLACK
6
CONTINUOUS
10
90.3499999999999943
20
-98.
11
101.5999999999999943
21
-98.
0
LINE
8
BLACK
6
CONTINUOUS
10
102.5999999999999943
20
-99.
11
102.5999999999999943
21
-103.25
0
LINE
8
BLACK
6
CONTINUOUS
10
103.5999999999999943
20
-104.25
11
105.0999999999999943
21
-104.25
0
LINE
8
BLACK
6
CONTINUOUS
10
109.3999999999999915
20
-98.
11
120.6499999999999915
21
-98.
0
ARC
8
BLACK
10
120.6499999999999915
20
-99.
40
1.
50
0.00000000
51
90.00000000
0
LINE
8
BLACK
6
CONTINUOUS
10
122.8999999999999915
20
-87.75
11
109.6499999999999915
21
-87.75
0
ARC
8
BLACK
10
107.0999999999999943
20
-96.
40
1.
50
90.00000000
51
180.00000000
0
LINE
8
BLACK
6
CONTINUOUS
10
106.0999999999999943
20
-96.
11
106.0999999999999943
21
-103.25
0
LINE
8
BLACK
6
CONTINUOUS
10
125.1499999999999915
20
-96.
11
125.1499999999999915
21
-103.25
0
ARC
8
BLACK
10
109.3999999999999915
20
-97.
40
1.
50
-180.00000000
51
-90.00000000
0
ARC
8
BLACK
10
107.6499999999999915
20
-89.25
40
1.
50
-90.00000000
51
-0.00000000
0
LINE
8
BLACK
6
CONTINUOUS
10
108.3999999999999915
20
-96.
11
108.3999999999999915
21
-97.
0
ARC
8
BLACK
10
124.1499999999999915
20
-103.25
40
1.
50
-90.00000000
51
-0.00000000
0
LINE
8
BLACK
6
CONTINUOUS
10
107.3999999999999915
20
-95.
11
107.0999999999999943
21
-95.
0
ARC
8
BLACK
10
107.3999999999999915
20
-96.
40
1.
50
0.00000000
51
90.00000000
0
ARC
8
BLACK
10
124.8999999999999915
20
-89.25
40
1.
50
-180.00000000
51
-90.00000000
0
ARC
8
BLACK
10
122.8999999999999915
20
-88.75
40
1.
50
0.00000000
51
90.00000000
0
LINE
8
BLACK
6
CONTINUOUS
10
121.6499999999999915
20
-99.
11
121.6499999999999915
21
-103.25
0
ARC
8
BLACK
10
122.6499999999999915
20
-103.25
40
1.
50
-180.00000000
51
-90.00000000
0
LINE
8
BLACK
6
CONTINUOUS
10
108.6499999999999915
20
-88.75
11
108.6499999999999915
21
-89.25
0
LINE
8
BLACK
6
CONTINUOUS
10
123.8999999999999915
20
-88.75
11
123.8999999999999915
21
-89.25
0
ARC
8
BLACK
10
109.6499999999999915
20
-88.75
40
1.
50
90.00000000
51
180.00000000
0
LINE
8
BLACK
6
CONTINUOUS
10
107.6499999999999915
20
-90.25
11
105.8499999999999943
21
-90.25
0
ARC
8
BLACK
10
126.1499999999999915
20
-96.
40
1.
50
90.00000000
51
180.00000000
0
LINE
8
BLACK
6
CONTINUOUS
10
127.4499999999999886
20
-96.
11
127.4499999999999886
21
-97.
0
LINE
8
BLACK
6
CONTINUOUS
10
127.6999999999999886
20
-88.75
11
127.6999999999999886
21
-89.25
0
LINE
8
BLACK
6
CONTINUOUS
10
144.1999999999999886
20
-96.
11
144.1999999999999886
21
-103.25
0
ARC
8
BLACK
10
128.6999999999999886
20
-88.75
40
1.
50
90.00000000
51
180.00000000
0
LINE
8
BLACK
6
CONTINUOUS
10
141.6999999999999886
20
-104.25
11
143.1999999999999886
21
-104.25
0
ARC
8
BLACK
10
128.4499999999999886
20
-97.
40
1.
50
-180.00000000
51
-90.00000000
0
ARC
8
BLACK
10
139.6999999999999886
20
-99.
40
1.
50
0.00000000
51
90.00000000
0
ARC
8
BLACK
10
126.6999999999999886
20
-89.25
40
1.
50
-90.00000000
51
-0.00000000
0
LINE
8
BLACK
6
CONTINUOUS
10
141.9499999999999886
20
-87.75
11
128.6999999999999886
21
-87.75
0
LINE
8
BLACK
6
CONTINUOUS
10
128.4499999999999886
20
-98.
11
139.6999999999999886
21
-98.
0
ARC
8
BLACK
10
126.4499999999999886
20
-96.
40
1.
50
0.00000000
51
90.00000000
0
ARC
8
BLACK
10
143.9499999999999886
20
-89.25
40
1.
50
-180.00000000
51
-90.00000000
0
LINE
8
BLACK
6
CONTINUOUS
10
126.4499999999999886
20
-95.
11
126.1499999999999915
21
-95.
0
ARC
8
BLACK
10
141.9499999999999886
20
-88.75
40
1.
50
0.00000000
51
90.00000000
0
LINE
8
BLACK
6
CONTINUOUS
10
140.6999999999999886
20
-99.
11
140.6999999999999886
21
-103.25
0
ARC
8
BLACK
10
143.1999999999999886
20
-103.25
40
1.
50
-90.00000000
51
-0.00000000
0
LINE
8
BLACK
6
CONTINUOUS
10
126.6999999999999886
20
-90.25
11
124.8999999999999915
21
-90.25
0
ARC
8
BLACK
10
141.6999999999999886
20
-103.25
40
1.
50
-180.00000000
51
-90.00000000
0
LINE
8
BLACK
6
CONTINUOUS
10
142.9499999999999886
20
-88.75
11
142.9499999999999886
21
-89.25
0
ARC
8
BLACK
10
163.
20
-89.25
40
1.
50
-180.00000000
51
-90.00000000
0
ARC
8
BLACK
10
145.5
20
-96.
40
1.
50
0.00000000
51
90.00000000
0
ARC
8
BLACK
10
160.75
20
-103.25
40
1.
50
-180.00000000
51
-90.00000000
0
ARC
8
BLACK
10
145.75
20
-89.25
40
1.
50
-90.00000000
51
-0.00000000
0
LINE
8
BLACK
6
CONTINUOUS
10
146.5
20
-96.
11
146.5
21
-97.
0
ARC
8
BLACK
10
162.25
20
-103.25
40
1.
50
-90.00000000
51
-0.00000000
0
ARC
8
BLACK
10
147.5
20
-97.
40
1.
50
-180.00000000
51
-90.00000000
0
LINE
8
BLACK
6
CONTINUOUS
10
163.25
20
-96.
11
163.25
21
-103.25
0
LINE
8
BLACK
6
CONTINUOUS
10
160.75
20
-104.25
11
162.25
21
-104.25
0
LINE
8
BLACK
6
CONTINUOUS
10
161.
20
-87.75
11
147.75
21
-87.75
0
LINE
8
BLACK
6
CONTINUOUS
10
147.5
20
-98.
11
158.75
21
-98.
0
LINE
8
BLACK
6
CONTINUOUS
10
146.75
20
-88.75
11
146.75
21
-89.25
0
LINE
8
BLACK
6
CONTINUOUS
10
162.
20
-88.75
11
162.
21
-89.25
0
LINE
8
BLACK
6
CONTINUOUS
10
145.5
20
-95.
11
145.1999999999999886
21
-95.
0
ARC
8
BLACK
10
161.
20
-88.75
40
1.
50
0.00000000
51
90.00000000
0
LINE
8
BLACK
6
CONTINUOUS
10
145.75
20
-90.25
11
143.9499999999999886
21
-90.25
0
ARC
8
BLACK
10
158.75
20
-99.
40
1.
50
0.00000000
51
90.00000000
0
ARC
8
BLACK
10
145.1999999999999886
20
-96.
40
1.
50
90.00000000
51
180.00000000
0
LINE
8
BLACK
6
CONTINUOUS
10
159.75
20
-99.
11
159.75
21
-103.25
0
ARC
8
BLACK
10
147.75
20
-88.75
40
1.
50
90.00000000
51
180.00000000
0
ARC
8
BLACK
10
183.8499999999999943
20
-89.25
40
1.
50
-90.00000000
51
-0.00000000
0
ARC
8
BLACK
10
185.8499999999999943
20
-88.75
40
1.
50
90.00000000
51
180.00000000
0
LINE
8
BLACK
6
CONTINUOUS
10
183.5999999999999943
20
-95.
11
183.2999999999999829
21
-95.
0
LINE
8
BLACK
6
CONTINUOUS
10
185.5999999999999943
20
-98.
11
196.8499999999999943
21
-98.
0
ARC
8
BLACK
10
183.5999999999999943
20
-96.
40
1.
50
0.00000000
51
90.00000000
0
LINE
8
BLACK
6
CONTINUOUS
10
184.5999999999999943
20
-96.
11
184.5999999999999943
21
-97.
0
ARC
8
BLACK
10
200.3499999999999943
20
-103.25
40
1.
50
-90.00000000
51
-0.00000000
0
ARC
8
BLACK
10
198.8499999999999943
20
-103.25
40
1.
50
-180.00000000
51
-90.00000000
0
LINE
8
BLACK
6
CONTINUOUS
10
201.3499999999999943
20
-96.
11
201.3499999999999943
21
-103.25
0
LINE
8
BLACK
6
CONTINUOUS
10
184.8499999999999943
20
-88.75
11
184.8499999999999943
21
-89.25
0
LINE
8
BLACK
6
CONTINUOUS
10
200.0999999999999943
20
-88.75
11
200.0999999999999943
21
-89.25
0
ARC
8
BLACK
10
183.2999999999999829
20
-96.
40
1.
50
90.00000000
51
180.00000000
0
LINE
8
BLACK
6
CONTINUOUS
10
199.0999999999999943
20
-87.75
11
185.8499999999999943
21
-87.75
0
LINE
8
BLACK
6
CONTINUOUS
10
197.8499999999999943
20
-99.
11
197.8499999999999943
21
-103.25
0
ARC
8
BLACK
10
196.8499999999999943
20
-99.
40
1.
50
0.00000000
51
90.00000000
0
ARC
8
BLACK
10
199.0999999999999943
20
-88.75
40
1.
50
0.00000000
51
90.00000000
0
ARC
8
BLACK
10
201.0999999999999943
20
-89.25
40
1.
50
-180.00000000
51
-90.00000000
0
LINE
8
BLACK
6
CONTINUOUS
10
198.8499999999999943
20
-104.25
11
200.3499999999999943
21
-104.25
0
ARC
8
BLACK
10
185.5999999999999943
20
-97.
40
1.
50
-180.00000000
51
-90.00000000
0
LINE
8
BLACK
6
CONTINUOUS
10
183.8499999999999943
20
-90.25
11
182.0499999999999829
21
-90.25
0
ARC
8
BLACK
10
177.7999999999999829
20
-99.
40
1.
50
0.00000000
51
90.00000000
0
LINE
8
BLACK
6
CONTINUOUS
10
182.2999999999999829
20
-96.
11
182.2999999999999829
21
-103.25
0
ARC
8
BLACK
10
164.25
20
-96.
40
1.
50
90.00000000
51
180.00000000
0
LINE
8
BLACK
6
CONTINUOUS
10
179.7999999999999829
20
-104.25
11
181.2999999999999829
21
-104.25
0
ARC
8
BLACK
10
181.2999999999999829
20
-103.25
40
1.
50
-90.00000000
51
-0.00000000
0
LINE
8
BLACK
6
CONTINUOUS
10
165.7999999999999829
20
-88.75
11
165.7999999999999829
21
-89.25
0
ARC
8
BLACK
10
166.5499999999999829
20
-97.
40
1.
50
-180.00000000
51
-90.00000000
0
ARC
8
BLACK
10
166.7999999999999829
20
-88.75
40
1.
50
90.00000000
51
180.00000000
0
ARC
8
BLACK
10
164.5499999999999829
20
-96.
40
1.
50
0.00000000
51
90.00000000
0
ARC
8
BLACK
10
180.0499999999999829
20
-88.75
40
1.
50
0.00000000
51
90.00000000
0
LINE
8
BLACK
6
CONTINUOUS
10
164.5499999999999829
20
-95.
11
164.25
21
-95.
0
ARC
8
BLACK
10
164.7999999999999829
20
-89.25
40
1.
50
-90.00000000
51
-0.00000000
0
LINE
8
BLACK
6
CONTINUOUS
10
164.7999999999999829
20
-90.25
11
163.
21
-90.25
0
LINE
8
BLACK
6
CONTINUOUS
10
181.0499999999999829
20
-88.75
11
181.0499999999999829
21
-89.25
0
LINE
8
BLACK
6
CONTINUOUS
10
166.5499999999999829
20
-98.
11
177.7999999999999829
21
-98.
0
LINE
8
BLACK
6
CONTINUOUS
10
178.7999999999999829
20
-99.
11
178.7999999999999829
21
-103.25
0
LINE
8
BLACK
6
CONTINUOUS
10
180.0499999999999829
20
-87.75
11
166.7999999999999829
21
-87.75
0
ARC
8
BLACK
10
182.0499999999999829
20
-89.25
40
1.
50
-180.00000000
51
-90.00000000
0
LINE
8
BLACK
6
CONTINUOUS
10
165.5499999999999829
20
-96.
11
165.5499999999999829
21
-97.
0
ARC
8
BLACK
10
179.7999999999999829
20
-103.25
40
1.
50
-180.00000000
51
-90.00000000
0
ARC
8
BLACK
10
215.8999999999999773
20
-99.
40
1.
50
0.00000000
51
90.00000000
0
LINE
8
BLACK
6
CONTINUOUS
10
220.3999999999999773
20
-96.
11
220.3999999999999773
21
-103.25
0
ARC
8
BLACK
10
202.3499999999999943
20
-96.
40
1.
50
90.00000000
51
180.00000000
0
ARC
8
BLACK
10
204.6499999999999773
20
-97.
40
1.
50
-180.00000000
51
-90.00000000
0
LINE
8
BLACK
6
CONTINUOUS
10
217.8999999999999773
20
-104.25
11
219.3999999999999773
21
-104.25
0
ARC
8
BLACK
10
219.3999999999999773
20
-103.25
40
1.
50
-90.00000000
51
-0.00000000
0
LINE
8
BLACK
6
CONTINUOUS
10
203.8999999999999773
20
-88.75
11
203.8999999999999773
21
-89.25
0
ARC
8
BLACK
10
204.8999999999999773
20
-88.75
40
1.
50
90.00000000
51
180.00000000
0
ARC
8
BLACK
10
202.6499999999999773
20
-96.
40
1.
50
0.00000000
51
90.00000000
0
ARC
8
BLACK
10
218.1499999999999773
20
-88.75
40
1.
50
0.00000000
51
90.00000000
0
LINE
8
BLACK
6
CONTINUOUS
10
202.6499999999999773
20
-95.
11
202.3499999999999943
21
-95.
0
ARC
8
BLACK
10
202.8999999999999773
20
-89.25
40
1.
50
-90.00000000
51
-0.00000000
0
LINE
8
BLACK
6
CONTINUOUS
10
202.8999999999999773
20
-90.25
11
201.0999999999999943
21
-90.25
0
LINE
8
BLACK
6
CONTINUOUS
10
219.1499999999999773
20
-88.75
11
219.1499999999999773
21
-89.25
0
LINE
8
BLACK
6
CONTINUOUS
10
204.6499999999999773
20
-98.
11
215.8999999999999773
21
-98.
0
LINE
8
BLACK
6
CONTINUOUS
10
216.8999999999999773
20
-99.
11
216.8999999999999773
21
-103.25
0
LINE
8
BLACK
6
CONTINUOUS
10
218.1499999999999773
20
-87.75
11
204.8999999999999773
21
-87.75
0
ARC
8
BLACK
10
220.1499999999999773
20
-89.25
40
1.
50
-180.00000000
51
-90.00000000
0
LINE
8
BLACK
6
CONTINUOUS
10
203.6499999999999773
20
-96.
11
203.6499999999999773
21
-97.
0
ARC
8
BLACK
10
217.8999999999999773
20
-103.25
40
1.
50
-180.00000000
51
-90.00000000
0
ARC
8
BLACK
10
239.1999999999999886
20
-89.25
40
1.
50
-180.00000000
51
-90.00000000
0
LINE
8
BLACK
6
CONTINUOUS
10
221.9499999999999886
20
-90.25
11
220.1499999999999773
21
-90.25
0
ARC
8
BLACK
10
223.9499999999999886
20
-88.75
40
1.
50
90.00000000
51
180.00000000
0
ARC
8
BLACK
10
221.6999999999999886
20
-96.
40
1.
50
0.00000000
51
90.00000000
0
ARC
8
BLACK
10
221.9499999999999886
20
-89.25
40
1.
50
-90.00000000
51
-0.00000000
0
LINE
8
BLACK
6
CONTINUOUS
10
237.1999999999999886
20
-87.75
11
223.9499999999999886
21
-87.75
0
ARC
8
BLACK
10
234.9499999999999886
20
-99.
40
1.
50
0.00000000
51
90.00000000
0
ARC
8
BLACK
10
237.1999999999999886
20
-88.75
40
1.
50
0.00000000
51
90.00000000
0
LINE
8
BLACK
6
CONTINUOUS
10
222.9499999999999886
20
-88.75
11
222.9499999999999886
21
-89.25
0
LINE
8
BLACK
6
CONTINUOUS
10
221.6999999999999886
20
-95.
11
221.3999999999999773
21
-95.
0
ARC
8
BLACK
10
236.9499999999999886
20
-103.25
40
1.
50
-180.00000000
51
-90.00000000
0
LINE
8
BLACK
6
CONTINUOUS
10
222.6999999999999886
20
-96.
11
222.6999999999999886
21
-97.
0
ARC
8
BLACK
10
223.6999999999999886
20
-97.
40
1.
50
-180.00000000
51
-90.00000000
0
LINE
8
BLACK
6
CONTINUOUS
10
239.4499999999999886
20
-96.
11
239.4499999999999886
21
-103.25
0
ARC
8
BLACK
10
221.3999999999999773
20
-96.
40
1.
50
90.00000000
51
180.00000000
0
LINE
8
BLACK
6
CONTINUOUS
10
235.9499999999999886
20
-99.
11
235.9499999999999886
21
-103.25
0
LINE
8
BLACK
6
CONTINUOUS
10
238.1999999999999886
20
-88.75
11
238.1999999999999886
21
-89.25
0
LINE
8
BLACK
6
CONTINUOUS
10
236.9499999999999886
20
-104.25
11
238.4499999999999886
21
-104.25
0
ARC
8
BLACK
10
238.4499999999999886
20
-103.25
40
1.
50
-90.00000000
51
-0.00000000
0
LINE
8
BLACK
6
CONTINUOUS
10
223.6999999999999886
20
-98.
11
234.9499999999999886
21
-98.
0
LINE
8
BLACK
6
CONTINUOUS
10
241.
20
-90.25
11
239.1999999999999886
21
-90.25
0
ARC
8
BLACK
10
254.
20
-99.
40
1.
50
0.00000000
51
90.00000000
0
ARC
8
BLACK
10
243.
20
-88.75
40
1.
50
90.00000000
51
180.00000000
0
LINE
8
BLACK
6
CONTINUOUS
10
242.75
20
-98.
11
254.
21
-98.
0
LINE
8
BLACK
6
CONTINUOUS
10
255.
20
-99.
11
255.
21
-103.25
0
LINE
8
BLACK
6
CONTINUOUS
10
242.
20
-88.75
11
242.
21
-89.25
0
ARC
8
BLACK
10
256.25
20
-88.75
40
1.
50
0.00000000
51
90.00000000
0
ARC
8
BLACK
10
240.75
20
-96.
40
1.
50
0.00000000
51
90.00000000
0
LINE
8
BLACK
6
CONTINUOUS
10
240.75
20
-95.
11
240.4499999999999886
21
-95.
0
LINE
8
BLACK
6
CONTINUOUS
10
241.75
20
-96.
11
241.75
21
-97.
0
LINE
8
BLACK
6
CONTINUOUS
10
256.25
20
-87.75
11
243.
21
-87.75
0
ARC
8
BLACK
10
256.
20
-103.25
40
1.
50
-180.00000000
51
-90.00000000
0
ARC
8
BLACK
10
258.25
20
-89.25
40
1.
50
-180.00000000
51
-90.00000000
0
LINE
8
BLACK
6
CONTINUOUS
10
258.5
20
-96.
11
258.5
21
-103.25
0
ARC
8
BLACK
10
242.75
20
-97.
40
1.
50
-180.00000000
51
-90.00000000
0
ARC
8
BLACK
10
241.
20
-89.25
40
1.
50
-90.00000000
51
-0.00000000
0
LINE
8
BLACK
6
CONTINUOUS
10
256.
20
-104.25
11
257.5
21
-104.25
0
LINE
8
BLACK
6
CONTINUOUS
10
257.25
20
-88.75
11
257.25
21
-89.25
0
ARC
8
BLACK
10
257.5
20
-103.25
40
1.
50
-90.00000000
51
-0.00000000
0
ARC
8
BLACK
10
240.4499999999999886
20
-96.
40
1.
50
90.00000000
51
180.00000000
0
LINE
8
BLACK
6
CONTINUOUS
10
275.3000000000000114
20
-87.75
11
262.0500000000000114
21
-87.75
0
LINE
8
BLACK
6
CONTINUOUS
10
259.8000000000000114
20
-95.
11
259.5
21
-95.
0
ARC
8
BLACK
10
262.0500000000000114
20
-88.75
40
1.
50
90.00000000
51
180.00000000
0
ARC
8
BLACK
10
261.8000000000000114
20
-97.
40
1.
50
-180.00000000
51
-90.00000000
0
LINE
8
BLACK
6
CONTINUOUS
10
260.8000000000000114
20
-96.
11
260.8000000000000114
21
-97.
0
LINE
8
BLACK
6
CONTINUOUS
10
260.0500000000000114
20
-90.25
11
258.25
21
-90.25
0
LINE
8
BLACK
6
CONTINUOUS
10
274.0500000000000114
20
-99.
11
274.0500000000000114
21
-103.25
0
ARC
8
BLACK
10
277.3000000000000114
20
-89.25
40
1.
50
-180.00000000
51
-90.00000000
0
LINE
8
BLACK
6
CONTINUOUS
10
261.0500000000000114
20
-88.75
11
261.0500000000000114
21
-89.25
0
ARC
8
BLACK
10
275.0500000000000114
20
-103.25
40
1.
50
-180.00000000
51
-90.00000000
0
LINE
8
BLACK
6
CONTINUOUS
10
275.0500000000000114
20
-104.25
11
276.5500000000000114
21
-104.25
0
ARC
8
BLACK
10
260.0500000000000114
20
-89.25
40
1.
50
-90.00000000
51
-0.00000000
0
LINE
8
BLACK
6
CONTINUOUS
10
276.3000000000000114
20
-88.75
11
276.3000000000000114
21
-89.25
0
ARC
8
BLACK
10
273.0500000000000114
20
-99.
40
1.
50
0.00000000
51
90.00000000
0
ARC
8
BLACK
10
259.5
20
-96.
40
1.
50
90.00000000
51
180.00000000
0
ARC
8
BLACK
10
275.3000000000000114
20
-88.75
40
1.
50
0.00000000
51
90.00000000
0
LINE
8
BLACK
6
CONTINUOUS
10
261.8000000000000114
20
-98.
11
273.0500000000000114
21
-98.
0
ARC
8
BLACK
10
259.8000000000000114
20
-96.
40
1.
50
0.00000000
51
90.00000000
0
LINE
8
BLACK
6
CONTINUOUS
10
164.7999999999999829
20
-109.2999999999999972
11
163.
21
-109.2999999999999972
0
LINE
8
BLACK
6
CONTINUOUS
10
180.0499999999999829
20
-106.7999999999999972
11
166.7999999999999829
21
-106.7999999999999972
0
ARC
8
BLACK
10
164.5499999999999829
20
-115.0499999999999972
40
1.
50
0.00000000
51
90.00000000
0
LINE
8
BLACK
6
CONTINUOUS
10
165.7999999999999829
20
-107.7999999999999972
11
165.7999999999999829
21
-108.2999999999999972
0
LINE
8
BLACK
6
CONTINUOUS
10
164.5499999999999829
20
-114.0499999999999972
11
164.25
21
-114.0499999999999972
0
ARC
8
BLACK
10
177.7999999999999829
20
-118.0499999999999972
40
1.
50
0.00000000
51
90.00000000
0
ARC
8
BLACK
10
164.7999999999999829
20
-108.2999999999999972
40
1.
50
-90.00000000
51
-0.00000000
0
ARC
8
BLACK
10
166.7999999999999829
20
-107.7999999999999972
40
1.
50
90.00000000
51
180.00000000
0
ARC
8
BLACK
10
179.7999999999999829
20
-122.2999999999999972
40
1.
50
-180.00000000
51
-90.00000000
0
ARC
8
BLACK
10
180.0499999999999829
20
-107.7999999999999972
40
1.
50
0.00000000
51
90.00000000
0
LINE
8
BLACK
6
CONTINUOUS
10
165.5499999999999829
20
-115.0499999999999972
11
165.5499999999999829
21
-116.0499999999999972
0
ARC
8
BLACK
10
166.5499999999999829
20
-116.0499999999999972
40
1.
50
-180.00000000
51
-90.00000000
0
LINE
8
BLACK
6
CONTINUOUS
10
182.2999999999999829
20
-115.0499999999999972
11
182.2999999999999829
21
-122.2999999999999972
0
ARC
8
BLACK
10
164.25
20
-115.0499999999999972
40
1.
50
90.00000000
51
180.00000000
0
LINE
8
BLACK
6
CONTINUOUS
10
178.7999999999999829
20
-118.0499999999999972
11
178.7999999999999829
21
-122.2999999999999972
0
LINE
8
BLACK
6
CONTINUOUS
10
181.0499999999999829
20
-107.7999999999999972
11
181.0499999999999829
21
-108.2999999999999972
0
LINE
8
BLACK
6
CONTINUOUS
10
179.7999999999999829
20
-123.2999999999999972
11
181.2999999999999829
21
-123.2999999999999972
0
ARC
8
BLACK
10
181.2999999999999829
20
-122.2999999999999972
40
1.
50
-90.00000000
51
-0.00000000
0
ARC
8
BLACK
10
182.0499999999999829
20
-108.2999999999999972
40
1.
50
-180.00000000
51
-90.00000000
0
LINE
8
BLACK
6
CONTINUOUS
10
166.5499999999999829
20
-117.0499999999999972
11
177.7999999999999829
21
-117.0499999999999972
0
LINE
8
BLACK
6
CONTINUOUS
10
159.75
20
-118.0499999999999972
11
159.75
21
-122.2999999999999972
0
ARC
8
BLACK
10
145.5
20
-115.0499999999999972
40
1.
50
0.00000000
51
90.00000000
0
ARC
8
BLACK
10
161.
20
-107.7999999999999972
40
1.
50
0.00000000
51
90.00000000
0
ARC
8
BLACK
10
147.5
20
-116.0499999999999972
40
1.
50
-180.00000000
51
-90.00000000
0
LINE
8
BLACK
6
CONTINUOUS
10
147.5
20
-117.0499999999999972
11
158.75
21
-117.0499999999999972
0
LINE
8
BLACK
6
CONTINUOUS
10
160.75
20
-123.2999999999999972
11
162.25
21
-123.2999999999999972
0
LINE
8
BLACK
6
CONTINUOUS
10
162.
20
-107.7999999999999972
11
162.
21
-108.2999999999999972
0
LINE
8
BLACK
6
CONTINUOUS
10
146.5
20
-115.0499999999999972
11
146.5
21
-116.0499999999999972
0
ARC
8
BLACK
10
145.1999999999999886
20
-115.0499999999999972
40
1.
50
90.00000000
51
180.00000000
0
ARC
8
BLACK
10
145.75
20
-108.2999999999999972
40
1.
50
-90.00000000
51
-0.00000000
0
LINE
8
BLACK
6
CONTINUOUS
10
145.5
20
-114.0499999999999972
11
145.1999999999999886
21
-114.0499999999999972
0
ARC
8
BLACK
10
147.75
20
-107.7999999999999972
40
1.
50
90.00000000
51
180.00000000
0
ARC
8
BLACK
10
162.25
20
-122.2999999999999972
40
1.
50
-90.00000000
51
-0.00000000
0
LINE
8
BLACK
6
CONTINUOUS
10
145.75
20
-109.2999999999999972
11
143.9499999999999886
21
-109.2999999999999972
0
ARC
8
BLACK
10
163.
20
-108.2999999999999972
40
1.
50
-180.00000000
51
-90.00000000
0
ARC
8
BLACK
10
158.75
20
-118.0499999999999972
40
1.
50
0.00000000
51
90.00000000
0
LINE
8
BLACK
6
CONTINUOUS
10
161.
20
-106.7999999999999972
11
147.75
21
-106.7999999999999972
0
LINE
8
BLACK
6
CONTINUOUS
10
163.25
20
-115.0499999999999972
11
163.25
21
-122.2999999999999972
0
LINE
8
BLACK
6
CONTINUOUS
10
146.75
20
-107.7999999999999972
11
146.75
21
-108.2999999999999972
0
ARC
8
BLACK
10
160.75
20
-122.2999999999999972
40
1.
50
-180.00000000
51
-90.00000000
0
LINE
8
BLACK
6
CONTINUOUS
10
126.6999999999999886
20
-109.2999999999999972
11
124.8999999999999915
21
-109.2999999999999972
0
ARC
8
BLACK
10
128.6999999999999886
20
-107.7999999999999972
40
1.
50
90.00000000
51
180.00000000
0
LINE
8
BLACK
6
CONTINUOUS
10
141.9499999999999886
20
-106.7999999999999972
11
128.6999999999999886
21
-106.7999999999999972
0
LINE
8
BLACK
6
CONTINUOUS
10
127.6999999999999886
20
-107.7999999999999972
11
127.6999999999999886
21
-108.2999999999999972
0
LINE
8
BLACK
6
CONTINUOUS
10
141.6999999999999886
20
-123.2999999999999972
11
143.1999999999999886
21
-123.2999999999999972
0
ARC
8
BLACK
10
141.9499999999999886
20
-107.7999999999999972
40
1.
50
0.00000000
51
90.00000000
0
ARC
8
BLACK
10
143.1999999999999886
20
-122.2999999999999972
40
1.
50
-90.00000000
51
-0.00000000
0
LINE
8
BLACK
6
CONTINUOUS
10
144.1999999999999886
20
-115.0499999999999972
11
144.1999999999999886
21
-122.2999999999999972
0
LINE
8
BLACK
6
CONTINUOUS
10
128.4499999999999886
20
-117.0499999999999972
11
139.6999999999999886
21
-117.0499999999999972
0
ARC
8
BLACK
10
126.6999999999999886
20
-108.2999999999999972
40
1.
50
-90.00000000
51
-0.00000000
0
ARC
8
BLACK
10
128.4499999999999886
20
-116.0499999999999972
40
1.
50
-180.00000000
51
-90.00000000
0
LINE
8
BLACK
6
CONTINUOUS
10
126.4499999999999886
20
-114.0499999999999972
11
126.1499999999999915
21
-114.0499999999999972
0
ARC
8
BLACK
10
141.6999999999999886
20
-122.2999999999999972
40
1.
50
-180.00000000
51
-90.00000000
0
LINE
8
BLACK
6
CONTINUOUS
10
142.9499999999999886
20
-107.7999999999999972
11
142.9499999999999886
21
-108.2999999999999972
0
LINE
8
BLACK
6
CONTINUOUS
10
127.4499999999999886
20
-115.0499999999999972
11
127.4499999999999886
21
-116.0499999999999972
0
ARC
8
BLACK
10
126.4499999999999886
20
-115.0499999999999972
40
1.
50
0.00000000
51
90.00000000
0
ARC
8
BLACK
10
126.1499999999999915
20
-115.0499999999999972
40
1.
50
90.00000000
51
180.00000000
0
ARC
8
BLACK
10
143.9499999999999886
20
-108.2999999999999972
40
1.
50
-180.00000000
51
-90.00000000
0
LINE
8
BLACK
6
CONTINUOUS
10
140.6999999999999886
20
-118.0499999999999972
11
140.6999999999999886
21
-122.2999999999999972
0
ARC
8
BLACK
10
139.6999999999999886
20
-118.0499999999999972
40
1.
50
0.00000000
51
90.00000000
0
LINE
8
BLACK
6
CONTINUOUS
10
121.6499999999999915
20
-118.0499999999999972
11
121.6499999999999915
21
-122.2999999999999972
0
LINE
8
BLACK
6
CONTINUOUS
10
107.6499999999999915
20
-109.2999999999999972
11
105.8499999999999943
21
-109.2999999999999972
0
ARC
8
BLACK
10
124.8999999999999915
20
-108.2999999999999972
40
1.
50
-180.00000000
51
-90.00000000
0
LINE
8
BLACK
6
CONTINUOUS
10
108.3999999999999915
20
-115.0499999999999972
11
108.3999999999999915
21
-116.0499999999999972
0
ARC
8
BLACK
10
120.6499999999999915
20
-118.0499999999999972
40
1.
50
0.00000000
51
90.00000000
0
LINE
8
BLACK
6
CONTINUOUS
10
109.3999999999999915
20
-117.0499999999999972
11
120.6499999999999915
21
-117.0499999999999972
0
LINE
8
BLACK
6
CONTINUOUS
10
123.8999999999999915
20
-107.7999999999999972
11
123.8999999999999915
21
-108.2999999999999972
0
LINE
8
BLACK
6
CONTINUOUS
10
122.6499999999999915
20
-123.2999999999999972
11
124.1499999999999915
21
-123.2999999999999972
0
LINE
8
BLACK
6
CONTINUOUS
10
125.1499999999999915
20
-115.0499999999999972
11
125.1499999999999915
21
-122.2999999999999972
0
ARC
8
BLACK
10
109.3999999999999915
20
-116.0499999999999972
40
1.
50
-180.00000000
51
-90.00000000
0
ARC
8
BLACK
10
107.3999999999999915
20
-115.0499999999999972
40
1.
50
0.00000000
51
90.00000000
0
ARC
8
BLACK
10
124.1499999999999915
20
-122.2999999999999972
40
1.
50
-90.00000000
51
-0.00000000
0
ARC
8
BLACK
10
107.0999999999999943
20
-115.0499999999999972
40
1.
50
90.00000000
51
180.00000000
0
ARC
8
BLACK
10
107.6499999999999915
20
-108.2999999999999972
40
1.
50
-90.00000000
51
-0.00000000
0
ARC
8
BLACK
10
122.8999999999999915
20
-107.7999999999999972
40
1.
50
0.00000000
51
90.00000000
0
LINE
8
BLACK
6
CONTINUOUS
10
107.3999999999999915
20
-114.0499999999999972
11
107.0999999999999943
21
-114.0499999999999972
0
LINE
8
BLACK
6
CONTINUOUS
10
108.6499999999999915
20
-107.7999999999999972
11
108.6499999999999915
21
-108.2999999999999972
0
LINE
8
BLACK
6
CONTINUOUS
10
122.8999999999999915
20
-106.7999999999999972
11
109.6499999999999915
21
-106.7999999999999972
0
ARC
8
BLACK
10
122.6499999999999915
20
-122.2999999999999972
40
1.
50
-180.00000000
51
-90.00000000
0
ARC
8
BLACK
10
109.6499999999999915
20
-107.7999999999999972
40
1.
50
90.00000000
51
180.00000000
0
LINE
8
BLACK
6
CONTINUOUS
10
103.5999999999999943
20
-123.2999999999999972
11
105.0999999999999943
21
-123.2999999999999972
0
LINE
8
BLACK
6
CONTINUOUS
10
89.3499999999999943
20
-115.0499999999999972
11
89.3499999999999943
21
-116.0499999999999972
0
LINE
8
BLACK
6
CONTINUOUS
10
102.5999999999999943
20
-118.0499999999999972
11
102.5999999999999943
21
-122.2999999999999972
0
LINE
8
BLACK
6
CONTINUOUS
10
106.0999999999999943
20
-115.0499999999999972
11
106.0999999999999943
21
-122.2999999999999972
0
LINE
8
BLACK
6
CONTINUOUS
10
104.8499999999999943
20
-107.7999999999999972
11
104.8499999999999943
21
-108.2999999999999972
0
ARC
8
BLACK
10
105.8499999999999943
20
-108.2999999999999972
40
1.
50
-180.00000000
51
-90.00000000
0
ARC
8
BLACK
10
90.3499999999999943
20
-116.0499999999999972
40
1.
50
-180.00000000
51
-90.00000000
0
ARC
8
BLACK
10
90.5999999999999943
20
-107.7999999999999972
40
1.
50
90.00000000
51
180.00000000
0
ARC
8
BLACK
10
88.5999999999999943
20
-108.2999999999999972
40
1.
50
-90.00000000
51
-0.00000000
0
ARC
8
BLACK
10
101.5999999999999943
20
-118.0499999999999972
40
1.
50
0.00000000
51
90.00000000
0
LINE
8
BLACK
6
CONTINUOUS
10
90.3499999999999943
20
-117.0499999999999972
11
101.5999999999999943
21
-117.0499999999999972
0
ARC
8
BLACK
10
105.0999999999999943
20
-122.2999999999999972
40
1.
50
-90.00000000
51
-0.00000000
0
LINE
8
BLACK
6
CONTINUOUS
10
103.8499999999999943
20
-106.7999999999999972
11
90.5999999999999943
21
-106.7999999999999972
0
ARC
8
BLACK
10
103.8499999999999943
20
-107.7999999999999972
40
1.
50
0.00000000
51
90.00000000
0
ARC
8
BLACK
10
103.5999999999999943
20
-122.2999999999999972
40
1.
50
-180.00000000
51
-90.00000000
0
LINE
8
BLACK
6
CONTINUOUS
10
89.5999999999999943
20
-107.7999999999999972
11
89.5999999999999943
21
-108.2999999999999972
0
ARC
8
BLACK
10
88.3499999999999943
20
-115.0499999999999972
40
1.
50
0.00000000
51
90.00000000
0
LINE
8
BLACK
6
CONTINUOUS
10
103.5999999999999943
20
-142.3499999999999943
11
105.0999999999999943
21
-142.3499999999999943
0
LINE
8
BLACK
6
CONTINUOUS
10
102.5999999999999943
20
-137.0999999999999943
11
102.5999999999999943
21
-141.3499999999999943
0
LINE
8
BLACK
6
CONTINUOUS
10
89.3499999999999943
20
-134.0999999999999943
11
89.3499999999999943
21
-135.0999999999999943
0
LINE
8
BLACK
6
CONTINUOUS
10
106.0999999999999943
20
-134.0999999999999943
11
106.0999999999999943
21
-141.3499999999999943
0
ARC
8
BLACK
10
105.8499999999999943
20
-127.3499999999999943
40
1.
50
-180.00000000
51
-90.00000000
0
ARC
8
BLACK
10
90.3499999999999943
20
-135.0999999999999943
40
1.
50
-180.00000000
51
-90.00000000
0
ARC
8
BLACK
10
90.5999999999999943
20
-126.8499999999999943
40
1.
50
90.00000000
51
180.00000000
0
ARC
8
BLACK
10
88.3499999999999943
20
-134.0999999999999943
40
1.
50
0.00000000
51
90.00000000
0
ARC
8
BLACK
10
105.0999999999999943
20
-141.3499999999999943
40
1.
50
-90.00000000
51
-0.00000000
0
ARC
8
BLACK
10
103.8499999999999943
20
-126.8499999999999943
40
1.
50
0.00000000
51
90.00000000
0
ARC
8
BLACK
10
103.5999999999999943
20
-141.3499999999999943
40
1.
50
-180.00000000
51
-90.00000000
0
LINE
8
BLACK
6
CONTINUOUS
10
104.8499999999999943
20
-126.8499999999999943
11
104.8499999999999943
21
-127.3499999999999943
0
ARC
8
BLACK
10
101.5999999999999943
20
-137.0999999999999943
40
1.
50
0.00000000
51
90.00000000
0
LINE
8
BLACK
6
CONTINUOUS
10
89.5999999999999943
20
-126.8499999999999943
11
89.5999999999999943
21
-127.3499999999999943
0
LINE
8
BLACK
6
CONTINUOUS
10
103.8499999999999943
20
-125.8499999999999943
11
90.5999999999999943
21
-125.8499999999999943
0
LINE
8
BLACK
6
CONTINUOUS
10
90.3499999999999943
20
-136.0999999999999943
11
101.5999999999999943
21
-136.0999999999999943
0
LINE
8
BLACK
6
CONTINUOUS
10
108.3999999999999915
20
-134.0999999999999943
11
108.3999999999999915
21
-135.0999999999999943
0
LINE
8
BLACK
6
CONTINUOUS
10
125.1499999999999915
20
-134.0999999999999943
11
125.1499999999999915
21
-141.3499999999999943
0
LINE
8
BLACK
6
CONTINUOUS
10
122.6499999999999915
20
-142.3499999999999943
11
124.1499999999999915
21
-142.3499999999999943
0
LINE
8
BLACK
6
CONTINUOUS
10
123.8999999999999915
20
-126.8499999999999943
11
123.8999999999999915
21
-127.3499999999999943
0
LINE
8
BLACK
6
CONTINUOUS
10
109.3999999999999915
20
-136.0999999999999943
11
120.6499999999999915
21
-136.0999999999999943
0
ARC
8
BLACK
10
122.8999999999999915
20
-126.8499999999999943
40
1.
50
0.00000000
51
90.00000000
0
LINE
8
BLACK
6
CONTINUOUS
10
108.6499999999999915
20
-126.8499999999999943
11
108.6499999999999915
21
-127.3499999999999943
0
ARC
8
BLACK
10
107.6499999999999915
20
-127.3499999999999943
40
1.
50
-90.00000000
51
-0.00000000
0
LINE
8
BLACK
6
CONTINUOUS
10
107.3999999999999915
20
-133.0999999999999943
11
107.0999999999999943
21
-133.0999999999999943
0
ARC
8
BLACK
10
107.3999999999999915
20
-134.0999999999999943
40
1.
50
0.00000000
51
90.00000000
0
ARC
8
BLACK
10
124.8999999999999915
20
-127.3499999999999943
40
1.
50
-180.00000000
51
-90.00000000
0
ARC
8
BLACK
10
109.3999999999999915
20
-135.0999999999999943
40
1.
50
-180.00000000
51
-90.00000000
0
LINE
8
BLACK
6
CONTINUOUS
10
121.6499999999999915
20
-137.0999999999999943
11
121.6499999999999915
21
-141.3499999999999943
0
ARC
8
BLACK
10
122.6499999999999915
20
-141.3499999999999943
40
1.
50
-180.00000000
51
-90.00000000
0
ARC
8
BLACK
10
109.6499999999999915
20
-126.8499999999999943
40
1.
50
90.00000000
51
180.00000000
0
LINE
8
BLACK
6
CONTINUOUS
10
122.8999999999999915
20
-125.8499999999999943
11
109.6499999999999915
21
-125.8499999999999943
0
ARC
8
BLACK
10
120.6499999999999915
20
-137.0999999999999943
40
1.
50
0.00000000
51
90.00000000
0
ARC
8
BLACK
10
107.0999999999999943
20
-134.0999999999999943
40
1.
50
90.00000000
51
180.00000000
0
LINE
8
BLACK
6
CONTINUOUS
10
107.6499999999999915
20
-128.3499999999999943
11
105.8499999999999943
21
-128.3499999999999943
0
ARC
8
BLACK
10
124.1499999999999915
20
-141.3499999999999943
40
1.
50
-90.00000000
51
-0.00000000
0
LINE
8
BLACK
6
CONTINUOUS
10
127.4499999999999886
20
-134.0999999999999943
11
127.4499999999999886
21
-135.0999999999999943
0
LINE
8
BLACK
6
CONTINUOUS
10
126.6999999999999886
20
-128.3499999999999943
11
124.8999999999999915
21
-128.3499999999999943
0
ARC
8
BLACK
10
126.1499999999999915
20
-134.0999999999999943
40
1.
50
90.00000000
51
180.00000000
0
LINE
8
BLACK
6
CONTINUOUS
10
126.4499999999999886
20
-133.0999999999999943
11
126.1499999999999915
21
-133.0999999999999943
0
ARC
8
BLACK
10
128.6999999999999886
20
-126.8499999999999943
40
1.
50
90.00000000
51
180.00000000
0
ARC
8
BLACK
10
141.9499999999999886
20
-126.8499999999999943
40
1.
50
0.00000000
51
90.00000000
0
ARC
8
BLACK
10
126.4499999999999886
20
-134.0999999999999943
40
1.
50
0.00000000
51
90.00000000
0
ARC
8
BLACK
10
143.1999999999999886
20
-141.3499999999999943
40
1.
50
-90.00000000
51
-0.00000000
0
LINE
8
BLACK
6
CONTINUOUS
10
141.6999999999999886
20
-142.3499999999999943
11
143.1999999999999886
21
-142.3499999999999943
0
ARC
8
BLACK
10
141.6999999999999886
20
-141.3499999999999943
40
1.
50
-180.00000000
51
-90.00000000
0
LINE
8
BLACK
6
CONTINUOUS
10
142.9499999999999886
20
-126.8499999999999943
11
142.9499999999999886
21
-127.3499999999999943
0
LINE
8
BLACK
6
CONTINUOUS
10
140.6999999999999886
20
-137.0999999999999943
11
140.6999999999999886
21
-141.3499999999999943
0
LINE
8
BLACK
6
CONTINUOUS
10
141.9499999999999886
20
-125.8499999999999943
11
128.6999999999999886
21
-125.8499999999999943
0
LINE
8
BLACK
6
CONTINUOUS
10
127.6999999999999886
20
-126.8499999999999943
11
127.6999999999999886
21
-127.3499999999999943
0
LINE
8
BLACK
6
CONTINUOUS
10
144.1999999999999886
20
-134.0999999999999943
11
144.1999999999999886
21
-141.3499999999999943
0
ARC
8
BLACK
10
126.6999999999999886
20
-127.3499999999999943
40
1.
50
-90.00000000
51
-0.00000000
0
ARC
8
BLACK
10
128.4499999999999886
20
-135.0999999999999943
40
1.
50
-180.00000000
51
-90.00000000
0
ARC
8
BLACK
10
143.9499999999999886
20
-127.3499999999999943
40
1.
50
-180.00000000
51
-90.00000000
0
LINE
8
BLACK
6
CONTINUOUS
10
128.4499999999999886
20
-136.0999999999999943
11
139.6999999999999886
21
-136.0999999999999943
0
ARC
8
BLACK
10
139.6999999999999886
20
-137.0999999999999943
40
1.
50
0.00000000
51
90.00000000
0
LINE
8
BLACK
6
CONTINUOUS
10
146.5
20
-134.0999999999999943
11
146.5
21
-135.0999999999999943
0
ARC
8
BLACK
10
145.5
20
-134.0999999999999943
40
1.
50
0.00000000
51
90.00000000
0
ARC
8
BLACK
10
160.75
20
-141.3499999999999943
40
1.
50
-180.00000000
51
-90.00000000
0
LINE
8
BLACK
6
CONTINUOUS
10
163.25
20
-134.0999999999999943
11
163.25
21
-141.3499999999999943
0
ARC
8
BLACK
10
158.75
20
-137.0999999999999943
40
1.
50
0.00000000
51
90.00000000
0
LINE
8
BLACK
6
CONTINUOUS
10
145.5
20
-133.0999999999999943
11
145.1999999999999886
21
-133.0999999999999943
0
ARC
8
BLACK
10
145.75
20
-127.3499999999999943
40
1.
50
-90.00000000
51
-0.00000000
0
ARC
8
BLACK
10
147.75
20
-126.8499999999999943
40
1.
50
90.00000000
51
180.00000000
0
LINE
8
BLACK
6
CONTINUOUS
10
159.75
20
-137.0999999999999943
11
159.75
21
-141.3499999999999943
0
LINE
8
BLACK
6
CONTINUOUS
10
147.5
20
-136.0999999999999943
11
158.75
21
-136.0999999999999943
0
ARC
8
BLACK
10
161.
20
-126.8499999999999943
40
1.
50
0.00000000
51
90.00000000
0
LINE
8
BLACK
6
CONTINUOUS
10
160.75
20
-142.3499999999999943
11
162.25
21
-142.3499999999999943
0
ARC
8
BLACK
10
147.5
20
-135.0999999999999943
40
1.
50
-180.00000000
51
-90.00000000
0
ARC
8
BLACK
10
145.1999999999999886
20
-134.0999999999999943
40
1.
50
90.00000000
51
180.00000000
0
LINE
8
BLACK
6
CONTINUOUS
10
161.
20
-125.8499999999999943
11
147.75
21
-125.8499999999999943
0
LINE
8
BLACK
6
CONTINUOUS
10
146.75
20
-126.8499999999999943
11
146.75
21
-127.3499999999999943
0
LINE
8
BLACK
6
CONTINUOUS
10
162.
20
-126.8499999999999943
11
162.
21
-127.3499999999999943
0
ARC
8
BLACK
10
162.25
20
-141.3499999999999943
40
1.
50
-90.00000000
51
-0.00000000
0
ARC
8
BLACK
10
163.
20
-127.3499999999999943
40
1.
50
-180.00000000
51
-90.00000000
0
LINE
8
BLACK
6
CONTINUOUS
10
145.75
20
-128.3499999999999943
11
143.9499999999999886
21
-128.3499999999999943
0
ARC
8
BLACK
10
180.0499999999999829
20
-126.8499999999999943
40
1.
50
0.00000000
51
90.00000000
0
LINE
8
BLACK
6
CONTINUOUS
10
178.7999999999999829
20
-137.0999999999999943
11
178.7999999999999829
21
-141.3499999999999943
0
LINE
8
BLACK
6
CONTINUOUS
10
181.0499999999999829
20
-126.8499999999999943
11
181.0499999999999829
21
-127.3499999999999943
0
LINE
8
BLACK
6
CONTINUOUS
10
182.2999999999999829
20
-134.0999999999999943
11
182.2999999999999829
21
-141.3499999999999943
0
ARC
8
BLACK
10
177.7999999999999829
20
-137.0999999999999943
40
1.
50
0.00000000
51
90.00000000
0
LINE
8
BLACK
6
CONTINUOUS
10
179.7999999999999829
20
-142.3499999999999943
11
181.2999999999999829
21
-142.3499999999999943
0
ARC
8
BLACK
10
164.5499999999999829
20
-134.0999999999999943
40
1.
50
0.00000000
51
90.00000000
0
LINE
8
BLACK
6
CONTINUOUS
10
165.5499999999999829
20
-134.0999999999999943
11
165.5499999999999829
21
-135.0999999999999943
0
ARC
8
BLACK
10
179.7999999999999829
20
-141.3499999999999943
40
1.
50
-180.00000000
51
-90.00000000
0
LINE
8
BLACK
6
CONTINUOUS
10
164.7999999999999829
20
-128.3499999999999943
11
163.
21
-128.3499999999999943
0
LINE
8
BLACK
6
CONTINUOUS
10
180.0499999999999829
20
-125.8499999999999943
11
166.7999999999999829
21
-125.8499999999999943
0
ARC
8
BLACK
10
166.5499999999999829
20
-135.0999999999999943
40
1.
50
-180.00000000
51
-90.00000000
0
ARC
8
BLACK
10
166.7999999999999829
20
-126.8499999999999943
40
1.
50
90.00000000
51
180.00000000
0
LINE
8
BLACK
6
CONTINUOUS
10
166.5499999999999829
20
-136.0999999999999943
11
177.7999999999999829
21
-136.0999999999999943
0
ARC
8
BLACK
10
164.25
20
-134.0999999999999943
40
1.
50
90.00000000
51
180.00000000
0
ARC
8
BLACK
10
181.2999999999999829
20
-141.3499999999999943
40
1.
50
-90.00000000
51
-0.00000000
0
LINE
8
BLACK
6
CONTINUOUS
10
164.5499999999999829
20
-133.0999999999999943
11
164.25
21
-133.0999999999999943
0
LINE
8
BLACK
6
CONTINUOUS
10
165.7999999999999829
20
-126.8499999999999943
11
165.7999999999999829
21
-127.3499999999999943
0
ARC
8
BLACK
10
182.0499999999999829
20
-127.3499999999999943
40
1.
50
-180.00000000
51
-90.00000000
0
ARC
8
BLACK
10
164.7999999999999829
20
-127.3499999999999943
40
1.
50
-90.00000000
51
-0.00000000
0
LINE
8
BLACK
6
CONTINUOUS
10
199.0999999999999943
20
-125.8499999999999943
11
185.8499999999999943
21
-125.8499999999999943
0
LINE
8
BLACK
6
CONTINUOUS
10
200.0999999999999943
20
-126.8499999999999943
11
200.0999999999999943
21
-127.3499999999999943
0
ARC
8
BLACK
10
185.5999999999999943
20
-135.0999999999999943
40
1.
50
-180.00000000
51
-90.00000000
0
LINE
8
BLACK
6
CONTINUOUS
10
183.5999999999999943
20
-133.0999999999999943
11
183.2999999999999829
21
-133.0999999999999943
0
ARC
8
BLACK
10
199.0999999999999943
20
-126.8499999999999943
40
1.
50
0.00000000
51
90.00000000
0
ARC
8
BLACK
10
195.3249999999999886
20
-137.0999999999999943
40
1.
50
0.00000000
51
90.00000000
0
ARC
8
BLACK
10
183.8499999999999943
20
-127.3499999999999943
40
1.
50
-90.00000000
51
-0.00000000
0
LINE
8
BLACK
6
CONTINUOUS
10
184.8499999999999943
20
-126.8499999999999943
11
184.8499999999999943
21
-127.3499999999999943
0
LINE
8
BLACK
6
CONTINUOUS
10
183.8499999999999943
20
-128.3499999999999943
11
182.0499999999999829
21
-128.3499999999999943
0
ARC
8
BLACK
10
183.5999999999999943
20
-134.0999999999999943
40
1.
50
0.00000000
51
90.00000000
0
ARC
8
BLACK
10
201.0999999999999943
20
-127.3499999999999943
40
1.
50
-180.00000000
51
-90.00000000
0
ARC
8
BLACK
10
183.2999999999999829
20
-134.0999999999999943
40
1.
50
90.00000000
51
180.00000000
0
LINE
8
BLACK
6
CONTINUOUS
10
196.3249999999999886
20
-137.0999999999999943
11
196.3249999999999886
21
-141.3499999999999943
0
LINE
8
BLACK
6
CONTINUOUS
10
184.5999999999999943
20
-134.0999999999999943
11
184.5999999999999943
21
-135.0999999999999943
0
LINE
8
BLACK
6
CONTINUOUS
10
203.8999999999999773
20
-126.8499999999999943
11
203.8999999999999773
21
-127.3499999999999943
0
ARC
8
BLACK
10
202.8999999999999773
20
-127.3499999999999943
40
1.
50
-90.00000000
51
-0.00000000
0
LINE
8
BLACK
6
CONTINUOUS
10
218.1499999999999773
20
-125.8499999999999943
11
204.8999999999999773
21
-125.8499999999999943
0
LINE
8
BLACK
6
CONTINUOUS
10
219.1499999999999773
20
-126.8499999999999943
11
219.1499999999999773
21
-127.3499999999999943
0
ARC
8
BLACK
10
204.8999999999999773
20
-126.8499999999999943
40
1.
50
90.00000000
51
180.00000000
0
LINE
8
BLACK
6
CONTINUOUS
10
223.6999999999999886
20
-136.0999999999999943
11
234.9499999999999886
21
-136.0999999999999943
0
ARC
8
BLACK
10
221.3999999999999773
20
-134.0999999999999943
40
1.
50
90.00000000
51
180.00000000
0
ARC
8
BLACK
10
223.6999999999999886
20
-135.0999999999999943
40
1.
50
-180.00000000
51
-90.00000000
0
ARC
8
BLACK
10
238.4498999999999853
20
-141.3499999999999943
40
1.0001
50
-89.99427063
51
-0.00000000
0
ARC
8
BLACK
10
237.1999999999999886
20
-126.8499999999999943
40
1.
50
0.00000000
51
90.00000000
0
ARC
8
BLACK
10
221.6999999999999886
20
-134.0999999999999943
40
1.
50
0.00000000
51
90.00000000
0
ARC
8
BLACK
10
234.9499999999999886
20
-137.0999999999999943
40
1.
50
0.00000000
51
90.00000000
0
LINE
8
BLACK
6
CONTINUOUS
10
221.9499999999999886
20
-128.3499999999999943
11
220.1499999999999773
21
-128.3499999999999943
0
LINE
8
BLACK
6
CONTINUOUS
10
222.6999999999999886
20
-134.0999999999999943
11
222.6999999999999886
21
-135.0999999999999943
0
LINE
8
BLACK
6
CONTINUOUS
10
235.9499999999999886
20
-137.0999999999999943
11
235.9499999999999886
21
-141.3499999999999943
0
LINE
8
BLACK
6
CONTINUOUS
10
239.4499999999999886
20
-134.0999999999999943
11
239.4499999999999886
21
-141.3499999999999943
0
LINE
8
BLACK
6
CONTINUOUS
10
222.9499999999999886
20
-126.8499999999999943
11
222.9499999999999886
21
-127.3499999999999943
0
ARC
8
BLACK
10
239.1999999999999886
20
-127.3499999999999943
40
1.
50
-180.00000000
51
-90.00000000
0
LINE
8
BLACK
6
CONTINUOUS
10
221.6999999999999886
20
-133.0999999999999943
11
221.3999999999999773
21
-133.0999999999999943
0
ARC
8
BLACK
10
236.9499999999999886
20
-141.3499999999999943
40
1.
50
-180.00000000
51
-90.00000000
0
ARC
8
BLACK
10
221.9499999999999886
20
-127.3499999999999943
40
1.
50
-90.00000000
51
-0.00000000
0
LINE
8
BLACK
6
CONTINUOUS
10
236.9499999999999886
20
-142.3499999999999943
11
238.4499999999999886
21
-142.3499999999999943
0
LINE
8
BLACK
6
CONTINUOUS
10
237.1999999999999886
20
-125.8499999999999943
11
223.9499999999999886
21
-125.8499999999999943
0
LINE
8
BLACK
6
CONTINUOUS
10
238.1999999999999886
20
-126.8499999999999943
11
238.1999999999999886
21
-127.3499999999999943
0
ARC
8
BLACK
10
223.9499999999999886
20
-126.8499999999999943
40
1.
50
90.00000000
51
180.00000000
0
LINE
8
BLACK
6
CONTINUOUS
10
242.
20
-126.8499999999999943
11
242.
21
-127.3499999999999943
0
LINE
8
BLACK
6
CONTINUOUS
10
241.75
20
-134.0999999999999943
11
241.75
21
-135.0999999999999943
0
LINE
8
BLACK
6
CONTINUOUS
10
241.
20
-128.3499999999999943
11
239.1999999999999886
21
-128.3499999999999943
0
ARC
8
BLACK
10
240.75
20
-134.0999999999999943
40
1.
50
0.00000000
51
90.00000000
0
LINE
8
BLACK
6
CONTINUOUS
10
240.75
20
-133.0999999999999943
11
240.4499999999999886
21
-133.0999999999999943
0
LINE
8
BLACK
6
CONTINUOUS
10
242.75
20
-136.0999999999999943
11
254.
21
-136.0999999999999943
0
LINE
8
BLACK
6
CONTINUOUS
10
257.25
20
-126.8499999999999943
11
257.25
21
-127.3499999999999943
0
LINE
8
BLACK
6
CONTINUOUS
10
258.5
20
-134.0999999999999943
11
258.5
21
-141.3499999999999943
0
ARC
8
BLACK
10
256.
20
-141.3499999999999943
40
1.
50
-180.00000000
51
-90.00000000
0
ARC
8
BLACK
10
258.25
20
-127.3499999999999943
40
1.
50
-180.00000000
51
-90.00000000
0
ARC
8
BLACK
10
240.4499999999999886
20
-134.0999999999999943
40
1.
50
90.00000000
51
180.00000000
0
LINE
8
BLACK
6
CONTINUOUS
10
255.
20
-137.0999999999999943
11
255.
21
-141.3499999999999943
0
LINE
8
BLACK
6
CONTINUOUS
10
256.
20
-142.3499999999999943
11
257.5
21
-142.3499999999999943
0
ARC
8
BLACK
10
257.5
20
-141.3499999999999943
40
1.
50
-90.00000000
51
-0.00000000
0
ARC
8
BLACK
10
256.25
20
-126.8499999999999943
40
1.
50
0.00000000
51
90.00000000
0
LINE
8
BLACK
6
CONTINUOUS
10
256.25
20
-125.8499999999999943
11
243.
21
-125.8499999999999943
0
ARC
8
BLACK
10
242.75
20
-135.0999999999999943
40
1.
50
-180.00000000
51
-90.00000000
0
ARC
8
BLACK
10
254.
20
-137.0999999999999943
40
1.
50
0.00000000
51
90.00000000
0
ARC
8
BLACK
10
241.
20
-127.3499999999999943
40
1.
50
-90.00000000
51
-0.00000000
0
ARC
8
BLACK
10
243.
20
-126.8499999999999943
40
1.
50
90.00000000
51
180.00000000
0
ARC
8
BLACK
10
259.5
20
-134.0999999999999943
40
1.
50
90.00000000
51
180.00000000
0
ARC
8
BLACK
10
275.3000000000000114
20
-126.8499999999999943
40
1.
50
0.00000000
51
90.00000000
0
ARC
8
BLACK
10
275.0500000000000114
20
-141.3499999999999943
40
1.
50
-180.00000000
51
-90.00000000
0
LINE
8
BLACK
6
CONTINUOUS
10
274.0500000000000114
20
-137.0999999999999943
11
274.0500000000000114
21
-141.3499999999999943
0
ARC
8
BLACK
10
260.0500000000000114
20
-127.3499999999999943
40
1.
50
-90.00000000
51
-0.00000000
0
LINE
8
BLACK
6
CONTINUOUS
10
275.3000000000000114
20
-125.8499999999999943
11
262.0500000000000114
21
-125.8499999999999943
0
LINE
8
BLACK
6
CONTINUOUS
10
276.3000000000000114
20
-126.8499999999999943
11
276.3000000000000114
21
-127.3499999999999943
0
LINE
8
BLACK
6
CONTINUOUS
10
260.0500000000000114
20
-128.3499999999999943
11
258.25
21
-128.3499999999999943
0
ARC
8
BLACK
10
277.3000000000000114
20
-127.3499999999999943
40
1.
50
-180.00000000
51
-90.00000000
0
LINE
8
BLACK
6
CONTINUOUS
10
261.0500000000000114
20
-126.8499999999999943
11
261.0500000000000114
21
-127.3499999999999943
0
ARC
8
BLACK
10
262.0500000000000114
20
-126.8499999999999943
40
1.
50
90.00000000
51
180.00000000
0
LINE
8
BLACK
6
CONTINUOUS
10
275.0500000000000114
20
-142.3499999999999943
11
276.5500000000000114
21
-142.3499999999999943
0
LINE
8
BLACK
6
CONTINUOUS
10
259.8000000000000114
20
-133.0999999999999943
11
259.5
21
-133.0999999999999943
0
LINE
8
BLACK
6
CONTINUOUS
10
260.8000000000000114
20
-134.0999999999999943
11
260.8000000000000114
21
-135.0999999999999943
0
LINE
8
BLACK
6
CONTINUOUS
10
261.8000000000000114
20
-136.0999999999999943
11
273.0500000000000114
21
-136.0999999999999943
0
ARC
8
BLACK
10
261.8000000000000114
20
-135.0999999999999943
40
1.
50
-180.00000000
51
-90.00000000
0
ARC
8
BLACK
10
259.8000000000000114
20
-134.0999999999999943
40
1.
50
0.00000000
51
90.00000000
0
ARC
8
BLACK
10
273.0500000000000114
20
-137.0999999999999943
40
1.
50
0.00000000
51
90.00000000
0
ARC
8
BLACK
10
87.3999999999999915
20
-91.25
40
1.
50
90.00000000
51
180.00000000
0
ARC
8
BLACK
10
87.3999999999999915
20
-94.
40
1.
50
-180.00000000
51
-90.00000000
0
LINE
8
BLACK
6
CONTINUOUS
10
88.5999999999999943
20
-90.25
11
87.3999999999999915
21
-90.25
0
LINE
8
BLACK
6
CONTINUOUS
10
86.3999999999999915
20
-94.
11
86.3999999999999915
21
-91.25
0
LINE
8
BLACK
6
CONTINUOUS
10
88.3499999999999943
20
-95.
11
87.3999999999999915
21
-95.
0
ARC
8
BLACK
10
87.3999999999999915
20
-113.0499999999999972
40
1.
50
-180.00000000
51
-90.00000000
0
ARC
8
BLACK
10
87.3999999999999915
20
-110.2999999999999972
40
1.
50
90.00000000
51
180.00000000
0
LINE
8
BLACK
6
CONTINUOUS
10
88.5999999999999943
20
-109.2999999999999972
11
87.3999999999999915
21
-109.2999999999999972
0
LINE
8
BLACK
6
CONTINUOUS
10
88.3499999999999943
20
-114.0499999999999972
11
87.3999999999999915
21
-114.0499999999999972
0
LINE
8
BLACK
6
CONTINUOUS
10
86.3999999999999915
20
-113.0499999999999972
11
86.3999999999999915
21
-110.2999999999999972
0
ARC
8
BLACK
10
87.3999999999999915
20
-132.0999999999999943
40
1.
50
-180.00000000
51
-90.00000000
0
ARC
8
BLACK
10
87.3999999999999915
20
-129.3499999999999943
40
1.
50
90.00000000
51
180.00000000
0
LINE
8
BLACK
6
CONTINUOUS
10
197.8499999999999943
20
-118.0499999999999972
11
197.8499999999999943
21
-122.2999999999999972
0
ARC
8
BLACK
10
183.5999999999999943
20
-115.0499999999999972
40
1.
50
0.00000000
51
90.00000000
0
ARC
8
BLACK
10
199.0999999999999943
20
-107.7999999999999972
40
1.
50
0.00000000
51
90.00000000
0
ARC
8
BLACK
10
185.5999999999999943
20
-116.0499999999999972
40
1.
50
-180.00000000
51
-90.00000000
0
LINE
8
BLACK
6
CONTINUOUS
10
198.8499999999999943
20
-123.2999999999999972
11
200.3499999999999943
21
-123.2999999999999972
0
LINE
8
BLACK
6
CONTINUOUS
10
184.5999999999999943
20
-115.0499999999999972
11
184.5999999999999943
21
-116.0499999999999972
0
ARC
8
BLACK
10
183.2999999999999829
20
-115.0499999999999972
40
1.
50
90.00000000
51
180.00000000
0
ARC
8
BLACK
10
183.8499999999999943
20
-108.2999999999999972
40
1.
50
-90.00000000
51
-0.00000000
0
LINE
8
BLACK
6
CONTINUOUS
10
183.5999999999999943
20
-114.0499999999999972
11
183.2999999999999829
21
-114.0499999999999972
0
ARC
8
BLACK
10
185.8499999999999943
20
-107.7999999999999972
40
1.
50
90.00000000
51
180.00000000
0
LINE
8
BLACK
6
CONTINUOUS
10
200.0999999999999943
20
-107.7999999999999972
11
200.0999999999999943
21
-108.2999999999999972
0
ARC
8
BLACK
10
200.3499999999999943
20
-122.2999999999999972
40
1.
50
-90.00000000
51
-0.00000000
0
LINE
8
BLACK
6
CONTINUOUS
10
183.8499999999999943
20
-109.2999999999999972
11
182.0499999999999829
21
-109.2999999999999972
0
ARC
8
BLACK
10
196.8499999999999943
20
-118.0499999999999972
40
1.
50
0.00000000
51
90.00000000
0
LINE
8
BLACK
6
CONTINUOUS
10
199.0999999999999943
20
-106.7999999999999972
11
185.8499999999999943
21
-106.7999999999999972
0
LINE
8
BLACK
6
CONTINUOUS
10
185.5999999999999943
20
-117.0499999999999972
11
196.8499999999999943
21
-117.0499999999999972
0
LINE
8
BLACK
6
CONTINUOUS
10
201.3499999999999943
20
-115.0499999999999972
11
201.3499999999999943
21
-122.2999999999999972
0
ARC
8
BLACK
10
201.0999999999999943
20
-108.2999999999999972
40
1.
50
-180.00000000
51
-90.00000000
0
LINE
8
BLACK
6
CONTINUOUS
10
184.8499999999999943
20
-107.7999999999999972
11
184.8499999999999943
21
-108.2999999999999972
0
ARC
8
BLACK
10
198.8499999999999943
20
-122.2999999999999972
40
1.
50
-180.00000000
51
-90.00000000
0
LINE
8
BLACK
6
CONTINUOUS
10
202.6499999999999773
20
-114.0499999999999972
11
202.3499999999999943
21
-114.0499999999999972
0
ARC
8
BLACK
10
204.8999999999999773
20
-107.7999999999999972
40
1.
50
90.00000000
51
180.00000000
0
LINE
8
BLACK
6
CONTINUOUS
10
220.3999999999999773
20
-115.0499999999999972
11
220.3999999999999773
21
-122.2999999999999972
0
LINE
8
BLACK
6
CONTINUOUS
10
218.1499999999999773
20
-106.7999999999999972
11
204.8999999999999773
21
-106.7999999999999972
0
ARC
8
BLACK
10
218.1499999999999773
20
-107.7999999999999972
40
1.
50
0.00000000
51
90.00000000
0
LINE
8
BLACK
6
CONTINUOUS
10
204.6499999999999773
20
-117.0499999999999972
11
215.8999999999999773
21
-117.0499999999999972
0
ARC
8
BLACK
10
202.8999999999999773
20
-108.2999999999999972
40
1.
50
-90.00000000
51
-0.00000000
0
LINE
8
BLACK
6
CONTINUOUS
10
217.8999999999999773
20
-123.2999999999999972
11
219.3999999999999773
21
-123.2999999999999972
0
LINE
8
BLACK
6
CONTINUOUS
10
203.6499999999999773
20
-115.0499999999999972
11
203.6499999999999773
21
-116.0499999999999972
0
ARC
8
BLACK
10
220.1499999999999773
20
-108.2999999999999972
40
1.
50
-180.00000000
51
-90.00000000
0
ARC
8
BLACK
10
217.8999999999999773
20
-122.2999999999999972
40
1.
50
-180.00000000
51
-90.00000000
0
LINE
8
BLACK
6
CONTINUOUS
10
203.8999999999999773
20
-107.7999999999999972
11
203.8999999999999773
21
-108.2999999999999972
0
ARC
8
BLACK
10
219.3999999999999773
20
-122.2999999999999972
40
1.
50
-90.00000000
51
-0.00000000
0
LINE
8
BLACK
6
CONTINUOUS
10
219.1499999999999773
20
-107.7999999999999972
11
219.1499999999999773
21
-108.2999999999999972
0
ARC
8
BLACK
10
202.6499999999999773
20
-115.0499999999999972
40
1.
50
0.00000000
51
90.00000000
0
ARC
8
BLACK
10
202.3499999999999943
20
-115.0499999999999972
40
1.
50
90.00000000
51
180.00000000
0
ARC
8
BLACK
10
204.6499999999999773
20
-116.0499999999999972
40
1.
50
-180.00000000
51
-90.00000000
0
LINE
8
BLACK
6
CONTINUOUS
10
216.8999999999999773
20
-118.0499999999999972
11
216.8999999999999773
21
-122.2999999999999972
0
LINE
8
BLACK
6
CONTINUOUS
10
202.8999999999999773
20
-109.2999999999999972
11
201.0999999999999943
21
-109.2999999999999972
0
ARC
8
BLACK
10
215.8999999999999773
20
-118.0499999999999972
40
1.
50
0.00000000
51
90.00000000
0
ARC
8
BLACK
10
221.9499999999999886
20
-108.2999999999999972
40
1.
50
-90.00000000
51
-0.00000000
0
ARC
8
BLACK
10
234.9499999999999886
20
-118.0499999999999972
40
1.
50
0.00000000
51
90.00000000
0
LINE
8
BLACK
6
CONTINUOUS
10
236.9499999999999886
20
-123.2999999999999972
11
238.4499999999999886
21
-123.2999999999999972
0
LINE
8
BLACK
6
CONTINUOUS
10
235.9499999999999886
20
-118.0499999999999972
11
235.9499999999999886
21
-122.2999999999999972
0
LINE
8
BLACK
6
CONTINUOUS
10
222.9499999999999886
20
-107.7999999999999972
11
222.9499999999999886
21
-108.2999999999999972
0
ARC
8
BLACK
10
223.9499999999999886
20
-107.7999999999999972
40
1.
50
90.00000000
51
180.00000000
0
ARC
8
BLACK
10
236.9499999999999886
20
-122.2999999999999972
40
1.
50
-180.00000000
51
-90.00000000
0
ARC
8
BLACK
10
238.4499999999999886
20
-122.2999999999999972
40
1.
50
-90.00000000
51
-0.00000000
0
LINE
8
BLACK
6
CONTINUOUS
10
238.1999999999999886
20
-107.7999999999999972
11
238.1999999999999886
21
-108.2999999999999972
0
ARC
8
BLACK
10
221.3999999999999773
20
-115.0499999999999972
40
1.
50
90.00000000
51
180.00000000
0
ARC
8
BLACK
10
221.6999999999999886
20
-115.0499999999999972
40
1.
50
0.00000000
51
90.00000000
0
ARC
8
BLACK
10
239.1999999999999886
20
-108.2999999999999972
40
1.
50
-180.00000000
51
-90.00000000
0
ARC
8
BLACK
10
237.1999999999999886
20
-107.7999999999999972
40
1.
50
0.00000000
51
90.00000000
0
ARC
8
BLACK
10
223.6999999999999886
20
-116.0499999999999972
40
1.
50
-180.00000000
51
-90.00000000
0
LINE
8
BLACK
6
CONTINUOUS
10
223.6999999999999886
20
-117.0499999999999972
11
234.9499999999999886
21
-117.0499999999999972
0
LINE
8
BLACK
6
CONTINUOUS
10
222.6999999999999886
20
-115.0499999999999972
11
222.6999999999999886
21
-116.0499999999999972
0
LINE
8
BLACK
6
CONTINUOUS
10
239.4499999999999886
20
-115.0499999999999972
11
239.4499999999999886
21
-122.2999999999999972
0
LINE
8
BLACK
6
CONTINUOUS
10
221.6999999999999886
20
-114.0499999999999972
11
221.3999999999999773
21
-114.0499999999999972
0
LINE
8
BLACK
6
CONTINUOUS
10
221.9499999999999886
20
-109.2999999999999972
11
220.1499999999999773
21
-109.2999999999999972
0
LINE
8
BLACK
6
CONTINUOUS
10
237.1999999999999886
20
-106.7999999999999972
11
223.9499999999999886
21
-106.7999999999999972
0
LINE
8
BLACK
6
CONTINUOUS
10
241.75
20
-115.0499999999999972
11
241.75
21
-116.0499999999999972
0
LINE
8
BLACK
6
CONTINUOUS
10
256.25
20
-106.7999999999999972
11
243.
21
-106.7999999999999972
0
LINE
8
BLACK
6
CONTINUOUS
10
255.
20
-118.0499999999999972
11
255.
21
-122.2999999999999972
0
LINE
8
BLACK
6
CONTINUOUS
10
257.25
20
-107.7999999999999972
11
257.25
21
-108.2999999999999972
0
ARC
8
BLACK
10
256.
20
-122.2999999999999972
40
1.
50
-180.00000000
51
-90.00000000
0
ARC
8
BLACK
10
242.75
20
-116.0499999999999972
40
1.
50
-180.00000000
51
-90.00000000
0
LINE
8
BLACK
6
CONTINUOUS
10
258.5
20
-115.0499999999999972
11
258.5
21
-122.2999999999999972
0
ARC
8
BLACK
10
241.
20
-108.2999999999999972
40
1.
50
-90.00000000
51
-0.00000000
0
LINE
8
BLACK
6
CONTINUOUS
10
256.
20
-123.2999999999999972
11
257.5
21
-123.2999999999999972
0
ARC
8
BLACK
10
240.75
20
-115.0499999999999972
40
1.
50
0.00000000
51
90.00000000
0
ARC
8
BLACK
10
256.25
20
-107.7999999999999972
40
1.
50
0.00000000
51
90.00000000
0
LINE
8
BLACK
6
CONTINUOUS
10
242.75
20
-117.0499999999999972
11
254.
21
-117.0499999999999972
0
ARC
8
BLACK
10
243.
20
-107.7999999999999972
40
1.
50
90.00000000
51
180.00000000
0
LINE
8
BLACK
6
CONTINUOUS
10
242.
20
-107.7999999999999972
11
242.
21
-108.2999999999999972
0
ARC
8
BLACK
10
258.25
20
-108.2999999999999972
40
1.
50
-180.00000000
51
-90.00000000
0
LINE
8
BLACK
6
CONTINUOUS
10
240.75
20
-114.0499999999999972
11
240.4499999999999886
21
-114.0499999999999972
0
ARC
8
BLACK
10
257.5
20
-122.2999999999999972
40
1.
50
-90.00000000
51
-0.00000000
0
ARC
8
BLACK
10
254.
20
-118.0499999999999972
40
1.
50
0.00000000
51
90.00000000
0
ARC
8
BLACK
10
240.4499999999999886
20
-115.0499999999999972
40
1.
50
90.00000000
51
180.00000000
0
LINE
8
BLACK
6
CONTINUOUS
10
241.
20
-109.2999999999999972
11
239.1999999999999886
21
-109.2999999999999972
0
ARC
8
BLACK
10
275.0500000000000114
20
-122.2999999999999972
40
1.
50
-180.00000000
51
-90.00000000
0
ARC
8
BLACK
10
277.3000000000000114
20
-108.2999999999999972
40
1.
50
-180.00000000
51
-90.00000000
0
ARC
8
BLACK
10
262.0500000000000114
20
-107.7999999999999972
40
1.
50
90.00000000
51
180.00000000
0
ARC
8
BLACK
10
259.8000000000000114
20
-115.0499999999999972
40
1.
50
0.00000000
51
90.00000000
0
LINE
8
BLACK
6
CONTINUOUS
10
276.3000000000000114
20
-107.7999999999999972
11
276.3000000000000114
21
-108.2999999999999972
0
LINE
8
BLACK
6
CONTINUOUS
10
260.8000000000000114
20
-115.0499999999999972
11
260.8000000000000114
21
-116.0499999999999972
0
LINE
8
BLACK
6
CONTINUOUS
10
261.8000000000000114
20
-117.0499999999999972
11
273.0500000000000114
21
-117.0499999999999972
0
LINE
8
BLACK
6
CONTINUOUS
10
275.3000000000000114
20
-106.7999999999999972
11
262.0500000000000114
21
-106.7999999999999972
0
ARC
8
BLACK
10
261.8000000000000114
20
-116.0499999999999972
40
1.
50
-180.00000000
51
-90.00000000
0
ARC
8
BLACK
10
260.0500000000000114
20
-108.2999999999999972
40
1.
50
-90.00000000
51
-0.00000000
0
ARC
8
BLACK
10
259.5
20
-115.0499999999999972
40
1.
50
90.00000000
51
180.00000000
0
LINE
8
BLACK
6
CONTINUOUS
10
260.0500000000000114
20
-109.2999999999999972
11
258.25
21
-109.2999999999999972
0
ARC
8
BLACK
10
273.0500000000000114
20
-118.0499999999999972
40
1.
50
0.00000000
51
90.00000000
0
LINE
8
BLACK
6
CONTINUOUS
10
274.0500000000000114
20
-118.0499999999999972
11
274.0500000000000114
21
-122.2999999999999972
0
LINE
8
BLACK
6
CONTINUOUS
10
259.8000000000000114
20
-114.0499999999999972
11
259.5
21
-114.0499999999999972
0
LINE
8
BLACK
6
CONTINUOUS
10
261.0500000000000114
20
-107.7999999999999972
11
261.0500000000000114
21
-108.2999999999999972
0
ARC
8
BLACK
10
275.3000000000000114
20
-107.7999999999999972
40
1.
50
0.00000000
51
90.00000000
0
LINE
8
BLACK
6
CONTINUOUS
10
275.0500000000000114
20
-123.2999999999999972
11
276.5500000000000114
21
-123.2999999999999972
0
ARC
8
BLACK
10
281.0999999999999659
20
-107.7999999999999972
40
1.
50
90.00000000
51
180.00000000
0
LINE
8
BLACK
6
CONTINUOUS
10
295.3499999999999659
20
-107.7999999999999972
11
295.3499999999999659
21
-108.2999999999999972
0
LINE
8
BLACK
6
CONTINUOUS
10
294.3499999999999659
20
-106.7999999999999972
11
281.0999999999999659
21
-106.7999999999999972
0
ARC
8
BLACK
10
294.3499999999999659
20
-107.7999999999999972
40
1.
50
0.00000000
51
90.00000000
0
ARC
8
BLACK
10
279.0999999999999659
20
-108.2999999999999972
40
1.
50
-90.00000000
51
-0.00000000
0
LINE
8
BLACK
6
CONTINUOUS
10
280.0999999999999659
20
-107.7999999999999972
11
280.0999999999999659
21
-108.2999999999999972
0
ARC
8
BLACK
10
281.9250000000000114
20
-122.2999999999999972
40
1.
50
-90.00000000
51
-0.00000000
0
LINE
8
BLACK
6
CONTINUOUS
10
282.9250000000000114
20
-118.0499999999999972
11
282.9250000000000114
21
-122.2999999999999972
0
ARC
8
BLACK
10
283.9250000000000114
20
-118.0499999999999972
40
1.
50
90.00000000
51
180.00000000
0
ARC
8
BLACK
10
294.3499999999999659
20
-116.0499999999999972
40
1.
50
-90.00000000
51
-0.00000000
0
LINE
8
BLACK
6
CONTINUOUS
10
295.3499999999999659
20
-108.2999999999999972
11
295.3499999999999659
21
-116.0499999999999972
0
LINE
8
BLACK
6
CONTINUOUS
10
294.3499999999999659
20
-117.0499999999999972
11
284.9250000000000114
21
-117.0499999999999972
0
LINE
8
BLACK
6
CONTINUOUS
10
79.8928999999999974
20
-123.2999999999999972
11
81.3928930000000008
21
-123.2999999999999972
0
LINE
8
BLACK
6
CONTINUOUS
10
62.375
20
-114.0499999999999972
11
62.0749999999999957
21
-114.0499999999999972
0
LINE
8
BLACK
6
CONTINUOUS
10
63.375
20
-115.0499999999999972
11
63.375
21
-116.0499999999999972
0
LINE
8
BLACK
6
CONTINUOUS
10
78.8928930000000008
20
-118.053740999999988
11
78.8928930000000008
21
-122.2999999999999972
0
LINE
8
BLACK
6
CONTINUOUS
10
78.875
20
-107.7999999999999972
11
78.875
21
-108.2999999999999972
0
ARC
8
BLACK
10
64.375
20
-116.0499999999999972
40
1.
50
-180.00000000
51
-90.00000000
0
ARC
8
BLACK
10
64.625
20
-107.7999999999999972
40
1.
50
90.00000000
51
180.00000000
0
ARC
8
BLACK
10
62.625
20
-108.2999999999999972
40
1.
50
-90.00000000
51
-0.00000000
0
ARC
8
BLACK
10
77.8928999999999974
20
-118.0499999999999972
40
1.
50
-0.21434401
51
90.00000000
0
LINE
8
BLACK
6
CONTINUOUS
10
64.375
20
-117.0499999999999972
11
75.625
21
-117.0499999999999972
0
ARC
8
BLACK
10
81.3928999999999974
20
-122.2999999999999972
40
0.9999929999999999
50
-90.00040107
51
-0.00000000
0
LINE
8
BLACK
6
CONTINUOUS
10
77.875
20
-106.7999999999999972
11
64.625
21
-106.7999999999999972
0
ARC
8
BLACK
10
77.875
20
-107.7999999999999972
40
1.
50
0.00000000
51
90.00000000
0
ARC
8
BLACK
10
79.8928999999999974
20
-122.2999999999999972
40
1.
50
-180.00000000
51
-90.00000000
0
LINE
8
BLACK
6
CONTINUOUS
10
63.625
20
-107.7999999999999972
11
63.625
21
-108.2999999999999972
0
ARC
8
BLACK
10
62.375
20
-115.0499999999999972
40
1.
50
0.00000000
51
90.00000000
0
ARC
8
BLACK
10
61.4249999999999972
20
-113.0499999999999972
40
1.
50
-180.00000000
51
-90.00000000
0
ARC
8
BLACK
10
61.4249999999999972
20
-110.2999999999999972
40
1.
50
90.00000000
51
180.00000000
0
LINE
8
BLACK
6
CONTINUOUS
10
60.4249999999999972
20
-113.0499999999999972
11
60.4249999999999972
21
-110.2999999999999972
0
LINE
8
BLACK
6
CONTINUOUS
10
62.625
20
-109.2999999999999972
11
61.4249999999999972
21
-109.2999999999999972
0
LINE
8
BLACK
6
CONTINUOUS
10
61.4249999999999972
20
-114.0499999999999972
11
62.0749999999999957
21
-114.0499999999999972
0
LINE
8
BLACK
6
CONTINUOUS
10
75.625
20
-117.0499999999999972
11
77.8928999999999974
21
-117.0499999999999972
0
ARC
8
BLACK
10
81.3928999999999974
20
-116.0499999999999972
40
1.
50
0.21434401
51
90.00000000
0
ARC
8
BLACK
10
79.8756999999999948
20
-114.051400000000001
40
0.9985999999999999
50
-180.17757955
51
-90.00000000
0
LINE
8
BLACK
6
CONTINUOUS
10
82.3928930000000008
20
-122.2999999999999972
11
82.3928930000000008
21
-116.0462589999999921
0
LINE
8
BLACK
6
CONTINUOUS
10
81.3928999999999974
20
-115.0499999999999972
11
79.8756999999999948
21
-115.0499999999999972
0
LINE
8
BLACK
6
CONTINUOUS
10
78.8771059999999977
20
-114.0483049999999992
11
78.875
21
-108.2999999999999972
0
LINE
8
BLACK
6
CONTINUOUS
10
78.8771059999999977
20
-133.0980270000000019
11
78.875
21
-127.3499999999999943
0
LINE
8
BLACK
6
CONTINUOUS
10
81.3928999999999974
20
-134.0999999999999943
11
79.8756999999999948
21
-134.0999999999999943
0
LINE
8
BLACK
6
CONTINUOUS
10
82.3928930000000008
20
-141.3499999999999943
11
82.3928930000000008
21
-135.0962590000000034
0
ARC
8
BLACK
10
79.8756999999999948
20
-133.1013999999999839
40
0.9985999999999999
50
-180.19353003
51
-90.00000000
0
LINE
8
BLACK
6
CONTINUOUS
10
62.625
20
-128.3499999999999943
11
61.4249999999999972
21
-128.3499999999999943
0
ARC
8
BLACK
10
61.4249999999999972
20
-132.0999999999999943
40
1.
50
-180.00000000
51
-90.00000000
0
ARC
8
BLACK
10
61.4249999999999972
20
-129.3499999999999943
40
1.
50
90.00000000
51
180.00000000
0
LINE
8
BLACK
6
CONTINUOUS
10
60.4249999999999972
20
-132.0999999999999943
11
60.4249999999999972
21
-129.3499999999999943
0
LINE
8
BLACK
6
CONTINUOUS
10
61.4249999999999972
20
-133.0999999999999943
11
62.0749999999999957
21
-133.0999999999999943
0
LINE
8
BLACK
6
CONTINUOUS
10
75.625
20
-136.0999999999999943
11
77.8928999999999974
21
-136.0999999999999943
0
LINE
8
BLACK
6
CONTINUOUS
10
63.375
20
-134.0999999999999943
11
63.375
21
-135.0999999999999943
0
LINE
8
BLACK
6
CONTINUOUS
10
62.375
20
-133.0999999999999943
11
62.0749999999999957
21
-133.0999999999999943
0
LINE
8
BLACK
6
CONTINUOUS
10
77.875
20
-125.8499999999999943
11
64.625
21
-125.8499999999999943
0
LINE
8
BLACK
6
CONTINUOUS
10
79.8928999999999974
20
-142.3499999999999943
11
81.3928930000000008
21
-142.3499999999999943
0
LINE
8
BLACK
6
CONTINUOUS
10
78.8928930000000008
20
-137.1037409999999852
11
78.8928930000000008
21
-141.3499999999999943
0
LINE
8
BLACK
6
CONTINUOUS
10
78.875
20
-126.8499999999999943
11
78.875
21
-127.3499999999999943
0
ARC
8
BLACK
10
64.375
20
-135.0999999999999943
40
1.
50
-180.00000000
51
-90.00000000
0
LINE
8
BLACK
6
CONTINUOUS
10
64.375
20
-136.0999999999999943
11
75.625
21
-136.0999999999999943
0
ARC
8
BLACK
10
64.625
20
-126.8499999999999943
40
1.
50
90.00000000
51
180.00000000
0
ARC
8
BLACK
10
77.8928999999999974
20
-137.0999999999999943
40
1.
50
-0.21434401
51
90.00000000
0
ARC
8
BLACK
10
81.3928999999999974
20
-141.3499999999999943
40
0.9999929999999999
50
-90.00040107
51
-0.00000000
0
ARC
8
BLACK
10
62.625
20
-127.3499999999999943
40
1.
50
-90.00000000
51
-0.00000000
0
ARC
8
BLACK
10
77.875
20
-126.8499999999999943
40
1.
50
0.00000000
51
90.00000000
0
ARC
8
BLACK
10
79.8928999999999974
20
-141.3499999999999943
40
1.
50
-180.00000000
51
-90.00000000
0
LINE
8
BLACK
6
CONTINUOUS
10
63.625
20
-126.8499999999999943
11
63.625
21
-127.3499999999999943
0
ARC
8
BLACK
10
62.375
20
-134.0999999999999943
40
1.
50
0.00000000
51
90.00000000
0
ARC
8
BLACK
10
81.3928999999999974
20
-135.0999999999999943
40
1.
50
0.21434401
51
90.00000000
0
LINE
8
BLACK
6
CONTINUOUS
10
98.5678999999999945
20
-153.1428929999999866
11
97.0521049999999974
21
-153.1428929999999866
0
LINE
8
BLACK
6
CONTINUOUS
10
99.5678909999999888
20
-160.3928999999999974
11
99.5678909999999888
21
-154.1372439999999813
0
ARC
8
BLACK
10
78.0570999999999913
20
-148.3928999999999974
40
0.9999929999999999
50
89.99959893
51
180.00000000
0
LINE
8
BLACK
6
CONTINUOUS
10
97.0678999999999945
20
-161.3928929999999866
11
98.5678999999999945
21
-161.3928929999999866
0
LINE
8
BLACK
6
CONTINUOUS
10
79.2520009999999928
20
-147.3928929999999866
11
78.057107000000002
21
-147.3928929999999866
0
LINE
8
BLACK
6
CONTINUOUS
10
77.057107000000002
20
-151.1428999999999974
11
77.057107000000002
21
-148.3928999999999974
0
ARC
8
BLACK
10
96.5077999999999889
20
-152.144299999999987
40
0.998593
50
-180.17758079
51
-90.00000000
0
LINE
8
BLACK
6
CONTINUOUS
10
78.0570999999999913
20
-152.1428929999999866
11
78.7071069999999935
21
-152.1428929999999866
0
LINE
8
BLACK
6
CONTINUOUS
10
79.0070999999999941
20
-152.1428929999999866
11
78.7071069999999935
21
-152.1428929999999866
0
LINE
8
BLACK
6
CONTINUOUS
10
95.5092130000000026
20
-152.1412049999999851
11
95.5071069999999906
21
-146.3928929999999866
0
LINE
8
BLACK
6
CONTINUOUS
10
96.0678909999999888
20
-156.148555999999985
11
96.0678909999999888
21
-160.3928929999999866
0
LINE
8
BLACK
6
CONTINUOUS
10
92.2571069999999906
20
-155.1428929999999866
11
94.5249999999999915
21
-155.1428929999999866
0
ARC
8
BLACK
10
78.0570999999999913
20
-151.1428999999999974
40
0.9999929999999999
50
-180.00000000
51
-90.00000000
0
LINE
8
BLACK
6
CONTINUOUS
10
94.5070999999999941
20
-144.8928929999999866
11
81.2571069999999906
21
-144.8928929999999866
0
LINE
8
BLACK
6
CONTINUOUS
10
95.5071069999999906
20
-145.8928999999999974
11
95.5071069999999906
21
-146.3928929999999866
0
LINE
8
BLACK
6
CONTINUOUS
10
80.0071069999999906
20
-153.1428999999999974
11
80.0071069999999906
21
-154.1428999999999974
0
ARC
8
BLACK
10
81.0070999999999941
20
-154.1428999999999974
40
0.9999929999999999
50
-180.00000000
51
-90.00000000
0
LINE
8
BLACK
6
CONTINUOUS
10
81.0070999999999941
20
-155.1428929999999866
11
92.2571069999999906
21
-155.1428929999999866
0
ARC
8
BLACK
10
81.2570999999999941
20
-145.8928999999999974
40
0.9999929999999999
50
89.99959893
51
180.00000000
0
ARC
8
BLACK
10
95.0678999999999945
20
-156.1428999999999974
40
1.0000069999999999
50
-0.32406439
51
90.00000000
0
ARC
8
BLACK
10
98.5678999999999945
20
-160.3928999999999974
40
0.999991
50
-90.00000000
51
-0.00000000
0
ARC
8
BLACK
10
79.2570999999999941
20
-146.3928999999999974
40
1.0000069999999999
50
-90.29215069
51
-0.00000000
0
ARC
8
BLACK
10
79.0070999999999941
20
-153.1428999999999974
40
1.0000069999999999
50
0.00000000
51
90.00000000
0
LINE
8
BLACK
6
CONTINUOUS
10
80.2571069999999906
20
-145.8928999999999974
11
80.2571069999999906
21
-146.3928999999999974
0
ARC
8
BLACK
10
98.5678999999999945
20
-154.1428999999999974
40
1.0000069999999999
50
0.32406439
51
90.00000000
0
ARC
8
BLACK
10
94.5070999999999941
20
-145.8928999999999974
40
1.0000069999999999
50
0.00000000
51
90.00000000
0
ARC
8
BLACK
10
97.0678999999999945
20
-160.3928999999999974
40
0.9999929999999999
50
-180.00040107
51
-90.00000000
0
LINE
8
BLACK
6
CONTINUOUS
10
96.5077999999999889
20
-153.1428929999999866
11
97.0521049999999974
21
-153.1428929999999866
0
LINE
8
BLACK
6
CONTINUOUS
10
94.5249999999999915
20
-155.1428929999999866
11
95.0678999999999945
21
-155.1428929999999866
0
LINE
8
BLACK
6
CONTINUOUS
10
128.1428909999999917
20
-160.3928999999999974
11
128.1428909999999917
21
-154.1372439999999813
0
LINE
8
BLACK
6
CONTINUOUS
10
120.8321069999999935
20
-155.1428929999999866
11
123.0999999999999943
21
-155.1428929999999866
0
ARC
8
BLACK
10
109.582099999999997
20
-154.1428999999999974
40
0.9999929999999999
50
-180.00000000
51
-90.00000000
0
LINE
8
BLACK
6
CONTINUOUS
10
107.8270009999999957
20
-147.3928929999999866
11
106.6321069999999906
21
-147.3928929999999866
0
ARC
8
BLACK
10
107.832099999999997
20
-146.3928999999999974
40
1.0000069999999999
50
-90.29215069
51
-0.00000000
0
ARC
8
BLACK
10
106.6320999999999941
20
-151.1428999999999974
40
0.9999929999999999
50
-180.00000000
51
-90.00000000
0
LINE
8
BLACK
6
CONTINUOUS
10
125.6428999999999974
20
-161.3928929999999866
11
127.1428999999999974
21
-161.3928929999999866
0
LINE
8
BLACK
6
CONTINUOUS
10
124.0821069999999935
20
-145.8928999999999974
11
124.0821069999999935
21
-146.3928929999999866
0
LINE
8
BLACK
6
CONTINUOUS
10
106.6320999999999941
20
-152.1428929999999866
11
107.2821069999999963
21
-152.1428929999999866
0
LINE
8
BLACK
6
CONTINUOUS
10
124.6428909999999917
20
-156.148555999999985
11
124.6428909999999917
21
-160.3928929999999866
0
LINE
8
BLACK
6
CONTINUOUS
10
109.582099999999997
20
-155.1428929999999866
11
120.8321069999999935
21
-155.1428929999999866
0
LINE
8
BLACK
6
CONTINUOUS
10
127.1428999999999974
20
-153.1428929999999866
11
125.6271050000000002
21
-153.1428929999999866
0
ARC
8
BLACK
10
106.6320999999999941
20
-148.3928999999999974
40
0.9999929999999999
50
89.99959893
51
180.00000000
0
ARC
8
BLACK
10
125.0827999999999918
20
-152.144299999999987
40
0.998593
50
-180.17758079
51
-90.00000000
0
LINE
8
BLACK
6
CONTINUOUS
10
124.0842129999999912
20
-152.1412049999999851
11
124.0821069999999935
21
-146.3928929999999866
0
LINE
8
BLACK
6
CONTINUOUS
10
105.6321069999999906
20
-151.1428999999999974
11
105.6321069999999906
21
-148.3928999999999974
0
LINE
8
BLACK
6
CONTINUOUS
10
107.582099999999997
20
-152.1428929999999866
11
107.2821069999999963
21
-152.1428929999999866
0
LINE
8
BLACK
6
CONTINUOUS
10
123.082099999999997
20
-144.8928929999999866
11
109.8321069999999935
21
-144.8928929999999866
0
LINE
8
BLACK
6
CONTINUOUS
10
108.5821069999999935
20
-153.1428999999999974
11
108.5821069999999935
21
-154.1428999999999974
0
ARC
8
BLACK
10
109.832099999999997
20
-145.8928999999999974
40
0.9999929999999999
50
89.99959893
51
180.00000000
0
ARC
8
BLACK
10
123.6428999999999974
20
-156.1428999999999974
40
1.0000069999999999
50
-0.32406439
51
90.00000000
0
ARC
8
BLACK
10
127.1428999999999974
20
-160.3928999999999974
40
0.999991
50
-90.00000000
51
-0.00000000
0
ARC
8
BLACK
10
107.582099999999997
20
-153.1428999999999974
40
1.0000069999999999
50
0.00000000
51
90.00000000
0
LINE
8
BLACK
6
CONTINUOUS
10
108.8321069999999935
20
-145.8928999999999974
11
108.8321069999999935
21
-146.3928999999999974
0
ARC
8
BLACK
10
127.1428999999999974
20
-154.1428999999999974
40
1.0000069999999999
50
0.32406439
51
90.00000000
0
ARC
8
BLACK
10
123.082099999999997
20
-145.8928999999999974
40
1.0000069999999999
50
0.00000000
51
90.00000000
0
ARC
8
BLACK
10
125.6428999999999974
20
-160.3928999999999974
40
0.9999929999999999
50
-180.00040107
51
-90.00000000
0
LINE
8
BLACK
6
CONTINUOUS
10
125.0827999999999918
20
-153.1428929999999866
11
125.6271050000000002
21
-153.1428929999999866
0
LINE
8
BLACK
6
CONTINUOUS
10
123.0999999999999943
20
-155.1428929999999866
11
123.6428999999999974
21
-155.1428929999999866
0
LINE
8
BLACK
6
CONTINUOUS
10
153.6500000000000057
20
-160.3928999999999974
11
153.6500000000000057
21
-154.1391590000000065
0
ARC
8
BLACK
10
135.7999999999999829
20
-154.1428999999999974
40
0.9999929999999999
50
-180.00040107
51
-90.00000000
0
LINE
8
BLACK
6
CONTINUOUS
10
134.0465360000000032
20
-147.3928929999999866
11
132.8499999999999943
21
-147.3928929999999866
0
ARC
8
BLACK
10
134.0499999999999829
20
-146.3928999999999974
40
1.
50
-90.19847318
51
-0.00000000
0
ARC
8
BLACK
10
132.8499999999999943
20
-151.1428999999999974
40
0.9999929999999999
50
-180.00040107
51
-90.00000000
0
LINE
8
BLACK
6
CONTINUOUS
10
151.1500000000000057
20
-161.3928929999999866
11
152.6534639999999854
21
-161.3928929999999866
0
LINE
8
BLACK
6
CONTINUOUS
10
150.2999999999999829
20
-145.8966409999999883
11
150.2999999999999829
21
-146.3928929999999866
0
LINE
8
BLACK
6
CONTINUOUS
10
132.8499999999999943
20
-152.1428929999999866
11
133.5
21
-152.1428929999999866
0
LINE
8
BLACK
6
CONTINUOUS
10
150.1500000000000057
20
-156.1466409999999883
11
150.1500000000000057
21
-160.3928929999999866
0
LINE
8
BLACK
6
CONTINUOUS
10
135.7999999999999829
20
-155.1428929999999866
11
147.0499999999999829
21
-155.1428929999999866
0
ARC
8
BLACK
10
132.8499999999999943
20
-148.3928999999999974
40
1.
50
90.00000000
51
180.00000000
0
ARC
8
BLACK
10
151.3007000000000062
20
-152.144299999999987
40
0.998593
50
-179.97900020
51
-90.00000000
0
LINE
8
BLACK
6
CONTINUOUS
10
150.3021070000000066
20
-152.1446660000000008
11
150.2999999999999829
21
-146.3928929999999866
0
LINE
8
BLACK
6
CONTINUOUS
10
131.8499999999999943
20
-151.1428929999999866
11
131.8499999999999943
21
-148.3928999999999974
0
LINE
8
BLACK
6
CONTINUOUS
10
133.7999999999999829
20
-152.1428929999999866
11
133.5
21
-152.1428929999999866
0
LINE
8
BLACK
6
CONTINUOUS
10
149.2999999999999829
20
-144.8928929999999866
11
136.0499999999999829
21
-144.8928929999999866
0
LINE
8
BLACK
6
CONTINUOUS
10
134.7999999999999829
20
-153.1466409999999883
11
134.7999999999999829
21
-154.1428929999999866
0
ARC
8
BLACK
10
136.0499999999999829
20
-145.8928999999999974
40
1.
50
90.00000000
51
180.00000000
0
ARC
8
BLACK
10
149.1500000000000057
20
-156.1428999999999974
40
1.0000069999999999
50
-0.21434251
51
90.00000000
0
ARC
8
BLACK
10
152.6500000000000057
20
-160.3928999999999974
40
1.
50
-89.80152682
51
-0.00000000
0
ARC
8
BLACK
10
133.7999999999999829
20
-153.1428999999999974
40
1.0000069999999999
50
-0.21434251
51
90.00000000
0
LINE
8
BLACK
6
CONTINUOUS
10
135.0499999999999829
20
-145.8928999999999974
11
135.0499999999999829
21
-146.3928999999999974
0
ARC
8
BLACK
10
152.6500000000000057
20
-154.1428999999999974
40
1.0000069999999999
50
0.21434251
51
90.00000000
0
ARC
8
BLACK
10
149.2999999999999829
20
-145.8928999999999974
40
1.0000069999999999
50
-0.21434251
51
90.00000000
0
ARC
8
BLACK
10
151.1500000000000057
20
-160.3928999999999974
40
0.9999929999999999
50
-180.00040108
51
-90.00000000
0
LINE
8
BLACK
6
CONTINUOUS
10
147.0499999999999829
20
-155.1428929999999866
11
149.1500000000000057
21
-155.1428929999999866
0
LINE
8
BLACK
6
CONTINUOUS
10
151.3007000000000062
20
-153.1428929999999866
11
152.6500000000000057
21
-153.1428929999999866
0
CIRCLE
8
BLACK
10
167.9599999999999795
20
-160.6137499999999818
40
2.8504389999999997
0
LINE
8
BLACK
6
CONTINUOUS
10
171.0250000000000057
20
-152.2249999999999943
11
171.6749999999999829
21
-152.2249999999999943
0
LINE
8
BLACK
6
CONTINUOUS
10
171.9749999999999943
20
-152.2249999999999943
11
171.6749999999999829
21
-152.2249999999999943
0
ARC
8
BLACK
10
171.0250000000000057
20
-151.2249999999999943
40
1.
50
-180.00000000
51
-90.00000000
0
LINE
8
BLACK
6
CONTINUOUS
10
172.9749999999999943
20
-153.2249999999999943
11
172.9749999999999943
21
-154.2249999999999943
0
ARC
8
BLACK
10
173.9749999999999943
20
-154.2249999999999943
40
1.0000000511999987
50
-180.00000000
51
-89.98166535
0
ARC
8
BLACK
10
171.9749999999999943
20
-153.2249999999999943
40
1.
50
0.00000000
51
90.00000000
0
ARC
8
BLACK
10
168.2249999999999943
20
-149.625
40
1.8000001755744357
50
0.00000000
51
90.83724838
0
LINE
8
BLACK
6
CONTINUOUS
10
168.1986979999999789
20
-147.825191999999987
11
167.9779309999999839
21
-147.8268060000000048
0
LINE
8
BLACK
6
CONTINUOUS
10
170.0250000000000057
20
-149.625
11
170.0250000000000057
21
-151.2249999999999943
0
ARC
8
BLACK
10
159.2489999999999952
20
-160.375
40
0.999946
50
-90.00309397
51
-0.00000000
0
ARC
8
BLACK
10
159.2489999999999952
20
-154.1248999999999967
40
0.9998999999999999
50
-0.00572992
51
90.00000000
0
ARC
8
BLACK
10
157.6491000000000042
20
-160.3747999999999934
40
1.0002
50
-179.45080676
51
-90.00000000
0
ARC
8
BLACK
10
157.6488999999999976
20
-154.125
40
0.999954
50
89.99736439
51
180.00000000
0
ARC
8
BLACK
10
174.9215999999999838
20
-134.6006999999999891
40
10.3900331174811935
50
-121.77896847
51
-93.15348940
0
ARC
8
BLACK
10
167.9599999999999795
20
-145.3736999999999853
40
2.4465703580142546
50
-307.51290303
51
-89.58119760
0
ARC
8
BLACK
10
191.7600999999999942
20
-145.3737999999999886
40
3.0510146917299497
50
87.82252012
51
125.42277975
0
ARC
8
BLACK
10
186.0053999999999803
20
-140.9856000000000051
40
3.9894459108473947
50
-90.31567366
51
-47.98471847
0
LINE
8
BLACK
6
CONTINUOUS
10
188.6756509999999878
20
-143.949624
11
189.9917159999999967
21
-142.887535999999983
0
LINE
8
BLACK
6
CONTINUOUS
10
185.9834199999999953
20
-144.9749999999999943
11
174.3500339999999937
21
-144.9749999999999943
0
ARC
8
BLACK
10
195.3499999999999943
20
-141.3499999999999943
40
0.975
50
-90.00000000
51
-0.00000000
0
ARC
8
BLACK
10
181.7224999999999966
20
-161.4001999999999839
40
6.1776783163428801
50
30.59650173
51
90.01833598
0
LINE
8
BLACK
6
CONTINUOUS
10
181.7205229999999858
20
-155.2225219999999979
11
173.9753199999999822
21
-155.2249999999999943
0
ARC
8
BLACK
10
191.7599999999999909
20
-160.6137999999999977
40
2.8599417346190812
50
-143.87523122
51
-59.76331633
0
LINE
8
BLACK
6
CONTINUOUS
10
187.0400379999999814
20
-158.2558549999999968
11
189.4499219999999866
21
-162.2998680000000036
0
LINE
8
BLACK
6
CONTINUOUS
10
211.8499999999999943
20
-155.125
11
223.0999999999999943
21
-155.125
0
LINE
8
BLACK
6
CONTINUOUS
10
225.8999999999999773
20
-156.125
11
225.8999999999999773
21
-160.375
0
ARC
8
BLACK
10
226.8999999999999773
20
-160.375
40
1.
50
-180.00000000
51
-90.00000000
0
ARC
8
BLACK
10
224.8999999999999773
20
-156.125
40
1.
50
0.00000000
51
90.00000000
0
LINE
8
BLACK
6
CONTINUOUS
10
224.8999999999999773
20
-155.125
11
223.0999999999999943
21
-155.125
0
ARC
8
BLACK
10
207.5999999999999943
20
-157.879099999999994
40
2.7540991837775195
50
90.00000000
51
119.76582895
0
LINE
8
BLACK
6
CONTINUOUS
10
193.2001899999999921
20
-163.0846540000000005
11
206.2327099999999973
21
-155.4883719999999983
0
LINE
8
BLACK
6
CONTINUOUS
10
207.5999999999999943
20
-155.125
11
211.8499999999999943
21
-155.125
0
LINE
8
BLACK
6
CONTINUOUS
10
185.5999999999999943
20
-136.0999999999999943
11
195.3249999999999886
21
-136.0999999999999943
0
LINE
8
BLACK
6
CONTINUOUS
10
191.8760230000000035
20
-142.3249999999999886
11
195.3499999999999943
21
-142.3249999999999886
0
LINE
8
BLACK
6
CONTINUOUS
10
226.8999999999999773
20
-161.375
11
233.1999999999999886
21
-161.375
0
ARC
8
BLACK
10
233.1999999999999886
20
-160.375
40
1.
50
-90.00000000
51
-0.00000000
0
ARC
8
BLACK
10
233.1999999999999886
20
-154.4249999999999829
40
1.
50
0.00000000
51
90.00000000
0
LINE
8
BLACK
6
CONTINUOUS
10
234.1999999999999886
20
-160.375
11
234.1999999999999886
21
-154.4249999999999829
0
LINE
8
BLACK
6
CONTINUOUS
10
233.1999999999999886
20
-153.4249999999999829
11
227.4749999999999943
21
-153.4249999999999829
0
ARC
8
BLACK
10
227.4749999999999943
20
-152.4249999999999829
40
1.
50
-180.00000000
51
-90.00000000
0
ARC
8
BLACK
10
225.4749999999999943
20
-143.3499999999999943
40
1.
50
0.00000000
51
90.00000000
0
LINE
8
BLACK
6
CONTINUOUS
10
225.4749999999999943
20
-142.3499999999999943
11
221.3999999999999773
21
-142.3499999999999943
0
LINE
8
BLACK
6
CONTINUOUS
10
257.4178929999999923
20
-160.3928999999999974
11
257.4178929999999923
21
-154.1376089999999976
0
LINE
8
BLACK
6
CONTINUOUS
10
249.5910529999999881
20
-155.1428929999999866
11
251.8589459999999747
21
-155.1428929999999866
0
ARC
8
BLACK
10
238.3411999999999864
20
-154.1426999999999907
40
1.0001930049990351
50
-179.45080292
51
-90.00572847
0
LINE
8
BLACK
6
CONTINUOUS
10
236.5800459999999816
20
-147.3928929999999866
11
235.3910529999999994
21
-147.3928929999999866
0
ARC
8
BLACK
10
236.5908999999999764
20
-146.392799999999994
40
1.0001529999999998
50
-90.62180615
51
-0.00000000
0
ARC
8
BLACK
10
235.3911999999999978
20
-151.1426999999999907
40
1.0001930049990351
50
-180.53774064
51
-90.00572847
0
LINE
8
BLACK
6
CONTINUOUS
10
254.9178999999999746
20
-161.3928929999999866
11
256.4178999999999746
21
-161.3928929999999866
0
LINE
8
BLACK
6
CONTINUOUS
10
252.8410529999999881
20
-145.9033919999999966
11
252.8410529999999881
21
-146.3928929999999866
0
LINE
8
BLACK
6
CONTINUOUS
10
235.3910999999999945
20
-152.1428929999999866
11
236.0410529999999767
21
-152.1428929999999866
0
LINE
8
BLACK
6
CONTINUOUS
10
253.9178929999999923
20
-156.1481909999999971
11
253.9178929999999923
21
-160.3928929999999866
0
LINE
8
BLACK
6
CONTINUOUS
10
238.3410999999999831
20
-155.1428929999999866
11
249.5910529999999881
21
-155.1428929999999866
0
LINE
8
BLACK
6
CONTINUOUS
10
255.9018370000000004
20
-153.1428929999999866
11
254.3860509999999806
21
-153.1428929999999866
0
ARC
8
BLACK
10
235.3909999999999911
20
-148.3928999999999974
40
0.9999469999999999
50
89.99696334
51
180.00000000
0
ARC
8
BLACK
10
253.8415999999999997
20
-152.1444999999999936
40
0.998393
50
-179.98473481
51
-90.00000000
0
LINE
8
BLACK
6
CONTINUOUS
10
252.8431599999999833
20
-152.1447660000000042
11
252.8410529999999881
21
-146.3928929999999866
0
LINE
8
BLACK
6
CONTINUOUS
10
234.3910529999999994
20
-151.1333129999999869
11
234.3910529999999994
21
-148.3928999999999974
0
LINE
8
BLACK
6
CONTINUOUS
10
236.3410999999999831
20
-152.1428929999999866
11
236.0410529999999767
21
-152.1428929999999866
0
LINE
8
BLACK
6
CONTINUOUS
10
251.8409999999999798
20
-144.8928929999999866
11
238.5910529999999881
21
-144.8928929999999866
0
LINE
8
BLACK
6
CONTINUOUS
10
237.3410529999999881
20
-153.1428929999999866
11
237.3410529999999881
21
-154.1522870000000012
0
ARC
8
BLACK
10
238.5909999999999798
20
-145.8928999999999974
40
0.9999469999999999
50
89.99696334
51
180.00000000
0
ARC
8
BLACK
10
252.9178999999999746
20
-156.1428999999999974
40
1.0000069999999999
50
-0.30315126
51
90.00000000
0
ARC
8
BLACK
10
256.4178999999999746
20
-160.3928999999999974
40
0.9999929999999999
50
-90.00000000
51
-0.00000000
0
ARC
8
BLACK
10
236.3410999999999831
20
-153.142799999999994
40
0.999907
50
-0.00532876
51
90.00000000
0
LINE
8
BLACK
6
CONTINUOUS
10
237.5910529999999881
20
-145.8928999999999974
11
237.5910529999999881
21
-146.392799999999994
0
ARC
8
BLACK
10
256.4178999999999746
20
-154.1428999999999974
40
1.0000069999999999
50
0.30315126
51
90.00000000
0
ARC
8
BLACK
10
251.8408999999999764
20
-145.893100000000004
40
1.0002070049989651
50
-0.58957714
51
89.99427161
0
ARC
8
BLACK
10
254.9178999999999746
20
-160.3928999999999974
40
0.9999929999999999
50
-180.00040107
51
-90.00000000
0
LINE
8
BLACK
6
CONTINUOUS
10
253.8415999999999997
20
-153.1428929999999866
11
254.3860509999999806
21
-153.1428929999999866
0
LINE
8
BLACK
6
CONTINUOUS
10
251.8589459999999747
20
-155.1428929999999866
11
252.4018370000000004
21
-155.1428929999999866
0
LINE
8
BLACK
6
CONTINUOUS
10
255.9018370000000004
20
-153.1428929999999866
11
256.4178999999999746
21
-153.1428929999999866
0
LINE
8
BLACK
6
CONTINUOUS
10
252.4018370000000004
20
-155.1428929999999866
11
252.9178999999999746
21
-155.1428929999999866
0
LINE
8
BLACK
6
CONTINUOUS
10
279.392893000000015
20
-160.375
11
279.392893000000015
21
-154.1212589999999807
0
ARC
8
BLACK
10
261.8471000000000117
20
-154.125
40
1.
50
-179.77087334
51
-90.00000000
0
LINE
8
BLACK
6
CONTINUOUS
10
260.0928579999999783
20
-147.375
11
258.8971090000000004
21
-147.375
0
ARC
8
BLACK
10
260.0971000000000117
20
-146.375
40
1.0000089999999999
50
-90.24304724
51
-0.00000000
0
ARC
8
BLACK
10
258.8970999999999663
20
-151.125
40
1.
50
-180.22912666
51
-90.00000000
0
LINE
8
BLACK
6
CONTINUOUS
10
276.8928999999999974
20
-161.375
11
278.392893000000015
21
-161.375
0
LINE
8
BLACK
6
CONTINUOUS
10
276.347108999999989
20
-145.875
11
276.347108999999989
21
-146.375
0
LINE
8
BLACK
6
CONTINUOUS
10
258.8970999999999663
20
-152.125
11
259.5471089999999776
21
-152.125
0
LINE
8
BLACK
6
CONTINUOUS
10
275.892893000000015
20
-156.1287409999999909
11
275.892893000000015
21
-160.375
0
LINE
8
BLACK
6
CONTINUOUS
10
261.8471000000000117
20
-155.125
11
273.097108999999989
21
-155.125
0
ARC
8
BLACK
10
258.8970999999999663
20
-148.375
40
0.999991
50
89.99948434
51
180.00000000
0
ARC
8
BLACK
10
277.3478000000000065
20
-152.1263999999999896
40
0.9985999999999999
50
-180.29302133
51
-90.00000000
0
LINE
8
BLACK
6
CONTINUOUS
10
276.3492139999999608
20
-152.1212929999999801
11
276.347108999999989
21
-146.375
0
LINE
8
BLACK
6
CONTINUOUS
10
257.8971090000000004
20
-151.1210010000000068
11
257.8971090000000004
21
-148.375
0
LINE
8
BLACK
6
CONTINUOUS
10
259.8471000000000117
20
-152.125
11
259.5471089999999776
21
-152.125
0
LINE
8
BLACK
6
CONTINUOUS
10
275.3471000000000117
20
-144.875
11
262.097108999999989
21
-144.875
0
LINE
8
BLACK
6
CONTINUOUS
10
260.847108999999989
20
-153.125
11
260.847108999999989
21
-154.1289989999999932
0
ARC
8
BLACK
10
262.0971000000000117
20
-145.875
40
0.999991
50
89.99948434
51
180.00000000
0
ARC
8
BLACK
10
274.8928999999999974
20
-156.125
40
1.
50
-0.21434401
51
90.00000000
0
ARC
8
BLACK
10
278.3928999999999974
20
-160.375
40
0.9999929999999999
50
-90.00040107
51
-0.00000000
0
ARC
8
BLACK
10
259.8471000000000117
20
-153.125
40
1.
50
0.00000000
51
90.00000000
0
LINE
8
BLACK
6
CONTINUOUS
10
261.097108999999989
20
-145.875
11
261.097108999999989
21
-146.375
0
ARC
8
BLACK
10
278.3928999999999974
20
-154.125
40
1.
50
0.21434401
51
90.00000000
0
ARC
8
BLACK
10
275.3471000000000117
20
-145.875
40
1.
50
0.00000000
51
90.00000000
0
ARC
8
BLACK
10
276.8928999999999974
20
-160.375
40
1.
50
-180.00000000
51
-90.00000000
0
LINE
8
BLACK
6
CONTINUOUS
10
277.3478000000000065
20
-153.125
11
277.89210700000001
21
-153.125
0
LINE
8
BLACK
6
CONTINUOUS
10
277.89210700000001
20
-153.125
11
278.3928999999999974
21
-153.125
0
LINE
8
BLACK
6
CONTINUOUS
10
273.097108999999989
20
-155.125
11
274.8928999999999974
21
-155.125
0
LINE
8
BLACK
6
CONTINUOUS
10
78.8771059999999977
20
-94.998305000000002
11
78.875
21
-89.25
0
LINE
8
BLACK
6
CONTINUOUS
10
81.3928999999999974
20
-96.
11
79.8756999999999948
21
-96.
0
LINE
8
BLACK
6
CONTINUOUS
10
82.3928930000000008
20
-103.25
11
82.3928930000000008
21
-96.9962589999999949
0
ARC
8
BLACK
10
79.8756999999999948
20
-95.0013999999999896
40
0.9985999999999999
50
-180.17757955
51
-90.00000000
0
LINE
8
BLACK
6
CONTINUOUS
10
62.625
20
-90.25
11
61.4249999999999972
21
-90.25
0
ARC
8
BLACK
10
61.4249999999999972
20
-91.25
40
1.
50
90.00000000
51
180.00000000
0
LINE
8
BLACK
6
CONTINUOUS
10
75.625
20
-98.
11
77.8928999999999974
21
-98.
0
LINE
8
BLACK
6
CONTINUOUS
10
77.875
20
-87.75
11
64.625
21
-87.75
0
LINE
8
BLACK
6
CONTINUOUS
10
79.8928999999999974
20
-104.25
11
81.3928930000000008
21
-104.25
0
LINE
8
BLACK
6
CONTINUOUS
10
78.8928930000000008
20
-99.0037409999999909
11
78.8928930000000008
21
-103.25
0
LINE
8
BLACK
6
CONTINUOUS
10
78.875
20
-88.75
11
78.875
21
-89.25
0
ARC
8
BLACK
10
64.625
20
-88.75
40
1.
50
90.00000000
51
180.00000000
0
ARC
8
BLACK
10
77.8928999999999974
20
-99.
40
1.
50
-0.21434401
51
90.00000000
0
ARC
8
BLACK
10
81.3928999999999974
20
-103.25
40
0.9999929999999999
50
-90.00040107
51
-0.00000000
0
ARC
8
BLACK
10
62.625
20
-89.25
40
1.
50
-90.00000000
51
-0.00000000
0
ARC
8
BLACK
10
77.875
20
-88.75
40
1.
50
0.00000000
51
90.00000000
0
ARC
8
BLACK
10
79.8928999999999974
20
-103.25
40
1.
50
-180.00000000
51
-90.00000000
0
LINE
8
BLACK
6
CONTINUOUS
10
63.625
20
-88.75
11
63.625
21
-89.25
0
ARC
8
BLACK
10
81.3928999999999974
20
-97.
40
1.
50
0.21434401
51
90.00000000
0
ARC
8
BLACK
10
65.375
20
-99.5
40
1.5000018037752487
50
90.00000000
51
116.98244331
0
LINE
8
BLACK
6
CONTINUOUS
10
64.6944230000000005
20
-98.1632800000000003
11
62.0078839999999971
21
-99.5
0
LINE
8
BLACK
6
CONTINUOUS
10
65.375
20
-98.
11
75.625
21
-98.
0
ARC
8
BLACK
10
58.9249999999999972
20
-92.1749999999999972
40
1.5
50
-37.15526252
51
-0.00000000
0
LINE
8
BLACK
6
CONTINUOUS
10
60.1205019999999948
20
-93.080964999999992
11
59.1499999999999986
21
-94.5499999999999972
0
LINE
8
BLACK
6
CONTINUOUS
10
60.4249999999999972
20
-91.25
11
60.4249999999999972
21
-92.1749999999999972
0
LINE
8
BLACK
6
CONTINUOUS
10
294.3499999999999659
20
-87.75
11
281.0999999999999659
21
-87.75
0
LINE
8
BLACK
6
CONTINUOUS
10
279.0999999999999659
20
-90.25
11
277.3000000000000114
21
-90.25
0
LINE
8
BLACK
6
CONTINUOUS
10
280.0999999999999659
20
-88.75
11
280.0999999999999659
21
-89.25
0
ARC
8
BLACK
10
279.0999999999999659
20
-89.25
40
1.
50
-90.00000000
51
-0.00000000
0
ARC
8
BLACK
10
294.3499999999999659
20
-88.75
40
1.
50
0.00000000
51
90.00000000
0
ARC
8
BLACK
10
281.0999999999999659
20
-88.75
40
1.
50
90.00000000
51
180.00000000
0
LINE
8
BLACK
6
CONTINUOUS
10
295.3499999999999659
20
-88.75
11
295.3499999999999659
21
-89.25
0
LINE
8
BLACK
6
CONTINUOUS
10
276.5500000000000114
20
-104.25
11
281.75
21
-104.25
0
ARC
8
BLACK
10
281.75
20
-103.25
40
1.
50
-90.00000000
51
-0.00000000
0
LINE
8
BLACK
6
CONTINUOUS
10
282.75
20
-99.
11
282.75
21
-103.25
0
ARC
8
BLACK
10
283.75
20
-99.
40
1.
50
90.00000000
51
180.00000000
0
LINE
8
BLACK
6
CONTINUOUS
10
283.75
20
-98.
11
288.7249999999999659
21
-98.
0
ARC
8
BLACK
10
288.7249999999999659
20
-99.
40
1.
50
0.00000000
51
90.00000000
0
LINE
8
BLACK
6
CONTINUOUS
10
289.7249999999999659
20
-99.
11
289.7249999999999659
21
-103.25
0
ARC
8
BLACK
10
290.7249999999999659
20
-103.25
40
1.
50
-180.00000000
51
-90.00000000
0
LINE
8
BLACK
6
CONTINUOUS
10
290.7249999999999659
20
-104.25
11
295.6499999999999773
21
-104.25
0
ARC
8
BLACK
10
295.6499999999999773
20
-103.25
40
1.
50
-90.00000000
51
-0.00000000
0
ARC
8
BLACK
10
297.6499999999999773
20
-102.3999999999999915
40
1.
50
90.00000000
51
180.00000000
0
LINE
8
BLACK
6
CONTINUOUS
10
296.6499999999999773
20
-102.3999999999999915
11
296.6499999999999773
21
-103.25
0
LINE
8
BLACK
6
CONTINUOUS
10
297.6499999999999773
20
-101.3999999999999915
11
301.6999999999999886
21
-101.3999999999999915
0
ARC
8
BLACK
10
301.6999999999999886
20
-100.3999999999999915
40
1.
50
-90.00000000
51
-0.00000000
0
ARC
8
BLACK
10
301.6999999999999886
20
-98.4749999999999943
40
1.
50
0.00000000
51
90.00000000
0
LINE
8
BLACK
6
CONTINUOUS
10
302.6999999999999886
20
-98.4749999999999943
11
302.6999999999999886
21
-100.3999999999999915
0
ARC
8
BLACK
10
296.3499999999999659
20
-96.4749999999999943
40
1.
50
-180.00000000
51
-90.00000000
0
LINE
8
BLACK
6
CONTINUOUS
10
296.3499999999999659
20
-97.4749999999999943
11
301.6999999999999886
21
-97.4749999999999943
0
LINE
8
BLACK
6
CONTINUOUS
10
295.3499999999999659
20
-96.4749999999999943
11
295.3499999999999659
21
-89.25
0
LINE
8
BLACK
6
CONTINUOUS
10
320.6999999999999886
20
-87.7249999999999943
11
307.4499999999999886
21
-87.7249999999999943
0
ARC
8
BLACK
10
320.6999999999999886
20
-88.7249999999999943
40
1.
50
0.00000000
51
90.00000000
0
LINE
8
BLACK
6
CONTINUOUS
10
321.6999999999999886
20
-88.7249999999999943
11
321.6999999999999886
21
-89.2249999999999943
0
ARC
8
BLACK
10
307.4499999999999886
20
-88.7249999999999943
40
1.
50
90.00000000
51
180.00000000
0
ARC
8
BLACK
10
305.4499999999999886
20
-89.2249999999999943
40
1.
50
-90.00000000
51
-0.00000000
0
LINE
8
BLACK
6
CONTINUOUS
10
306.4499999999999886
20
-88.7249999999999943
11
306.4499999999999886
21
-89.2249999999999943
0
ARC
8
BLACK
10
304.25
20
-91.2249999999999943
40
1.
50
90.00000000
51
180.00000000
0
LINE
8
BLACK
6
CONTINUOUS
10
305.4499999999999886
20
-90.2249999999999943
11
304.25
21
-90.2249999999999943
0
ARC
8
BLACK
10
304.25
20
-93.9749999999999943
40
1.
50
-180.00000000
51
-90.00000000
0
LINE
8
BLACK
6
CONTINUOUS
10
303.25
20
-93.9749999999999943
11
303.25
21
-91.2249999999999943
0
LINE
8
BLACK
6
CONTINUOUS
10
304.5679000000000087
20
-94.9749999999999943
11
304.25
21
-94.9749999999999943
0
LINE
8
BLACK
6
CONTINUOUS
10
305.5678929999999696
20
-95.9787409999999994
11
305.5678929999999696
21
-102.9249999999999972
0
ARC
8
BLACK
10
306.5679000000000087
20
-102.9249999999999972
40
1.
50
-180.00000000
51
-90.00000000
0
ARC
8
BLACK
10
312.1999999999999886
20
-103.9499999999999886
40
0.9500007776107343
50
90.00000000
51
114.07032100
0
ARC
8
BLACK
10
309.8999999999999773
20
-103.2249999999999943
40
0.6999983872624279
50
-90.00000000
51
-61.82356667
0
LINE
8
BLACK
6
CONTINUOUS
10
306.5679000000000087
20
-103.9249999999999972
11
309.8999999999999773
21
-103.9249999999999972
0
LINE
8
BLACK
6
CONTINUOUS
10
310.2305309999999849
20
-103.8420469999999938
11
311.8125349999999685
21
-103.0826059999999984
0
ARC
8
BLACK
10
321.3249999999999886
20
-102.
40
0.9999992927862499
50
-90.00000000
51
-55.22303403
0
LINE
8
BLACK
6
CONTINUOUS
10
312.1999999999999886
20
-103.
11
321.3249999999999886
21
-103.
0
LINE
8
BLACK
6
CONTINUOUS
10
321.8953829999999812
20
-102.8213779999999957
11
324.8499999999999659
21
-101.0499999999999972
0
ARC
8
BLACK
10
322.25
20
-92.5
40
0.5499995680907395
50
-180.00000000
51
-115.81840867
0
LINE
8
BLACK
6
CONTINUOUS
10
321.6999999999999886
20
-89.2249999999999943
11
321.6999999999999886
21
-92.5
0
LINE
8
BLACK
6
CONTINUOUS
10
322.0104640000000131
20
-92.9950979999999987
11
324.8499999999999659
21
-94.4499999999999886
0
ARC
8
BLACK
10
285.5749999999999886
20
-154.125
40
1.
50
-180.00000000
51
-90.00000000
0
LINE
8
BLACK
6
CONTINUOUS
10
281.625
20
-151.125
11
281.625
21
-148.375
0
ARC
8
BLACK
10
283.5749999999999886
20
-153.125
40
1.
50
0.00000000
51
90.00000000
0
LINE
8
BLACK
6
CONTINUOUS
10
283.5749999999999886
20
-152.125
11
283.2749999999999773
21
-152.125
0
LINE
8
BLACK
6
CONTINUOUS
10
284.5749999999999886
20
-153.125
11
284.5749999999999886
21
-154.125
0
LINE
8
BLACK
6
CONTINUOUS
10
282.625
20
-152.125
11
283.2749999999999773
21
-152.125
0
LINE
8
BLACK
6
CONTINUOUS
10
285.5749999999999886
20
-155.125
11
296.8249999999999886
21
-155.125
0
ARC
8
BLACK
10
282.625
20
-151.125
40
1.
50
-180.00000000
51
-90.00000000
0
LINE
8
BLACK
6
CONTINUOUS
10
303.3249999999999886
20
-113.0499999999999972
11
303.3249999999999886
21
-110.2999999999999972
0
LINE
8
BLACK
6
CONTINUOUS
10
320.7749999999999773
20
-106.7999999999999972
11
307.5249999999999773
21
-106.7999999999999972
0
LINE
8
BLACK
6
CONTINUOUS
10
306.5249999999999773
20
-107.7999999999999972
11
306.5249999999999773
21
-108.2999999999999972
0
ARC
8
BLACK
10
307.5249999999999773
20
-107.7999999999999972
40
1.
50
90.00000000
51
180.00000000
0
ARC
8
BLACK
10
304.3249999999999886
20
-110.2999999999999972
40
1.
50
90.00000000
51
180.00000000
0
LINE
8
BLACK
6
CONTINUOUS
10
305.5249999999999773
20
-109.2999999999999972
11
304.3249999999999886
21
-109.2999999999999972
0
ARC
8
BLACK
10
305.5249999999999773
20
-108.2999999999999972
40
1.
50
-90.00000000
51
-0.00000000
0
ARC
8
BLACK
10
320.7749999999999773
20
-107.7999999999999972
40
1.
50
0.00000000
51
90.00000000
0
ARC
8
BLACK
10
281.0999999999999659
20
-126.8499999999999943
40
1.
50
90.00000000
51
180.00000000
0
ARC
8
BLACK
10
279.0999999999999659
20
-127.3499999999999943
40
1.
50
-90.00000000
51
-0.00000000
0
LINE
8
BLACK
6
CONTINUOUS
10
294.3499999999999659
20
-125.8499999999999943
11
281.0999999999999659
21
-125.8499999999999943
0
LINE
8
BLACK
6
CONTINUOUS
10
279.0999999999999659
20
-128.3499999999999943
11
277.3000000000000114
21
-128.3499999999999943
0
LINE
8
BLACK
6
CONTINUOUS
10
280.0999999999999659
20
-126.8499999999999943
11
280.0999999999999659
21
-127.3499999999999943
0
ARC
8
BLACK
10
302.5749999999999886
20
-156.125
40
1.
50
0.00000000
51
90.00000000
0
LINE
8
BLACK
6
CONTINUOUS
10
302.5749999999999886
20
-155.125
11
296.8249999999999886
21
-155.125
0
ARC
8
BLACK
10
304.5749999999999886
20
-156.5
40
1.0000001647379864
50
-180.00000000
51
-90.03288777
0
LINE
8
BLACK
6
CONTINUOUS
10
303.5749999999999886
20
-156.125
11
303.5749999999999886
21
-156.5
0
LINE
8
BLACK
6
CONTINUOUS
10
304.5744259999999599
20
-157.5
11
321.99211600000001
21
-157.5099999999999909
0
LINE
8
BLACK
6
CONTINUOUS
10
327.6999999999999886
20
-141.2243929999999921
11
327.7078839999999786
21
-154.2099999999999795
0
ARC
8
BLACK
10
305.625
20
-141.2249999999999943
40
1.
50
90.00000000
51
180.00000000
0
ARC
8
BLACK
10
303.625
20
-142.0250000000000057
40
1.
50
-90.00000000
51
-0.00000000
0
ARC
8
BLACK
10
298.5999999999999659
20
-142.0250000000000057
40
1.
50
-180.00000000
51
-90.00000000
0
ARC
8
BLACK
10
298.5999999999999659
20
-137.1500000000000057
40
1.
50
90.00000000
51
180.00000000
0
ARC
8
BLACK
10
321.
20
-135.1500000000000057
40
1.0000001934419813
50
-90.00000000
51
-0.03563797
0
ARC
8
BLACK
10
323.0070999999999799
20
-123.7320999999999884
40
0.9999931934433353
50
89.99025965
51
179.96436178
0
LINE
8
BLACK
6
CONTINUOUS
10
326.6999999999999886
20
-140.2249999999999943
11
305.625
21
-140.2249999999999943
0
LINE
8
BLACK
6
CONTINUOUS
10
304.625
20
-141.2249999999999943
11
304.625
21
-142.0250000000000057
0
LINE
8
BLACK
6
CONTINUOUS
10
303.625
20
-143.0250000000000057
11
298.5999999999999659
21
-143.0250000000000057
0
LINE
8
BLACK
6
CONTINUOUS
10
297.5999999999999659
20
-142.0250000000000057
11
297.5999999999999659
21
-137.1500000000000057
0
LINE
8
BLACK
6
CONTINUOUS
10
298.5999999999999659
20
-136.1500000000000057
11
321.
21
-136.1500000000000057
0
LINE
8
BLACK
6
CONTINUOUS
10
322.
20
-135.1506219999999985
11
322.0071069999999622
21
-123.7314779999999956
0
LINE
8
BLACK
6
CONTINUOUS
10
327.6210889999999836
20
-122.73289299999999
11
323.0072700000000054
21
-122.7321069999999992
0
ARC
8
BLACK
10
327.6299999999999955
20
-112.4200000000000017
40
1.0000001770124842
50
-0.03076783
51
90.03409098
0
LINE
8
BLACK
6
CONTINUOUS
10
328.6299999999999955
20
-112.4205369999999959
11
328.625
21
-121.733436999999995
0
ARC
8
BLACK
10
322.7724999999999795
20
-110.4253999999999962
40
0.9974911768617304
50
-180.14399993
51
-89.96588071
0
LINE
8
BLACK
6
CONTINUOUS
10
327.6294049999999629
20
-111.4200000000000017
11
322.7730939999999578
21
-111.4228909999999928
0
LINE
8
BLACK
6
CONTINUOUS
10
321.7749999999999773
20
-110.422893000000002
11
321.7749999999999773
21
-107.7999999999999972
0
ARC
8
BLACK
10
302.3229000000000042
20
-124.8528999999999911
40
0.999993016020612
50
-90.02079851
51
-0.01025602
0
LINE
8
BLACK
6
CONTINUOUS
10
302.3225370000000112
20
-125.8528929999999946
11
294.3499999999999659
21
-125.8499999999999943
0
LINE
8
BLACK
6
CONTINUOUS
10
303.322892999999965
20
-124.8530789999999939
11
303.3249999999999886
21
-113.0499999999999972
0
ARC
8
BLACK
10
280.6229000000000156
20
-143.3470999999999833
40
0.9999932520517326
50
0.02400710
51
90.04068028
0
LINE
8
BLACK
6
CONTINUOUS
10
284.9250000000000114
20
-117.0499999999999972
11
283.9250000000000114
21
-117.0499999999999972
0
LINE
8
BLACK
6
CONTINUOUS
10
281.9250000000000114
20
-123.2999999999999972
11
276.5500000000000114
21
-123.2999999999999972
0
CIRCLE
8
BLACK
10
201.1799999999999784
20
-146.2999999999999829
40
1.5999999999999999
0
ARC
8
BLACK
10
88.5999999999999943
20
-127.3499999999999943
40
1.
50
-90.00000000
51
-0.00000000
0
LINE
8
BLACK
6
CONTINUOUS
10
88.5999999999999943
20
-128.3499999999999943
11
87.3999999999999915
21
-128.3499999999999943
0
ARC
8
BLACK
10
185.8499999999999943
20
-126.8499999999999943
40
1.
50
90.00000000
51
180.00000000
  0
ENDSEC
  0
EOF
